<svg enable-background="new 0 0 512 512" viewBox="0 0 512 512" xmlns="http://www.w3.org/2000/svg"><path d="m512 256c0 116.827-78.255 215.368-185.212 246.079-10.537 3.031-21.362 5.396-32.41 7.051-12.513 1.888-25.326 2.865-38.372 2.865-20.341 0-40.138-2.376-59.102-6.862-10.77-2.543-21.285-5.763-31.477-9.626-96.687-36.575-165.427-130.008-165.427-239.507 0-141.388 114.618-255.994 256.006-255.994 68.273 0 130.318 26.736 176.218 70.316 2.065 1.954 4.097 3.953 6.096 5.985 18.265 18.509 33.72 39.805 45.69 63.177 1.033 2.021 2.043 4.053 3.02 6.107 16.01 33.431 24.97 70.871 24.97 110.409z" fill="#42577f"/><circle cx="464.745" cy="105.291" fill="#52c3dd" r="39.227"/><path d="m95.709 184.618 3.864 9.515-20.308 8.239-18.531-45.69 20.308-8.238 3.864 9.515z" fill="#d6d0c4"/><path d="m215.634 104.93 10.815 26.659-130.74 53.029-10.803-26.659z" fill="#a35895"/><g fill="#c1bbb0"><path d="m157.157 216.157 10.815 26.659-130.74 53.029-10.803-26.659z"/><path d="m153.736 143.563h72.44v11.104h-72.44z" transform="matrix(-.3759 -.9267 .9267 -.3759 123.1776 381.1903)"/><path d="m97.884 166.215h72.44v11.104h-72.44z" transform="matrix(-.3759 -.9267 .9267 -.3759 25.3413 360.601)"/></g><path d="m270.895 281.215v25.726h-51.963v-25.726c0-14.356 11.647-25.981 25.981-25.981 14.357 0 25.982 11.625 25.982 25.981z" fill="#a35895"/><path d="m326.788 502.079c-10.537 3.031-21.362 5.396-32.41 7.051l-49.465-136.824v-32.488h23.217l5.085 14.068z" fill="#d6d0c4"/><path d="m244.913 339.818v32.488l-48.01 132.827c-10.77-2.543-21.285-5.763-31.477-9.626l51.197-141.621 5.085-14.068z" fill="#d6d0c4"/><path d="m292.013 306.941v32.877h-23.883-23.217-23.205-23.872v-32.877h21.096 51.963z" fill="#e9e4d8"/><path d="m273.215 353.885h-56.592l5.085-14.067h46.422z" fill="#c1bbb0"/><path d="m244.913 231.995v23.239c-14.334 0-25.981 11.625-25.981 25.981l-22.317-16.533-11.425-8.461z" fill="#d6d0c4"/><path d="m72.015 228.22 25.737 63.466-38.539 6.184-19.153-47.233z" fill="#d6d0c4"/><path d="m498.665 140.871-56.637 22.973-4.108-10.126-10.182-25.105-15.555-38.361-4.109-10.137 56.627-22.973 19.674 48.499z" fill="#a35895"/><path d="m498.665 140.871-56.637 22.973-4.108-10.126-10.182-25.105 56.637-22.972z" fill="#8e4d85"/><path d="m437.92 153.718-193.007 78.277-59.723 24.227-87.438 35.464-6.917-17.055-18.82-46.411 340.168-137.968 18.819 46.411z" fill="#e9e4d8"/><path d="m437.92 153.718-193.007 78.277-59.723 24.227-87.438 35.464-6.917-17.055 340.167-137.968z" fill="#d8d2c5"/><path d="m244.913 231.995v16.544l-1.521.51-46.777 15.634-11.425-8.461z" fill="#c1bbb0"/><circle cx="244.902" cy="283.131" fill="#e9e4d8" r="8.883"/><path d="m452.531 252.969h-16.655c-3.373 0-6.107-2.734-6.107-6.107v-16.655c0-3.373-2.734-6.107-6.107-6.107-3.373 0-6.107 2.734-6.107 6.107v16.655c0 3.373-2.734 6.107-6.107 6.107h-16.655c-3.373 0-6.107 2.734-6.107 6.107 0 3.373 2.734 6.107 6.107 6.107h16.655c3.373 0 6.107 2.734 6.107 6.107v16.655c0 3.373 2.734 6.107 6.107 6.107 3.373 0 6.107-2.734 6.107-6.107v-16.655c0-3.373 2.734-6.107 6.107-6.107h16.655c3.373 0 6.107-2.734 6.107-6.107 0-3.372-2.733-6.107-6.107-6.107z" fill="#f0a037"/><path d="m138.057 338.208h-9.782c-1.981 0-3.586-1.606-3.586-3.586v-9.782c0-1.981-1.606-3.586-3.586-3.586-1.981 0-3.586 1.606-3.586 3.586v9.782c0 1.981-1.606 3.586-3.586 3.586h-9.782c-1.981 0-3.586 1.606-3.586 3.586 0 1.981 1.606 3.586 3.586 3.586h9.782c1.981 0 3.586 1.606 3.586 3.586v9.782c0 1.981 1.606 3.586 3.586 3.586 1.981 0 3.586-1.606 3.586-3.586v-9.782c0-1.981 1.606-3.586 3.586-3.586h9.782c1.981 0 3.586-1.606 3.586-3.586 0-1.981-1.606-3.586-3.586-3.586z" fill="#f0a037"/><path d="m307.08 67.035h-9.782c-1.981 0-3.586-1.606-3.586-3.586v-9.782c0-1.981-1.606-3.586-3.586-3.586-1.981 0-3.586 1.606-3.586 3.586v9.782c0 1.981-1.606 3.586-3.586 3.586h-9.782c-1.981 0-3.586 1.606-3.586 3.586 0 1.981 1.606 3.586 3.586 3.586h9.782c1.981 0 3.586 1.606 3.586 3.586v9.782c0 1.981 1.606 3.586 3.586 3.586 1.981 0 3.586-1.606 3.586-3.586v-9.782c0-1.981 1.606-3.586 3.586-3.586h9.782c1.981 0 3.586-1.606 3.586-3.586 0-1.98-1.605-3.586-3.586-3.586z" fill="#f0a037"/></svg>