<?xml version="1.0" encoding="iso-8859-1"?>
<!-- Generator: Adobe Illustrator 19.0.0, SVG Export Plug-In . SVG Version: 6.00 Build 0)  -->
<svg xmlns="http://www.w3.org/2000/svg" xmlns:xlink="http://www.w3.org/1999/xlink" version="1.1" id="Layer_1" x="0px" y="0px" viewBox="0 0 512 512" style="enable-background:new 0 0 512 512;" xml:space="preserve">
<path style="fill:#42577F;" d="M512,256c0,67.729-26.292,129.307-69.239,175.086c-9.193,9.804-19.153,18.886-29.779,27.136  c-15.578,12.114-32.599,22.462-50.753,30.756c-32.355,14.778-68.329,23.017-106.224,23.017c-52.807,0-101.871-15.989-142.631-43.391  c-4.908-3.298-9.693-6.762-14.345-10.381c-13.513-10.492-25.948-22.317-37.096-35.275c-4.808-5.574-9.371-11.347-13.668-17.332  c-1.987-2.731-3.897-5.496-5.763-8.305c-0.466-0.711-0.933-1.421-1.399-2.132C15.1,355.118,0,307.319,0,256  C0,114.612,114.618,0.006,256.006,0.006c38.073,0,74.191,8.316,106.668,23.228c5.096,2.332,10.093,4.83,14.989,7.484  c9.371,5.063,18.398,10.703,27.014,16.877c16.899,12.058,32.255,26.126,45.745,41.859c6.917,8.061,13.335,16.566,19.208,25.448  c3.076,4.63,5.996,9.371,8.76,14.212C499.775,166.509,512,209.833,512,256z"/>
<path style="fill:#F0A037;" d="M442.761,422.947v8.139c-9.193,9.804-19.153,18.886-29.779,27.136H99.029  c-13.513-10.493-25.948-22.317-37.096-35.275H442.761z"/>
<path style="fill:#4D4D4D;" d="M42.503,397.31c1.865,2.809,3.775,5.574,5.763,8.305c4.297,5.985,8.86,11.758,13.668,17.332h53.373  v-17.332v-8.305V186.894v-8.316v-17.321H41.104v17.321v8.316v208.284L42.503,397.31z"/>
<rect x="242.626" y="161.262" style="fill:#EB305B;" width="25.951" height="261.679"/>
<rect x="132.228" y="236.186" style="fill:#55C6A1;" width="60.612" height="186.766"/>
<rect x="282.653" y="378.151" style="fill:#E9E4D8;" width="138.989" height="44.79"/>
<g>
	<rect x="41.104" y="178.583" style="fill:#F0A037;" width="74.209" height="8.306"/>
	<path style="fill:#F0A037;" d="M115.306,397.31v8.305H48.265c-1.987-2.731-3.897-5.496-5.763-8.305H115.306z"/>
</g>
<g>
	<rect x="53.806" y="202.577" style="fill:#D8D2C5;" width="48.802" height="4.747"/>
	<rect x="53.806" y="217.333" style="fill:#D8D2C5;" width="48.802" height="4.747"/>
	<rect x="53.806" y="380.505" style="fill:#D8D2C5;" width="48.802" height="4.747"/>
</g>
<g>
	<rect x="132.228" y="257.749" style="fill:#3FAA83;" width="60.612" height="4.747"/>
	<rect x="132.228" y="270.773" style="fill:#3FAA83;" width="60.612" height="4.747"/>
	<rect x="132.228" y="383.603" style="fill:#3FAA83;" width="60.612" height="4.747"/>
	<rect x="132.228" y="396.627" style="fill:#3FAA83;" width="60.612" height="4.747"/>
</g>
<g>
	<rect x="151.325" y="286.239" style="fill:#42577F;" width="5.932" height="86.638"/>
	<rect x="167.824" y="286.239" style="fill:#42577F;" width="5.932" height="86.638"/>
</g>
<g>
	<rect x="242.626" y="186.911" style="fill:#F0A037;" width="25.951" height="8.306"/>
	<rect x="242.626" y="203.81" style="fill:#F0A037;" width="25.951" height="8.306"/>
	<rect x="242.626" y="220.709" style="fill:#F0A037;" width="25.951" height="8.306"/>
</g>
<rect x="207.925" y="160.683" transform="matrix(-0.9978 -0.0669 0.0669 -0.9978 421.8054 597.1808)" style="fill:#778EB2;" width="25.952" height="261.69"/>
<g>
	
		<rect x="214.685" y="186.554" transform="matrix(-0.9978 -0.0669 0.0669 -0.9978 442.0542 396.2182)" style="fill:#F0A037;" width="25.952" height="8.307"/>
	
		<rect x="213.553" y="203.421" transform="matrix(-0.9978 -0.0669 0.0669 -0.9978 438.6657 429.8369)" style="fill:#F0A037;" width="25.952" height="8.307"/>
	
		<rect x="212.422" y="220.281" transform="matrix(-0.9978 -0.0669 0.0669 -0.9978 435.2768 463.4445)" style="fill:#F0A037;" width="25.952" height="8.307"/>
</g>
<rect x="299.641" y="331.74" style="fill:#778EB2;" width="138.989" height="44.79"/>
<rect x="334.671" y="343.11" style="fill:#52C3DD;" width="68.94" height="22.04"/>
<g>
	<rect x="319.804" y="331.74" style="fill:#32AACE;" width="5.932" height="44.79"/>
	<rect x="412.527" y="331.74" style="fill:#32AACE;" width="5.932" height="44.79"/>
</g>
<g>
	<rect x="282.653" y="392.286" style="fill:#D8D2C5;" width="138.989" height="2.373"/>
	<rect x="282.653" y="382.848" style="fill:#D8D2C5;" width="138.989" height="2.373"/>
	<rect x="282.653" y="387.567" style="fill:#D8D2C5;" width="138.989" height="2.373"/>
	<rect x="282.653" y="397.005" style="fill:#D8D2C5;" width="138.989" height="2.373"/>
	<rect x="282.653" y="406.442" style="fill:#D8D2C5;" width="138.989" height="2.373"/>
	<rect x="282.653" y="401.723" style="fill:#D8D2C5;" width="138.989" height="2.373"/>
	<rect x="282.653" y="411.161" style="fill:#D8D2C5;" width="138.989" height="2.373"/>
	<rect x="282.653" y="415.88" style="fill:#D8D2C5;" width="138.989" height="2.373"/>
</g>
<g>
	<rect x="277.823" y="419.533" style="fill:#EB305B;" width="149.515" height="3.408"/>
	<rect x="277.823" y="376.519" style="fill:#EB305B;" width="149.515" height="3.408"/>
</g>
<path style="fill:#E9E4D8;" d="M433.324,310.749c0,0.772-0.023,1.554-0.071,2.349c-0.036,0.783-0.095,1.578-0.19,2.373  c-0.071,0.783-0.178,1.567-0.309,2.337c-0.131,0.795-0.284,1.59-0.463,2.373c-0.178,0.783-0.392,1.578-0.628,2.349  c-0.238,0.807-0.522,1.59-0.818,2.373c-0.415,1.056-0.89,2.089-1.436,3.109l-133.68,1.352c0.854-1.448,1.613-2.942,2.278-4.461  c0.368-0.783,0.688-1.578,0.985-2.373c0.296-0.772,0.557-1.567,0.807-2.349c0.249-0.783,0.474-1.578,0.665-2.373  c0.202-0.772,0.38-1.554,0.534-2.337s0.284-1.578,0.392-2.373c0.107-0.783,0.202-1.567,0.261-2.349  c0.071-0.783,0.119-1.578,0.142-2.373c0.023-0.783,0.023-1.554,0.012-2.337c-0.012-0.795-0.048-1.59-0.119-2.373  c-0.048-0.783-0.131-1.567-0.238-2.349c-0.094-0.795-0.213-1.59-0.367-2.373c-0.142-0.795-0.309-1.578-0.499-2.349  c-0.19-0.795-0.403-1.59-0.641-2.373c-0.225-0.783-0.486-1.567-0.772-2.337c-0.284-0.795-0.593-1.59-0.937-2.373  c-0.724-1.685-1.554-3.334-2.492-4.936h128.032c0,0,3.797,0.261,5.803,4.936c0.119,0.284,0.238,0.593,0.344,0.914  c0.142,0.415,0.296,0.902,0.475,1.459c0.202,0.676,0.427,1.471,0.664,2.337c0.19,0.736,0.392,1.531,0.582,2.373  c0.178,0.736,0.344,1.531,0.499,2.349c0.154,0.759,0.296,1.554,0.427,2.373c0.119,0.759,0.238,1.542,0.332,2.349  c0.095,0.772,0.178,1.567,0.238,2.373c0.059,0.759,0.119,1.542,0.142,2.337C433.312,309.159,433.335,309.941,433.324,310.749z"/>
<g>
	<path style="fill:#D8D2C5;" d="M432.565,301.315H301.447c-0.094-0.795-0.213-1.59-0.367-2.373h131.057   C432.292,299.701,432.434,300.496,432.565,301.315z"/>
	<path style="fill:#D8D2C5;" d="M430.393,291.881H299.169c-0.284-0.795-0.593-1.59-0.937-2.373h131.343   c0.119,0.284,0.238,0.593,0.344,0.914C430.061,290.837,430.215,291.324,430.393,291.881z"/>
	<path style="fill:#D8D2C5;" d="M431.639,296.592H300.581c-0.19-0.795-0.403-1.59-0.641-2.373h131.117   C431.247,294.954,431.449,295.749,431.639,296.592z"/>
	<path style="fill:#D8D2C5;" d="M433.134,306.037H301.803c-0.012-0.795-0.048-1.59-0.119-2.373h131.212   C432.991,304.435,433.074,305.23,433.134,306.037z"/>
	<path style="fill:#D8D2C5;" d="M433.252,313.098H301.387c-0.107,0.795-0.238,1.59-0.392,2.373h132.067L433.252,313.098z"/>
	<path style="fill:#D8D2C5;" d="M433.276,308.375H301.792c-0.023,0.795-0.071,1.59-0.142,2.373h131.675L433.276,308.375z"/>
	<path style="fill:#D8D2C5;" d="M432.755,317.808c-0.131,0.795-0.284,1.59-0.463,2.373H299.797c0.249-0.783,0.474-1.578,0.665-2.373   H432.755z"/>
	<path style="fill:#D8D2C5;" d="M431.662,322.531c-0.238,0.807-0.522,1.59-0.818,2.373H298.007c0.367-0.783,0.688-1.578,0.985-2.373   H431.662z"/>
</g>
<path style="fill:#F0A037;" d="M427.819,331.736c-0.046,0-0.091-0.001-0.137-0.004H288.826v-4.747h137.613  c6.802-12.469,6.804-27.574,0.006-40.04H288.826v-4.747h138.993c0.123,0,0.245,0.01,0.366,0.029c0.704,0.11,1.329,0.531,1.69,1.144  c8.554,14.555,8.551,32.639-0.01,47.194C429.431,331.303,428.645,331.736,427.819,331.736z"/>
<circle style="fill:#A35895;" cx="401.635" cy="123.645" r="101.438"/>
<circle style="fill:#7F2B6F;" cx="401.635" cy="123.645" r="92.933"/>
<path style="fill:#E9E4D8;" d="M482.521,123.65c0,44.668-36.219,80.887-80.887,80.887c-11.647,0-22.706-2.465-32.71-6.895  c-28.38-12.558-48.176-40.96-48.176-73.991c0-44.679,36.206-80.898,80.885-80.898c11.458,0,22.351,2.376,32.22,6.673  C462.491,61.883,482.521,90.43,482.521,123.65"/>
<g>
	
		<rect x="366.364" y="66.72" transform="matrix(-0.5 -0.866 0.866 -0.5 500.0886 425.4939)" style="fill:#66C3D3;" width="13.016" height="3.331"/>
	<polyline style="fill:#66C3D3;" points="438.474,185.362 431.966,174.09 434.85,172.424 441.358,183.696 438.474,185.362  "/>
	
		<rect x="343.002" y="90.073" transform="matrix(-0.866 -0.5 0.5 -0.866 606.3226 345.9437)" style="fill:#66C3D3;" width="13.016" height="3.331"/>
	<polyline style="fill:#66C3D3;" points="464.815,160.24 453.543,153.731 455.208,150.846 466.48,157.354 464.815,160.24  "/>
	
		<rect x="347.857" y="149.029" transform="matrix(-0.5 -0.866 0.866 -0.5 389.5897 536.0011)" style="fill:#66C3D3;" width="3.331" height="13.016"/>
	<polyline style="fill:#66C3D3;" points="455.208,96.446 453.543,93.561 464.815,87.053 466.48,89.938 455.208,96.446  "/>
	
		<rect x="371.193" y="172.402" transform="matrix(-0.866 -0.5001 0.5001 -0.866 606.2748 520.3042)" style="fill:#66C3D3;" width="3.331" height="13.017"/>
	<polyline style="fill:#66C3D3;" points="434.85,74.869 431.966,73.203 438.474,61.93 441.358,63.597 434.85,74.869  "/>
</g>
<g>
	<polyline style="fill:#5F1750;" points="399.71,120.314 431.169,123.645 399.71,126.976 399.71,120.314  "/>
	<polyline style="fill:#5F1750;" points="398.304,121.209 401.635,83.391 404.966,121.209 398.304,121.209  "/>
</g>
<path style="fill:#7F2B6F;" d="M408.801,123.646c0-3.958-3.21-7.167-7.168-7.167s-7.167,3.209-7.167,7.167  c0,3.958,3.209,7.168,7.167,7.168S408.801,127.604,408.801,123.646"/>
<g>
	<polygon style="fill:#299CB7;" points="391.979,69.918 391.979,55.182 388.019,57.051 387.066,54.927 394.799,51.283    394.799,69.918 399.173,69.918 399.173,72.39 387.575,72.39 387.575,69.918  "/>
	<path style="fill:#299CB7;" d="M404.696,57.084l-2.407-0.919c0.792-2.44,2.85-4.881,6.685-4.881c3.551,0,6.464,2.599,6.464,6.053   c0,3.01-1.995,5.387-4.31,7.987l-4.088,4.596h9.159v2.472h-13.69v-1.205l6.369-7.099c2.916-3.264,3.613-4.785,3.613-6.719   c0-2.155-1.584-3.803-3.644-3.803C406.629,53.565,405.457,55.086,404.696,57.084z"/>
	<path style="fill:#299CB7;" d="M463.753,134.199c-3.073,0-5.767-1.584-6.813-4.468l2.504-1.015   c0.666,1.997,2.314,3.232,4.247,3.232c2.534,0,4.118-1.87,4.118-4.215c0-1.838-1.014-3.392-3.104-4.088   c-0.696-0.222-1.489-0.349-2.725-0.349h-1.047l-0.127-0.349l5.292-7.384h-8.587v-2.473h12.709v0.761l-5.61,7.701   c4.122,0.412,6.086,3.295,6.086,6.117C470.695,131.157,468.065,134.199,463.753,134.199"/>
	<path style="fill:#299CB7;" d="M342.854,126.403c-0.601,0.159-1.202,0.222-1.902,0.222c-3.422,0-6.591-2.726-6.591-6.719   c0-3.898,2.882-6.814,7.099-6.814c4.151,0,7.068,2.789,7.068,6.814c0,1.774-0.444,3.263-2.19,5.958l-5.354,8.335h-3.424   L342.854,126.403z M345.675,119.875c0-2.535-1.584-4.532-4.245-4.532c-2.727,0-4.216,2.092-4.216,4.5   c0,2.695,1.648,4.596,4.216,4.596C344.09,124.439,345.675,122.442,345.675,119.875z"/>
	<path style="fill:#299CB7;" d="M400.238,182.916c0.571-0.159,1.175-0.222,1.871-0.222c3.422,0,6.592,2.726,6.592,6.719   c0,3.898-2.883,6.814-7.1,6.814c-4.118,0-7.034-2.789-7.034-6.814c0-1.774,0.443-3.263,2.186-5.958l5.326-8.335h3.421   L400.238,182.916 M397.418,189.444c0,2.535,1.584,4.531,4.216,4.531c2.726,0,4.215-2.092,4.215-4.499   c0-2.695-1.649-4.596-4.215-4.596C399.002,184.881,397.418,186.876,397.418,189.444"/>
</g>
<path style="fill:#F3F0EA;" d="M401.6,196.226c-4.118,0-7.034-2.789-7.034-6.814c0-1.774,0.443-3.263,2.186-5.958l5.326-8.335h3.421  l-5.262,7.796c0.571-0.159,1.175-0.222,1.871-0.222c3.422,0,6.592,2.726,6.592,6.719C408.701,193.31,405.817,196.226,401.6,196.226   M438.474,185.362l-6.508-11.272l2.885-1.665l6.508,11.272L438.474,185.362 M464.815,160.24l-11.272-6.508l1.665-2.885l11.272,6.508  L464.815,160.24 M457.51,115.565v-2.473h12.709v0.761l-5.61,7.701c4.121,0.412,6.086,3.295,6.086,6.117  c0,3.485-2.629,6.528-6.942,6.528c-3.073,0-5.767-1.584-6.813-4.468l2.504-1.015c0.666,1.997,2.314,3.232,4.247,3.232  c2.534,0,4.118-1.87,4.118-4.215c0-1.838-1.014-3.392-3.104-4.088c-0.696-0.222-1.489-0.349-2.725-0.349h-1.047l-0.127-0.349  l5.292-7.384h-8.587 M455.208,96.446l-1.665-2.885l11.272-6.508l1.665,2.885L455.208,96.446 M434.85,74.869l-2.885-1.665  l6.508-11.272l2.885,1.665L434.85,74.869 M433.856,49.426l-29.318,66.923l0.068,0.773c1.752,0.799,3.126,2.284,3.778,4.11  l22.785,2.413l-22.784,2.413c-0.99,2.772-3.64,4.757-6.753,4.757c-1.118,0-2.176-0.256-3.12-0.713l-29.589,67.541  c10.004,4.43,21.063,6.895,32.71,6.895c44.667,0,80.887-36.219,80.887-80.887C482.521,90.43,462.491,61.883,433.856,49.426  L433.856,49.426"/>
<g>
	<polyline style="fill:#ACDFE7;" points="434.85,172.424 431.966,174.09 438.474,185.362 441.358,183.696 434.85,172.424  "/>
	<polyline style="fill:#ACDFE7;" points="455.208,150.846 453.543,153.731 464.815,160.24 466.48,157.354 455.208,150.846  "/>
	<polyline style="fill:#ACDFE7;" points="464.815,87.053 453.543,93.561 455.208,96.446 466.48,89.938 464.815,87.053  "/>
	<polyline style="fill:#ACDFE7;" points="438.474,61.93 431.966,73.203 434.85,74.869 441.358,63.597 438.474,61.93  "/>
</g>
<g>
	<path style="fill:#A881A0;" d="M408.384,121.233c0.27,0.754,0.416,1.567,0.416,2.414c0,0.846-0.147,1.658-0.416,2.412l22.784-2.413   L408.384,121.233"/>
	<path style="fill:#A881A0;" d="M404.538,116.349l-0.274,0.627c0.115,0.046,0.23,0.094,0.343,0.145L404.538,116.349"/>
</g>
<path style="fill:#BA8CB1;" d="M404.263,116.976l-5.749,13.125c0.943,0.456,2.001,0.713,3.12,0.713c3.112,0,5.763-1.984,6.753-4.757  c0.27-0.754,0.416-1.566,0.416-2.412c0-0.847-0.147-1.659-0.416-2.414c-0.653-1.826-2.026-3.311-3.778-4.11  C404.493,117.071,404.378,117.022,404.263,116.976"/>
<path style="fill:#8BC9D8;" d="M470.22,113.092h-12.709v2.473h8.587l-5.292,7.384l0.127,0.349h1.047  c1.236,0,2.029,0.127,2.725,0.349c2.091,0.696,3.104,2.25,3.104,4.088c0,2.345-1.584,4.215-4.118,4.215  c-1.933,0-3.582-1.235-4.247-3.232l-2.504,1.015c1.045,2.883,3.74,4.468,6.813,4.468c4.312,0,6.942-3.042,6.942-6.528  c0-2.821-1.964-5.705-6.086-6.117l5.61-7.701V113.092"/>
<path style="fill:#F3F0EA;" d="M401.633,184.881c-2.631,0-4.216,1.995-4.216,4.563c0,2.535,1.584,4.531,4.216,4.531  c2.726,0,4.215-2.092,4.215-4.499C405.848,186.782,404.199,184.881,401.633,184.881"/>
<path style="fill:#8BC9D8;" d="M401.633,193.976c-2.631,0-4.216-1.996-4.216-4.531c0-2.568,1.584-4.563,4.216-4.563  c2.566,0,4.215,1.901,4.215,4.596C405.848,191.884,404.359,193.976,401.633,193.976 M405.5,175.119h-3.421l-5.326,8.335  c-1.742,2.695-2.186,4.184-2.186,5.958c0,4.025,2.916,6.814,7.034,6.814c4.217,0,7.1-2.916,7.1-6.814  c0-3.993-3.169-6.719-6.592-6.719c-0.696,0-1.3,0.063-1.871,0.222L405.5,175.119"/>
<g>
</g>
<g>
</g>
<g>
</g>
<g>
</g>
<g>
</g>
<g>
</g>
<g>
</g>
<g>
</g>
<g>
</g>
<g>
</g>
<g>
</g>
<g>
</g>
<g>
</g>
<g>
</g>
<g>
</g>
</svg>
