<svg enable-background="new 0 0 512 512" viewBox="0 0 512 512" xmlns="http://www.w3.org/2000/svg"><path d="m512 256c0 67.729-26.292 129.307-69.239 175.086-9.193 9.804-19.153 18.886-29.779 27.136-15.578 12.114-32.599 22.462-50.753 30.756-32.355 14.778-68.329 23.017-106.224 23.017-52.807 0-101.871-15.989-142.631-43.391-4.908-3.298-9.693-6.762-14.345-10.381-13.513-10.492-25.948-22.317-37.096-35.275-4.808-5.574-9.371-11.347-13.668-17.332-1.987-2.731-3.897-5.496-5.763-8.305-.466-.711-.933-1.421-1.399-2.132-26.003-40.061-41.103-87.86-41.103-139.179 0-141.388 114.618-255.994 256.006-255.994 38.073 0 74.191 8.316 106.668 23.228 5.096 2.332 10.093 4.83 14.989 7.484 9.371 5.063 18.398 10.703 27.014 16.877 16.899 12.058 32.255 26.126 45.745 41.859 6.917 8.061 13.335 16.566 19.208 25.448 3.076 4.63 5.996 9.371 8.76 14.212 21.385 37.395 33.61 80.719 33.61 126.886z" fill="#42577f"/><path d="m442.761 422.947v8.139c-9.193 9.804-19.153 18.886-29.779 27.136h-313.953c-13.513-10.493-25.948-22.317-37.096-35.275z" fill="#f0a037"/><path d="m42.503 397.31c1.865 2.809 3.775 5.574 5.763 8.305 4.297 5.985 8.86 11.758 13.668 17.332h53.373v-17.332-8.305-210.416-8.316-17.321h-74.203v17.321 8.316 208.284z" fill="#4d4d4d"/><path d="m242.626 161.262h25.951v261.679h-25.951z" fill="#eb305b"/><path d="m132.228 236.186h60.612v186.766h-60.612z" fill="#55c6a1"/><path d="m282.653 378.151h138.989v44.79h-138.989z" fill="#e9e4d8"/><path d="m41.104 178.583h74.209v8.306h-74.209z" fill="#f0a037"/><path d="m115.306 397.31v8.305h-67.041c-1.987-2.731-3.897-5.496-5.763-8.305z" fill="#f0a037"/><path d="m53.806 202.577h48.802v4.747h-48.802z" fill="#d8d2c5"/><path d="m53.806 217.333h48.802v4.747h-48.802z" fill="#d8d2c5"/><path d="m53.806 380.505h48.802v4.747h-48.802z" fill="#d8d2c5"/><path d="m132.228 257.749h60.612v4.747h-60.612z" fill="#3faa83"/><path d="m132.228 270.773h60.612v4.747h-60.612z" fill="#3faa83"/><path d="m132.228 383.603h60.612v4.747h-60.612z" fill="#3faa83"/><path d="m132.228 396.627h60.612v4.747h-60.612z" fill="#3faa83"/><path d="m151.325 286.239h5.932v86.638h-5.932z" fill="#42577f"/><path d="m167.824 286.239h5.932v86.638h-5.932z" fill="#42577f"/><path d="m242.626 186.911h25.951v8.306h-25.951z" fill="#f0a037"/><path d="m242.626 203.81h25.951v8.306h-25.951z" fill="#f0a037"/><path d="m242.626 220.709h25.951v8.306h-25.951z" fill="#f0a037"/><path d="m207.925 160.683h25.952v261.69h-25.952z" fill="#778eb2" transform="matrix(-.9978 -.0669 .0669 -.9978 421.8054 597.1808)"/><path d="m214.685 186.554h25.952v8.307h-25.952z" fill="#f0a037" transform="matrix(-.9978 -.0669 .0669 -.9978 442.0542 396.2182)"/><path d="m213.553 203.421h25.952v8.307h-25.952z" fill="#f0a037" transform="matrix(-.9978 -.0669 .0669 -.9978 438.6657 429.8369)"/><path d="m212.422 220.281h25.952v8.307h-25.952z" fill="#f0a037" transform="matrix(-.9978 -.0669 .0669 -.9978 435.2768 463.4445)"/><path d="m299.641 331.74h138.989v44.79h-138.989z" fill="#778eb2"/><path d="m334.671 343.11h68.94v22.04h-68.94z" fill="#52c3dd"/><path d="m319.804 331.74h5.932v44.79h-5.932z" fill="#32aace"/><path d="m412.527 331.74h5.932v44.79h-5.932z" fill="#32aace"/><g fill="#d8d2c5"><path d="m282.653 392.286h138.989v2.373h-138.989z"/><path d="m282.653 382.848h138.989v2.373h-138.989z"/><path d="m282.653 387.567h138.989v2.373h-138.989z"/><path d="m282.653 397.005h138.989v2.373h-138.989z"/><path d="m282.653 406.442h138.989v2.373h-138.989z"/><path d="m282.653 401.723h138.989v2.373h-138.989z"/><path d="m282.653 411.161h138.989v2.373h-138.989z"/><path d="m282.653 415.88h138.989v2.373h-138.989z"/></g><path d="m277.823 419.533h149.515v3.408h-149.515z" fill="#eb305b"/><path d="m277.823 376.519h149.515v3.408h-149.515z" fill="#eb305b"/><path d="m433.324 310.749c0 .772-.023 1.554-.071 2.349-.036.783-.095 1.578-.19 2.373-.071.783-.178 1.567-.309 2.337-.131.795-.284 1.59-.463 2.373-.178.783-.392 1.578-.628 2.349-.238.807-.522 1.59-.818 2.373-.415 1.056-.89 2.089-1.436 3.109l-133.68 1.352c.854-1.448 1.613-2.942 2.278-4.461.368-.783.688-1.578.985-2.373.296-.772.557-1.567.807-2.349.249-.783.474-1.578.665-2.373.202-.772.38-1.554.534-2.337s.284-1.578.392-2.373c.107-.783.202-1.567.261-2.349.071-.783.119-1.578.142-2.373.023-.783.023-1.554.012-2.337-.012-.795-.048-1.59-.119-2.373-.048-.783-.131-1.567-.238-2.349-.094-.795-.213-1.59-.367-2.373-.142-.795-.309-1.578-.499-2.349-.19-.795-.403-1.59-.641-2.373-.225-.783-.486-1.567-.772-2.337-.284-.795-.593-1.59-.937-2.373-.724-1.685-1.554-3.334-2.492-4.936h128.032s3.797.261 5.803 4.936c.119.284.238.593.344.914.142.415.296.902.475 1.459.202.676.427 1.471.664 2.337.19.736.392 1.531.582 2.373.178.736.344 1.531.499 2.349.154.759.296 1.554.427 2.373.119.759.238 1.542.332 2.349.095.772.178 1.567.238 2.373.059.759.119 1.542.142 2.337.034.783.057 1.565.046 2.373z" fill="#e9e4d8"/><path d="m432.565 301.315h-131.118c-.094-.795-.213-1.59-.367-2.373h131.057c.155.759.297 1.554.428 2.373z" fill="#d8d2c5"/><path d="m430.393 291.881h-131.224c-.284-.795-.593-1.59-.937-2.373h131.343c.119.284.238.593.344.914.142.415.296.902.474 1.459z" fill="#d8d2c5"/><path d="m431.639 296.592h-131.058c-.19-.795-.403-1.59-.641-2.373h131.117c.19.735.392 1.53.582 2.373z" fill="#d8d2c5"/><path d="m433.134 306.037h-131.331c-.012-.795-.048-1.59-.119-2.373h131.212c.095.771.178 1.566.238 2.373z" fill="#d8d2c5"/><path d="m433.252 313.098h-131.865c-.107.795-.238 1.59-.392 2.373h132.067z" fill="#d8d2c5"/><path d="m433.276 308.375h-131.484c-.023.795-.071 1.59-.142 2.373h131.675z" fill="#d8d2c5"/><path d="m432.755 317.808c-.131.795-.284 1.59-.463 2.373h-132.495c.249-.783.474-1.578.665-2.373z" fill="#d8d2c5"/><path d="m431.662 322.531c-.238.807-.522 1.59-.818 2.373h-132.837c.367-.783.688-1.578.985-2.373z" fill="#d8d2c5"/><path d="m427.819 331.736c-.046 0-.091-.001-.137-.004h-138.856v-4.747h137.613c6.802-12.469 6.804-27.574.006-40.04h-137.619v-4.747h138.993c.123 0 .245.01.366.029.704.11 1.329.531 1.69 1.144 8.554 14.555 8.551 32.639-.01 47.194-.434.738-1.22 1.171-2.046 1.171z" fill="#f0a037"/><circle cx="401.635" cy="123.645" fill="#a35895" r="101.438"/><circle cx="401.635" cy="123.645" fill="#7f2b6f" r="92.933"/><path d="m482.521 123.65c0 44.668-36.219 80.887-80.887 80.887-11.647 0-22.706-2.465-32.71-6.895-28.38-12.558-48.176-40.96-48.176-73.991 0-44.679 36.206-80.898 80.885-80.898 11.458 0 22.351 2.376 32.22 6.673 28.638 12.457 48.668 41.004 48.668 74.224" fill="#e9e4d8"/><path d="m366.364 66.72h13.016v3.331h-13.016z" fill="#66c3d3" transform="matrix(-.5 -.866 .866 -.5 500.0886 425.4939)"/><path d="m438.474 185.362-6.508-11.272 2.884-1.666 6.508 11.272z" fill="#66c3d3"/><path d="m343.002 90.073h13.016v3.331h-13.016z" fill="#66c3d3" transform="matrix(-.866 -.5 .5 -.866 606.3226 345.9437)"/><path d="m464.815 160.24-11.272-6.509 1.665-2.885 11.272 6.508z" fill="#66c3d3"/><path d="m347.857 149.029h3.331v13.016h-3.331z" fill="#66c3d3" transform="matrix(-.5 -.866 .866 -.5 389.5897 536.0011)"/><path d="m455.208 96.446-1.665-2.885 11.272-6.508 1.665 2.885z" fill="#66c3d3"/><path d="m371.193 172.402h3.331v13.017h-3.331z" fill="#66c3d3" transform="matrix(-.866 -.5001 .5001 -.866 606.2748 520.3042)"/><path d="m434.85 74.869-2.884-1.666 6.508-11.273 2.884 1.667z" fill="#66c3d3"/><path d="m399.71 120.314 31.459 3.331-31.459 3.331z" fill="#5f1750"/><path d="m398.304 121.209 3.331-37.818 3.331 37.818z" fill="#5f1750"/><path d="m408.801 123.646c0-3.958-3.21-7.167-7.168-7.167s-7.167 3.209-7.167 7.167 3.209 7.168 7.167 7.168 7.168-3.21 7.168-7.168" fill="#7f2b6f"/><path d="m391.979 69.918v-14.736l-3.96 1.869-.953-2.124 7.733-3.644v18.635h4.374v2.472h-11.598v-2.472z" fill="#299cb7"/><path d="m404.696 57.084-2.407-.919c.792-2.44 2.85-4.881 6.685-4.881 3.551 0 6.464 2.599 6.464 6.053 0 3.01-1.995 5.387-4.31 7.987l-4.088 4.596h9.159v2.472h-13.69v-1.205l6.369-7.099c2.916-3.264 3.613-4.785 3.613-6.719 0-2.155-1.584-3.803-3.644-3.803-2.218-.001-3.39 1.52-4.151 3.518z" fill="#299cb7"/><path d="m463.753 134.199c-3.073 0-5.767-1.584-6.813-4.468l2.504-1.015c.666 1.997 2.314 3.232 4.247 3.232 2.534 0 4.118-1.87 4.118-4.215 0-1.838-1.014-3.392-3.104-4.088-.696-.222-1.489-.349-2.725-.349h-1.047l-.127-.349 5.292-7.384h-8.587v-2.473h12.709v.761l-5.61 7.701c4.122.412 6.086 3.295 6.086 6.117-.001 3.488-2.631 6.53-6.943 6.53" fill="#299cb7"/><path d="m342.854 126.403c-.601.159-1.202.222-1.902.222-3.422 0-6.591-2.726-6.591-6.719 0-3.898 2.882-6.814 7.099-6.814 4.151 0 7.068 2.789 7.068 6.814 0 1.774-.444 3.263-2.19 5.958l-5.354 8.335h-3.424zm2.821-6.528c0-2.535-1.584-4.532-4.245-4.532-2.727 0-4.216 2.092-4.216 4.5 0 2.695 1.648 4.596 4.216 4.596 2.66 0 4.245-1.997 4.245-4.564z" fill="#299cb7"/><path d="m400.238 182.916c.571-.159 1.175-.222 1.871-.222 3.422 0 6.592 2.726 6.592 6.719 0 3.898-2.883 6.814-7.1 6.814-4.118 0-7.034-2.789-7.034-6.814 0-1.774.443-3.263 2.186-5.958l5.326-8.335h3.421zm-2.82 6.528c0 2.535 1.584 4.531 4.216 4.531 2.726 0 4.215-2.092 4.215-4.499 0-2.695-1.649-4.596-4.215-4.596-2.632.001-4.216 1.996-4.216 4.564" fill="#299cb7"/><path d="m401.6 196.226c-4.118 0-7.034-2.789-7.034-6.814 0-1.774.443-3.263 2.186-5.958l5.326-8.335h3.421l-5.262 7.796c.571-.159 1.175-.222 1.871-.222 3.422 0 6.592 2.726 6.592 6.719.001 3.898-2.883 6.814-7.1 6.814m36.874-10.864-6.508-11.272 2.885-1.665 6.508 11.272zm26.341-25.122-11.272-6.508 1.665-2.885 11.272 6.508zm-7.305-44.675v-2.473h12.709v.761l-5.61 7.701c4.121.412 6.086 3.295 6.086 6.117 0 3.485-2.629 6.528-6.942 6.528-3.073 0-5.767-1.584-6.813-4.468l2.504-1.015c.666 1.997 2.314 3.232 4.247 3.232 2.534 0 4.118-1.87 4.118-4.215 0-1.838-1.014-3.392-3.104-4.088-.696-.222-1.489-.349-2.725-.349h-1.047l-.127-.349 5.292-7.384h-8.587m-2.303-19.117-1.665-2.885 11.272-6.508 1.665 2.885zm-20.358-21.577-2.885-1.665 6.508-11.272 2.885 1.665zm-.994-25.443-29.318 66.923.068.773c1.752.799 3.126 2.284 3.778 4.11l22.785 2.413-22.784 2.413c-.99 2.772-3.64 4.757-6.753 4.757-1.118 0-2.176-.256-3.12-.713l-29.589 67.541c10.004 4.43 21.063 6.895 32.71 6.895 44.667 0 80.887-36.219 80.887-80.887.001-33.221-20.029-61.768-48.664-74.225z" fill="#f3f0ea"/><path d="m434.85 172.424-2.884 1.666 6.508 11.272 2.884-1.666z" fill="#acdfe7"/><path d="m455.208 150.846-1.665 2.885 11.272 6.509 1.665-2.886z" fill="#acdfe7"/><path d="m464.815 87.053-11.272 6.508 1.665 2.885 11.272-6.508z" fill="#acdfe7"/><path d="m438.474 61.93-6.508 11.273 2.884 1.666 6.508-11.272z" fill="#acdfe7"/><path d="m408.384 121.233c.27.754.416 1.567.416 2.414 0 .846-.147 1.658-.416 2.412l22.784-2.413z" fill="#a881a0"/><path d="m404.538 116.349-.274.627c.115.046.23.094.343.145z" fill="#a881a0"/><path d="m404.263 116.976-5.749 13.125c.943.456 2.001.713 3.12.713 3.112 0 5.763-1.984 6.753-4.757.27-.754.416-1.566.416-2.412 0-.847-.147-1.659-.416-2.414-.653-1.826-2.026-3.311-3.778-4.11-.116-.05-.231-.099-.346-.145" fill="#ba8cb1"/><path d="m470.22 113.092h-12.709v2.473h8.587l-5.292 7.384.127.349h1.047c1.236 0 2.029.127 2.725.349 2.091.696 3.104 2.25 3.104 4.088 0 2.345-1.584 4.215-4.118 4.215-1.933 0-3.582-1.235-4.247-3.232l-2.504 1.015c1.045 2.883 3.74 4.468 6.813 4.468 4.312 0 6.942-3.042 6.942-6.528 0-2.821-1.964-5.705-6.086-6.117l5.61-7.701v-.763" fill="#8bc9d8"/><path d="m401.633 184.881c-2.631 0-4.216 1.995-4.216 4.563 0 2.535 1.584 4.531 4.216 4.531 2.726 0 4.215-2.092 4.215-4.499 0-2.694-1.649-4.595-4.215-4.595" fill="#f3f0ea"/><path d="m401.633 193.976c-2.631 0-4.216-1.996-4.216-4.531 0-2.568 1.584-4.563 4.216-4.563 2.566 0 4.215 1.901 4.215 4.596 0 2.406-1.489 4.498-4.215 4.498m3.867-18.857h-3.421l-5.326 8.335c-1.742 2.695-2.186 4.184-2.186 5.958 0 4.025 2.916 6.814 7.034 6.814 4.217 0 7.1-2.916 7.1-6.814 0-3.993-3.169-6.719-6.592-6.719-.696 0-1.3.063-1.871.222z" fill="#8bc9d8"/></svg>