<?xml version="1.0" encoding="iso-8859-1"?>
<!-- Generator: Adobe Illustrator 19.0.0, SVG Export Plug-In . SVG Version: 6.00 Build 0)  -->
<svg xmlns="http://www.w3.org/2000/svg" xmlns:xlink="http://www.w3.org/1999/xlink" version="1.1" id="Layer_1" x="0px" y="0px" viewBox="0 0 512 512" style="enable-background:new 0 0 512 512;" xml:space="preserve">
<path style="fill:#55C6A1;" d="M510.028,257.978c0,102.695-60.927,191.145-148.617,231.183C329.306,503.825,293.609,512,256.006,512  c-52.4,0-101.087-15.865-141.532-43.057C46.616,423.352,1.972,345.876,1.972,257.978c0-140.298,113.735-254.022,254.033-254.022  C396.293,3.955,510.028,117.679,510.028,257.978z"/>
<polygon style="fill:#E9E4D8;" points="193.106,49.282 187.256,52.213 160.56,65.544 149.652,70.987 143.813,73.906 142.524,71.317   129.248,44.754 135.098,41.834 145.995,36.391 178.552,20.129 "/>
<polygon style="fill:#EB305B;" points="178.552,20.129 146.006,36.391 129.259,44.754 129.248,44.754 119.2,24.624 125.05,21.705   135.946,16.262 168.493,0 "/>
<polygon style="fill:#D8D2C5;" points="201.27,80.252 177.692,92.03 163.667,99.037 149.652,70.987 163.678,63.979 187.256,52.213   "/>
<rect x="155.836" y="65.834" transform="matrix(-0.8946 0.4469 -0.4469 -0.8946 346.5234 81.2873)" style="fill:#C1BBAE;" width="15.678" height="31.358"/>
<g>
	<polygon style="fill:#32AACE;" points="277.732,255.631 262.914,263.035 249.637,236.449 242.421,221.994 257.24,214.59    262.715,225.564  "/>
	<polygon style="fill:#32AACE;" points="304.164,232.769 289.345,240.173 276.377,214.205 272.708,206.867 287.527,199.463    289.455,203.319  "/>
</g>
<polygon style="fill:#B2AB9D;" points="292.628,170.343 303.249,191.607 287.527,199.463 272.708,206.867 257.24,214.59   242.421,221.994 222.699,231.844 219.702,225.839 212.078,210.58 261.371,185.955 "/>
<g>
	<polygon style="fill:#2190A3;" points="257.24,214.59 262.715,225.564 260.335,227.547 249.637,236.449 242.421,221.994  "/>
	<polygon style="fill:#2190A3;" points="289.455,203.319 286.359,205.886 276.377,214.205 272.708,206.867 287.527,199.463  "/>
</g>
<polygon style="fill:#E9E4D8;" points="261.371,185.955 228.814,202.217 212.078,210.58 171.093,128.521 157.816,101.957   163.667,99.037 174.563,93.595 201.27,80.252 207.12,77.333 "/>
<g>
	<polygon style="fill:#DBD6CA;" points="228.814,202.217 212.078,210.58 171.093,128.521 157.816,101.957 163.667,99.037    174.563,93.595  "/>
	<polygon style="fill:#DBD6CA;" points="160.56,65.544 149.652,70.987 143.813,73.906 142.524,71.317 129.248,44.754    135.098,41.834 145.995,36.391  "/>
</g>
<polygon style="fill:#D32654;" points="146.006,36.391 129.259,44.754 119.2,24.624 125.05,21.705 135.946,16.262 "/>
<path style="fill:#E9E4D8;" d="M361.411,468.943v20.217C329.306,503.825,293.609,512,256.006,512  c-52.4,0-101.087-15.865-141.532-43.057H361.411z"/>
<path style="fill:#B2AB9D;" d="M277.953,468.943H156.516l22.245-49.414l5.311-11.789c19.799,13.001,42.517,21.958,66.954,25.66  l12.769,16.857L277.953,468.943z"/>
<polygon style="fill:#7F7B73;" points="219.702,225.839 211.164,230.103 183.994,243.677 135.385,146.358 162.554,132.784   171.093,128.521 212.078,210.58 "/>
<path style="fill:#D8D2C5;" d="M259.961,390.927l6.886,13.794c-31.698-2.193-60.498-15.116-82.764-35.157l0.881-0.088  c16.174-1.487,27.324-15.116,27.324-29.924c0-4.462-1.014-9.023-3.195-13.397l22.553-11.26l8.043,16.108l-7.734,3.856l20.603,41.25  L259.961,390.927z"/>
<path style="fill:#32AACE;" d="M168.812,213.268c-6.291,0.474-12.538-1.939-16.879-6.622c-1.311-1.421-2.446-3.052-3.36-4.87  c-3.9-7.811-2.457-16.901,2.964-23.093c1.73-1.983,3.878-3.669,6.39-4.925c10.324-5.156,22.873-0.97,28.029,9.354  c5.156,10.324,0.97,22.862-9.354,28.018C174.089,212.387,171.445,213.081,168.812,213.268z"/>
<polygon style="fill:#68645C;" points="219.702,225.839 211.164,230.103 173.814,155.315 162.554,132.784 171.093,128.521   212.078,210.58 "/>
<path style="fill:#279CB7;" d="M167.898,200.959c-2.574,0.194-5.129-0.793-6.905-2.708c-0.537-0.582-1-1.248-1.375-1.992  c-1.595-3.195-1.005-6.914,1.212-9.447c0.707-0.811,1.587-1.501,2.614-2.014c4.223-2.109,9.356-0.397,11.465,3.826  s0.397,9.352-3.826,11.461C170.056,200.599,168.974,200.883,167.898,200.959z"/>
<polygon style="fill:#2190A3;" points="284.134,360.342 291.537,375.161 259.961,390.927 252.557,376.109 "/>
<polygon style="fill:#7F7B73;" points="352.123,355.528 308.835,377.144 291.548,385.782 288.001,378.698 277.06,356.784   294.347,348.157 337.635,326.529 "/>
<polygon style="fill:#68645C;" points="308.835,377.144 291.548,385.782 288.001,378.698 277.06,356.784 294.347,348.157 "/>
<polygon style="fill:#32AACE;" points="363.758,242.465 374.379,263.729 239.688,331.002 231.646,314.895 229.067,309.738 "/>
<path style="fill:#E9E4D8;" d="M282.084,435.218c-1.862,0.066-3.713,0.099-5.575,0.088c-8.66,0-17.165-0.65-25.484-1.906  c-24.437-3.702-47.155-12.659-66.954-25.66c-45.866-30.122-76.143-82.015-76.143-140.982c0-33.064,9.508-63.902,25.958-89.926  c3.03-4.793,6.302-9.431,9.784-13.882l7.867,15.733c-5.421,6.192-6.864,15.281-2.964,23.093c0.914,1.818,2.049,3.449,3.36,4.87  c-0.518,1.069-1.025,2.159-1.52,3.25c-7.845,17.353-12.23,36.601-12.219,56.862c-0.011,40.765,17.727,77.476,45.888,102.805  c22.267,20.041,51.067,32.965,82.764,35.157L282.084,435.218z"/>
<path style="fill:#7F7B73;" d="M263.795,450.257c-4.308-0.32-8.561-0.793-12.769-1.432c-24.437-3.702-47.155-12.659-66.954-25.66  c-1.796-1.179-3.57-2.391-5.311-3.636l5.311-11.789c19.799,13.001,42.517,21.958,66.954,25.66L263.795,450.257z"/>
<path style="fill:#DBD6CA;" d="M151.933,206.647c-0.518,1.069-1.025,2.159-1.52,3.25l-16.526-33.064  c3.03-4.793,6.302-9.431,9.784-13.882l7.867,15.733c-5.421,6.192-6.864,15.281-2.964,23.093  C149.487,203.595,150.622,205.225,151.933,206.647z"/>
<g>
</g>
<g>
</g>
<g>
</g>
<g>
</g>
<g>
</g>
<g>
</g>
<g>
</g>
<g>
</g>
<g>
</g>
<g>
</g>
<g>
</g>
<g>
</g>
<g>
</g>
<g>
</g>
<g>
</g>
</svg>
