<svg enable-background="new 0 0 512 512" viewBox="0 0 512 512" xmlns="http://www.w3.org/2000/svg"><path d="m510.028 257.978c0 102.695-60.927 191.145-148.617 231.183-32.105 14.664-67.802 22.839-105.405 22.839-52.4 0-101.087-15.865-141.532-43.057-67.858-45.591-112.502-123.067-112.502-210.965 0-140.298 113.735-254.022 254.033-254.022 140.288-.001 254.023 113.723 254.023 254.022z" fill="#55c6a1"/><path d="m193.106 49.282-5.85 2.931-26.696 13.331-10.908 5.443-5.839 2.919-1.289-2.589-13.276-26.563 5.85-2.92 10.897-5.443 32.557-16.262z" fill="#e9e4d8"/><path d="m178.552 20.129-32.546 16.262-16.747 8.363h-.011l-10.048-20.13 5.85-2.919 10.896-5.443 32.547-16.262z" fill="#eb305b"/><path d="m201.27 80.252-23.578 11.778-14.025 7.007-14.015-28.05 14.026-7.008 23.578-11.766z" fill="#d8d2c5"/><path d="m155.836 65.834h15.678v31.358h-15.678z" fill="#c1bbae" transform="matrix(-.8946 .4469 -.4469 -.8946 346.5234 81.2873)"/><path d="m277.732 255.631-14.818 7.404-13.277-26.586-7.216-14.455 14.819-7.404 5.475 10.974z" fill="#32aace"/><path d="m304.164 232.769-14.819 7.404-12.968-25.968-3.669-7.338 14.819-7.404 1.928 3.856z" fill="#32aace"/><path d="m292.628 170.343 10.621 21.264-15.722 7.856-14.819 7.404-15.468 7.723-14.819 7.404-19.722 9.85-2.997-6.005-7.624-15.259 49.293-24.625z" fill="#b2ab9d"/><path d="m257.24 214.59 5.475 10.974-2.38 1.983-10.698 8.902-7.216-14.455z" fill="#2190a3"/><path d="m289.455 203.319-3.096 2.567-9.982 8.319-3.669-7.338 14.819-7.404z" fill="#2190a3"/><path d="m261.371 185.955-32.557 16.262-16.736 8.363-40.985-82.059-13.277-26.564 5.851-2.92 10.896-5.442 26.707-13.343 5.85-2.919z" fill="#e9e4d8"/><path d="m228.814 202.217-16.736 8.363-40.985-82.059-13.277-26.564 5.851-2.92 10.896-5.442z" fill="#dbd6ca"/><path d="m160.56 65.544-10.908 5.443-5.839 2.919-1.289-2.589-13.276-26.563 5.85-2.92 10.897-5.443z" fill="#dbd6ca"/><path d="m146.006 36.391-16.747 8.363-10.059-20.13 5.85-2.919 10.896-5.443z" fill="#d32654"/><path d="m361.411 468.943v20.217c-32.105 14.665-67.802 22.84-105.405 22.84-52.4 0-101.087-15.865-141.532-43.057z" fill="#e9e4d8"/><path d="m277.953 468.943h-121.437l22.245-49.414 5.311-11.789c19.799 13.001 42.517 21.958 66.954 25.66l12.769 16.857z" fill="#b2ab9d"/><path d="m219.702 225.839-8.538 4.264-27.17 13.574-48.609-97.319 27.169-13.574 8.539-4.263 40.985 82.059z" fill="#7f7b73"/><path d="m259.961 390.927 6.886 13.794c-31.698-2.193-60.498-15.116-82.764-35.157l.881-.088c16.174-1.487 27.324-15.116 27.324-29.924 0-4.462-1.014-9.023-3.195-13.397l22.553-11.26 8.043 16.108-7.734 3.856 20.603 41.25z" fill="#d8d2c5"/><path d="m168.812 213.268c-6.291.474-12.538-1.939-16.879-6.622-1.311-1.421-2.446-3.052-3.36-4.87-3.9-7.811-2.457-16.901 2.964-23.093 1.73-1.983 3.878-3.669 6.39-4.925 10.324-5.156 22.873-.97 28.029 9.354s.97 22.862-9.354 28.018c-2.513 1.257-5.157 1.951-7.79 2.138z" fill="#32aace"/><path d="m219.702 225.839-8.538 4.264-37.35-74.788-11.26-22.531 8.539-4.263 40.985 82.059z" fill="#68645c"/><path d="m167.898 200.959c-2.574.194-5.129-.793-6.905-2.708-.537-.582-1-1.248-1.375-1.992-1.595-3.195-1.005-6.914 1.212-9.447.707-.811 1.587-1.501 2.614-2.014 4.223-2.109 9.356-.397 11.465 3.826s.397 9.352-3.826 11.461c-1.027.514-2.109.798-3.185.874z" fill="#279cb7"/><path d="m284.134 360.342 7.403 14.819-31.576 15.766-7.404-14.818z" fill="#2190a3"/><path d="m352.123 355.528-43.288 21.616-17.287 8.638-3.547-7.084-10.941-21.914 17.287-8.627 43.288-21.628z" fill="#7f7b73"/><path d="m308.835 377.144-17.287 8.638-3.547-7.084-10.941-21.914 17.287-8.627z" fill="#68645c"/><path d="m363.758 242.465 10.621 21.264-134.691 67.273-8.042-16.107-2.579-5.157z" fill="#32aace"/><path d="m282.084 435.218c-1.862.066-3.713.099-5.575.088-8.66 0-17.165-.65-25.484-1.906-24.437-3.702-47.155-12.659-66.954-25.66-45.866-30.122-76.143-82.015-76.143-140.982 0-33.064 9.508-63.902 25.958-89.926 3.03-4.793 6.302-9.431 9.784-13.882l7.867 15.733c-5.421 6.192-6.864 15.281-2.964 23.093.914 1.818 2.049 3.449 3.36 4.87-.518 1.069-1.025 2.159-1.52 3.25-7.845 17.353-12.23 36.601-12.219 56.862-.011 40.765 17.727 77.476 45.888 102.805 22.267 20.041 51.067 32.965 82.764 35.157z" fill="#e9e4d8"/><path d="m263.795 450.257c-4.308-.32-8.561-.793-12.769-1.432-24.437-3.702-47.155-12.659-66.954-25.66-1.796-1.179-3.57-2.391-5.311-3.636l5.311-11.789c19.799 13.001 42.517 21.958 66.954 25.66z" fill="#7f7b73"/><path d="m151.933 206.647c-.518 1.069-1.025 2.159-1.52 3.25l-16.526-33.064c3.03-4.793 6.302-9.431 9.784-13.882l7.867 15.733c-5.421 6.192-6.864 15.281-2.964 23.093.913 1.818 2.048 3.448 3.359 4.87z" fill="#dbd6ca"/></svg>