<?xml version="1.0" encoding="iso-8859-1"?>
<!-- Generator: Adobe Illustrator 19.0.0, SVG Export Plug-In . SVG Version: 6.00 Build 0)  -->
<svg xmlns="http://www.w3.org/2000/svg" xmlns:xlink="http://www.w3.org/1999/xlink" version="1.1" id="Layer_1" x="0px" y="0px" viewBox="0 0 512 512" style="enable-background:new 0 0 512 512;" xml:space="preserve">
<path style="fill:#F0A037;" d="M512,256c0,77.167-34.142,146.362-88.148,193.284c-3.287,2.865-6.651,5.64-10.082,8.316  c-4.275,3.364-8.66,6.584-13.157,9.66c-8.905,6.107-18.22,11.669-27.88,16.633c-12.98,6.662-26.603,12.247-40.76,16.633  c-24.005,7.45-49.52,11.47-75.979,11.47s-51.974-4.019-75.979-11.47c-14.157-4.386-27.78-9.971-40.749-16.633  c-6.629-3.409-13.091-7.084-19.364-11.037c-2.731-1.71-5.418-3.475-8.072-5.285c-0.677-0.455-1.343-0.922-2.01-1.388  c-2.731-1.899-5.418-3.853-8.072-5.862c-2.731-2.065-5.418-4.175-8.061-6.351C36.496,407.025,0,335.776,0,256  C0,114.612,114.618,0.006,255.994,0.006C397.382,0.006,512,114.612,512,256z"/>
<path style="fill:#ADA89E;" d="M119.899,103.171v11.745l-8.065,142.488L101.752,435.51H79.884v-332.34  c0-5.525,2.238-10.526,5.868-14.155c0.534-0.534,1.089-1.028,1.683-1.492c3.408-2.732,7.733-4.366,12.451-4.366h0.01  c9.306,0,17.129,6.362,19.367,14.972C119.677,99.742,119.899,101.426,119.899,103.171z"/>
<path style="fill:#CC2551;" d="M111.831,114.912v352.659c-0.677-0.455-1.343-0.922-2.01-1.388c-2.731-1.899-5.418-3.853-8.072-5.862  c-2.731-2.065-5.418-4.175-8.061-6.351V114.912C93.688,114.912,111.831,114.912,111.831,114.912z"/>
<path style="fill:#EB305B;" d="M119.903,114.912v357.944c-2.731-1.71-5.418-3.475-8.072-5.285c-0.677-0.455-1.343-0.922-2.01-1.388  c-2.731-1.899-5.418-3.853-8.072-5.862V114.912C101.749,114.912,119.903,114.912,119.903,114.912z"/>
<path style="fill:#CCC6BA;" d="M413.77,114.934V457.6c-4.275,3.364-8.66,6.584-13.157,9.66c-8.905,6.107-18.22,11.669-27.88,16.633  c-12.98,6.662-26.603,12.247-40.76,16.633c-24.005,7.45-49.52,11.47-75.979,11.47s-51.974-4.019-75.979-11.47  c-14.157-4.386-27.78-9.971-40.749-16.633c-6.629-3.409-13.091-7.084-19.364-11.037c-2.731-1.71-5.418-3.475-8.072-5.285  c-0.677-0.455-1.343-0.922-2.01-1.388V114.934L413.77,114.934L413.77,114.934z"/>
<path style="fill:#E9E4D8;" d="M423.849,103.171v28.381h-303.95v-28.381c0-1.744-0.222-3.428-0.635-5.041  c-2.238-8.611-10.062-14.972-19.367-14.972h303.95c5.525,0,10.526,2.238,14.145,5.868c2.48,2.48,4.305,5.606,5.223,9.103  C423.627,99.742,423.849,101.426,423.849,103.171z"/>
<path style="fill:#D8D2C5;" d="M400.613,467.26c-8.905,6.107-18.22,11.669-27.88,16.633H139.267  c-6.629-3.409-13.091-7.084-19.364-11.037v-5.596H400.613z"/>
<path style="fill:#E9E4D8;" d="M119.903,131.556V467.26h280.71c4.497-3.076,8.883-6.296,13.157-9.66  c3.431-2.676,6.795-5.452,10.082-8.316V131.556L119.903,131.556L119.903,131.556z"/>
<g>
	<path style="fill:#1E3160;" d="M366.381,264.292c-6.213,0-9.462-2.771-12.071-4.998c-2.165-1.848-3.596-3.068-6.837-3.068   c-3.24,0-4.67,1.22-6.835,3.068c-2.609,2.227-5.858,4.998-12.07,4.998s-9.46-2.771-12.07-4.998   c-2.165-1.848-3.595-3.068-6.835-3.068c-3.238,0-4.668,1.22-6.832,3.068c-2.608,2.227-5.856,4.999-12.067,4.999   c-6.212,0-9.46-2.771-12.07-4.998c-2.164-1.848-3.594-3.068-6.834-3.068c-3.239,0-4.668,1.22-6.833,3.068   c-2.609,2.226-5.857,4.998-12.069,4.998s-9.46-2.771-12.069-4.999c-2.165-1.848-3.594-3.068-6.833-3.068   c-3.238,0-4.668,1.22-6.832,3.068c-2.608,2.227-5.856,4.999-12.067,4.999c-6.212,0-9.46-2.771-12.069-4.999   c-2.165-1.848-3.595-3.068-6.833-3.068s-4.668,1.22-6.832,3.068c-2.609,2.227-5.856,4.999-12.068,4.999   c-6.211,0-9.458-2.771-12.067-4.999c-2.164-1.848-3.593-3.068-6.831-3.068v-8.065c6.211,0,9.458,2.771,12.067,4.999   c2.164,1.848,3.593,3.067,6.83,3.067c3.238,0,4.668-1.22,6.832-3.068c2.609-2.227,5.856-4.999,12.068-4.999   s9.46,2.771,12.069,4.998c2.165,1.848,3.594,3.068,6.833,3.068c3.238,0,4.668-1.22,6.832-3.068   c2.608-2.227,5.856-4.999,12.068-4.999s9.459,2.771,12.068,4.998c2.165,1.848,3.594,3.068,6.833,3.068   c3.239,0,4.668-1.22,6.833-3.068c2.609-2.226,5.857-4.998,12.069-4.998s9.46,2.771,12.07,4.998   c2.164,1.848,3.594,3.068,6.834,3.068c3.238,0,4.668-1.22,6.832-3.068c2.608-2.227,5.856-4.999,12.067-4.999   c6.213,0,9.461,2.771,12.07,4.998c2.165,1.848,3.595,3.068,6.835,3.068s4.67-1.22,6.836-3.068c2.609-2.226,5.857-4.998,12.07-4.998   c6.214,0,9.462,2.771,12.072,4.998c2.165,1.848,3.596,3.068,6.837,3.068c3.241,0,4.671-1.22,6.837-3.068   c2.61-2.226,5.858-4.998,12.071-4.998v8.065c-3.241,0-4.671,1.22-6.837,3.068C375.843,261.522,372.595,264.292,366.381,264.292z"/>
	<path style="fill:#1E3160;" d="M366.381,229.008c-6.213,0-9.462-2.771-12.071-4.998c-2.165-1.848-3.596-3.068-6.837-3.068   c-3.24,0-4.67,1.22-6.835,3.068c-2.609,2.227-5.858,4.998-12.07,4.998s-9.46-2.771-12.07-4.998   c-2.165-1.848-3.595-3.068-6.835-3.068c-3.238,0-4.668,1.22-6.832,3.068c-2.608,2.227-5.856,4.999-12.067,4.999   c-6.212,0-9.46-2.771-12.07-4.998c-2.164-1.848-3.594-3.068-6.834-3.068c-3.239,0-4.668,1.22-6.833,3.068   c-2.609,2.226-5.857,4.998-12.069,4.998s-9.46-2.771-12.069-4.999c-2.165-1.848-3.594-3.068-6.833-3.068   c-3.238,0-4.668,1.22-6.832,3.068c-2.608,2.227-5.856,4.999-12.067,4.999c-6.212,0-9.46-2.771-12.069-4.999   c-2.165-1.848-3.595-3.068-6.833-3.068s-4.668,1.22-6.832,3.068c-2.609,2.227-5.856,4.999-12.068,4.999   c-6.211,0-9.458-2.771-12.067-4.999c-2.164-1.848-3.593-3.068-6.831-3.068v-8.065c6.211,0,9.458,2.771,12.067,4.999   c2.164,1.848,3.593,3.067,6.83,3.067c3.238,0,4.668-1.22,6.832-3.068c2.609-2.227,5.856-4.999,12.068-4.999   s9.46,2.771,12.069,4.998c2.165,1.848,3.594,3.068,6.833,3.068c3.238,0,4.668-1.22,6.832-3.068   c2.608-2.227,5.856-4.999,12.068-4.999s9.459,2.771,12.068,4.998c2.165,1.848,3.594,3.068,6.833,3.068   c3.239,0,4.668-1.22,6.833-3.068c2.609-2.226,5.857-4.998,12.069-4.998s9.46,2.771,12.07,4.998   c2.164,1.848,3.594,3.068,6.834,3.068c3.238,0,4.668-1.22,6.832-3.068c2.608-2.227,5.856-4.999,12.067-4.999   c6.213,0,9.461,2.771,12.07,4.998c2.165,1.848,3.595,3.068,6.835,3.068s4.67-1.22,6.836-3.068c2.609-2.226,5.857-4.998,12.07-4.998   c6.214,0,9.462,2.771,12.072,4.998c2.165,1.848,3.596,3.068,6.837,3.068c3.241,0,4.671-1.22,6.837-3.068   c2.61-2.226,5.858-4.998,12.071-4.998v8.065c-3.241,0-4.671,1.22-6.837,3.068C375.843,226.237,372.595,229.008,366.381,229.008z"/>
	<path style="fill:#1E3160;" d="M366.381,193.725c-6.213,0-9.462-2.771-12.071-4.998c-2.165-1.848-3.596-3.068-6.837-3.068   c-3.24,0-4.67,1.22-6.835,3.068c-2.609,2.227-5.858,4.998-12.07,4.998s-9.46-2.771-12.07-4.998   c-2.165-1.848-3.595-3.068-6.835-3.068c-3.238,0-4.668,1.22-6.832,3.068c-2.608,2.227-5.856,4.999-12.067,4.999   c-6.212,0-9.46-2.771-12.07-4.998c-2.164-1.848-3.594-3.068-6.834-3.068c-3.239,0-4.668,1.22-6.833,3.068   c-2.609,2.226-5.857,4.998-12.069,4.998s-9.46-2.771-12.069-4.999c-2.165-1.848-3.594-3.068-6.833-3.068   c-3.238,0-4.668,1.22-6.832,3.068c-2.608,2.227-5.856,4.999-12.067,4.999c-6.212,0-9.46-2.771-12.069-4.999   c-2.165-1.848-3.595-3.068-6.833-3.068s-4.668,1.22-6.832,3.068c-2.609,2.227-5.856,4.999-12.068,4.999   c-6.211,0-9.458-2.771-12.067-4.999c-2.164-1.848-3.593-3.068-6.831-3.068v-8.065c6.211,0,9.458,2.771,12.067,4.999   c2.164,1.848,3.593,3.067,6.83,3.067c3.238,0,4.668-1.22,6.832-3.068c2.609-2.227,5.856-4.999,12.068-4.999   s9.46,2.771,12.069,4.998c2.165,1.848,3.594,3.068,6.833,3.068c3.238,0,4.668-1.22,6.832-3.068   c2.608-2.227,5.856-4.999,12.068-4.999s9.459,2.771,12.068,4.998c2.165,1.848,3.594,3.068,6.833,3.068   c3.239,0,4.668-1.22,6.833-3.068c2.609-2.226,5.857-4.998,12.069-4.998s9.46,2.771,12.07,4.998   c2.164,1.848,3.594,3.068,6.834,3.068c3.238,0,4.668-1.22,6.832-3.068c2.608-2.227,5.856-4.999,12.067-4.999   c6.213,0,9.461,2.771,12.07,4.998c2.165,1.848,3.595,3.068,6.835,3.068s4.67-1.22,6.836-3.068c2.609-2.226,5.857-4.998,12.07-4.998   c6.214,0,9.462,2.771,12.072,4.998c2.165,1.848,3.596,3.068,6.837,3.068c3.241,0,4.671-1.22,6.837-3.068   c2.61-2.226,5.858-4.998,12.071-4.998v8.065c-3.241,0-4.671,1.22-6.837,3.068C375.843,190.953,372.595,193.725,366.381,193.725z"/>
	<path style="fill:#1E3160;" d="M366.381,299.577c-6.213,0-9.462-2.771-12.071-4.998c-2.165-1.848-3.596-3.068-6.837-3.068   c-3.24,0-4.67,1.22-6.835,3.068c-2.609,2.227-5.858,4.998-12.07,4.998s-9.46-2.771-12.07-4.998   c-2.165-1.848-3.595-3.068-6.835-3.068c-3.238,0-4.668,1.22-6.832,3.068c-2.608,2.227-5.856,4.999-12.067,4.999   c-6.212,0-9.46-2.771-12.07-4.998c-2.164-1.848-3.594-3.068-6.834-3.068c-3.239,0-4.668,1.22-6.833,3.068   c-2.609,2.226-5.857,4.998-12.069,4.998s-9.46-2.771-12.069-4.999c-2.165-1.848-3.594-3.068-6.833-3.068   c-3.238,0-4.668,1.22-6.832,3.068c-2.608,2.227-5.856,4.999-12.067,4.999c-6.212,0-9.46-2.771-12.069-4.999   c-2.165-1.848-3.595-3.068-6.833-3.068s-4.668,1.22-6.832,3.068c-2.609,2.227-5.856,4.999-12.068,4.999   c-6.211,0-9.458-2.771-12.067-4.999c-2.164-1.848-3.593-3.068-6.831-3.068v-8.065c6.211,0,9.458,2.771,12.067,4.999   c2.164,1.848,3.593,3.067,6.83,3.067c3.238,0,4.668-1.22,6.832-3.068c2.609-2.227,5.856-4.999,12.068-4.999   s9.46,2.771,12.069,4.998c2.165,1.848,3.594,3.068,6.833,3.068c3.238,0,4.668-1.22,6.832-3.068   c2.608-2.227,5.856-4.999,12.068-4.999s9.459,2.771,12.068,4.997c2.165,1.848,3.594,3.068,6.833,3.068   c3.239,0,4.668-1.22,6.833-3.068c2.609-2.226,5.857-4.998,12.069-4.998s9.46,2.771,12.07,4.998   c2.164,1.848,3.594,3.068,6.834,3.068c3.238,0,4.668-1.22,6.832-3.068c2.608-2.227,5.856-4.999,12.067-4.999   c6.213,0,9.461,2.771,12.07,4.998c2.165,1.848,3.595,3.068,6.835,3.068s4.67-1.22,6.836-3.068c2.609-2.226,5.857-4.998,12.07-4.998   c6.214,0,9.462,2.771,12.072,4.998c2.165,1.848,3.596,3.068,6.837,3.068c3.241,0,4.671-1.22,6.837-3.068   c2.61-2.226,5.858-4.998,12.071-4.998v8.065c-3.241,0-4.671,1.22-6.837,3.068C375.843,296.805,372.595,299.577,366.381,299.577z"/>
	<path style="fill:#1E3160;" d="M366.381,334.86c-6.213,0-9.462-2.771-12.071-4.998c-2.165-1.848-3.596-3.068-6.837-3.068   c-3.24,0-4.67,1.22-6.835,3.068c-2.609,2.227-5.858,4.998-12.07,4.998s-9.46-2.771-12.07-4.998   c-2.165-1.848-3.595-3.068-6.835-3.068c-3.238,0-4.668,1.22-6.832,3.068c-2.608,2.227-5.856,4.999-12.067,4.999   c-6.212,0-9.46-2.771-12.07-4.998c-2.164-1.848-3.594-3.068-6.834-3.068c-3.239,0-4.668,1.22-6.833,3.068   c-2.609,2.226-5.857,4.998-12.069,4.998s-9.46-2.771-12.069-4.999c-2.165-1.848-3.594-3.068-6.833-3.068   c-3.238,0-4.668,1.22-6.832,3.068c-2.608,2.227-5.856,4.999-12.067,4.999c-6.212,0-9.46-2.771-12.069-4.999   c-2.165-1.848-3.595-3.068-6.833-3.068s-4.668,1.22-6.832,3.068c-2.609,2.227-5.856,4.999-12.068,4.999   c-6.211,0-9.458-2.771-12.067-4.999c-2.164-1.848-3.593-3.068-6.831-3.068v-8.065c6.211,0,9.458,2.771,12.067,4.999   c2.164,1.848,3.593,3.067,6.83,3.067c3.238,0,4.668-1.22,6.832-3.068c2.609-2.227,5.856-4.999,12.068-4.999   s9.46,2.771,12.069,4.998c2.165,1.848,3.594,3.068,6.833,3.068c3.238,0,4.668-1.22,6.832-3.068   c2.608-2.227,5.856-4.999,12.068-4.999s9.459,2.771,12.068,4.998c2.165,1.848,3.594,3.068,6.833,3.068   c3.239,0,4.668-1.22,6.833-3.068c2.609-2.226,5.857-4.998,12.069-4.998s9.46,2.771,12.07,4.998   c2.164,1.848,3.594,3.068,6.834,3.068c3.238,0,4.668-1.22,6.832-3.068c2.608-2.227,5.856-4.999,12.067-4.999   c6.213,0,9.461,2.771,12.07,4.998c2.165,1.848,3.595,3.068,6.835,3.068s4.67-1.22,6.836-3.068c2.609-2.226,5.857-4.998,12.07-4.998   c6.214,0,9.462,2.771,12.072,4.998c2.165,1.848,3.596,3.068,6.837,3.068c3.241,0,4.671-1.22,6.837-3.068   c2.61-2.226,5.858-4.998,12.071-4.998v8.065c-3.241,0-4.671,1.22-6.837,3.068C375.843,332.089,372.595,334.86,366.381,334.86z"/>
	<path style="fill:#1E3160;" d="M366.381,370.144c-6.213,0-9.462-2.771-12.071-4.998c-2.165-1.848-3.596-3.068-6.837-3.068   c-3.24,0-4.67,1.22-6.835,3.068c-2.609,2.227-5.858,4.998-12.07,4.998s-9.46-2.771-12.07-4.998   c-2.165-1.848-3.595-3.068-6.835-3.068c-3.238,0-4.668,1.22-6.832,3.068c-2.608,2.227-5.856,4.999-12.067,4.999   c-6.212,0-9.46-2.771-12.07-4.998c-2.164-1.848-3.594-3.068-6.834-3.068c-3.239,0-4.668,1.22-6.833,3.068   c-2.609,2.226-5.857,4.998-12.069,4.998s-9.46-2.771-12.069-4.999c-2.165-1.848-3.594-3.068-6.833-3.068   c-3.238,0-4.668,1.22-6.832,3.068c-2.608,2.227-5.856,4.999-12.067,4.999c-6.212,0-9.46-2.771-12.069-4.999   c-2.165-1.848-3.595-3.068-6.833-3.068s-4.668,1.22-6.832,3.068c-2.609,2.227-5.856,4.999-12.068,4.999   c-6.211,0-9.458-2.771-12.067-4.999c-2.164-1.848-3.593-3.068-6.831-3.068v-8.065c6.211,0,9.458,2.771,12.067,4.999   c2.164,1.848,3.593,3.067,6.83,3.067c3.238,0,4.668-1.22,6.832-3.068c2.609-2.227,5.856-4.999,12.068-4.999   s9.46,2.771,12.069,4.998c2.165,1.848,3.594,3.068,6.833,3.068c3.238,0,4.668-1.22,6.832-3.068   c2.608-2.227,5.856-4.999,12.068-4.999s9.459,2.771,12.068,4.998c2.165,1.848,3.594,3.068,6.833,3.068   c3.239,0,4.668-1.22,6.833-3.068c2.609-2.226,5.857-4.998,12.069-4.998s9.46,2.771,12.07,4.998   c2.164,1.848,3.594,3.068,6.834,3.068c3.238,0,4.668-1.22,6.832-3.068c2.608-2.227,5.856-4.999,12.067-4.999   c6.213,0,9.461,2.771,12.07,4.998c2.165,1.848,3.595,3.068,6.835,3.068s4.67-1.22,6.836-3.068c2.609-2.226,5.857-4.998,12.07-4.998   c6.214,0,9.462,2.771,12.072,4.998c2.165,1.848,3.596,3.068,6.837,3.068c3.241,0,4.671-1.22,6.837-3.068   c2.61-2.226,5.858-4.998,12.071-4.998v8.065c-3.241,0-4.671,1.22-6.837,3.068C375.843,367.372,372.595,370.144,366.381,370.144z"/>
	<path style="fill:#1E3160;" d="M290.763,405.427c-6.212,0-9.46-2.771-12.07-4.998c-2.164-1.848-3.594-3.068-6.834-3.068   c-3.239,0-4.668,1.22-6.833,3.068c-2.609,2.226-5.857,4.998-12.069,4.998s-9.46-2.771-12.069-4.999   c-2.165-1.848-3.594-3.068-6.833-3.068c-3.238,0-4.668,1.22-6.832,3.068c-2.608,2.227-5.856,4.999-12.067,4.999   c-6.212,0-9.46-2.771-12.069-4.999c-2.165-1.848-3.595-3.068-6.833-3.068s-4.668,1.22-6.832,3.068   c-2.609,2.227-5.856,4.999-12.068,4.999c-6.211,0-9.458-2.771-12.067-4.999c-2.164-1.848-3.593-3.068-6.831-3.068v-8.065   c6.211,0,9.458,2.771,12.067,4.999c2.164,1.848,3.593,3.067,6.83,3.067c3.238,0,4.668-1.22,6.832-3.068   c2.609-2.227,5.856-4.999,12.068-4.999s9.46,2.771,12.069,4.998c2.165,1.848,3.594,3.068,6.833,3.068   c3.238,0,4.668-1.22,6.832-3.068c2.608-2.227,5.856-4.999,12.068-4.999s9.459,2.771,12.068,4.998   c2.165,1.848,3.594,3.068,6.833,3.068c3.239,0,4.668-1.22,6.833-3.068c2.609-2.226,5.857-4.998,12.069-4.998   s9.46,2.771,12.07,4.998c2.164,1.848,3.594,3.068,6.834,3.068v8.069H290.763z"/>
</g>
<path style="fill:#D8D2C5;" d="M423.214,98.13h-303.95c-2.238-8.611-10.062-14.972-19.367-14.972h303.95  c5.525,0,10.526,2.238,14.145,5.868C420.471,91.506,422.296,94.631,423.214,98.13z"/>
<path style="fill:#32AACE;" d="M485.835,51.047l-275.27,275.27l-43.713,20.718l20.718-43.713L452.792,38.1l10.048-10.048  c3.175-3.176,7.339-4.763,11.503-4.763c4.153,0,8.316,1.588,11.492,4.763C492.186,34.392,492.186,44.696,485.835,51.047z"/>
<path style="fill:#279CB7;" d="M462.366,47.674l10.048-10.048c3.175-3.176,7.339-4.763,11.503-4.763c1.916,0,3.831,0.354,5.654,1.03  c-0.789-2.13-2.023-4.131-3.735-5.84c-3.175-3.176-7.339-4.763-11.492-4.763c-4.164,0-8.327,1.588-11.503,4.763L452.792,38.1  L187.571,303.322l-20.718,43.713l30.292-34.14L462.366,47.674z"/>
<polygon style="fill:#F0A037;" points="210.567,326.31 194.377,333.987 166.852,347.036 179.9,319.495 187.578,303.322 "/>
<polygon style="fill:#DD8F31;" points="166.852,347.036 187.578,303.322 197.149,312.891 "/>
<path style="fill:#EB305B;" d="M485.835,51.047l-10.048,10.048L452.792,38.1l10.048-10.048c3.175-3.176,7.339-4.763,11.503-4.763  c4.153,0,8.316,1.588,11.492,4.763C492.186,34.392,492.186,44.696,485.835,51.047z"/>
<path style="fill:#4D5F82;" d="M194.377,333.989l-27.525,13.046l13.046-27.536C186.239,322.508,191.38,327.638,194.377,333.989z"/>
<path style="fill:#D32654;" d="M452.797,38.103l10.049-10.049c3.172-3.172,7.333-4.758,11.502-4.765  c4.146,0,8.314,1.593,11.486,4.765c0.463,0.463,0.879,0.943,1.272,1.445c0.164,0.197,0.314,0.393,0.455,0.596  c0.173,0.235,0.33,0.471,0.486,0.723c0.157,0.251,0.306,0.494,0.447,0.746c0.424,0.754,0.777,1.531,1.076,2.332  c-1.821-0.675-3.737-1.036-5.653-1.036c-4.169,0.008-8.33,1.593-11.502,4.765l-10.049,10.049L452.797,38.103z"/>
<g>
	
		<rect x="437.024" y="56.144" transform="matrix(-0.7071 -0.7071 0.7071 -0.7071 730.9655 423.946)" style="fill:#19899B;" width="32.521" height="8.882"/>
	
		<rect x="448.028" y="45.152" transform="matrix(-0.7071 -0.7071 0.7071 -0.7071 757.5229 412.9622)" style="fill:#19899B;" width="32.521" height="8.882"/>
</g>
<g>
</g>
<g>
</g>
<g>
</g>
<g>
</g>
<g>
</g>
<g>
</g>
<g>
</g>
<g>
</g>
<g>
</g>
<g>
</g>
<g>
</g>
<g>
</g>
<g>
</g>
<g>
</g>
<g>
</g>
</svg>
