<svg enable-background="new 0 0 512 512" viewBox="0 0 512 512" xmlns="http://www.w3.org/2000/svg"><path d="m512 256c0 77.167-34.142 146.362-88.148 193.284-3.287 2.865-6.651 5.64-10.082 8.316-4.275 3.364-8.66 6.584-13.157 9.66-8.905 6.107-18.22 11.669-27.88 16.633-12.98 6.662-26.603 12.247-40.76 16.633-24.005 7.45-49.52 11.47-75.979 11.47s-51.974-4.019-75.979-11.47c-14.157-4.386-27.78-9.971-40.749-16.633-6.629-3.409-13.091-7.084-19.364-11.037-2.731-1.71-5.418-3.475-8.072-5.285-.677-.455-1.343-.922-2.01-1.388-2.731-1.899-5.418-3.853-8.072-5.862-2.731-2.065-5.418-4.175-8.061-6.351-57.191-46.945-93.687-118.194-93.687-197.97 0-141.388 114.618-255.994 255.994-255.994 141.388 0 256.006 114.606 256.006 255.994z" fill="#f0a037"/><path d="m119.899 103.171v11.745l-8.065 142.488-10.082 178.106h-21.868v-332.34c0-5.525 2.238-10.526 5.868-14.155.534-.534 1.089-1.028 1.683-1.492 3.408-2.732 7.733-4.366 12.451-4.366h.01c9.306 0 17.129 6.362 19.367 14.972.414 1.613.636 3.297.636 5.042z" fill="#ada89e"/><path d="m111.831 114.912v352.659c-.677-.455-1.343-.922-2.01-1.388-2.731-1.899-5.418-3.853-8.072-5.862-2.731-2.065-5.418-4.175-8.061-6.351v-339.058z" fill="#cc2551"/><path d="m119.903 114.912v357.944c-2.731-1.71-5.418-3.475-8.072-5.285-.677-.455-1.343-.922-2.01-1.388-2.731-1.899-5.418-3.853-8.072-5.862v-345.409z" fill="#eb305b"/><path d="m413.77 114.934v342.666c-4.275 3.364-8.66 6.584-13.157 9.66-8.905 6.107-18.22 11.669-27.88 16.633-12.98 6.662-26.603 12.247-40.76 16.633-24.005 7.45-49.52 11.47-75.979 11.47s-51.974-4.019-75.979-11.47c-14.157-4.386-27.78-9.971-40.749-16.633-6.629-3.409-13.091-7.084-19.364-11.037-2.731-1.71-5.418-3.475-8.072-5.285-.677-.455-1.343-.922-2.01-1.388v-351.249z" fill="#ccc6ba"/><path d="m423.849 103.171v28.381h-303.95v-28.381c0-1.744-.222-3.428-.635-5.041-2.238-8.611-10.062-14.972-19.367-14.972h303.95c5.525 0 10.526 2.238 14.145 5.868 2.48 2.48 4.305 5.606 5.223 9.103.412 1.613.634 3.297.634 5.042z" fill="#e9e4d8"/><path d="m400.613 467.26c-8.905 6.107-18.22 11.669-27.88 16.633h-233.466c-6.629-3.409-13.091-7.084-19.364-11.037v-5.596z" fill="#d8d2c5"/><path d="m119.903 131.556v335.704h280.71c4.497-3.076 8.883-6.296 13.157-9.66 3.431-2.676 6.795-5.452 10.082-8.316v-317.728z" fill="#e9e4d8"/><g fill="#1e3160"><path d="m366.381 264.292c-6.213 0-9.462-2.771-12.071-4.998-2.165-1.848-3.596-3.068-6.837-3.068-3.24 0-4.67 1.22-6.835 3.068-2.609 2.227-5.858 4.998-12.07 4.998s-9.46-2.771-12.07-4.998c-2.165-1.848-3.595-3.068-6.835-3.068-3.238 0-4.668 1.22-6.832 3.068-2.608 2.227-5.856 4.999-12.067 4.999-6.212 0-9.46-2.771-12.07-4.998-2.164-1.848-3.594-3.068-6.834-3.068-3.239 0-4.668 1.22-6.833 3.068-2.609 2.226-5.857 4.998-12.069 4.998s-9.46-2.771-12.069-4.999c-2.165-1.848-3.594-3.068-6.833-3.068-3.238 0-4.668 1.22-6.832 3.068-2.608 2.227-5.856 4.999-12.067 4.999-6.212 0-9.46-2.771-12.069-4.999-2.165-1.848-3.595-3.068-6.833-3.068s-4.668 1.22-6.832 3.068c-2.609 2.227-5.856 4.999-12.068 4.999-6.211 0-9.458-2.771-12.067-4.999-2.164-1.848-3.593-3.068-6.831-3.068v-8.065c6.211 0 9.458 2.771 12.067 4.999 2.164 1.848 3.593 3.067 6.83 3.067 3.238 0 4.668-1.22 6.832-3.068 2.609-2.227 5.856-4.999 12.068-4.999s9.46 2.771 12.069 4.998c2.165 1.848 3.594 3.068 6.833 3.068 3.238 0 4.668-1.22 6.832-3.068 2.608-2.227 5.856-4.999 12.068-4.999s9.459 2.771 12.068 4.998c2.165 1.848 3.594 3.068 6.833 3.068s4.668-1.22 6.833-3.068c2.609-2.226 5.857-4.998 12.069-4.998s9.46 2.771 12.07 4.998c2.164 1.848 3.594 3.068 6.834 3.068 3.238 0 4.668-1.22 6.832-3.068 2.608-2.227 5.856-4.999 12.067-4.999 6.213 0 9.461 2.771 12.07 4.998 2.165 1.848 3.595 3.068 6.835 3.068s4.67-1.22 6.836-3.068c2.609-2.226 5.857-4.998 12.07-4.998 6.214 0 9.462 2.771 12.072 4.998 2.165 1.848 3.596 3.068 6.837 3.068s4.671-1.22 6.837-3.068c2.61-2.226 5.858-4.998 12.071-4.998v8.065c-3.241 0-4.671 1.22-6.837 3.068-2.61 2.231-5.858 5.001-12.072 5.001z"/><path d="m366.381 229.008c-6.213 0-9.462-2.771-12.071-4.998-2.165-1.848-3.596-3.068-6.837-3.068-3.24 0-4.67 1.22-6.835 3.068-2.609 2.227-5.858 4.998-12.07 4.998s-9.46-2.771-12.07-4.998c-2.165-1.848-3.595-3.068-6.835-3.068-3.238 0-4.668 1.22-6.832 3.068-2.608 2.227-5.856 4.999-12.067 4.999-6.212 0-9.46-2.771-12.07-4.998-2.164-1.848-3.594-3.068-6.834-3.068-3.239 0-4.668 1.22-6.833 3.068-2.609 2.226-5.857 4.998-12.069 4.998s-9.46-2.771-12.069-4.999c-2.165-1.848-3.594-3.068-6.833-3.068-3.238 0-4.668 1.22-6.832 3.068-2.608 2.227-5.856 4.999-12.067 4.999-6.212 0-9.46-2.771-12.069-4.999-2.165-1.848-3.595-3.068-6.833-3.068s-4.668 1.22-6.832 3.068c-2.609 2.227-5.856 4.999-12.068 4.999-6.211 0-9.458-2.771-12.067-4.999-2.164-1.848-3.593-3.068-6.831-3.068v-8.065c6.211 0 9.458 2.771 12.067 4.999 2.164 1.848 3.593 3.067 6.83 3.067 3.238 0 4.668-1.22 6.832-3.068 2.609-2.227 5.856-4.999 12.068-4.999s9.46 2.771 12.069 4.998c2.165 1.848 3.594 3.068 6.833 3.068 3.238 0 4.668-1.22 6.832-3.068 2.608-2.227 5.856-4.999 12.068-4.999s9.459 2.771 12.068 4.998c2.165 1.848 3.594 3.068 6.833 3.068s4.668-1.22 6.833-3.068c2.609-2.226 5.857-4.998 12.069-4.998s9.46 2.771 12.07 4.998c2.164 1.848 3.594 3.068 6.834 3.068 3.238 0 4.668-1.22 6.832-3.068 2.608-2.227 5.856-4.999 12.067-4.999 6.213 0 9.461 2.771 12.07 4.998 2.165 1.848 3.595 3.068 6.835 3.068s4.67-1.22 6.836-3.068c2.609-2.226 5.857-4.998 12.07-4.998 6.214 0 9.462 2.771 12.072 4.998 2.165 1.848 3.596 3.068 6.837 3.068s4.671-1.22 6.837-3.068c2.61-2.226 5.858-4.998 12.071-4.998v8.065c-3.241 0-4.671 1.22-6.837 3.068-2.61 2.23-5.858 5.001-12.072 5.001z"/><path d="m366.381 193.725c-6.213 0-9.462-2.771-12.071-4.998-2.165-1.848-3.596-3.068-6.837-3.068-3.24 0-4.67 1.22-6.835 3.068-2.609 2.227-5.858 4.998-12.07 4.998s-9.46-2.771-12.07-4.998c-2.165-1.848-3.595-3.068-6.835-3.068-3.238 0-4.668 1.22-6.832 3.068-2.608 2.227-5.856 4.999-12.067 4.999-6.212 0-9.46-2.771-12.07-4.998-2.164-1.848-3.594-3.068-6.834-3.068-3.239 0-4.668 1.22-6.833 3.068-2.609 2.226-5.857 4.998-12.069 4.998s-9.46-2.771-12.069-4.999c-2.165-1.848-3.594-3.068-6.833-3.068-3.238 0-4.668 1.22-6.832 3.068-2.608 2.227-5.856 4.999-12.067 4.999-6.212 0-9.46-2.771-12.069-4.999-2.165-1.848-3.595-3.068-6.833-3.068s-4.668 1.22-6.832 3.068c-2.609 2.227-5.856 4.999-12.068 4.999-6.211 0-9.458-2.771-12.067-4.999-2.164-1.848-3.593-3.068-6.831-3.068v-8.065c6.211 0 9.458 2.771 12.067 4.999 2.164 1.848 3.593 3.067 6.83 3.067 3.238 0 4.668-1.22 6.832-3.068 2.609-2.227 5.856-4.999 12.068-4.999s9.46 2.771 12.069 4.998c2.165 1.848 3.594 3.068 6.833 3.068 3.238 0 4.668-1.22 6.832-3.068 2.608-2.227 5.856-4.999 12.068-4.999s9.459 2.771 12.068 4.998c2.165 1.848 3.594 3.068 6.833 3.068s4.668-1.22 6.833-3.068c2.609-2.226 5.857-4.998 12.069-4.998s9.46 2.771 12.07 4.998c2.164 1.848 3.594 3.068 6.834 3.068 3.238 0 4.668-1.22 6.832-3.068 2.608-2.227 5.856-4.999 12.067-4.999 6.213 0 9.461 2.771 12.07 4.998 2.165 1.848 3.595 3.068 6.835 3.068s4.67-1.22 6.836-3.068c2.609-2.226 5.857-4.998 12.07-4.998 6.214 0 9.462 2.771 12.072 4.998 2.165 1.848 3.596 3.068 6.837 3.068s4.671-1.22 6.837-3.068c2.61-2.226 5.858-4.998 12.071-4.998v8.065c-3.241 0-4.671 1.22-6.837 3.068-2.61 2.229-5.858 5.001-12.072 5.001z"/><path d="m366.381 299.577c-6.213 0-9.462-2.771-12.071-4.998-2.165-1.848-3.596-3.068-6.837-3.068-3.24 0-4.67 1.22-6.835 3.068-2.609 2.227-5.858 4.998-12.07 4.998s-9.46-2.771-12.07-4.998c-2.165-1.848-3.595-3.068-6.835-3.068-3.238 0-4.668 1.22-6.832 3.068-2.608 2.227-5.856 4.999-12.067 4.999-6.212 0-9.46-2.771-12.07-4.998-2.164-1.848-3.594-3.068-6.834-3.068-3.239 0-4.668 1.22-6.833 3.068-2.609 2.226-5.857 4.998-12.069 4.998s-9.46-2.771-12.069-4.999c-2.165-1.848-3.594-3.068-6.833-3.068-3.238 0-4.668 1.22-6.832 3.068-2.608 2.227-5.856 4.999-12.067 4.999-6.212 0-9.46-2.771-12.069-4.999-2.165-1.848-3.595-3.068-6.833-3.068s-4.668 1.22-6.832 3.068c-2.609 2.227-5.856 4.999-12.068 4.999-6.211 0-9.458-2.771-12.067-4.999-2.164-1.848-3.593-3.068-6.831-3.068v-8.065c6.211 0 9.458 2.771 12.067 4.999 2.164 1.848 3.593 3.067 6.83 3.067 3.238 0 4.668-1.22 6.832-3.068 2.609-2.227 5.856-4.999 12.068-4.999s9.46 2.771 12.069 4.998c2.165 1.848 3.594 3.068 6.833 3.068 3.238 0 4.668-1.22 6.832-3.068 2.608-2.227 5.856-4.999 12.068-4.999s9.459 2.771 12.068 4.997c2.165 1.848 3.594 3.068 6.833 3.068s4.668-1.22 6.833-3.068c2.609-2.226 5.857-4.998 12.069-4.998s9.46 2.771 12.07 4.998c2.164 1.848 3.594 3.068 6.834 3.068 3.238 0 4.668-1.22 6.832-3.068 2.608-2.227 5.856-4.999 12.067-4.999 6.213 0 9.461 2.771 12.07 4.998 2.165 1.848 3.595 3.068 6.835 3.068s4.67-1.22 6.836-3.068c2.609-2.226 5.857-4.998 12.07-4.998 6.214 0 9.462 2.771 12.072 4.998 2.165 1.848 3.596 3.068 6.837 3.068s4.671-1.22 6.837-3.068c2.61-2.226 5.858-4.998 12.071-4.998v8.065c-3.241 0-4.671 1.22-6.837 3.068-2.61 2.23-5.858 5.002-12.072 5.002z"/><path d="m366.381 334.86c-6.213 0-9.462-2.771-12.071-4.998-2.165-1.848-3.596-3.068-6.837-3.068-3.24 0-4.67 1.22-6.835 3.068-2.609 2.227-5.858 4.998-12.07 4.998s-9.46-2.771-12.07-4.998c-2.165-1.848-3.595-3.068-6.835-3.068-3.238 0-4.668 1.22-6.832 3.068-2.608 2.227-5.856 4.999-12.067 4.999-6.212 0-9.46-2.771-12.07-4.998-2.164-1.848-3.594-3.068-6.834-3.068-3.239 0-4.668 1.22-6.833 3.068-2.609 2.226-5.857 4.998-12.069 4.998s-9.46-2.771-12.069-4.999c-2.165-1.848-3.594-3.068-6.833-3.068-3.238 0-4.668 1.22-6.832 3.068-2.608 2.227-5.856 4.999-12.067 4.999-6.212 0-9.46-2.771-12.069-4.999-2.165-1.848-3.595-3.068-6.833-3.068s-4.668 1.22-6.832 3.068c-2.609 2.227-5.856 4.999-12.068 4.999-6.211 0-9.458-2.771-12.067-4.999-2.164-1.848-3.593-3.068-6.831-3.068v-8.065c6.211 0 9.458 2.771 12.067 4.999 2.164 1.848 3.593 3.067 6.83 3.067 3.238 0 4.668-1.22 6.832-3.068 2.609-2.227 5.856-4.999 12.068-4.999s9.46 2.771 12.069 4.998c2.165 1.848 3.594 3.068 6.833 3.068 3.238 0 4.668-1.22 6.832-3.068 2.608-2.227 5.856-4.999 12.068-4.999s9.459 2.771 12.068 4.998c2.165 1.848 3.594 3.068 6.833 3.068s4.668-1.22 6.833-3.068c2.609-2.226 5.857-4.998 12.069-4.998s9.46 2.771 12.07 4.998c2.164 1.848 3.594 3.068 6.834 3.068 3.238 0 4.668-1.22 6.832-3.068 2.608-2.227 5.856-4.999 12.067-4.999 6.213 0 9.461 2.771 12.07 4.998 2.165 1.848 3.595 3.068 6.835 3.068s4.67-1.22 6.836-3.068c2.609-2.226 5.857-4.998 12.07-4.998 6.214 0 9.462 2.771 12.072 4.998 2.165 1.848 3.596 3.068 6.837 3.068s4.671-1.22 6.837-3.068c2.61-2.226 5.858-4.998 12.071-4.998v8.065c-3.241 0-4.671 1.22-6.837 3.068-2.61 2.23-5.858 5.001-12.072 5.001z"/><path d="m366.381 370.144c-6.213 0-9.462-2.771-12.071-4.998-2.165-1.848-3.596-3.068-6.837-3.068-3.24 0-4.67 1.22-6.835 3.068-2.609 2.227-5.858 4.998-12.07 4.998s-9.46-2.771-12.07-4.998c-2.165-1.848-3.595-3.068-6.835-3.068-3.238 0-4.668 1.22-6.832 3.068-2.608 2.227-5.856 4.999-12.067 4.999-6.212 0-9.46-2.771-12.07-4.998-2.164-1.848-3.594-3.068-6.834-3.068-3.239 0-4.668 1.22-6.833 3.068-2.609 2.226-5.857 4.998-12.069 4.998s-9.46-2.771-12.069-4.999c-2.165-1.848-3.594-3.068-6.833-3.068-3.238 0-4.668 1.22-6.832 3.068-2.608 2.227-5.856 4.999-12.067 4.999-6.212 0-9.46-2.771-12.069-4.999-2.165-1.848-3.595-3.068-6.833-3.068s-4.668 1.22-6.832 3.068c-2.609 2.227-5.856 4.999-12.068 4.999-6.211 0-9.458-2.771-12.067-4.999-2.164-1.848-3.593-3.068-6.831-3.068v-8.065c6.211 0 9.458 2.771 12.067 4.999 2.164 1.848 3.593 3.067 6.83 3.067 3.238 0 4.668-1.22 6.832-3.068 2.609-2.227 5.856-4.999 12.068-4.999s9.46 2.771 12.069 4.998c2.165 1.848 3.594 3.068 6.833 3.068 3.238 0 4.668-1.22 6.832-3.068 2.608-2.227 5.856-4.999 12.068-4.999s9.459 2.771 12.068 4.998c2.165 1.848 3.594 3.068 6.833 3.068s4.668-1.22 6.833-3.068c2.609-2.226 5.857-4.998 12.069-4.998s9.46 2.771 12.07 4.998c2.164 1.848 3.594 3.068 6.834 3.068 3.238 0 4.668-1.22 6.832-3.068 2.608-2.227 5.856-4.999 12.067-4.999 6.213 0 9.461 2.771 12.07 4.998 2.165 1.848 3.595 3.068 6.835 3.068s4.67-1.22 6.836-3.068c2.609-2.226 5.857-4.998 12.07-4.998 6.214 0 9.462 2.771 12.072 4.998 2.165 1.848 3.596 3.068 6.837 3.068s4.671-1.22 6.837-3.068c2.61-2.226 5.858-4.998 12.071-4.998v8.065c-3.241 0-4.671 1.22-6.837 3.068-2.61 2.229-5.858 5.001-12.072 5.001z"/><path d="m290.763 405.427c-6.212 0-9.46-2.771-12.07-4.998-2.164-1.848-3.594-3.068-6.834-3.068-3.239 0-4.668 1.22-6.833 3.068-2.609 2.226-5.857 4.998-12.069 4.998s-9.46-2.771-12.069-4.999c-2.165-1.848-3.594-3.068-6.833-3.068-3.238 0-4.668 1.22-6.832 3.068-2.608 2.227-5.856 4.999-12.067 4.999-6.212 0-9.46-2.771-12.069-4.999-2.165-1.848-3.595-3.068-6.833-3.068s-4.668 1.22-6.832 3.068c-2.609 2.227-5.856 4.999-12.068 4.999-6.211 0-9.458-2.771-12.067-4.999-2.164-1.848-3.593-3.068-6.831-3.068v-8.065c6.211 0 9.458 2.771 12.067 4.999 2.164 1.848 3.593 3.067 6.83 3.067 3.238 0 4.668-1.22 6.832-3.068 2.609-2.227 5.856-4.999 12.068-4.999s9.46 2.771 12.069 4.998c2.165 1.848 3.594 3.068 6.833 3.068 3.238 0 4.668-1.22 6.832-3.068 2.608-2.227 5.856-4.999 12.068-4.999s9.459 2.771 12.068 4.998c2.165 1.848 3.594 3.068 6.833 3.068s4.668-1.22 6.833-3.068c2.609-2.226 5.857-4.998 12.069-4.998s9.46 2.771 12.07 4.998c2.164 1.848 3.594 3.068 6.834 3.068v8.069h.001z"/></g><path d="m423.214 98.13h-303.95c-2.238-8.611-10.062-14.972-19.367-14.972h303.95c5.525 0 10.526 2.238 14.145 5.868 2.479 2.48 4.304 5.605 5.222 9.104z" fill="#d8d2c5"/><path d="m485.835 51.047-275.27 275.27-43.713 20.718 20.718-43.713 265.222-265.222 10.048-10.048c3.175-3.176 7.339-4.763 11.503-4.763 4.153 0 8.316 1.588 11.492 4.763 6.351 6.34 6.351 16.644 0 22.995z" fill="#32aace"/><path d="m462.366 47.674 10.048-10.048c3.175-3.176 7.339-4.763 11.503-4.763 1.916 0 3.831.354 5.654 1.03-.789-2.13-2.023-4.131-3.735-5.84-3.175-3.176-7.339-4.763-11.492-4.763-4.164 0-8.327 1.588-11.503 4.763l-10.049 10.047-265.221 265.222-20.718 43.713 30.292-34.14z" fill="#279cb7"/><path d="m210.567 326.31-16.19 7.677-27.525 13.049 13.048-27.541 7.678-16.173z" fill="#f0a037"/><path d="m166.852 347.036 20.726-43.714 9.571 9.569z" fill="#dd8f31"/><path d="m485.835 51.047-10.048 10.048-22.995-22.995 10.048-10.048c3.175-3.176 7.339-4.763 11.503-4.763 4.153 0 8.316 1.588 11.492 4.763 6.351 6.34 6.351 16.644 0 22.995z" fill="#eb305b"/><path d="m194.377 333.989-27.525 13.046 13.046-27.536c6.341 3.009 11.482 8.139 14.479 14.49z" fill="#4d5f82"/><path d="m452.797 38.103 10.049-10.049c3.172-3.172 7.333-4.758 11.502-4.765 4.146 0 8.314 1.593 11.486 4.765.463.463.879.943 1.272 1.445.164.197.314.393.455.596.173.235.33.471.486.723.157.251.306.494.447.746.424.754.777 1.531 1.076 2.332-1.821-.675-3.737-1.036-5.653-1.036-4.169.008-8.33 1.593-11.502 4.765l-10.049 10.049z" fill="#d32654"/><path d="m437.024 56.144h32.521v8.882h-32.521z" fill="#19899b" transform="matrix(-.7071 -.7071 .7071 -.7071 730.9655 423.946)"/><path d="m448.028 45.152h32.521v8.882h-32.521z" fill="#19899b" transform="matrix(-.7071 -.7071 .7071 -.7071 757.5229 412.9622)"/></svg>