<svg enable-background="new 0 0 512 512" viewBox="0 0 512 512" xmlns="http://www.w3.org/2000/svg"><path d="m512 256c0 141.388-114.618 255.994-255.994 255.994-61.434 0-117.816-21.64-161.928-57.714-23.339-19.075-43.247-42.192-58.658-68.284-22.507-38.106-35.42-82.541-35.42-129.996 0-141.388 114.618-255.994 256.006-255.994 141.376 0 255.994 114.606 255.994 255.994z" fill="#1e3160"/><path d="m405.321 385.996v68.284h-311.244c-23.339-19.075-43.247-42.192-58.658-68.284z" fill="#e9e4d8"/><path d="m377.296 386.001h7.772v28.081h-7.772z" fill="#c6c1b5"/><path d="m353.98 386.001h7.772v16.978h-7.772z" fill="#c6c1b5"/><path d="m330.663 386.001h7.772v16.978h-7.772z" fill="#c6c1b5"/><path d="m307.347 386.001h7.772v16.978h-7.772z" fill="#c6c1b5"/><path d="m284.03 386.001h7.772v28.081h-7.772z" fill="#c6c1b5"/><path d="m260.713 386.001h7.772v16.978h-7.772z" fill="#c6c1b5"/><path d="m237.397 386.001h7.772v16.978h-7.772z" fill="#c6c1b5"/><path d="m214.08 386.001h7.772v16.978h-7.772z" fill="#c6c1b5"/><path d="m190.763 386.001h7.772v28.081h-7.772z" fill="#c6c1b5"/><path d="m167.447 386.001h7.772v16.978h-7.772z" fill="#c6c1b5"/><path d="m144.13 386.001h7.772v16.978h-7.772z" fill="#c6c1b5"/><path d="m120.813 386.001h7.772v16.978h-7.772z" fill="#c6c1b5"/><path d="m97.497 386.001h7.772v28.081h-7.772z" fill="#c6c1b5"/><path d="m74.177 386.001h7.772v16.978h-7.772z" fill="#c6c1b5"/><path d="m50.86 386.001h7.772v16.978h-7.772z" fill="#c6c1b5"/><path d="m45.105 340.206h389.29l45.56-16.259-45.56-16.259h-375.079-14.211c-4.491 0-8.557 1.822-11.502 4.765-2.937 2.937-4.758 7.003-4.758 11.494-.007 8.973 7.279 16.259 16.26 16.259z" fill="#32aace"/><path d="m59.316 321.227h-14.211c-4.491 0-8.557 1.822-11.502 4.765-1.355 1.356-2.458 2.959-3.269 4.727-.948-2.064-1.49-4.352-1.489-6.772 0-4.491 1.822-8.557 4.758-11.494 2.945-2.945 7.011-4.765 11.502-4.765h14.211 375.079l45.56 16.259-45.56-2.721z" fill="#279cb7"/><path d="m434.39 340.202 16.877-6.018 28.69-10.237-28.701-10.248-16.866-6.007z" fill="#f0a037"/><path d="m479.957 323.947-45.567-16.255v13.535z" fill="#dd8f31"/><path d="m45.105 340.206h14.211v-32.519h-14.211c-4.491 0-8.557 1.822-11.502 4.765-2.937 2.937-4.758 7.003-4.758 11.494-.007 8.974 7.279 16.26 16.26 16.26z" fill="#eb305b"/><path d="m451.268 334.185 28.688-10.238-28.696-10.246c-2.356 6.611-2.364 13.873.008 20.484z" fill="#4d5f82"/><path d="m59.314 321.227h-14.212c-4.486 0-8.549 1.821-11.503 4.763-1.355 1.355-2.454 2.965-3.264 4.73-.355-.777-.655-1.577-.888-2.409-.078-.278-.144-.555-.211-.844s-.122-.566-.167-.855c-.044-.244-.078-.489-.1-.744-.078-.633-.122-1.266-.122-1.921 0-4.486 1.821-8.561 4.752-11.492 2.953-2.942 7.017-4.763 11.503-4.763h14.212z" fill="#d32654"/><path d="m70.427 307.68h8.883v32.521h-8.883z" fill="#19899b"/><path d="m54.883 307.68h8.883v32.521h-8.883z" fill="#19899b"/><path d="m435.027 197.575c0-22.984-4.352-44.946-12.269-65.109-.944-2.42-1.943-4.808-2.998-7.173-8.416-18.953-20.052-36.163-34.209-50.941-1.776-1.876-3.62-3.708-5.496-5.496-14.712-14.101-31.844-25.693-50.697-34.098-2.365-1.055-4.752-2.065-7.162-3.02-19.096-7.528-39.804-11.858-61.477-12.324-1.288-.033-2.587-.044-3.886-.044s-2.598.011-3.886.044c-21.673.466-42.381 4.797-61.478 12.325-2.409.955-4.797 1.965-7.162 3.02-18.853 8.405-35.985 19.997-50.697 34.098-1.876 1.788-3.72 3.62-5.496 5.496-14.157 14.778-25.793 31.988-34.209 50.941-1.055 2.365-2.054 4.752-2.998 7.173-7.917 20.163-12.269 42.125-12.269 65.109h-33.309v68.273h421.343v-68.273h-31.645zm-292.501 0c0-63.133 51.174-114.307 114.307-114.307s114.307 51.175 114.307 114.307z" fill="#f0a037"/><g fill="#c47d27"><path d="m66.142 237.774h6.662v28.081h-6.662z"/><path d="m89.458 248.877h6.662v16.978h-6.662z"/><path d="m112.775 248.877h6.662v16.978h-6.662z"/><path d="m136.091 248.877h6.662v16.978h-6.662z"/><path d="m159.408 237.774h6.662v28.081h-6.662z"/><path d="m182.725 248.877h6.662v16.978h-6.662z"/><path d="m206.041 248.877h6.662v16.978h-6.662z"/><path d="m229.358 248.877h6.662v16.978h-6.662z"/><path d="m252.675 237.774h6.662v28.081h-6.662z"/><path d="m275.991 248.877h6.662v16.978h-6.662z"/><path d="m299.308 248.877h6.662v16.978h-6.662z"/><path d="m322.625 248.877h6.662v16.978h-6.662z"/><path d="m345.941 237.774h6.662v28.081h-6.662z"/><path d="m369.258 248.877h6.662v16.978h-6.662z"/><path d="m392.574 248.877h6.662v16.978h-6.662z"/><path d="m415.891 248.877h6.662v16.978h-6.662z"/><path d="m439.208 237.774h6.662v28.081h-6.662z"/><path d="m260.719 19.414v23.272h-7.772v-23.272c1.288-.033 2.587-.044 3.886-.044s2.598.011 3.886.044z"/><path d="m150.065 85.311-5.496 5.496-16.455-16.455c1.777-1.876 3.62-3.708 5.496-5.496z"/><path d="m200.495 53.245-7.173 3.009-9.016-21.496c2.365-1.055 4.752-2.065 7.162-3.02z"/><path d="m115.423 134.287-2.998 7.173-21.518-8.994c.944-2.42 1.943-4.808 2.998-7.173z"/><path d="m385.552 74.352-16.455 16.455-5.496-5.496 16.455-16.455c1.876 1.788 3.719 3.62 5.496 5.496z"/><path d="m329.359 34.758-9.016 21.496-7.173-3.009 9.027-21.507c2.409.955 4.797 1.966 7.162 3.02z"/><path d="m422.758 132.466-21.518 8.994-2.998-7.173 21.518-8.994c1.055 2.366 2.055 4.753 2.998 7.173z"/></g></svg>