<?xml version="1.0" encoding="iso-8859-1"?>
<!-- Generator: Adobe Illustrator 19.0.0, SVG Export Plug-In . SVG Version: 6.00 Build 0)  -->
<svg xmlns="http://www.w3.org/2000/svg" xmlns:xlink="http://www.w3.org/1999/xlink" version="1.1" id="Layer_1" x="0px" y="0px" viewBox="0 0 512 512" style="enable-background:new 0 0 512 512;" xml:space="preserve">
<path style="fill:#1E3160;" d="M512,256c0,141.388-114.618,255.994-255.994,255.994c-61.434,0-117.816-21.64-161.928-57.714  c-23.339-19.075-43.247-42.192-58.658-68.284C12.913,347.89,0,303.455,0,256C0,114.612,114.618,0.006,256.006,0.006  C397.382,0.006,512,114.612,512,256z"/>
<path style="fill:#E9E4D8;" d="M405.321,385.996v68.284H94.077c-23.339-19.075-43.247-42.192-58.658-68.284H405.321z"/>
<g>
	<rect x="377.296" y="386.001" style="fill:#C6C1B5;" width="7.772" height="28.081"/>
	<rect x="353.98" y="386.001" style="fill:#C6C1B5;" width="7.772" height="16.978"/>
	<rect x="330.663" y="386.001" style="fill:#C6C1B5;" width="7.772" height="16.978"/>
	<rect x="307.347" y="386.001" style="fill:#C6C1B5;" width="7.772" height="16.978"/>
	<rect x="284.03" y="386.001" style="fill:#C6C1B5;" width="7.772" height="28.081"/>
	<rect x="260.713" y="386.001" style="fill:#C6C1B5;" width="7.772" height="16.978"/>
	<rect x="237.397" y="386.001" style="fill:#C6C1B5;" width="7.772" height="16.978"/>
	<rect x="214.08" y="386.001" style="fill:#C6C1B5;" width="7.772" height="16.978"/>
	<rect x="190.763" y="386.001" style="fill:#C6C1B5;" width="7.772" height="28.081"/>
	<rect x="167.447" y="386.001" style="fill:#C6C1B5;" width="7.772" height="16.978"/>
	<rect x="144.13" y="386.001" style="fill:#C6C1B5;" width="7.772" height="16.978"/>
	<rect x="120.813" y="386.001" style="fill:#C6C1B5;" width="7.772" height="16.978"/>
	<rect x="97.497" y="386.001" style="fill:#C6C1B5;" width="7.772" height="28.081"/>
	<rect x="74.177" y="386.001" style="fill:#C6C1B5;" width="7.772" height="16.978"/>
	<rect x="50.86" y="386.001" style="fill:#C6C1B5;" width="7.772" height="16.978"/>
</g>
<path style="fill:#32AACE;" d="M45.105,340.206h389.29l45.56-16.259l-45.56-16.259H59.316H45.105c-4.491,0-8.557,1.822-11.502,4.765  c-2.937,2.937-4.758,7.003-4.758,11.494C28.838,332.92,36.124,340.206,45.105,340.206z"/>
<path style="fill:#279CB7;" d="M59.316,321.227H45.105c-4.491,0-8.557,1.822-11.502,4.765c-1.355,1.356-2.458,2.959-3.269,4.727  c-0.948-2.064-1.49-4.352-1.489-6.772c0-4.491,1.822-8.557,4.758-11.494c2.945-2.945,7.011-4.765,11.502-4.765h14.211h375.079  l45.56,16.259l-45.56-2.721L59.316,321.227z"/>
<polygon style="fill:#F0A037;" points="434.39,340.202 451.267,334.184 479.957,323.947 451.256,313.699 434.39,307.692 "/>
<polygon style="fill:#DD8F31;" points="479.957,323.947 434.39,307.692 434.39,321.227 "/>
<path style="fill:#EB305B;" d="M45.105,340.206h14.211v-32.519H45.105c-4.491,0-8.557,1.822-11.502,4.765  c-2.937,2.937-4.758,7.003-4.758,11.494C28.838,332.92,36.124,340.206,45.105,340.206z"/>
<path style="fill:#4D5F82;" d="M451.268,334.185l28.688-10.238l-28.696-10.246C448.904,320.312,448.896,327.574,451.268,334.185z"/>
<path style="fill:#D32654;" d="M59.314,321.227H45.102c-4.486,0-8.549,1.821-11.503,4.763c-1.355,1.355-2.454,2.965-3.264,4.73  c-0.355-0.777-0.655-1.577-0.888-2.409c-0.078-0.278-0.144-0.555-0.211-0.844c-0.067-0.289-0.122-0.566-0.167-0.855  c-0.044-0.244-0.078-0.489-0.1-0.744c-0.078-0.633-0.122-1.266-0.122-1.921c0-4.486,1.821-8.561,4.752-11.492  c2.953-2.942,7.017-4.763,11.503-4.763h14.212V321.227z"/>
<g>
	<rect x="70.427" y="307.68" style="fill:#19899B;" width="8.883" height="32.521"/>
	<rect x="54.883" y="307.68" style="fill:#19899B;" width="8.883" height="32.521"/>
</g>
<path style="fill:#F0A037;" d="M435.027,197.575c0-22.984-4.352-44.946-12.269-65.109c-0.944-2.42-1.943-4.808-2.998-7.173  c-8.416-18.953-20.052-36.163-34.209-50.941c-1.776-1.876-3.62-3.708-5.496-5.496c-14.712-14.101-31.844-25.693-50.697-34.098  c-2.365-1.055-4.752-2.065-7.162-3.02C303.1,24.21,282.392,19.88,260.719,19.414c-1.288-0.033-2.587-0.044-3.886-0.044  s-2.598,0.011-3.886,0.044c-21.673,0.466-42.381,4.797-61.478,12.325c-2.409,0.955-4.797,1.965-7.162,3.02  c-18.853,8.405-35.985,19.997-50.697,34.098c-1.876,1.788-3.72,3.62-5.496,5.496c-14.157,14.778-25.793,31.988-34.209,50.941  c-1.055,2.365-2.054,4.752-2.998,7.173c-7.917,20.163-12.269,42.125-12.269,65.109H45.329v68.273h421.343v-68.273H435.027z   M142.526,197.575c0-63.133,51.174-114.307,114.307-114.307S371.14,134.443,371.14,197.575H142.526z"/>
<g>
	<rect x="66.142" y="237.774" style="fill:#C47D27;" width="6.662" height="28.081"/>
	<rect x="89.458" y="248.877" style="fill:#C47D27;" width="6.662" height="16.978"/>
	<rect x="112.775" y="248.877" style="fill:#C47D27;" width="6.662" height="16.978"/>
	<rect x="136.091" y="248.877" style="fill:#C47D27;" width="6.662" height="16.978"/>
	<rect x="159.408" y="237.774" style="fill:#C47D27;" width="6.662" height="28.081"/>
	<rect x="182.725" y="248.877" style="fill:#C47D27;" width="6.662" height="16.978"/>
	<rect x="206.041" y="248.877" style="fill:#C47D27;" width="6.662" height="16.978"/>
	<rect x="229.358" y="248.877" style="fill:#C47D27;" width="6.662" height="16.978"/>
	<rect x="252.675" y="237.774" style="fill:#C47D27;" width="6.662" height="28.081"/>
	<rect x="275.991" y="248.877" style="fill:#C47D27;" width="6.662" height="16.978"/>
	<rect x="299.308" y="248.877" style="fill:#C47D27;" width="6.662" height="16.978"/>
	<rect x="322.625" y="248.877" style="fill:#C47D27;" width="6.662" height="16.978"/>
	<rect x="345.941" y="237.774" style="fill:#C47D27;" width="6.662" height="28.081"/>
	<rect x="369.258" y="248.877" style="fill:#C47D27;" width="6.662" height="16.978"/>
	<rect x="392.574" y="248.877" style="fill:#C47D27;" width="6.662" height="16.978"/>
	<rect x="415.891" y="248.877" style="fill:#C47D27;" width="6.662" height="16.978"/>
	<rect x="439.208" y="237.774" style="fill:#C47D27;" width="6.662" height="28.081"/>
	<path style="fill:#C47D27;" d="M260.719,19.414v23.272h-7.772V19.414c1.288-0.033,2.587-0.044,3.886-0.044   S259.431,19.381,260.719,19.414z"/>
	<path style="fill:#C47D27;" d="M150.065,85.311l-5.496,5.496l-16.455-16.455c1.777-1.876,3.62-3.708,5.496-5.496L150.065,85.311z"/>
	<path style="fill:#C47D27;" d="M200.495,53.245l-7.173,3.009l-9.016-21.496c2.365-1.055,4.752-2.065,7.162-3.02L200.495,53.245z"/>
	<path style="fill:#C47D27;" d="M115.423,134.287l-2.998,7.173l-21.518-8.994c0.944-2.42,1.943-4.808,2.998-7.173L115.423,134.287z"/>
	<path style="fill:#C47D27;" d="M385.552,74.352l-16.455,16.455l-5.496-5.496l16.455-16.455   C381.932,70.644,383.775,72.476,385.552,74.352z"/>
	<path style="fill:#C47D27;" d="M329.359,34.758l-9.016,21.496l-7.173-3.009l9.027-21.507   C324.606,32.693,326.994,33.704,329.359,34.758z"/>
	<path style="fill:#C47D27;" d="M422.758,132.466l-21.518,8.994l-2.998-7.173l21.518-8.994   C420.815,127.659,421.815,130.046,422.758,132.466z"/>
</g>
<g>
</g>
<g>
</g>
<g>
</g>
<g>
</g>
<g>
</g>
<g>
</g>
<g>
</g>
<g>
</g>
<g>
</g>
<g>
</g>
<g>
</g>
<g>
</g>
<g>
</g>
<g>
</g>
<g>
</g>
</svg>
