<svg enable-background="new 0 0 512 512" viewBox="0 0 512 512" xmlns="http://www.w3.org/2000/svg"><path d="m512 256c0 79.21-35.974 150.015-92.478 196.97-7.783 6.473-15.966 12.491-24.494 18.009-5.652 3.664-11.447 7.106-17.399 10.326-16.322 8.838-33.72 15.944-51.941 21.085-8.594 2.432-17.376 4.419-26.315 5.94-6.051 1.033-12.18 1.854-18.376 2.454-8.227.799-16.555 1.21-24.993 1.21-32.421 0-63.421-6.029-91.967-17.021-9.204-3.542-18.165-7.606-26.814-12.147-6.518-3.42-12.869-7.106-19.031-11.048-16.766-10.737-32.199-23.361-45.989-37.595-8.561-8.816-16.488-18.254-23.716-28.235-5.885-8.139-11.314-16.644-16.233-25.471-20.551-36.84-32.254-79.298-32.254-124.477 0-59.135 20.052-113.596 53.739-156.932 6.184-7.972 12.835-15.567 19.919-22.739 4.308-4.375 8.771-8.594 13.379-12.646 5.341-4.697 10.881-9.182 16.61-13.413 42.57-31.588 95.287-50.264 152.358-50.264 141.377 0 255.995 114.606 255.995 255.994z" fill="#eb305b"/><path d="m388.777 50.27h-284.574l33.021 432.557c8.649 4.541 17.61 8.605 26.814 12.147l-6.662-87.182h232.822l4.83 63.188c8.527-5.518 16.71-11.536 24.494-18.009z" fill="#f0a037"/><path d="m392.863 354.285c.755 9.238-6.54 17.143-15.8 17.143h-194.394c9.26 0 16.544-7.905 15.8-17.143l-.489-5.885h187.677 6.729z" fill="#c17a2d"/><path d="m332.917 407.791-7.228 94.599c-8.594 2.432-17.376 4.419-26.315 5.94l7.672-100.539z" fill="#c17a2d"/><path d="m113.308 407.791h-39.083l-2.021 26.392c-8.561-8.816-16.488-18.254-23.716-28.235l25.17-329.619 1.987-26.048v-.011h10.37l1.021 13.413z" fill="#c17a2d"/><g fill="#d88d32"><path d="m364.883 76.151 20.774 272.249h-187.677-29.168-15.977l-20.774-272.249zm.522 253.43-17.909-234.621h-195.183l17.909 234.621z"/><path d="m198.469 354.285c.744 9.238-6.54 17.143-15.8 17.143h-11.98l-1.876-23.028h29.168z"/><path d="m75.646 50.281-1.987 26.048-25.172 329.619c-5.885-8.139-11.314-16.644-16.233-25.471l21.485-281.41 3.72-48.787h18.187z"/><path d="m137.224 482.826c-6.518-3.42-12.869-7.106-19.031-11.048l-4.885-63.988-26.27-344.108-1.022-13.412h18.187z"/><path d="m307.047 407.791-7.672 100.539c-6.051 1.033-12.18 1.854-18.376 2.454l7.861-102.993z"/><path d="m395.028 470.979c-5.652 3.664-11.447 7.106-17.399 10.326l-5.618-73.514h18.187z"/></g><path d="m347.496 94.96 17.909 234.621h-195.182l-17.91-234.621z" fill="#42577f"/><path d="m304.897 147.438c0-1.533-1.242-2.776-2.776-2.776h-52.74c-1.375 0-2.544 1.007-2.746 2.367l-12.491 84.015-22.76-50.34c-.45-.994-1.439-1.632-2.529-1.632h-26.648c-1.533 0-2.776 1.242-2.776 2.776 0 1.533 1.242 2.776 2.776 2.776h24.857l25.909 57.306c.454 1.004 1.451 1.632 2.528 1.632.127 0 .255-.009.384-.027 1.22-.17 2.182-1.124 2.363-2.341l13.528-90.982h50.346c1.533.002 2.775-1.241 2.775-2.774z" fill="#fff"/><path d="m286.262 175.802c-9.643 0-17.487 9.09-17.487 20.263s7.844 20.263 17.487 20.263c5.176 0 9.821-2.635 13.025-6.791-.009 7.92-1.276 17.712-6.54 24.058-3.685 4.443-8.804 6.604-15.647 6.604-1.533 0-2.776 1.242-2.776 2.776 0 1.533 1.242 2.776 2.776 2.776 8.484 0 15.189-2.901 19.928-8.623 11.326-13.672 7.176-38.78 6.705-41.394-.153-11.018-7.925-19.932-17.471-19.932zm0 34.975c-6.582 0-11.936-6.6-11.936-14.712s5.354-14.712 11.936-14.712 11.936 6.6 11.936 14.712-5.354 14.712-11.936 14.712z" fill="#fff"/><path d="m293.756 339.202h44.413v8.883h-44.413z" fill="#fff"/></svg>