<?xml version="1.0" encoding="iso-8859-1"?>
<!-- Generator: Adobe Illustrator 19.0.0, SVG Export Plug-In . SVG Version: 6.00 Build 0)  -->
<svg xmlns="http://www.w3.org/2000/svg" xmlns:xlink="http://www.w3.org/1999/xlink" version="1.1" id="Layer_1" x="0px" y="0px" viewBox="0 0 512 512" style="enable-background:new 0 0 512 512;" xml:space="preserve">
<path style="fill:#EB305B;" d="M512,256c0,79.21-35.974,150.015-92.478,196.97c-7.783,6.473-15.966,12.491-24.494,18.009  c-5.652,3.664-11.447,7.106-17.399,10.326c-16.322,8.838-33.72,15.944-51.941,21.085c-8.594,2.432-17.376,4.419-26.315,5.94  c-6.051,1.033-12.18,1.854-18.376,2.454c-8.227,0.799-16.555,1.21-24.993,1.21c-32.421,0-63.421-6.029-91.967-17.021  c-9.204-3.542-18.165-7.606-26.814-12.147c-6.518-3.42-12.869-7.106-19.031-11.048c-16.766-10.737-32.199-23.361-45.989-37.595  c-8.561-8.816-16.488-18.254-23.716-28.235c-5.885-8.139-11.314-16.644-16.233-25.471C11.703,343.637,0,301.179,0,256  c0-59.135,20.052-113.596,53.739-156.932c6.184-7.972,12.835-15.567,19.919-22.739c4.308-4.375,8.771-8.594,13.379-12.646  c5.341-4.697,10.881-9.182,16.61-13.413c42.57-31.588,95.287-50.264,152.358-50.264C397.382,0.006,512,114.612,512,256z"/>
<path style="fill:#F0A037;" d="M388.777,50.27H104.203l33.021,432.557c8.649,4.541,17.61,8.605,26.814,12.147l-6.662-87.182h232.822  l4.83,63.188c8.527-5.518,16.71-11.536,24.494-18.009L388.777,50.27z"/>
<g>
	<path style="fill:#C17A2D;" d="M392.863,354.285c0.755,9.238-6.54,17.143-15.8,17.143H182.669c9.26,0,16.544-7.905,15.8-17.143   l-0.489-5.885h187.677h6.729L392.863,354.285z"/>
	<path style="fill:#C17A2D;" d="M332.917,407.791l-7.228,94.599c-8.594,2.432-17.376,4.419-26.315,5.94l7.672-100.539   L332.917,407.791L332.917,407.791z"/>
	<path style="fill:#C17A2D;" d="M113.308,407.791H74.225l-2.021,26.392c-8.561-8.816-16.488-18.254-23.716-28.235L73.658,76.329   l1.987-26.048V50.27h10.37l1.021,13.413L113.308,407.791z"/>
</g>
<g>
	<path style="fill:#D88D32;" d="M364.883,76.151l20.774,272.249H197.98h-29.168h-15.977L132.061,76.151   C132.061,76.151,364.883,76.151,364.883,76.151z M365.405,329.581L347.496,94.96H152.313l17.909,234.621H365.405z"/>
	<path style="fill:#D88D32;" d="M198.469,354.285c0.744,9.238-6.54,17.143-15.8,17.143h-11.98l-1.876-23.028h29.168L198.469,354.285   z"/>
	<path style="fill:#D88D32;" d="M75.646,50.281l-1.987,26.048L48.487,405.948c-5.885-8.139-11.314-16.644-16.233-25.471   l21.485-281.41l3.72-48.787H75.646z"/>
	<path style="fill:#D88D32;" d="M137.224,482.826c-6.518-3.42-12.869-7.106-19.031-11.048l-4.885-63.988L87.038,63.682L86.016,50.27   h18.187L137.224,482.826z"/>
	<path style="fill:#D88D32;" d="M307.047,407.791l-7.672,100.539c-6.051,1.033-12.18,1.854-18.376,2.454l7.861-102.993H307.047z"/>
	<path style="fill:#D88D32;" d="M395.028,470.979c-5.652,3.664-11.447,7.106-17.399,10.326l-5.618-73.514h18.187L395.028,470.979z"/>
</g>
<polygon style="fill:#42577F;" points="347.496,94.96 365.405,329.581 170.223,329.581 152.313,94.96 "/>
<g>
	<path style="fill:#FFFFFF;" d="M304.897,147.438c0-1.533-1.242-2.776-2.776-2.776h-52.74c-1.375,0-2.544,1.007-2.746,2.367   l-12.491,84.015l-22.76-50.34c-0.45-0.994-1.439-1.632-2.529-1.632h-26.648c-1.533,0-2.776,1.242-2.776,2.776   c0,1.533,1.242,2.776,2.776,2.776h24.857l25.909,57.306c0.454,1.004,1.451,1.632,2.528,1.632c0.127,0,0.255-0.009,0.384-0.027   c1.22-0.17,2.182-1.124,2.363-2.341l13.528-90.982h50.346C303.655,150.214,304.897,148.971,304.897,147.438z"/>
	<path style="fill:#FFFFFF;" d="M286.262,175.802c-9.643,0-17.487,9.09-17.487,20.263s7.844,20.263,17.487,20.263   c5.176,0,9.821-2.635,13.025-6.791c-0.009,7.92-1.276,17.712-6.54,24.058c-3.685,4.443-8.804,6.604-15.647,6.604   c-1.533,0-2.776,1.242-2.776,2.776c0,1.533,1.242,2.776,2.776,2.776c8.484,0,15.189-2.901,19.928-8.623   c11.326-13.672,7.176-38.78,6.705-41.394C303.58,184.716,295.808,175.802,286.262,175.802z M286.262,210.777   c-6.582,0-11.936-6.6-11.936-14.712s5.354-14.712,11.936-14.712s11.936,6.6,11.936,14.712S292.844,210.777,286.262,210.777z"/>
	<rect x="293.756" y="339.202" style="fill:#FFFFFF;" width="44.413" height="8.883"/>
</g>
<g>
</g>
<g>
</g>
<g>
</g>
<g>
</g>
<g>
</g>
<g>
</g>
<g>
</g>
<g>
</g>
<g>
</g>
<g>
</g>
<g>
</g>
<g>
</g>
<g>
</g>
<g>
</g>
<g>
</g>
</svg>
