<?xml version="1.0" encoding="iso-8859-1"?>
<!-- Generator: Adobe Illustrator 19.0.0, SVG Export Plug-In . SVG Version: 6.00 Build 0)  -->
<svg xmlns="http://www.w3.org/2000/svg" xmlns:xlink="http://www.w3.org/1999/xlink" version="1.1" id="Layer_1" x="0px" y="0px" viewBox="0 0 512 512" style="enable-background:new 0 0 512 512;" xml:space="preserve">
<path style="fill:#E9E4D8;" d="M512,256c0,58.614-19.686,112.597-52.829,155.744c-3.697,4.83-7.572,9.526-11.603,14.068  c-1.999,2.254-4.042,4.486-6.129,6.662c-41.548,43.658-98.33,72.637-161.84,78.444c-7.772,0.711-15.644,1.077-23.594,1.077  c-72.97,0-138.812-30.523-185.445-79.521c-2.087-2.187-4.13-4.408-6.129-6.662c-0.455-0.5-0.899-1.01-1.343-1.521  c-3.553-4.075-6.984-8.25-10.27-12.547C19.697,368.608,0,314.602,0,256c0-66.541,25.393-127.164,67.008-172.676  c1.377-1.499,2.754-2.987,4.175-4.441c1.987-2.098,4.03-4.153,6.096-6.162c14.256-13.901,30.134-26.159,47.322-36.463  c1.055-0.633,2.121-1.266,3.198-1.876c1.332-0.777,2.665-1.532,4.008-2.287c13.035-7.239,26.781-13.39,41.093-18.287  c2.731-0.944,5.474-1.832,8.25-2.676c1.932-0.6,3.886-1.166,5.851-1.71c21.951-6.14,45.101-9.415,69.006-9.415  c4.475,0,8.916,0.111,13.324,0.344c5.862,0.3,11.658,0.799,17.399,1.488c114.196,13.657,205.297,102.493,222.385,215.601  c0.633,4.153,1.155,8.35,1.588,12.58c0.155,1.599,0.3,3.209,0.433,4.819c0.4,4.774,0.655,9.582,0.777,14.434  C511.967,251.503,512,253.746,512,256z"/>
<path style="fill:#42577F;" d="M447.568,425.812c-42.003,47.355-101.283,79.01-167.969,85.106  c-7.772,0.711-15.644,1.077-23.594,1.077c-76.223,0-144.674-33.309-191.574-86.183H447.568z"/>
<path style="fill:#DBD7CC;" d="M459.171,411.744c-3.697,4.83-7.572,9.526-11.603,14.068c-1.999,2.254-4.042,4.486-6.129,6.662  H70.561c-2.087-2.187-4.13-4.408-6.129-6.662c-0.455-0.5-0.899-1.01-1.343-1.521c-3.553-4.075-6.984-8.25-10.27-12.547  L459.171,411.744L459.171,411.744z"/>
<circle style="fill:#42577F;" cx="145.529" cy="209.295" r="11.103"/>
<path style="fill:#333333;" d="M124.248,266.293h-7.772V230.08c0-7.424,4.382-14.148,11.174-17.143l12.754-5.627  c1.964-0.866,4.258,0.023,5.124,1.987l0,0c0.866,1.963-0.023,4.258-1.986,5.124l-12.755,5.627  c-3.974,1.753-6.539,5.688-6.539,10.032V266.293z"/>
<circle style="fill:#42577F;" cx="197.159" cy="209.295" r="11.103"/>
<path style="fill:#333333;" d="M218.44,266.293h7.772V230.08c0-7.424-4.382-14.148-11.174-17.143l-12.754-5.627  c-1.964-0.866-4.258,0.023-5.124,1.987l0,0c-0.866,1.963,0.023,4.258,1.986,5.124l12.755,5.627  c3.974,1.753,6.539,5.688,6.539,10.032V266.293z"/>
<path style="fill:#AA5013;" d="M279.6,282.947v227.97c-7.772,0.711-15.644,1.077-23.594,1.077  c-70.483,0-134.315-28.48-180.615-74.58c-4.253-4.219-8.361-8.605-12.302-13.124V282.947H279.6z"/>
<g>
	<path style="fill:#99460E;" d="M75.39,282.947v154.467c-4.253-4.219-8.361-8.605-12.302-13.124V282.947H75.39z"/>
	<rect x="63.088" y="282.953" style="fill:#99460E;" width="216.512" height="34.42"/>
</g>
<g>
	<rect x="48.099" y="260.747" style="fill:#AA5013;" width="246.49" height="32.199"/>
	<path style="fill:#AA5013;" d="M511.134,234.837H269.329V0.35c5.862,0.3,11.658,0.799,17.399,1.488   c114.196,13.657,205.297,102.493,222.385,215.601c0.633,4.153,1.155,8.35,1.588,12.58   C510.856,231.617,511.001,233.227,511.134,234.837z"/>
</g>
<path style="fill:#42577F;" d="M509.113,217.439H286.728V1.838c51.163,6.118,97.686,27.325,134.992,59.047  c6.051,5.13,11.847,10.548,17.388,16.222c7.206,7.372,13.968,15.189,20.252,23.383c0.977,1.277,1.954,2.576,2.898,3.875  c9.404,12.758,17.643,26.414,24.571,40.826c0.7,1.443,1.377,2.887,2.043,4.341C498.598,170.772,505.505,193.556,509.113,217.439z"/>
<path style="fill:#AA5013;" d="M511.911,249.271H256.006v-19.253h254.695c0.155,1.599,0.3,3.209,0.433,4.819  C511.534,239.612,511.789,244.419,511.911,249.271z"/>
<path style="fill:#42577F;" d="M196.748,45.184c0,38.928-31.555,70.472-70.472,70.472c-24.86,0-46.722-12.88-59.269-32.332  c1.377-1.499,2.754-2.987,4.175-4.441c1.987-2.098,4.03-4.153,6.096-6.162c14.256-13.901,30.134-26.159,47.322-36.463  c1.055-0.633,2.121-1.266,3.198-1.876c1.332-0.777,2.665-1.532,4.008-2.287c13.035-7.239,26.781-13.39,41.093-18.287  c2.731-0.944,5.474-1.832,8.25-2.676c1.932-0.6,3.886-1.166,5.851-1.71C193.195,19.902,196.748,32.138,196.748,45.184z"/>
<path style="fill:#62789B;" d="M190.852,45.184c0,35.663-28.913,64.576-64.576,64.576c-23.317,0-43.746-12.358-55.094-30.878  c1.987-2.098,4.03-4.153,6.096-6.162c14.256-13.901,30.134-26.159,47.322-36.463c1.055-0.633,2.121-1.266,3.198-1.876  c1.332-0.777,2.665-1.532,4.008-2.287c13.035-7.239,26.781-13.39,41.093-18.287c2.731-0.944,5.474-1.832,8.25-2.676  C187.299,21.013,190.852,32.682,190.852,45.184z"/>
<path style="fill:#E9E4D8;" d="M182.48,45.184c0,31.044-25.171,56.204-56.204,56.204c-8.094,0-15.778-1.71-22.728-4.797  c-11.125-4.919-20.341-13.346-26.27-23.872c14.256-13.901,30.134-26.159,47.322-36.463c1.055-0.633,2.121-1.266,3.198-1.876  c1.332-0.777,2.665-1.532,4.008-2.287c13.035-7.239,26.781-13.39,41.093-18.287C178.95,22.767,182.48,33.57,182.48,45.184z"/>
<g>
	<polygon style="fill:#66C3D3;" points="151.872,88.066 147.351,80.234 149.355,79.077 153.876,86.909  "/>
	<polygon style="fill:#66C3D3;" points="170.174,70.611 162.343,66.089 163.5,64.085 171.332,68.606  "/>
	
		<rect x="88.918" y="62.824" transform="matrix(-0.5 -0.866 0.866 -0.5 76.7911 179.0269)" style="fill:#66C3D3;" width="2.314" height="9.043"/>
	<polygon style="fill:#66C3D3;" points="163.5,26.289 162.343,24.285 170.174,19.764 171.332,21.768  "/>
	
		<rect x="105.139" y="79.049" transform="matrix(-0.866 -0.5001 0.5001 -0.866 156.5535 209.099)" style="fill:#66C3D3;" width="2.314" height="9.044"/>
</g>
<polygon style="fill:#5F1750;" points="124.941,42.873 146.797,45.187 124.941,47.5 "/>
<g>
	<path style="fill:#42577F;" d="M128.597,43.497h-4.63l0.244-2.842l0.389-4.397c1.055-0.633,2.121-1.266,3.198-1.876l0.5,5.74   l0.044,0.533v0.011l0.233,2.598L128.597,43.497z"/>
	<path style="fill:#42577F;" d="M131.257,45.187c0-2.75-2.23-4.98-4.981-4.98s-4.98,2.23-4.98,4.98c0,2.75,2.23,4.98,4.98,4.98   C129.026,50.166,131.257,47.938,131.257,45.187L131.257,45.187z"/>
</g>
<g>
	<path style="fill:#299CB7;" d="M169.436,52.519c-2.135,0-4.007-1.1-4.733-3.104l1.74-0.705c0.463,1.388,1.608,2.245,2.951,2.245   c1.761,0,2.861-1.299,2.861-2.928c0-1.277-0.704-2.356-2.157-2.84c-0.484-0.154-1.035-0.242-1.893-0.242h-0.727l-0.088-0.242   l3.677-5.13h-5.967v-1.718h8.83v0.529l-3.898,5.351c2.863,0.286,4.228,2.289,4.228,4.249   C174.259,50.405,172.432,52.519,169.436,52.519L169.436,52.519z"/>
	<path style="fill:#299CB7;" d="M126.609,86.21c-0.489,0-0.91,0.044-1.299,0.155l3.653-5.418h-2.376l-3.697,5.796   c-1.21,1.865-1.521,2.898-1.521,4.141c0,2.787,2.021,4.73,4.885,4.73c2.931,0,4.93-2.032,4.93-4.73   C131.184,88.109,128.985,86.21,126.609,86.21z M126.276,94.049c-1.832,0-2.931-1.388-2.931-3.142c0-1.788,1.099-3.176,2.931-3.176   c1.788,0,2.931,1.321,2.931,3.198C129.207,92.595,128.175,94.049,126.276,94.049z"/>
</g>
<path style="fill:#F3F0EA;" d="M172.898,13.807c-14.312,4.896-28.058,11.048-41.093,18.287l-3.509,8.028l0.044,0.533  c0.011,0,0.011,0.011,0.022,0.011c0.022,0.011,0.056,0.022,0.078,0.044c0.111,0.044,0.222,0.1,0.322,0.167  c0.044,0.022,0.089,0.044,0.122,0.067c0.033,0.022,0.078,0.044,0.111,0.078c0.1,0.067,0.2,0.133,0.3,0.211  c0.056,0.033,0.1,0.067,0.144,0.111c0.056,0.044,0.1,0.089,0.144,0.122c0.111,0.1,0.222,0.211,0.333,0.322  c0.022,0.022,0.033,0.044,0.044,0.056c0.111,0.111,0.211,0.233,0.3,0.355c0.1,0.133,0.189,0.266,0.278,0.411l0.233,0.433  c0.067,0.155,0.133,0.311,0.189,0.466h0.011l15.822,1.677l-15.822,1.677c-0.011,0.022-0.011,0.033-0.022,0.056  c0,0.011-0.011,0.033-0.022,0.044c-0.022,0.089-0.056,0.167-0.1,0.255c-0.067,0.155-0.144,0.311-0.233,0.455  c-0.044,0.089-0.1,0.178-0.167,0.266c-0.056,0.089-0.111,0.178-0.178,0.255c-0.078,0.1-0.155,0.189-0.233,0.289  c-0.122,0.144-0.255,0.278-0.4,0.4c-0.133,0.122-0.289,0.244-0.444,0.355c-0.067,0.044-0.133,0.089-0.2,0.144  c-0.067,0.044-0.133,0.078-0.211,0.122c-0.078,0.044-0.144,0.089-0.233,0.122c-0.089,0.044-0.178,0.089-0.266,0.122  c-0.089,0.044-0.178,0.078-0.266,0.111c-0.189,0.078-0.378,0.133-0.566,0.167c-0.1,0.033-0.211,0.056-0.322,0.067  c-0.122,0.033-0.244,0.044-0.366,0.056c-0.155,0.011-0.311,0.022-0.466,0.022c-0.2,0-0.389-0.011-0.577-0.033  c-0.178-0.022-0.366-0.056-0.544-0.1h-0.033c-0.1-0.022-0.2-0.056-0.3-0.089c-0.033-0.011-0.067-0.011-0.1-0.033  c-0.044-0.011-0.078-0.022-0.1-0.033c-0.178-0.056-0.344-0.133-0.511-0.211l-20.563,46.922c6.951,3.087,14.634,4.797,22.728,4.797  c31.033,0,56.204-25.16,56.204-56.204C182.48,33.57,178.95,22.767,172.898,13.807z M126.254,95.615c-2.865,0-4.885-1.943-4.885-4.73  c0-1.244,0.311-2.276,1.521-4.141l3.697-5.796h2.376l-3.653,5.418c0.389-0.111,0.811-0.155,1.299-0.155  c2.376,0,4.575,1.899,4.575,4.674C131.184,93.583,129.185,95.615,126.254,95.615z M170.178,19.758l1.155,2.01l-7.828,4.519  l-1.166-1.999L170.178,19.758z M151.869,88.065l-4.519-7.828l2.01-1.166l4.519,7.839L151.869,88.065z M170.178,70.611l-7.839-4.519  l1.166-2.01l7.828,4.53L170.178,70.611z M169.434,52.523c-2.132,0-4.008-1.11-4.73-3.109l1.743-0.7  c0.455,1.388,1.599,2.243,2.942,2.243c1.765,0,2.865-1.299,2.865-2.931c0-1.277-0.7-2.354-2.154-2.842  c-0.489-0.155-1.033-0.244-1.899-0.244h-0.722l-0.089-0.233l3.675-5.13h-5.962v-1.721h8.827v0.522l-3.897,5.352  c2.865,0.289,4.23,2.298,4.23,4.253C174.264,50.403,172.432,52.523,169.434,52.523z"/>
<g>
	<polygon style="fill:#ACDFE7;" points="149.355,79.077 147.351,80.234 151.872,88.066 153.876,86.909  "/>
	<polygon style="fill:#ACDFE7;" points="163.5,64.085 162.343,66.089 170.174,70.611 171.332,68.606  "/>
	<polygon style="fill:#ACDFE7;" points="170.174,19.764 162.343,24.285 163.5,26.289 171.332,21.768  "/>
</g>
<path style="fill:#62789B;" d="M130.967,43.51c0.188,0.524,0.29,1.088,0.29,1.677c0,0.587-0.102,1.151-0.289,1.675l15.83-1.677  L130.967,43.51L130.967,43.51z"/>
<path style="fill:#A881A0;" d="M128.295,40.117l-0.191,0.436c0.08,0.032,0.16,0.066,0.239,0.101L128.295,40.117L128.295,40.117z"/>
<path style="fill:#62789B;" d="M128.104,40.553l-3.995,9.119c0.655,0.318,1.39,0.495,2.167,0.495c2.163,0,4.004-1.379,4.691-3.304  c0.188-0.524,0.289-1.088,0.289-1.675c0-0.588-0.102-1.153-0.29-1.677c-0.454-1.269-1.408-2.301-2.625-2.856  C128.264,40.619,128.184,40.584,128.104,40.553L128.104,40.553z"/>
<path style="fill:#8BC9D8;" d="M173.929,37.855h-8.83v1.718h5.967l-3.677,5.13l0.088,0.242h0.727c0.858,0,1.409,0.088,1.893,0.242  c1.452,0.484,2.157,1.563,2.157,2.84c0,1.629-1.1,2.928-2.861,2.928c-1.343,0-2.488-0.858-2.951-2.245l-1.74,0.705  c0.726,2.003,2.598,3.104,4.733,3.104c2.996,0,4.823-2.114,4.823-4.536c0-1.96-1.365-3.964-4.228-4.249l3.898-5.351v-0.529H173.929z  "/>
<path style="fill:#F3F0EA;" d="M126.277,87.732c-1.829,0-2.929,1.387-2.929,3.171c0,1.761,1.1,3.149,2.929,3.149  c1.894,0,2.928-1.453,2.928-3.127C129.205,89.052,128.059,87.732,126.277,87.732L126.277,87.732z"/>
<path style="fill:#8BC9D8;" d="M126.609,86.21c-0.489,0-0.91,0.044-1.299,0.155l3.653-5.418h-2.376l-3.697,5.796  c-1.21,1.865-1.521,2.898-1.521,4.141c0,2.787,2.021,4.73,4.885,4.73c2.931,0,4.93-2.032,4.93-4.73  C131.184,88.109,128.985,86.21,126.609,86.21z M126.276,94.049c-1.832,0-2.931-1.388-2.931-3.142c0-1.788,1.099-3.176,2.931-3.176  c1.788,0,2.931,1.321,2.931,3.198C129.207,92.595,128.175,94.049,126.276,94.049z"/>
<path style="fill:#DBD7CC;" d="M443.283,221.214c0,0.744-0.089,1.455-0.266,2.143c-0.955,3.831-4.419,6.662-8.538,6.662H404.71  c-2.432,0-4.63-0.988-6.229-2.576c-1.588-1.599-2.576-3.797-2.576-6.229c0-6.762,4.863-12.38,11.292-13.546  c0.811-0.144,1.632-0.222,2.476-0.222h19.83c3.797,0,7.25,1.543,9.737,4.03C441.739,213.975,443.283,217.417,443.283,221.214z"/>
<g>
	<path style="fill:#E9E4D8;" d="M443.283,221.214c0,0.744-0.089,1.455-0.266,2.143h-28.868c-2.432,0-4.63-0.988-6.229-2.576   c-1.588-1.599-2.576-3.797-2.576-6.229c0-2.509,0.677-4.852,1.854-6.884c0.811-0.144,1.632-0.222,2.476-0.222h19.83   c3.797,0,7.25,1.543,9.737,4.03C441.739,213.975,443.283,217.417,443.283,221.214z"/>
	<path style="fill:#E9E4D8;" d="M439.108,77.106c-2.498-0.4-4.841-1.732-6.462-3.853l-4.397-5.751   c-1.543-2.032-4.341-2.698-6.64-1.577l-21.263,10.304c-4.319,2.087-9.582,0.844-12.491-2.976l-4.386-5.751   c-1.554-2.032-4.352-2.698-6.651-1.577l-21.263,10.304c-4.319,2.087-9.571,0.844-12.491-2.976l-8.239-10.803l3.775-2.876   l8.239,10.792c1.554,2.032,4.352,2.698,6.651,1.577l21.263-10.304c4.319-2.087,9.571-0.844,12.491,2.976l4.386,5.751   c1.554,2.032,4.341,2.698,6.64,1.577l21.263-10.304c0.711-0.344,1.443-0.588,2.187-0.755   C427.771,66.014,433.567,71.432,439.108,77.106z"/>
	<path style="fill:#E9E4D8;" d="M462.258,104.364l-17.121,8.294c-4.33,2.098-9.582,0.855-12.491-2.965l-4.397-5.751   c-1.543-2.032-4.341-2.698-6.64-1.588l-21.263,10.304c-4.319,2.098-9.582,0.844-12.491-2.976l-4.386-5.74   c-1.554-2.032-4.352-2.698-6.651-1.588l-21.263,10.304c-4.319,2.098-9.571,0.855-12.491-2.965l-8.239-10.803l3.775-2.876   l8.239,10.792c1.554,2.032,4.352,2.698,6.651,1.577l21.263-10.304c4.319-2.098,9.571-0.844,12.491,2.976l4.386,5.751   c1.554,2.032,4.341,2.698,6.64,1.577l21.263-10.304c4.33-2.098,9.582-0.844,12.502,2.976l4.386,5.751   c1.554,2.032,4.341,2.698,6.64,1.577l16.299-7.894C460.337,101.766,461.314,103.065,462.258,104.364z"/>
	<path style="fill:#E9E4D8;" d="M488.872,149.532c-4.086,1.455-8.749,0.111-11.436-3.398l-4.397-5.751   c-1.543-2.032-4.341-2.698-6.64-1.588l-21.263,10.304c-4.33,2.098-9.582,0.844-12.491-2.976l-4.397-5.74   c-1.543-2.032-4.341-2.698-6.64-1.588l-21.263,10.304c-4.319,2.098-9.582,0.844-12.491-2.976l-4.386-5.74   c-1.554-2.032-4.352-2.698-6.651-1.588l-21.263,10.304c-4.319,2.098-9.571,0.844-12.491-2.976l-8.239-10.792l3.775-2.887   l8.239,10.803c1.554,2.032,4.352,2.687,6.651,1.577l21.263-10.304c4.319-2.098,9.571-0.844,12.491,2.976l4.386,5.751   c1.554,2.032,4.341,2.698,6.64,1.577l21.263-10.304c4.33-2.098,9.582-0.844,12.502,2.976l4.386,5.751   c1.554,2.032,4.341,2.687,6.64,1.577l21.263-10.304c4.33-2.098,9.582-0.844,12.502,2.976l4.386,5.751   c1.332,1.743,3.564,2.465,5.618,1.943C487.529,146.634,488.206,148.077,488.872,149.532z"/>
</g>
<g>
</g>
<g>
</g>
<g>
</g>
<g>
</g>
<g>
</g>
<g>
</g>
<g>
</g>
<g>
</g>
<g>
</g>
<g>
</g>
<g>
</g>
<g>
</g>
<g>
</g>
<g>
</g>
<g>
</g>
</svg>
