<?xml version="1.0" encoding="iso-8859-1"?>
<!-- Generator: Adobe Illustrator 19.0.0, SVG Export Plug-In . SVG Version: 6.00 Build 0)  -->
<svg xmlns="http://www.w3.org/2000/svg" xmlns:xlink="http://www.w3.org/1999/xlink" version="1.1" id="Layer_1" x="0px" y="0px" viewBox="0 0 512 512" style="enable-background:new 0 0 512 512;" xml:space="preserve">
<path style="fill:#F0A037;" d="M512,256c0,116.938-78.411,215.557-185.523,246.168c-6.828,1.954-13.779,3.631-20.841,5.008  c-6.262,1.244-12.613,2.243-19.042,3.009c-10.026,1.199-20.241,1.81-30.589,1.81c-29.501,0-57.836-4.985-84.206-14.179  c-1.865-0.644-3.72-1.31-5.563-2.01c-3.742-1.399-7.439-2.887-11.103-4.452c-5.396-2.321-10.703-4.808-15.9-7.472  c-0.178-0.1-0.355-0.189-0.533-0.289c-6.462-3.331-12.758-6.928-18.875-10.792C47.832,427.51,0,347.346,0,256  C0,114.612,114.618,0.006,256.006,0.006C397.382,0.006,512,114.612,512,256z"/>
<path style="fill:#EB305B;" d="M326.477,361.647v140.522c-6.828,1.954-13.779,3.631-20.841,5.008  c-6.262,1.244-12.613,2.243-19.042,3.009c-10.026,1.199-20.241,1.81-30.589,1.81c-29.501,0-57.836-4.985-84.206-14.179  c-1.865-0.644-3.72-1.31-5.563-2.01c-3.742-1.399-7.439-2.887-11.103-4.452c-5.396-2.321-10.703-4.808-15.9-7.472  c-0.178-0.1-0.355-0.189-0.533-0.289c-6.462-3.331-12.758-6.928-18.875-10.792V361.646L326.477,361.647L326.477,361.647z"/>
<path style="fill:#D82B59;" d="M138.701,361.647v121.946c-6.462-3.331-12.758-6.928-18.875-10.792V361.646L138.701,361.647  L138.701,361.647z"/>
<circle style="fill:#E9E4D8;" cx="223.151" cy="240.195" r="159.464"/>
<path style="fill:#D8D1C3;" d="M105.889,240.19c0-80.914,60.269-147.743,138.362-158.067c-6.903-0.913-13.943-1.391-21.096-1.391  c-88.066,0-159.458,71.391-159.458,159.458s71.392,159.458,159.458,159.458c7.153,0,14.193-0.479,21.096-1.391  C166.157,387.933,105.889,321.103,105.889,240.19z"/>
<path style="fill:#FFFFFF;" d="M358.177,217.999c-2.582,0-4.893-1.81-5.433-4.437c-12.56-61.221-67.06-105.654-129.589-105.654  c-5,0-10.036,0.283-14.968,0.841c-3.044,0.345-5.796-1.845-6.14-4.892c-0.345-3.047,1.845-5.796,4.892-6.14  c5.345-0.604,10.801-0.912,16.216-0.912c67.777,0,126.851,48.164,140.466,114.526c0.616,3.003-1.319,5.938-4.322,6.554  C358.922,217.962,358.547,217.999,358.177,217.999z"/>
<circle style="fill:#878277;" cx="223.151" cy="240.195" r="31.99"/>
<g>
	<polygon style="fill:#E9E4D8;" points="215.587,253.299 208.018,240.19 215.587,227.082 230.723,227.082 238.29,240.19    230.723,253.299  "/>
	<path style="fill:#E9E4D8;" d="M290.434,470.26h-55.718c-3.066,0-5.552-2.486-5.552-5.552c0-3.066,2.486-5.552,5.552-5.552h55.718   c3.066,0,5.552,2.486,5.552,5.552C295.986,467.774,293.501,470.26,290.434,470.26z"/>
</g>
<path style="fill:#4D4D4D;" d="M250.621,431.596v66.219h-78.821c-1.865-0.644-3.72-1.31-5.563-2.01  c-3.742-1.399-7.439-2.887-11.103-4.452c-5.396-2.321-10.703-4.808-15.9-7.472v-52.285L250.621,431.596L250.621,431.596z"/>
<path style="fill:#333333;" d="M250.621,480.317v17.499h-78.821c-1.865-0.644-3.72-1.31-5.563-2.01  c-3.742-1.399-7.439-2.887-11.103-4.452c-5.396-2.321-10.703-4.808-15.9-7.472v-3.564H250.621z"/>
<g>
	<path style="fill:#E9E4D8;" d="M166.236,431.596v64.21c-3.742-1.399-7.439-2.887-11.103-4.452v-59.757   c0-3.064,2.487-5.552,5.552-5.552C163.749,426.045,166.236,428.532,166.236,431.596z"/>
	<path style="fill:#E9E4D8;" d="M229.165,503.372c-3.066,0-5.552-2.486-5.552-5.552v-66.226c0-3.066,2.486-5.552,5.552-5.552   s5.552,2.486,5.552,5.552v66.226C234.716,500.887,232.23,503.372,229.165,503.372z"/>
</g>
<g>
	<path style="fill:#D8D1C3;" d="M166.236,478.785v17.021c-3.742-1.399-7.439-2.887-11.103-4.452v-12.569   c0,0.533,0.078,1.044,0.222,1.532c0.655,2.321,2.798,4.019,5.33,4.019s4.674-1.699,5.33-4.019   C166.159,479.829,166.236,479.318,166.236,478.785z"/>
	<path style="fill:#D8D1C3;" d="M234.721,478.79v19.031c0,3.064-2.487,5.552-5.552,5.552c-3.076,0-5.552-2.487-5.552-5.552V478.79   c0,3.064,2.476,5.552,5.552,5.552C232.234,484.342,234.721,481.854,234.721,478.79z"/>
</g>
<path style="fill:#878277;" d="M273.161,487.74c-3.066,0-5.552-2.485-5.552-5.552v-16.837c0-22.343,13.201-42.758,33.632-52.01  c61.341-27.777,103.801-86.451,110.814-153.128c0.321-3.05,3.06-5.255,6.102-4.941c3.049,0.321,5.261,3.053,4.941,6.102  c-7.424,70.579-52.36,132.685-117.276,162.081c-16.468,7.458-27.109,23.903-27.108,41.896v16.837  C278.713,485.254,276.227,487.74,273.161,487.74z"/>
<rect x="119.825" y="460.293" style="fill:#E9E4D8;" width="19.403" height="11.103"/>
<path style="fill:#4D4D4D;" d="M305.725,505.843c0,0.455-0.033,0.899-0.089,1.332c-6.262,1.244-12.613,2.243-19.042,3.009  c-0.633-1.321-0.988-2.787-0.988-4.341c0-5.563,4.508-10.059,10.059-10.059C301.229,495.784,305.725,500.281,305.725,505.843z"/>
<circle style="fill:#878277;" cx="418.656" cy="240.195" r="20.626"/>
<path style="fill:#726C5F;" d="M412.09,240.19c0-8.918,5.67-16.493,13.595-19.371c-2.197-0.798-4.559-1.256-7.032-1.256  c-11.392,0-20.626,9.234-20.626,20.626c0,11.392,9.234,20.626,20.626,20.626c2.474,0,4.834-0.459,7.032-1.256  C417.761,256.682,412.09,249.108,412.09,240.19z"/>
<g>
</g>
<g>
</g>
<g>
</g>
<g>
</g>
<g>
</g>
<g>
</g>
<g>
</g>
<g>
</g>
<g>
</g>
<g>
</g>
<g>
</g>
<g>
</g>
<g>
</g>
<g>
</g>
<g>
</g>
</svg>
