<?xml version="1.0" encoding="iso-8859-1"?>
<!-- Generator: Adobe Illustrator 19.0.0, SVG Export Plug-In . SVG Version: 6.00 Build 0)  -->
<svg xmlns="http://www.w3.org/2000/svg" xmlns:xlink="http://www.w3.org/1999/xlink" version="1.1" id="Layer_1" x="0px" y="0px" viewBox="0 0 512 512" style="enable-background:new 0 0 512 512;" xml:space="preserve">
<path style="fill:#32AACE;" d="M512,256c0,37.74-8.172,73.581-22.839,105.835c-6.817,15-15.045,29.224-24.505,42.514  c-2.054,2.876-4.164,5.718-6.329,8.505c-6.695,8.627-13.923,16.81-21.651,24.505c-31.722,31.6-71.682,54.927-116.372,66.486  c-9.216,2.387-18.631,4.275-28.224,5.618c-11.78,1.677-23.827,2.532-36.074,2.532s-24.283-0.855-36.074-2.532  c-9.582-1.343-19.009-3.231-28.224-5.618c-44.701-11.558-84.662-34.886-116.383-66.486c-7.728-7.694-14.956-15.878-21.651-24.505  c-2.165-2.787-4.275-5.618-6.318-8.494c-9.46-13.279-17.687-27.503-24.505-42.492C8.172,329.603,0,293.751,0,256  s8.172-73.603,22.85-105.869c7.073-15.556,15.655-30.267,25.571-43.969C94.921,41.853,170.578,0.006,256.006,0.006  S417.09,41.853,463.579,106.163c9.926,13.712,18.509,28.435,25.582,44.002C503.828,182.419,512,218.26,512,256z"/>
<path style="fill:#AA5013;" d="M489.161,106.163v255.672c-6.817,15-15.045,29.224-24.505,42.514  c-2.054,2.876-4.164,5.718-6.329,8.505c-6.695,8.627-13.923,16.81-21.651,24.505H75.324c-7.728-7.694-14.956-15.878-21.651-24.505  c-2.165-2.787-4.275-5.618-6.318-8.494c-9.46-13.279-17.687-27.503-24.505-42.492V106.163L489.161,106.163L489.161,106.163z"/>
<rect x="52.904" y="136.225" style="fill:#E9E4D8;" width="406.198" height="271.084"/>
<path style="fill:#99460E;" d="M47.355,130.668V404.36c2.043,2.876,4.153,5.707,6.318,8.494h404.655  c2.165-2.787,4.275-5.629,6.329-8.505V130.667L47.355,130.668L47.355,130.668z M453.553,401.751H58.458v-259.98h395.095V401.751z"/>
<g>
	<path style="fill:#AA5013;" d="M236.064,437.359l-3.464,15.467l-6.24,27.88l-5.041,22.539l-1.388,6.218   c-9.582-1.343-19.009-3.231-28.224-5.618l11.414-51.019l3.464-15.467H236.064z"/>
	<path style="fill:#AA5013;" d="M320.304,503.845c-9.216,2.387-18.631,4.275-28.224,5.618l-1.388-6.218l-5.041-22.539l-6.24-27.88   l-3.464-15.467h29.479l3.464,15.467L320.304,503.845z"/>
</g>
<path style="fill:#878277;" d="M111.213,387.424c-3.066,0-5.552-2.486-5.552-5.552V179.688c0-3.066,2.486-5.552,5.552-5.552  c3.066,0,5.552,2.486,5.552,5.552v202.184C116.764,384.938,114.278,387.424,111.213,387.424z"/>
<g>
	<polygon style="fill:#99460E;" points="206.585,437.359 236.064,437.359 232.6,452.826 203.121,452.826  "/>
	<polygon style="fill:#99460E;" points="308.89,452.826 279.411,452.826 275.947,437.359 305.426,437.359  "/>
</g>
<path style="fill:#878277;" d="M397.529,361.413H83.469c-3.066,0-5.552-2.486-5.552-5.552c0-3.066,2.486-5.552,5.552-5.552h314.059  c3.066,0,5.552,2.486,5.552,5.552C403.08,358.927,400.594,361.413,397.529,361.413z"/>
<path style="fill:#1C8DA0;" d="M258.605,330.201c-61.384,0-111.324-61.997-111.324-138.202c0-3.066,2.486-5.552,5.552-5.552  s5.552,2.486,5.552,5.552c0,70.083,44.959,127.099,100.22,127.099s100.22-57.017,100.22-127.099c0-3.066,2.486-5.552,5.552-5.552  c3.066,0,5.552,2.486,5.552,5.552C369.928,268.205,319.989,330.201,258.605,330.201z"/>
<polygon style="fill:#AA5013;" points="299.308,503.25 212.702,503.25 218.995,480.707 293.015,480.707 "/>
<g>
	<polygon style="fill:#878277;" points="94.881,189.644 111.213,165.122 127.545,189.644  "/>
	<polygon style="fill:#878277;" points="389.612,339.53 414.135,355.862 389.612,372.195  "/>
	<rect x="136.091" y="353.447" style="fill:#878277;" width="6.662" height="18.875"/>
	<rect x="157.032" y="353.447" style="fill:#878277;" width="6.662" height="18.875"/>
	<rect x="177.984" y="353.447" style="fill:#878277;" width="6.662" height="18.875"/>
	<rect x="198.924" y="353.447" style="fill:#878277;" width="6.662" height="18.875"/>
	<rect x="219.876" y="353.447" style="fill:#878277;" width="6.662" height="18.875"/>
	<rect x="240.816" y="353.447" style="fill:#878277;" width="6.662" height="18.875"/>
	<rect x="261.757" y="353.447" style="fill:#878277;" width="6.662" height="18.875"/>
	<rect x="282.709" y="353.447" style="fill:#878277;" width="6.662" height="18.875"/>
	<rect x="303.649" y="353.447" style="fill:#878277;" width="6.662" height="18.875"/>
	<rect x="324.59" y="353.447" style="fill:#878277;" width="6.662" height="18.875"/>
	<rect x="345.541" y="353.447" style="fill:#878277;" width="6.662" height="18.875"/>
	<rect x="366.482" y="353.447" style="fill:#878277;" width="6.662" height="18.875"/>
</g>
<g>
</g>
<g>
</g>
<g>
</g>
<g>
</g>
<g>
</g>
<g>
</g>
<g>
</g>
<g>
</g>
<g>
</g>
<g>
</g>
<g>
</g>
<g>
</g>
<g>
</g>
<g>
</g>
<g>
</g>
</svg>
