<svg enable-background="new 0 0 512 512" viewBox="0 0 512 512" xmlns="http://www.w3.org/2000/svg"><path d="m512 256c0 37.74-8.172 73.581-22.839 105.835-6.817 15-15.045 29.224-24.505 42.514-2.054 2.876-4.164 5.718-6.329 8.505-6.695 8.627-13.923 16.81-21.651 24.505-31.722 31.6-71.682 54.927-116.372 66.486-9.216 2.387-18.631 4.275-28.224 5.618-11.78 1.677-23.827 2.532-36.074 2.532s-24.283-.855-36.074-2.532c-9.582-1.343-19.009-3.231-28.224-5.618-44.701-11.558-84.662-34.886-116.383-66.486-7.728-7.694-14.956-15.878-21.651-24.505-2.165-2.787-4.275-5.618-6.318-8.494-9.46-13.279-17.687-27.503-24.505-42.492-14.679-32.265-22.851-68.117-22.851-105.868s8.172-73.603 22.85-105.869c7.073-15.556 15.655-30.267 25.571-43.969 46.5-64.309 122.157-106.156 207.585-106.156s161.084 41.847 207.573 106.157c9.926 13.712 18.509 28.435 25.582 44.002 14.667 32.254 22.839 68.095 22.839 105.835z" fill="#32aace"/><path d="m489.161 106.163v255.672c-6.817 15-15.045 29.224-24.505 42.514-2.054 2.876-4.164 5.718-6.329 8.505-6.695 8.627-13.923 16.81-21.651 24.505h-361.352c-7.728-7.694-14.956-15.878-21.651-24.505-2.165-2.787-4.275-5.618-6.318-8.494-9.46-13.279-17.687-27.503-24.505-42.492v-255.705z" fill="#aa5013"/><path d="m52.904 136.225h406.198v271.084h-406.198z" fill="#e9e4d8"/><path d="m47.355 130.668v273.692c2.043 2.876 4.153 5.707 6.318 8.494h404.655c2.165-2.787 4.275-5.629 6.329-8.505v-273.682zm406.198 271.083h-395.095v-259.98h395.095z" fill="#99460e"/><path d="m236.064 437.359-3.464 15.467-6.24 27.88-5.041 22.539-1.388 6.218c-9.582-1.343-19.009-3.231-28.224-5.618l11.414-51.019 3.464-15.467z" fill="#aa5013"/><path d="m320.304 503.845c-9.216 2.387-18.631 4.275-28.224 5.618l-1.388-6.218-5.041-22.539-6.24-27.88-3.464-15.467h29.479l3.464 15.467z" fill="#aa5013"/><path d="m111.213 387.424c-3.066 0-5.552-2.486-5.552-5.552v-202.184c0-3.066 2.486-5.552 5.552-5.552s5.552 2.486 5.552 5.552v202.184c-.001 3.066-2.487 5.552-5.552 5.552z" fill="#878277"/><path d="m206.585 437.359h29.479l-3.464 15.467h-29.479z" fill="#99460e"/><path d="m308.89 452.826h-29.479l-3.464-15.467h29.479z" fill="#99460e"/><path d="m397.529 361.413h-314.06c-3.066 0-5.552-2.486-5.552-5.552s2.486-5.552 5.552-5.552h314.059c3.066 0 5.552 2.486 5.552 5.552s-2.486 5.552-5.551 5.552z" fill="#878277"/><path d="m258.605 330.201c-61.384 0-111.324-61.997-111.324-138.202 0-3.066 2.486-5.552 5.552-5.552s5.552 2.486 5.552 5.552c0 70.083 44.959 127.099 100.22 127.099s100.22-57.017 100.22-127.099c0-3.066 2.486-5.552 5.552-5.552s5.552 2.486 5.552 5.552c-.001 76.206-49.94 138.202-111.324 138.202z" fill="#1c8da0"/><path d="m299.308 503.25h-86.606l6.293-22.543h74.02z" fill="#aa5013"/><g fill="#878277"><path d="m94.881 189.644 16.332-24.522 16.332 24.522z"/><path d="m389.612 339.53 24.523 16.332-24.523 16.333z"/><path d="m136.091 353.447h6.662v18.875h-6.662z"/><path d="m157.032 353.447h6.662v18.875h-6.662z"/><path d="m177.984 353.447h6.662v18.875h-6.662z"/><path d="m198.924 353.447h6.662v18.875h-6.662z"/><path d="m219.876 353.447h6.662v18.875h-6.662z"/><path d="m240.816 353.447h6.662v18.875h-6.662z"/><path d="m261.757 353.447h6.662v18.875h-6.662z"/><path d="m282.709 353.447h6.662v18.875h-6.662z"/><path d="m303.649 353.447h6.662v18.875h-6.662z"/><path d="m324.59 353.447h6.662v18.875h-6.662z"/><path d="m345.541 353.447h6.662v18.875h-6.662z"/><path d="m366.482 353.447h6.662v18.875h-6.662z"/></g></svg>