<?xml version="1.0" encoding="iso-8859-1"?>
<!-- Generator: Adobe Illustrator 19.0.0, SVG Export Plug-In . SVG Version: 6.00 Build 0)  -->
<svg xmlns="http://www.w3.org/2000/svg" xmlns:xlink="http://www.w3.org/1999/xlink" version="1.1" id="Layer_1" x="0px" y="0px" viewBox="0 0 512 512" style="enable-background:new 0 0 512 512;" xml:space="preserve">
<path style="fill:#1E3160;" d="M512,256c0,34.575-6.851,67.552-19.286,97.641c-15.622,37.851-40.071,71.138-70.772,97.297  c-18.198,15.5-38.595,28.502-60.657,38.472c-31.167,14.079-65.642,22.095-101.949,22.562c-1.11,0.011-2.221,0.022-3.331,0.022  s-2.221-0.011-3.331-0.022c-36.307-0.466-70.794-8.483-101.96-22.562c-22.062-9.971-42.458-22.972-60.657-38.472  C74.58,437.748,60.69,422.747,48.732,406.27c-11.78-16.211-21.696-33.854-29.446-52.618C6.862,323.563,0,290.586,0,256  C0,114.612,114.618,0.006,256.006,0.006C397.382,0.006,512,114.612,512,256z"/>
<path style="fill:#B2AA9E;" d="M287.017,62.072c2.72,2.987,10.515,13.179,4.519,26.503c-6.962,15.444-21.318,50.708-22.206,52.895  c-2.476,0.611-5.03,1.033-7.661,1.255l-5.663,0.466l-5.663-0.466c-2.631-0.222-5.196-0.644-7.672-1.255  c-0.888-2.187-15.245-37.451-22.195-52.895c-5.973-13.29,1.743-23.461,4.497-26.481c5.263-3.797,11.236-6.629,17.643-8.305  c4.397-1.144,8.894-1.721,13.39-1.721c4.497,0,8.994,0.577,13.39,1.721C275.802,55.466,281.765,58.297,287.017,62.072z"/>
<path style="fill:#C9C3B8;" d="M220.475,88.575c6.951,15.444,21.307,50.708,22.195,52.895  c-24.027-5.874-40.438-29.168-36.907-54.494l2.798-5.585c3.42-6.84,8.227-12.78,14.045-17.487c0.777-0.622,1.566-1.232,2.365-1.81  C222.219,65.114,214.502,75.285,220.475,88.575z"/>
<g>
	<path style="fill:#E9E4D8;" d="M306.236,86.977c0.322,2.309,0.477,4.597,0.477,6.862c0,22.562-15.544,42.292-37.384,47.633   c0.888-2.187,15.245-37.451,22.206-52.895c5.996-13.324-1.799-23.516-4.519-26.503c6.873,4.974,12.547,11.558,16.433,19.319   L306.236,86.977z"/>
	<path style="fill:#E9E4D8;" d="M256.006,488.844v23.15c-1.11,0-2.221-0.011-3.331-0.022c-36.307-0.466-70.794-8.483-101.96-22.562   l1.232-8.938c39.005,9.238,87.704,8.783,100.728,8.472C254.829,488.889,256.006,488.844,256.006,488.844z"/>
	<path style="fill:#E9E4D8;" d="M361.286,489.411c-31.167,14.079-65.642,22.095-101.949,22.562c-1.11,0.011-2.221,0.022-3.331,0.022   v-23.15c0,0,1.177,0.044,3.331,0.1c13.024,0.311,61.711,0.766,100.717-8.472L361.286,489.411z"/>
	<path style="fill:#E9E4D8;" d="M351.271,324.595l32.71,94.344c-0.133,1.987-0.278,3.953-0.444,5.874l-13.612,4.708l-34.486-99.44   L351.271,324.595z"/>
	<path style="fill:#E9E4D8;" d="M176.562,330.08l-34.486,99.44l-13.601-4.708h-0.011c-0.167-1.932-0.311-3.886-0.444-5.874h0.011   l32.71-94.344L176.562,330.08z"/>
	<path style="fill:#E9E4D8;" d="M188.298,184.684c14.856,0,26.903,12.047,26.903,26.903c0,14.867-12.047,26.914-26.903,26.914   c-14.867,0-26.914-12.047-26.914-26.914C161.384,196.731,173.431,184.684,188.298,184.684z"/>
	<path style="fill:#E9E4D8;" d="M492.714,353.641c-15.622,37.851-40.071,71.138-70.772,97.297   c-8.594-52.263-23.661-123.689-47.533-189.342l49.032-125.577l10.004,23.428C460.148,222.013,479.99,287.133,492.714,353.641z"/>
	<path style="fill:#E9E4D8;" d="M137.59,261.596c-23.872,65.653-38.939,137.08-47.533,189.342   C74.58,437.748,60.69,422.747,48.732,406.27c-11.78-16.211-21.696-33.854-29.446-52.618   c12.724-66.519,32.566-131.628,59.269-194.205l10.004-23.428l18.365,47.022L137.59,261.596z"/>
</g>
<g>
	<path style="fill:#EB305B;" d="M250.343,142.726c-2.631-0.222-5.196-0.644-7.672-1.255c-0.522-0.133-1.044-0.266-1.554-0.411   c-0.5-0.133-0.988-0.278-1.477-0.433c-0.344-0.111-0.688-0.222-1.033-0.333c-0.644-0.222-1.277-0.444-1.91-0.699   c-0.378-0.133-0.755-0.289-1.121-0.444c-0.255-0.111-0.511-0.211-0.755-0.322c-0.389-0.167-0.777-0.344-1.155-0.522   c-0.477-0.222-0.944-0.444-1.41-0.688c-0.078-0.044-0.167-0.078-0.244-0.122c-0.422-0.211-0.822-0.433-1.232-0.655   c-0.489-0.266-0.966-0.544-1.443-0.822c-0.389-0.233-0.777-0.466-1.155-0.711c-0.433-0.278-0.866-0.555-1.299-0.855   c-0.422-0.289-0.855-0.588-1.266-0.888c-0.444-0.311-0.877-0.644-1.299-0.966c-0.389-0.311-0.766-0.611-1.144-0.922   c-0.799-0.666-1.566-1.343-2.321-2.043c-0.378-0.355-0.744-0.711-1.11-1.077c-0.455-0.455-0.899-0.922-1.343-1.388   c-0.255-0.278-0.511-0.566-0.766-0.855c-0.278-0.322-0.566-0.633-0.844-0.966c-0.056-0.056-0.1-0.122-0.155-0.178   c-0.067-0.089-0.144-0.178-0.222-0.278c-0.244-0.311-0.5-0.622-0.744-0.944c-0.577-0.744-1.133-1.499-1.665-2.265   c-0.378-0.555-0.744-1.11-1.11-1.677c-0.022-0.044-0.044-0.089-0.078-0.133c-0.211-0.333-0.422-0.677-0.622-1.01   c-0.255-0.433-0.5-0.855-0.744-1.288c-0.022-0.056-0.056-0.1-0.089-0.155c-0.222-0.411-0.444-0.833-0.666-1.266   c-0.233-0.455-0.466-0.922-0.688-1.388c-0.222-0.466-0.433-0.933-0.644-1.41c-0.411-0.944-0.788-1.91-1.144-2.876   c-0.167-0.466-0.333-0.933-0.489-1.399c0-0.022-0.011-0.056-0.022-0.078c-0.4-1.199-0.744-2.42-1.044-3.664   c-0.011-0.056-0.033-0.111-0.044-0.178c-0.133-0.555-0.255-1.121-0.366-1.688c-0.133-0.622-0.244-1.255-0.344-1.888   c-0.044-0.311-0.1-0.633-0.144-0.955c-0.044-0.311-0.089-0.633-0.122-0.955c-0.067-0.544-0.122-1.088-0.178-1.643   c0-0.044-0.011-0.111-0.011-0.167s-0.011-0.111-0.011-0.167c-0.011-0.1-0.022-0.2-0.022-0.3c-0.011-0.133-0.022-0.266-0.033-0.411   c0-0.078-0.011-0.155-0.011-0.244c-0.022-0.311-0.033-0.622-0.044-0.944c-0.033-0.655-0.044-1.31-0.044-1.965   c0-2.265,0.155-4.552,0.477-6.862L88.559,136.019l18.365,47.022l30.667,78.555c0,0-13.812,92.489-9.571,157.343h0.011l32.71-94.344   l15.822,5.485l-34.486,99.44l-13.601-4.708h-0.011c2.532,29.601,9.26,52.296,23.483,55.66c39.005,9.238,87.704,8.783,100.728,8.472   c2.154-0.056,3.331-0.1,3.331-0.1V143.192L250.343,142.726z M188.298,238.501c-14.867,0-26.914-12.047-26.914-26.914   c0-14.856,12.047-26.903,26.914-26.903c14.856,0,26.903,12.047,26.903,26.903C215.201,226.454,203.155,238.501,188.298,238.501z"/>
	<path style="fill:#EB305B;" d="M269.329,141.471c21.84-5.341,37.384-25.071,37.384-47.633c0-2.265-0.155-4.552-0.477-6.862   l117.205,49.043L374.41,261.596c0,0,13.823,92.489,9.571,157.343l-32.71-94.344l-15.833,5.485l34.486,99.44l13.612-4.708   c-2.531,29.601-9.26,52.296-23.483,55.66c-45.445,10.759-104.048,8.372-104.048,8.372V143.192l5.663-0.466   C264.3,142.503,266.853,142.082,269.329,141.471z"/>
</g>
<g>
	<path style="fill:#E9E4D8;" d="M275.936,165.476c-7.474,0-11.145-9.585-5.532-14.553c2.687-2.378,6.727-2.777,9.81-0.919   c2.976,1.794,4.57,5.349,3.883,8.766C283.324,162.611,279.872,165.476,275.936,165.476z"/>
	<path style="fill:#E9E4D8;" d="M275.936,242.221c-7.516,0-11.088-9.575-5.532-14.548c2.784-2.492,7.046-2.776,10.149-0.707   c2.643,1.761,4.095,5.004,3.615,8.147C283.556,239.137,280.025,242.221,275.936,242.221z"/>
	<path style="fill:#E9E4D8;" d="M275.936,318.966c-3.468,0-6.684-2.256-7.838-5.526c-1.178-3.337-0.099-7.144,2.681-9.34   c5.875-4.641,14.646,0.625,13.354,7.959C283.439,315.994,279.948,318.966,275.936,318.966z"/>
	<path style="fill:#E9E4D8;" d="M275.936,395.711c-7.475,0-11.143-9.585-5.532-14.553c2.687-2.378,6.727-2.777,9.81-0.919   c2.976,1.794,4.57,5.351,3.883,8.766C283.324,392.848,279.871,395.711,275.936,395.711z"/>
	<path style="fill:#E9E4D8;" d="M275.936,472.456c-7.41,0-11.095-9.432-5.654-14.445c2.684-2.473,6.797-2.898,9.931-1.026   c2.851,1.703,4.457,5.079,3.956,8.364C283.556,469.372,280.025,472.456,275.936,472.456z"/>
</g>
<g>
	<path style="fill:#C9C3B8;" d="M188.298,179.133c-17.898,0-32.466,14.556-32.466,32.455s14.567,32.466,32.466,32.466   s32.455-14.567,32.455-32.466S206.197,179.133,188.298,179.133z M188.298,232.95c-11.78,0-21.362-9.582-21.362-21.362   c0-11.769,9.582-21.351,21.362-21.351c11.769,0,21.351,9.582,21.351,21.351C209.65,223.368,200.068,232.95,188.298,232.95z"/>
	<path style="fill:#C9C3B8;" d="M259.336,143.192v368.78c-1.11,0.011-2.221,0.022-3.331,0.022s-2.221-0.011-3.331-0.022v-368.78   H259.336z"/>
</g>
<path style="fill:#D82B59;" d="M207.707,109.005c-17.476,3.176-79.576,18.165-100.484,73.27c-0.1,0.255-0.2,0.511-0.3,0.766  l-18.365-47.022l117.205-49.043C204.698,94.649,205.453,102.132,207.707,109.005z"/>
<path style="fill:#C9C3B8;" d="M106.923,183.041C63.932,243.176,51.574,337.897,48.732,406.27  c-11.78-16.211-21.696-33.854-29.446-52.618c12.724-66.519,32.566-131.628,59.269-194.205l10.004-23.428L106.923,183.041z"/>
<g>
</g>
<g>
</g>
<g>
</g>
<g>
</g>
<g>
</g>
<g>
</g>
<g>
</g>
<g>
</g>
<g>
</g>
<g>
</g>
<g>
</g>
<g>
</g>
<g>
</g>
<g>
</g>
<g>
</g>
</svg>
