<?xml version="1.0" encoding="iso-8859-1"?>
<!-- Generator: Adobe Illustrator 19.0.0, SVG Export Plug-In . SVG Version: 6.00 Build 0)  -->
<svg xmlns="http://www.w3.org/2000/svg" xmlns:xlink="http://www.w3.org/1999/xlink" version="1.1" id="Layer_1" x="0px" y="0px" viewBox="0 0 512 512" style="enable-background:new 0 0 512 512;" xml:space="preserve">
<path style="fill:#55C6A1;" d="M512,256c0,77.7-34.62,147.317-89.269,194.261c-44.79,38.472-103.048,61.734-166.725,61.734  c-63.688,0-121.946-23.261-166.736-61.734C34.62,403.317,0,333.7,0,256C0,114.612,114.618,0.006,256.006,0.006  C397.382,0.006,512,114.612,512,256z"/>
<path style="fill:#4D4D4D;" d="M422.731,125.038v325.223c-44.79,38.472-103.048,61.734-166.725,61.734  c-63.688,0-121.946-23.261-166.736-61.734V125.038c0-18.809,15.245-34.042,34.053-34.042h265.365  C407.486,90.996,422.731,106.229,422.731,125.038z"/>
<path style="fill:#E9E4D8;" d="M123.317,445.79c-10.202,0-18.501-8.3-18.501-18.501v-302.25c0-10.202,8.3-18.501,18.501-18.501  h265.369c10.202,0,18.501,8.3,18.501,18.501v302.25c0,10.202-8.3,18.501-18.501,18.501H123.317z"/>
<g>
	<rect x="128.319" y="123.056" style="fill:#4D4D4D;" width="39.971" height="17.765"/>
	<rect x="134.426" y="127.32" style="fill:#4D4D4D;" width="38.583" height="9.252"/>
	<rect x="126.654" y="163.772" style="fill:#4D4D4D;" width="258.704" height="14.804"/>
	<rect x="126.654" y="204.309" style="fill:#4D4D4D;" width="258.704" height="14.804"/>
	<rect x="126.654" y="244.836" style="fill:#4D4D4D;" width="258.704" height="14.804"/>
	<rect x="126.654" y="285.373" style="fill:#4D4D4D;" width="258.704" height="14.804"/>
	<rect x="126.654" y="325.9" style="fill:#4D4D4D;" width="258.704" height="14.804"/>
	<rect x="126.654" y="366.438" style="fill:#4D4D4D;" width="258.704" height="14.804"/>
	<rect x="126.654" y="406.964" style="fill:#4D4D4D;" width="258.704" height="14.804"/>
</g>
<path style="fill:#E9E4D8;" d="M281.193,468h-50.386c-2.643,0-4.785,2.143-4.785,4.785v22.259c0,2.643,2.143,4.785,4.785,4.785  h50.386c2.643,0,4.785-2.143,4.785-4.785v-22.259C285.979,470.142,283.836,468,281.193,468z"/>
<g>
</g>
<g>
</g>
<g>
</g>
<g>
</g>
<g>
</g>
<g>
</g>
<g>
</g>
<g>
</g>
<g>
</g>
<g>
</g>
<g>
</g>
<g>
</g>
<g>
</g>
<g>
</g>
<g>
</g>
</svg>
