<?xml version="1.0" encoding="iso-8859-1"?>
<!-- Generator: Adobe Illustrator 19.0.0, SVG Export Plug-In . SVG Version: 6.00 Build 0)  -->
<svg xmlns="http://www.w3.org/2000/svg" xmlns:xlink="http://www.w3.org/1999/xlink" version="1.1" id="Layer_1" x="0px" y="0px" viewBox="0 0 512 512" style="enable-background:new 0 0 512 512;" xml:space="preserve">
<path style="fill:#42577F;" d="M512,256c0,62.733-22.573,120.203-60.024,164.715c-9.771,11.614-20.541,22.34-32.199,32.033  c-44.39,36.996-101.483,59.246-163.772,59.246s-119.381-22.251-163.772-59.235c-11.658-9.693-22.428-20.419-32.199-32.033  C22.573,376.214,0,318.744,0,256C0,131.844,88.392,28.33,205.675,4.958c6.806-1.366,13.724-2.454,20.707-3.264  c9.726-1.11,19.608-1.688,29.623-1.688c28.469,0,55.86,4.652,81.442,13.235c7.039,2.354,13.946,5.019,20.707,7.961  C448.701,60.64,512,150.931,512,256z"/>
<rect x="77.614" y="319.96" style="fill:#AA5013;" width="362.707" height="59.957"/>
<rect x="77.614" y="319.96" style="fill:#99460E;" width="362.707" height="38.905"/>
<g>
	<path style="fill:#AA5013;" d="M92.234,322.919v129.84c-11.658-9.693-22.428-20.419-32.199-32.033v-97.808H92.234z"/>
	<path style="fill:#AA5013;" d="M451.976,322.919v97.797c-9.771,11.614-20.541,22.34-32.199,32.033V322.919H451.976z"/>
</g>
<polygon style="fill:#F0A037;" points="105.021,278.879 105.021,289.434 80.318,289.434 80.318,283.611 "/>
<path style="fill:#778EB2;" d="M86.443,137.575c-23.984,23.984-37.454,56.514-37.454,90.43v60.383  c-4.048-2.559-7.923,7.205-11.615,4.181v-69.374c0-33.917,13.476-66.446,37.46-90.43l3.401-3.401L86.443,137.575z"/>
<path style="fill:#55C6A1;" d="M131.397,112.806l-34.859,34.859l-10.095-10.091l-8.209-8.209l-0.087-0.087  c-4.813-4.813-7.219-11.12-7.219-17.428c0-6.312,2.406-12.619,7.219-17.432c9.631-9.631,25.239-9.631,34.865,0L131.397,112.806z"/>
<path style="fill:#41AA84;" d="M95.364,128.653l-8.209-8.209l-0.087-0.087c-4.813-4.813-7.219-11.12-7.219-17.428  c0-4.29,1.115-8.576,3.338-12.394c-1.8,1.048-3.497,2.341-5.04,3.884c-4.813,4.813-7.219,11.12-7.219,17.432  c0,6.307,2.406,12.614,7.219,17.428l0.087,0.087l8.209,8.209l10.095,10.091l8.921-8.921L95.364,128.653z"/>
<path style="fill:#55C6A1;" d="M177.795,120.204l-73.864,73.859c-9.729-13.665-12.191-30.913-7.394-46.398l34.859-34.859  C146.881,108.008,164.13,110.471,177.795,120.204z"/>
<path style="fill:#F0A037;" d="M157.03,146.179c7.49,7.49,7.49,19.635,0,27.125c-7.485,7.485-19.63,7.485-27.119,0L157.03,146.179z"/>
<g>
	<path style="fill:#41AA84;" d="M116.771,181.222c-9.729-13.665-12.191-30.913-7.394-46.398l-12.841,12.841   c-4.798,15.484-2.335,32.733,7.392,46.398L116.771,181.222z"/>
	<path style="fill:#41AA84;" d="M184.571,125.935l-23.892,23.892l-27.119,27.125l-23.894,23.892   c-2.131-2.131-4.044-4.406-5.736-6.781l73.864-73.859C180.171,121.892,182.439,123.804,184.571,125.935z"/>
</g>
<rect x="33.685" y="283.608" style="fill:#55C6A1;" width="86.605" height="26.39"/>
<g>
	<rect x="60.035" y="322.924" style="fill:#99460E;" width="32.199" height="29.976"/>
	<rect x="419.777" y="322.924" style="fill:#99460E;" width="32.199" height="29.976"/>
</g>
<g>
	<polygon style="fill:#E9E4D8;" points="373.144,295.163 306.525,295.163 308.746,284.06 311.643,269.626 368.025,269.626    370.923,284.06  "/>
	<path style="fill:#E9E4D8;" d="M385.08,301.825h-90.491l0,0c0-3.68,2.982-6.662,6.662-6.662h77.167   C382.097,295.163,385.08,298.145,385.08,301.825L385.08,301.825z"/>
</g>
<polygon style="fill:#D8D3C7;" points="370.923,284.06 308.746,284.06 311.643,269.626 368.025,269.626 "/>
<path style="fill:#E9E4D8;" d="M448.484,126.95H231.186c-3.156,0-5.714,2.558-5.714,5.714v135.135c0,3.156,2.558,5.714,5.714,5.714  h217.299c3.156,0,5.714-2.558,5.714-5.714V132.664C454.197,129.508,451.639,126.95,448.484,126.95z"/>
<rect x="236.575" y="138.046" style="fill:#4D4D4D;" width="206.519" height="113.807"/>
<g>
	<path style="fill:#E9E4D8;" d="M454.287,287.389h-22.386c-5.469,0-9.903,4.434-9.903,9.903l0,0c0,2.504,2.03,4.533,4.533,4.533   h33.125c2.504,0,4.533-2.03,4.533-4.533l0,0C464.19,291.822,459.756,287.389,454.287,287.389z"/>
	<rect x="101.094" y="274.348" style="fill:#E9E4D8;" width="85.272" height="27.478"/>
</g>
<rect x="111.52" y="245.868" style="fill:#F0A037;" width="85.272" height="27.478"/>
<g>
	<rect x="133.005" y="252.841" style="fill:#C68230;" width="42.292" height="13.523"/>
	<rect x="123.889" y="245.868" style="fill:#C68230;" width="3.64" height="27.478"/>
	<rect x="180.782" y="245.868" style="fill:#C68230;" width="3.64" height="27.478"/>
</g>
<g>
	<rect x="101.094" y="283.02" style="fill:#D8D2C5;" width="85.272" height="1.456"/>
	<rect x="101.094" y="277.224" style="fill:#D8D2C5;" width="85.272" height="1.456"/>
	<rect x="101.094" y="280.122" style="fill:#D8D2C5;" width="85.272" height="1.456"/>
	<rect x="101.094" y="285.906" style="fill:#D8D2C5;" width="85.272" height="1.456"/>
	<rect x="101.094" y="291.702" style="fill:#D8D2C5;" width="85.272" height="1.456"/>
	<rect x="101.094" y="288.804" style="fill:#D8D2C5;" width="85.272" height="1.456"/>
	<rect x="101.094" y="294.589" style="fill:#D8D2C5;" width="85.272" height="1.456"/>
	<rect x="101.094" y="297.487" style="fill:#D8D2C5;" width="85.272" height="1.456"/>
</g>
<g>
	<rect x="98.13" y="299.73" style="fill:#EB305B;" width="91.723" height="2.091"/>
	<rect x="98.13" y="273.349" style="fill:#EB305B;" width="91.723" height="2.091"/>
</g>
<path style="fill:#E9E4D8;" d="M193.539,232.99c0,0.473-0.014,0.954-0.043,1.441c-0.022,0.481-0.059,0.968-0.117,1.456  c-0.043,0.481-0.109,0.96-0.189,1.435c-0.08,0.487-0.174,0.976-0.284,1.456c-0.109,0.481-0.24,0.968-0.385,1.441  c-0.145,0.495-0.321,0.976-0.502,1.456c-0.254,0.648-0.546,1.281-0.88,1.908l-82.017,0.829c0.524-0.888,0.99-1.805,1.398-2.737  c0.225-0.481,0.422-0.968,0.604-1.456c0.182-0.473,0.342-0.96,0.495-1.441c0.153-0.481,0.291-0.968,0.407-1.456  c0.123-0.473,0.233-0.954,0.328-1.435s0.174-0.968,0.24-1.456c0.066-0.481,0.123-0.96,0.16-1.441  c0.043-0.481,0.072-0.968,0.088-1.456c0.014-0.481,0.014-0.954,0.008-1.435c-0.008-0.487-0.029-0.976-0.073-1.456  c-0.029-0.481-0.08-0.96-0.145-1.441c-0.058-0.487-0.131-0.976-0.225-1.456c-0.088-0.487-0.189-0.968-0.305-1.441  c-0.117-0.487-0.248-0.976-0.393-1.456c-0.139-0.481-0.299-0.96-0.473-1.435c-0.174-0.487-0.364-0.976-0.575-1.456  c-0.444-1.034-0.954-2.045-1.529-3.029h78.552c0,0,2.329,0.16,3.56,3.029c0.073,0.174,0.145,0.364,0.211,0.561  c0.088,0.254,0.182,0.553,0.291,0.895c0.123,0.415,0.262,0.903,0.408,1.435c0.117,0.452,0.24,0.939,0.356,1.456  c0.109,0.452,0.211,0.939,0.305,1.441c0.094,0.466,0.182,0.954,0.262,1.456c0.073,0.466,0.145,0.946,0.204,1.441  c0.059,0.473,0.109,0.96,0.145,1.456c0.037,0.466,0.073,0.946,0.088,1.435C193.531,232.014,193.546,232.495,193.539,232.99z"/>
<g>
	<path style="fill:#D8D2C5;" d="M193.073,227.202h-80.445c-0.058-0.487-0.131-0.976-0.225-1.456h80.408   C192.905,226.211,192.993,226.7,193.073,227.202z"/>
	<path style="fill:#D8D2C5;" d="M191.74,221.415h-80.51c-0.174-0.487-0.364-0.976-0.575-1.456h80.583   c0.073,0.174,0.145,0.364,0.211,0.561C191.536,220.774,191.632,221.072,191.74,221.415z"/>
	<path style="fill:#D8D2C5;" d="M192.504,224.305h-80.408c-0.117-0.487-0.248-0.976-0.393-1.456h80.445   C192.265,223.3,192.388,223.788,192.504,224.305z"/>
	<path style="fill:#D8D2C5;" d="M193.423,230.1h-80.576c-0.008-0.487-0.029-0.976-0.073-1.456h80.503   C193.335,229.117,193.386,229.604,193.423,230.1z"/>
	<path style="fill:#D8D2C5;" d="M193.495,234.431h-80.903c-0.066,0.487-0.145,0.976-0.24,1.456h81.028L193.495,234.431z"/>
	<path style="fill:#D8D2C5;" d="M193.509,231.533h-80.67c-0.014,0.487-0.043,0.976-0.088,1.456h80.787L193.509,231.533z"/>
	<path style="fill:#D8D2C5;" d="M193.189,237.321c-0.08,0.487-0.174,0.976-0.284,1.456h-81.29c0.153-0.481,0.291-0.968,0.407-1.456   H193.189z"/>
	<path style="fill:#D8D2C5;" d="M192.52,240.219c-0.145,0.495-0.321,0.976-0.502,1.456h-81.502c0.225-0.481,0.422-0.968,0.604-1.456   H192.52z"/>
</g>
<path style="fill:#55C6A1;" d="M190.162,245.866c-0.028,0-0.057-0.001-0.084-0.002h-85.192v-2.912h84.431  c4.174-7.65,4.175-16.917,0.003-24.566h-84.434v-2.912h85.277c0.076,0,0.151,0.006,0.224,0.018c0.432,0.068,0.815,0.325,1.037,0.702  c5.248,8.93,5.246,20.025-0.007,28.955C191.151,245.601,190.668,245.866,190.162,245.866z"/>
<path style="fill:#AA5013;" d="M337.447,13.241c-25.582-8.583-52.973-13.235-81.442-13.235c-10.015,0-19.897,0.577-29.623,1.688  c-6.984,0.811-13.901,1.899-20.707,3.264v78.877h152.48V21.201C351.393,18.259,344.487,15.594,337.447,13.241z"/>
<path style="fill:#E9E4D8;" d="M337.447,13.241v51.186H226.382V1.693c9.726-1.11,19.608-1.688,29.623-1.688  C284.474,0.006,311.866,4.658,337.447,13.241z"/>
<polygon style="fill:#666666;" points="443.094,138.051 443.094,251.859 323.313,251.859 362.84,138.051 "/>
<rect x="13.953" y="301.828" style="fill:#AA5013;" width="484.098" height="28.868"/>
<g>
</g>
<g>
</g>
<g>
</g>
<g>
</g>
<g>
</g>
<g>
</g>
<g>
</g>
<g>
</g>
<g>
</g>
<g>
</g>
<g>
</g>
<g>
</g>
<g>
</g>
<g>
</g>
<g>
</g>
</svg>
