<?xml version="1.0" encoding="iso-8859-1"?>
<!-- Generator: Adobe Illustrator 19.0.0, SVG Export Plug-In . SVG Version: 6.00 Build 0)  -->
<svg xmlns="http://www.w3.org/2000/svg" xmlns:xlink="http://www.w3.org/1999/xlink" version="1.1" id="Layer_1" x="0px" y="0px" viewBox="0 0 511.993 511.993" style="enable-background:new 0 0 511.993 511.993;" xml:space="preserve">
<circle style="fill:#E9E4D8;" cx="255.997" cy="255.997" r="255.997"/>
<g>
	<polygon style="fill:#7991B7;" points="217.617,275.467 213.8,265.04 307.66,230.685 297.362,246.278  "/>
	<polygon style="fill:#7991B7;" points="302.289,275.467 306.107,265.04 208.528,229.324 222.545,246.278  "/>
	<rect x="178.285" y="176.064" style="fill:#7991B7;" width="161.93" height="11.103"/>
	
		<rect x="209.97" y="281.729" transform="matrix(-0.7915 -0.6111 0.6111 -0.7915 225.1243 651.3547)" style="fill:#7991B7;" width="27.374" height="11.103"/>
	<path style="fill:#7991B7;" d="M46.485,381.088c-0.54,0-1.087-0.079-1.63-0.246c-2.931-0.899-4.579-4.005-3.679-6.936   l14.103-45.954c0.899-2.931,4.004-4.58,6.936-3.678c2.931,0.899,4.579,4.005,3.679,6.936l-14.103,45.954   C51.057,379.553,48.86,381.088,46.485,381.088z"/>
</g>
<circle style="fill:#42577F;" cx="120.803" cy="256.363" r="103.871"/>
<path style="fill:#7991B7;" d="M302.869,216.521c-13.432-6.544-27.884-9.862-42.956-9.862c-15.073,0-29.525,3.318-42.956,9.862  l-4.863-9.981c14.958-7.288,31.047-10.984,47.819-10.984c16.773,0,32.861,3.696,47.819,10.984L302.869,216.521z"/>
<path style="fill:#F0A037;" d="M228.68,317.474c-0.622,0-1.252-0.105-1.872-0.326c-2.887-1.034-4.389-4.211-3.355-7.098  l11.675-32.61c1.034-2.886,4.214-4.387,7.098-3.355c2.887,1.034,4.389,4.211,3.355,7.098l-11.675,32.61  C233.095,316.061,230.959,317.474,228.68,317.474z"/>
<path style="fill:#42577F;" d="M22.308,223.283l-5.823-10.106c-3.556-6.173,2.014-13.603,8.937-11.916l6.365,1.55"/>
<g>
	
		<rect x="282.568" y="281.745" transform="matrix(0.7915 -0.6111 0.6111 0.7915 -113.8149 240.9404)" style="fill:#7991B7;" width="27.374" height="11.103"/>
	<path style="fill:#7991B7;" d="M473.421,381.088c0.54,0,1.087-0.079,1.63-0.246c2.931-0.899,4.579-4.005,3.678-6.936   l-14.103-45.954c-0.899-2.931-4.004-4.58-6.936-3.678c-2.931,0.899-4.579,4.005-3.678,6.936l14.103,45.954   C468.848,379.553,471.046,381.088,473.421,381.088z"/>
</g>
<circle style="fill:#42577F;" cx="399.107" cy="256.363" r="103.871"/>
<path style="fill:#F0A037;" d="M291.226,317.474c0.622,0,1.252-0.105,1.872-0.326c2.887-1.034,4.389-4.211,3.355-7.098  l-11.675-32.61c-1.034-2.886-4.214-4.387-7.098-3.355c-2.887,1.034-4.389,4.211-3.355,7.098L286,313.792  C286.812,316.061,288.948,317.474,291.226,317.474z"/>
<path style="fill:#42577F;" d="M497.599,223.283l5.823-10.106c3.556-6.173-2.014-13.603-8.937-11.916l-6.366,1.55"/>
<path style="fill:#C1EDF4;" d="M206.549,256.365c0,3.942-0.266,7.817-0.788,11.614c-0.588,4.396-1.521,8.683-2.765,12.835  c-10.547,35.408-43.402,61.301-82.196,61.301c-17.31,0-33.454-5.163-46.945-14.023c-3.675-2.409-7.139-5.085-10.393-8.017  c-17.431-15.7-28.413-38.451-28.413-63.71c0-47.289,38.462-85.749,85.75-85.749S206.549,209.077,206.549,256.365"/>
<path style="fill:#A4D8DD;" d="M205.761,267.98c-0.588,4.396-1.521,8.683-2.765,12.835L73.856,328.093  c-3.675-2.409-7.139-5.085-10.393-8.017L205.761,267.98"/>
<path style="fill:#C1EDF4;" d="M484.854,256.365c0,25.26-10.982,48.01-28.413,63.71c-3.253,2.932-6.717,5.607-10.393,8.017  c-13.49,8.86-29.635,14.023-46.945,14.023c-10.093,0-19.786-1.755-28.78-4.975c-25.604-9.138-45.612-30.134-53.417-56.326  c-1.245-4.153-2.177-8.438-2.765-12.835c-0.522-3.797-0.788-7.672-0.788-11.614c0-47.289,38.461-85.749,85.749-85.749  c14.29,0,27.758,3.509,39.616,9.714C466.122,194.653,484.854,223.355,484.854,256.365"/>
<path style="fill:#A4D8DD;" d="M314.144,267.98c0.59,4.396,1.521,8.683,2.765,12.835l129.142,47.278  c3.675-2.409,7.139-5.085,10.393-8.017L314.144,267.98"/>
<path style="fill:#DBF4F9;" d="M384.153,305.433l-13.83,31.709c8.994,3.22,18.687,4.975,28.78,4.975  c17.31,0,33.454-5.163,46.945-14.023l0.002-0.001L384.153,305.433 M438.719,180.33L388.6,295.238l67.845,24.838  c17.427-15.7,28.409-38.451,28.409-63.71C484.854,223.355,466.122,194.653,438.719,180.33L438.719,180.33"/>
<path style="fill:#C9E8EB;" d="M388.6,295.238l-4.447,10.195l61.898,22.661c3.672-2.41,7.135-5.085,10.388-8.017l0,0L388.6,295.238"/>
<path style="fill:#FFFFFF;" d="M121.015,342.116c-0.071,0-0.144,0-0.215,0C120.871,342.117,120.943,342.116,121.015,342.116   M120.503,342.116c0.026,0,0.051,0,0.077,0C120.554,342.116,120.528,342.116,120.503,342.116 M121.23,342.116  c-0.048,0-0.092,0-0.14,0C121.137,342.116,121.183,342.116,121.23,342.116 M120.267,342.115c0.031,0,0.062,0,0.093,0  C120.329,342.115,120.298,342.115,120.267,342.115 M121.445,342.114c-0.042,0-0.082,0-0.124,0.001  C121.363,342.115,121.403,342.115,121.445,342.114 M120.05,342.114c0.029,0,0.057,0,0.085,0  C120.106,342.114,120.077,342.114,120.05,342.114 M121.662,342.112c-0.04,0-0.082,0-0.123,0.001  C121.58,342.112,121.62,342.112,121.662,342.112 M119.824,342.11c0.028,0,0.056,0.001,0.083,0.001  C119.88,342.111,119.851,342.111,119.824,342.11 M121.875,342.109c-0.04,0-0.074,0.001-0.114,0.001  C121.799,342.11,121.836,342.11,121.875,342.109 M119.604,342.108c0.023,0,0.044,0.001,0.067,0.001  C119.649,342.109,119.628,342.108,119.604,342.108 M122.084,342.107c-0.036,0-0.071,0.001-0.107,0.001  C122.013,342.108,122.048,342.107,122.084,342.107 M119.369,342.105c0.011,0,0.023,0,0.034,0  C119.391,342.105,119.38,342.105,119.369,342.105 M122.289,342.104c-0.031,0-0.061,0.001-0.091,0.001  C122.228,342.105,122.258,342.104,122.289,342.104 M122.472,342.1c-0.021,0-0.04,0-0.061,0.001  C122.432,342.101,122.451,342.101,122.472,342.1 M119.089,342.099c0.024,0,0.049,0.001,0.072,0.001  C119.137,342.1,119.112,342.1,119.089,342.099 M118.849,342.095c0.032,0.001,0.066,0.001,0.099,0.002  C118.915,342.096,118.881,342.096,118.849,342.095 M118.629,342.089c0.031,0,0.062,0.001,0.093,0.002  C118.692,342.09,118.662,342.09,118.629,342.089 M123.025,342.088c-0.002,0-0.004,0-0.007,0  C123.02,342.088,123.023,342.088,123.025,342.088 M118.411,342.084c0.029,0.001,0.059,0.001,0.088,0.002  C118.47,342.085,118.44,342.085,118.411,342.084 M123.235,342.082c-0.012,0-0.026,0-0.038,0.001  C123.211,342.082,123.223,342.082,123.235,342.082 M118.189,342.077c0.026,0.001,0.05,0.001,0.077,0.002  C118.24,342.079,118.214,342.078,118.189,342.077 M123.433,342.077c-0.004,0-0.011,0-0.016,0  C123.423,342.077,123.427,342.077,123.433,342.077 M123.633,342.07c-0.002,0-0.006,0-0.008,0  C123.627,342.07,123.63,342.07,123.633,342.07 M117.934,342.069c0.029,0.001,0.058,0.002,0.087,0.003  C117.992,342.071,117.963,342.07,117.934,342.069 M117.686,342.06c0.022,0,0.044,0.001,0.066,0.002  C117.729,342.062,117.708,342.061,117.686,342.06 M117.451,342.051c0.027,0.001,0.053,0.002,0.079,0.003  C117.504,342.054,117.477,342.052,117.451,342.051 M117.227,342.042c0.028,0.001,0.053,0.002,0.081,0.003  C117.28,342.045,117.254,342.044,117.227,342.042 M116.998,342.032c0.031,0.001,0.062,0.002,0.093,0.003  C117.062,342.036,117.028,342.034,116.998,342.032 M116.784,342.024c0.027,0.001,0.051,0.002,0.078,0.003  C116.835,342.026,116.811,342.025,116.784,342.024 M116.555,342.012c0.013,0,0.027,0.001,0.04,0.002  C116.581,342.014,116.569,342.012,116.555,342.012 M116.276,341.998c0.023,0.001,0.048,0.002,0.072,0.003  C116.323,342.001,116.3,341.999,116.276,341.998 M116.048,341.986c0.027,0.001,0.053,0.003,0.08,0.004  C116.101,341.989,116.073,341.987,116.048,341.986 M115.824,341.974c0.028,0.001,0.054,0.003,0.081,0.004  C115.878,341.977,115.85,341.975,115.824,341.974 M115.603,341.96c0.027,0.001,0.054,0.003,0.081,0.004  C115.656,341.964,115.629,341.963,115.603,341.96 M115.382,341.947c0.024,0.001,0.049,0.003,0.073,0.004  C115.431,341.95,115.407,341.948,115.382,341.947 M115.166,341.934L115.166,341.934L115.166,341.934 M114.891,341.915  c0.019,0.001,0.036,0.002,0.054,0.003C114.928,341.917,114.909,341.916,114.891,341.915 M114.661,341.898  c0.021,0.001,0.04,0.002,0.061,0.004C114.702,341.901,114.681,341.9,114.661,341.898 M114.439,341.883  c0.019,0.001,0.04,0.003,0.06,0.004C114.479,341.886,114.459,341.884,114.439,341.883 M114.215,341.866  c0.019,0.001,0.039,0.003,0.058,0.004C114.253,341.869,114.234,341.867,114.215,341.866 M113.998,341.848  c0.01,0.001,0.021,0.001,0.031,0.002C114.018,341.85,114.008,341.849,113.998,341.848 M113.531,341.81c0.004,0,0.008,0,0.012,0.001  C113.54,341.811,113.535,341.811,113.531,341.81 M113.28,341.789c0.016,0.001,0.03,0.002,0.046,0.004  C113.311,341.792,113.294,341.79,113.28,341.789 M113.058,341.769c0.012,0.001,0.027,0.002,0.039,0.003  C113.084,341.772,113.071,341.77,113.058,341.769 M112.841,341.749c0.006,0,0.012,0.001,0.018,0.001  C112.853,341.752,112.846,341.75,112.841,341.749 M203.631,278.581c-0.202,0.749-0.414,1.494-0.636,2.235  c-5.479,18.396-16.98,34.222-32.206,45.186c2.558-1.84,5.008-3.816,7.347-5.925C190.269,309.149,199.277,294.807,203.631,278.581   M206.426,260.989c-0.127,2.357-0.349,4.689-0.665,6.992c-0.117,0.874-0.248,1.742-0.391,2.607  C205.898,267.441,206.253,264.24,206.426,260.989 M206.439,260.738c-0.002,0.039-0.004,0.078-0.006,0.117  C206.435,260.815,206.437,260.778,206.439,260.738 M206.453,260.457c-0.001,0.022-0.002,0.046-0.003,0.068  C206.451,260.502,206.452,260.478,206.453,260.457 M206.465,260.185c0,0.004,0,0.009-0.001,0.013  C206.465,260.193,206.465,260.189,206.465,260.185 M206.477,259.898c0,0.002,0,0.004,0,0.008  C206.477,259.903,206.477,259.901,206.477,259.898 M206.488,259.607L206.488,259.607L206.488,259.607 M206.532,258.127  c0,0.006,0,0.011,0,0.017C206.532,258.137,206.532,258.134,206.532,258.127 M206.542,257.532c0,0.012,0,0.023,0,0.036  C206.542,257.557,206.542,257.542,206.542,257.532 M206.545,257.236c0,0.008,0,0.016,0,0.023  C206.545,257.251,206.545,257.246,206.545,257.236 M206.547,256.945c0,0.012,0,0.024,0,0.038  C206.547,256.969,206.547,256.956,206.547,256.945 M206.548,256.628c0,0.019,0,0.038,0,0.057  C206.548,256.667,206.548,256.647,206.548,256.628 M206.549,256.12c0,0.081,0,0.165,0,0.246l0,0  C206.549,256.283,206.549,256.202,206.549,256.12 M206.547,255.845c0,0.069,0.001,0.138,0.001,0.208  C206.548,255.983,206.548,255.912,206.547,255.845 M206.545,255.554c0.001,0.083,0.001,0.164,0.002,0.248  C206.547,255.717,206.546,255.638,206.545,255.554 M206.543,255.296c0.001,0.07,0.001,0.135,0.002,0.204  C206.544,255.432,206.544,255.364,206.543,255.296 M206.538,254.99c0.001,0.083,0.002,0.167,0.003,0.25  C206.541,255.156,206.539,255.075,206.538,254.99 M206.534,254.735c0.001,0.078,0.002,0.149,0.004,0.227  C206.537,254.887,206.535,254.81,206.534,254.735 M206.522,254.18c0.004,0.167,0.008,0.336,0.011,0.503  C206.529,254.515,206.526,254.349,206.522,254.18 M206.506,253.616c0.006,0.172,0.01,0.341,0.014,0.513  C206.516,253.957,206.512,253.788,206.506,253.616 M206.486,253.057c0.007,0.178,0.013,0.352,0.019,0.53  C206.499,253.411,206.493,253.232,206.486,253.057 M206.476,252.791c0.003,0.089,0.007,0.172,0.01,0.26  C206.483,252.967,206.479,252.878,206.476,252.791 M206.452,252.236c0.009,0.18,0.017,0.356,0.023,0.536  C206.467,252.594,206.46,252.416,206.452,252.236 M176.705,191.391c17.289,14.896,28.589,36.557,29.746,60.837  C205.294,227.945,193.996,206.284,176.705,191.391 M176.52,191.232c0.053,0.046,0.111,0.094,0.163,0.14  C176.629,191.326,176.574,191.278,176.52,191.232 M176.353,191.089c0.027,0.022,0.054,0.047,0.081,0.069  C176.406,191.136,176.38,191.113,176.353,191.089 M176.226,190.982c0.002,0.001,0.007,0.006,0.009,0.007  C176.232,190.986,176.229,190.984,176.226,190.982"/>
<path style="fill:#DBF4F9;" d="M203.631,278.581c-0.202,0.749-0.414,1.494-0.636,2.235L100.167,318.46l-8.149,18.681  c6.603,2.364,13.583,3.938,20.821,4.608c0.006,0,0.012,0.001,0.018,0.001c0.067,0.007,0.133,0.012,0.2,0.019  c0.012,0.001,0.027,0.002,0.039,0.003c0.061,0.006,0.122,0.011,0.183,0.017c0.014,0.001,0.031,0.002,0.046,0.004  c0.068,0.006,0.137,0.011,0.205,0.018c0.004,0,0.009,0,0.012,0.001c0.151,0.013,0.303,0.024,0.454,0.037  c0.01,0.001,0.02,0.001,0.031,0.002c0.062,0.004,0.123,0.01,0.185,0.014c0.02,0.001,0.038,0.003,0.058,0.004  c0.056,0.004,0.111,0.009,0.167,0.012c0.02,0.001,0.04,0.003,0.06,0.004c0.054,0.003,0.109,0.008,0.163,0.011  c0.02,0.001,0.041,0.003,0.061,0.004c0.056,0.003,0.113,0.008,0.169,0.012c0.018,0.001,0.038,0.002,0.054,0.003  c0.073,0.004,0.148,0.01,0.221,0.014l0,0c0.072,0.004,0.143,0.009,0.215,0.013c0.024,0.001,0.049,0.003,0.073,0.004  c0.049,0.002,0.098,0.006,0.148,0.009c0.027,0.001,0.053,0.003,0.081,0.004c0.047,0.002,0.093,0.006,0.14,0.008  c0.027,0.001,0.054,0.003,0.081,0.004c0.048,0.002,0.095,0.006,0.142,0.008c0.026,0.001,0.053,0.003,0.08,0.004  c0.049,0.002,0.099,0.006,0.148,0.008c0.024,0.001,0.048,0.002,0.072,0.003c0.069,0.003,0.138,0.007,0.208,0.01  c0.013,0,0.027,0.001,0.04,0.002c0.062,0.002,0.127,0.006,0.189,0.009c0.027,0.001,0.051,0.002,0.078,0.003  c0.046,0.002,0.091,0.003,0.137,0.006c0.03,0.001,0.063,0.002,0.093,0.003c0.044,0.002,0.09,0.004,0.135,0.006  c0.027,0.001,0.053,0.002,0.081,0.003c0.048,0.002,0.095,0.003,0.143,0.006c0.027,0.001,0.053,0.002,0.079,0.003  c0.052,0.002,0.103,0.003,0.155,0.006c0.022,0,0.044,0.001,0.066,0.002c0.061,0.002,0.122,0.004,0.183,0.006  c0.028,0.001,0.058,0.002,0.087,0.003c0.056,0.001,0.113,0.003,0.169,0.004c0.026,0.001,0.051,0.001,0.077,0.002  c0.049,0.001,0.098,0.003,0.145,0.004c0.029,0.001,0.059,0.001,0.088,0.002c0.043,0.001,0.088,0.002,0.131,0.003  c0.031,0,0.062,0.001,0.093,0.002c0.042,0.001,0.084,0.001,0.127,0.002c0.032,0.001,0.066,0.001,0.099,0.002  c0.047,0.001,0.094,0.002,0.141,0.002c0.024,0,0.048,0.001,0.072,0.001c0.069,0.001,0.138,0.002,0.208,0.003  c0.011,0,0.023,0,0.034,0c0.067,0.001,0.134,0.002,0.202,0.002c0.023,0,0.043,0.001,0.067,0.001c0.05,0,0.102,0.001,0.152,0.001  c0.028,0,0.057,0.001,0.083,0.001c0.047,0,0.094,0.001,0.142,0.001c0.029,0,0.057,0,0.086,0c0.044,0,0.089,0,0.133,0.001  c0.031,0,0.062,0,0.093,0c0.048,0,0.094,0,0.142,0c0.026,0,0.051,0,0.077,0c0.073,0,0.148,0,0.221,0l0,0c0.071,0,0.144,0,0.215,0  c0.026,0,0.05,0,0.076,0c0.048,0,0.092,0,0.14,0c0.03,0,0.061,0,0.09,0c0.042,0,0.082,0,0.124-0.001c0.031,0,0.062,0,0.093,0  c0.04,0,0.082-0.001,0.123-0.001c0.032,0,0.067-0.001,0.099-0.001c0.04,0,0.074-0.001,0.114-0.001c0.033,0,0.068,0,0.102-0.001  c0.036,0,0.071-0.001,0.107-0.001c0.038,0,0.076-0.001,0.114-0.001c0.031,0,0.061-0.001,0.091-0.001c0.04,0,0.082-0.001,0.122-0.002  c0.021,0,0.04,0,0.061-0.001c0.182-0.003,0.364-0.008,0.546-0.012c0.002,0,0.004,0,0.007,0c0.058-0.001,0.115-0.003,0.173-0.004  c0.012,0,0.026-0.001,0.038-0.001c0.061-0.002,0.121-0.003,0.182-0.006c0.004,0,0.011,0,0.016,0  c0.064-0.002,0.128-0.003,0.192-0.006c0.002,0,0.006,0,0.008,0c16.236-0.531,31.359-5.602,44.111-13.977  c1.031-0.676,2.047-1.373,3.046-2.092c15.227-10.963,26.727-26.79,32.206-45.186C203.218,280.074,203.429,279.329,203.631,278.581  L203.631,278.581 M160.417,180.33l-54.112,124.061l99.456-36.411c-0.117,0.874-0.248,1.742-0.391,2.607l0,0  c0.144-0.865,0.274-1.733,0.391-2.607c0.316-2.303,0.538-4.634,0.665-6.992c0.002-0.044,0.004-0.09,0.007-0.133  c0.002-0.039,0.004-0.078,0.006-0.117c0.003-0.071,0.007-0.142,0.01-0.213c0.001-0.022,0.002-0.046,0.003-0.068  c0.004-0.088,0.008-0.172,0.012-0.26c0-0.004,0-0.009,0.001-0.013c0.004-0.093,0.008-0.185,0.012-0.279c0-0.002,0-0.006,0-0.008  c0.004-0.097,0.008-0.194,0.011-0.291l0,0c0.018-0.486,0.032-0.975,0.042-1.462c0-0.006,0-0.011,0-0.017  c0.003-0.188,0.007-0.373,0.01-0.561c0-0.011,0-0.023,0-0.036c0.001-0.091,0.002-0.181,0.003-0.272c0-0.008,0-0.017,0-0.023  c0.001-0.084,0.001-0.17,0.002-0.254c0-0.012,0-0.024,0-0.038c0.001-0.087,0.001-0.173,0.001-0.259c0-0.019,0-0.038,0-0.057  c0-0.088,0-0.175,0-0.263c0-0.081,0-0.165,0-0.246c0-0.022,0-0.047,0-0.069c0-0.07-0.001-0.139-0.001-0.208c0-0.014,0-0.029,0-0.043  c0-0.083-0.001-0.164-0.002-0.248c0-0.017,0-0.037,0-0.053c-0.001-0.069-0.001-0.135-0.002-0.204c0-0.018,0-0.038-0.001-0.056  c-0.001-0.083-0.002-0.167-0.003-0.25c0-0.01,0-0.018,0-0.028c-0.001-0.078-0.002-0.149-0.004-0.227  c0-0.018-0.001-0.033-0.001-0.051c-0.003-0.167-0.007-0.336-0.011-0.503c0-0.017-0.001-0.036-0.001-0.051  c-0.004-0.172-0.009-0.341-0.014-0.513c0-0.01-0.001-0.02-0.001-0.03c-0.006-0.178-0.012-0.352-0.019-0.53c0-0.002,0-0.002,0-0.004  c-0.003-0.089-0.007-0.172-0.01-0.26c0-0.006,0-0.012-0.001-0.019c-0.008-0.18-0.016-0.356-0.023-0.536c0-0.002,0-0.006,0-0.008  c-1.157-24.281-12.457-45.941-29.746-60.837c-0.007-0.006-0.014-0.012-0.022-0.019c-0.053-0.046-0.11-0.094-0.163-0.14  c-0.03-0.026-0.056-0.048-0.085-0.073c-0.027-0.023-0.054-0.047-0.081-0.069c-0.039-0.033-0.08-0.069-0.119-0.101  c-0.002-0.001-0.007-0.006-0.009-0.007C171.387,186.874,166.087,183.295,160.417,180.33"/>
<path style="fill:#C9E8EB;" d="M205.761,267.98l-99.456,36.411l-6.136,14.069l102.828-37.644c0.222-0.741,0.434-1.486,0.636-2.235  c0.703-2.617,1.285-5.285,1.738-7.993C205.513,269.723,205.645,268.853,205.761,267.98"/>
<g>
</g>
<g>
</g>
<g>
</g>
<g>
</g>
<g>
</g>
<g>
</g>
<g>
</g>
<g>
</g>
<g>
</g>
<g>
</g>
<g>
</g>
<g>
</g>
<g>
</g>
<g>
</g>
<g>
</g>
</svg>
