<svg enable-background="new 0 0 512 512" viewBox="0 0 512 512" xmlns="http://www.w3.org/2000/svg"><path d="m512 256c0 34.775-6.928 67.929-19.497 98.152 0 .022-.011.044-.022.067-21.129 50.83-58.181 93.366-104.914 121.413-6.473 3.897-13.146 7.506-19.986 10.826-9.149 4.441-18.609 8.35-28.335 11.681-6.873 2.376-13.89 4.463-21.018 6.229-19.919 4.985-40.76 7.628-62.222 7.628s-42.314-2.643-62.233-7.628c-7.128-1.777-14.145-3.853-21.018-6.229-9.726-3.331-19.186-7.239-28.335-11.681-6.84-3.32-13.513-6.928-19.986-10.826-46.734-28.047-83.785-70.583-104.915-121.413-.011-.022-.022-.044-.022-.067-12.569-30.223-19.497-63.377-19.497-98.152 0-141.388 114.618-255.994 256.006-255.994 141.376 0 255.994 114.606 255.994 255.994z" fill="#e9e4d8"/><path d="m144.419 377.413v109.044c-6.84-3.32-13.513-6.928-19.986-10.826-46.733-28.046-83.784-70.582-104.914-121.412-.011-.022-.022-.044-.022-.067h101.661c12.846 0 23.261 10.415 23.261 23.261z" fill="#aa5013"/><path d="m21.129 354.152c-.544 0-1.077.022-1.61.067-.011-.022-.022-.044-.022-.067z" fill="#c4beb1"/><path d="m339.268 377.413v120.014c0 .233 0 .477-.022.711-6.873 2.376-13.89 4.463-21.018 6.229-19.919 4.985-40.76 7.628-62.222 7.628s-42.314-2.643-62.233-7.628c-7.128-1.777-14.145-3.853-21.018-6.229-.022-.233-.022-.477-.022-.711v-120.014c0-12.846 10.415-23.261 23.261-23.261h120.014c12.845 0 23.26 10.415 23.26 23.261z" fill="#32aace"/><path d="m192.718 377.413v120.014c0 2.42.366 4.752 1.055 6.939-7.128-1.777-14.145-3.853-21.018-6.229-.022-.233-.022-.477-.022-.711v-120.013c0-12.846 10.415-23.261 23.261-23.261h19.986c-12.848 0-23.262 10.415-23.262 23.261z" fill="#279eba"/><path d="m492.503 354.152c0 .022-.011.044-.022.067-21.129 50.83-58.181 93.366-104.914 121.413-6.473 3.897-13.146 7.506-19.986 10.826v-109.045c0-12.846 10.415-23.261 23.261-23.261z" fill="#eb305b"/><path d="m410.828 354.152c-12.846 0-23.261 10.415-23.261 23.261v98.219c-6.473 3.897-13.146 7.506-19.986 10.826v-109.045c0-12.846 10.415-23.261 23.261-23.261z" fill="#d82b59"/><path d="m492.503 354.152c0 .022-.011.044-.022.067-.533-.044-1.066-.067-1.599-.067z" fill="#f24674"/><path d="m339.268 377.413v120.014c0 .233 0 .477-.022.711-6.873 2.376-13.89 4.463-21.018 6.229.688-2.187 1.055-4.519 1.055-6.939v-120.015c0-12.846-10.415-23.261-23.261-23.261h19.986c12.845 0 23.26 10.415 23.26 23.261z" fill="#3fbbd8"/><path d="m144.419 377.413v109.044c-6.84-3.32-13.513-6.928-19.986-10.826v-98.219c0-12.846-10.415-23.261-23.261-23.261h19.986c12.846.001 23.261 10.416 23.261 23.262z" fill="#ba6227"/><path d="m218.586 187.609h-120.019c-12.846 0-23.26 10.414-23.26 23.26v120.018c0 12.846 10.414 23.26 23.26 23.26h120.019c12.846 0 23.26-10.414 23.26-23.26v-120.018c0-12.846-10.414-23.26-23.26-23.26z" fill="#f0a037"/><path d="m413.437 187.609h-120.02c-12.846 0-23.26 10.414-23.26 23.26v120.018c0 12.846 10.414 23.26 23.26 23.26h120.02c12.846 0 23.26-10.414 23.26-23.26v-120.018c0-12.846-10.415-23.26-23.26-23.26z" fill="#55c6a1"/><path d="m316.011 21.069h-120.018c-12.846 0-23.26 10.414-23.26 23.26v120.018c0 12.846 10.414 23.26 23.26 23.26h120.019c12.846 0 23.26-10.414 23.26-23.26v-120.018c-.001-12.846-10.414-23.26-23.261-23.26z" fill="#eb305b"/><path d="m290.142 330.887v-120.018c0-12.846 10.414-23.26 23.26-23.26h-19.985c-12.846 0-23.26 10.414-23.26 23.26v120.018c0 12.846 10.414 23.26 23.26 23.26h19.985c-12.845 0-23.26-10.413-23.26-23.26z" fill="#48af8a"/><path d="m95.292 330.887v-120.018c0-12.846 10.414-23.26 23.26-23.26h-19.985c-12.846 0-23.26 10.414-23.26 23.26v120.018c0 12.846 10.414 23.26 23.26 23.26h19.985c-12.847 0-23.26-10.413-23.26-23.26z" fill="#e09132"/><path d="m192.718 164.348v-120.019c0-12.846 10.414-23.26 23.26-23.26h-19.985c-12.846 0-23.26 10.414-23.26 23.26v120.018c0 12.846 10.414 23.26 23.26 23.26h19.985c-12.847.002-23.26-10.413-23.26-23.259z" fill="#d82b59"/><path d="m416.713 330.887v-120.018c0-12.846-10.414-23.26-23.26-23.26h19.985c12.846 0 23.26 10.414 23.26 23.26v120.018c0 12.846-10.414 23.26-23.26 23.26h-19.986c12.846 0 23.261-10.413 23.261-23.26z" fill="#75d8b4"/><path d="m319.287 164.348v-120.019c0-12.846-10.414-23.26-23.26-23.26h19.985c12.846 0 23.26 10.414 23.26 23.26v120.018c0 12.846-10.414 23.26-23.26 23.26h-19.985c12.846.002 23.26-10.413 23.26-23.259z" fill="#f24674"/><path d="m221.861 330.887v-120.018c0-12.846-10.414-23.26-23.26-23.26h19.985c12.846 0 23.26 10.414 23.26 23.26v120.018c0 12.846-10.414 23.26-23.26 23.26h-19.985c12.846 0 23.26-10.413 23.26-23.26z" fill="#fcb45e"/><path d="m368.285 290.633h-30.939l-7.346 20.144h-16.694l30.161-79.797h20.033l30.048 79.797h-17.806zm-26.265-13.022h21.813l-10.796-30.383z" fill="#379973"/><path d="m272.585 103.171c10.016 3.784 14.356 11.574 14.356 18.92 0 7.123-3.895 14.356-11.018 18.475-3.895 2.225-8.68 3.673-16.805 3.673h-34.056v-79.798h33.387c7.568 0 11.797 1.002 15.247 2.782 7.346 3.784 11.241 10.796 11.241 18.14.001 6.678-3.894 14.024-12.352 17.808zm-7.791-23.595c-1.781-1.558-4.34-2.56-9.015-2.56h-14.022v21.147h13.689c5.12 0 7.902-1.336 9.794-3.339 1.892-2.114 2.782-4.785 2.782-7.568 0-2.782-.891-5.677-3.228-7.68zm.779 32.72c-2.003-1.669-4.896-2.559-9.571-2.559h-14.245v21.924h14.133c5.009 0 7.791-1.002 9.794-2.559 2.671-2.115 3.784-5.231 3.784-8.347 0-3.339-1.336-6.456-3.895-8.459z" fill="#bf1b4e"/><path d="m257.502 474.196c-23.705 0-39.732-17.139-39.732-41.067 0-24.596 17.807-41.178 39.732-41.178 18.475 0 33.499 10.239 36.727 28.269h-17.028c-3.228-8.68-10.461-14.023-19.365-14.023-11.352 0-22.036 7.902-22.036 26.822 0 18.029 10.796 26.711 21.813 26.711 10.128 0 17.362-5.454 19.588-14.691h17.028c-3.005 18.027-18.363 29.157-36.727 29.157z" fill="#1c8da0"/><path d="m176.384 304.21c-6.121 4.007-13.8 6.566-23.816 6.566h-29.159v-79.797h28.491c10.35 0 18.475 2.449 24.485 6.121 12.02 7.457 17.362 20.923 17.362 33.721-.001 13.133-6.011 25.933-17.363 33.389zm-9.126-55.424c-4.117-3.339-9.46-4.785-15.247-4.785h-11.909v53.755h11.909c6.01 0 11.574-1.781 15.692-5.342 5.231-4.563 8.458-12.131 8.458-21.591.001-10.129-3.45-17.697-8.903-22.037z" fill="#d1822c"/></svg>