<?xml version="1.0" encoding="iso-8859-1"?>
<!-- Generator: Adobe Illustrator 19.0.0, SVG Export Plug-In . SVG Version: 6.00 Build 0)  -->
<svg xmlns="http://www.w3.org/2000/svg" xmlns:xlink="http://www.w3.org/1999/xlink" version="1.1" id="Layer_1" x="0px" y="0px" viewBox="0 0 512 512" style="enable-background:new 0 0 512 512;" xml:space="preserve">
<path style="fill:#F0A037;" d="M512,256c0,141.388-114.618,255.994-255.994,255.994c-78.111,0-148.05-34.975-195.005-90.124  c-7.639-8.96-14.656-18.465-21.018-28.435c-0.744-1.177-1.488-2.354-2.21-3.542c-1.033-1.665-2.043-3.342-3.02-5.041  c-9.282-15.889-16.888-32.876-22.595-50.719C4.253,309.506,0,283.258,0,256c0-82.385,38.917-155.677,99.373-202.488  c4.63-3.597,9.393-7.028,14.268-10.293c10.048-6.751,20.607-12.791,31.6-18.065c33.52-16.122,71.082-25.149,110.765-25.149  c98.851,0,184.623,56.027,227.271,138.068C501.63,173.37,512,213.475,512,256z"/>
<path style="fill:#E9E4D8;" d="M512,256c0,59.169-20.075,113.641-53.784,156.988c-1.332,1.721-2.687,3.431-4.075,5.119  c-2.787,3.398-5.652,6.729-8.616,9.971c-1.266,1.41-2.554,2.798-3.875,4.175c-40.094,42.236-94.455,70.794-155.367,77.966  c-1.965,0.233-3.953,0.444-5.94,0.633c-8.005,0.755-16.133,1.144-24.338,1.144c-26.636,0-52.318-4.064-76.467-11.614  c-2.576-0.799-5.141-1.643-7.683-2.532c-43.48-15.122-81.619-41.648-110.854-75.979c-7.639-8.96-14.656-18.465-21.018-28.435  c-0.744-1.177-1.488-2.354-2.21-3.542c-1.033-1.665-2.043-3.342-3.02-5.041c-9.282-15.889-16.888-32.876-22.595-50.719  l146.184-60.834l8.738-3.642l203.599-84.728l5.818-2.42l106.779-44.435C501.63,173.37,512,213.475,512,256z"/>
<path style="fill:#999999;" d="M493.469,319.244c0-25.915-15.567-50.186-43.835-68.351c-16.322-10.481-35.763-18.176-56.97-22.784  l-16.166-45.601l-5.818,2.42l-10.715,38.639c-4.819-0.3-9.693-0.455-14.601-0.455c-39.35,0-76.379,9.871-104.27,27.78  c-17.443,11.203-30.045,24.738-37.14,39.549c-0.811-0.533-1.61-1.077-2.443-1.599c-7.861-5.052-16.222-9.671-25.015-13.823  l-9.415-5.363l-8.738,3.642c5.507,2.132,10.837,4.43,16,6.873l27.325,15.556c-2.909,7.595-4.408,15.478-4.408,23.516  c0,25.915,15.567,50.186,43.835,68.351c5.751,3.686,11.903,7.017,18.365,10.004c-4.364,41.237-37.939,77.445-87.604,100.25  c2.543,0.888,5.107,1.732,7.683,2.532c7.683-3.753,15.023-7.883,21.973-12.347c37.04-23.794,59.124-54.716,63.266-88.07  c13.224,5.574,27.68,9.704,42.903,12.269l-27.336,98.618c1.987-0.189,3.975-0.4,5.94-0.633l26.925-97.13  c10.437,1.488,21.207,2.287,32.155,2.287c19.053,0,37.551-2.332,54.739-6.762l41.548,23.639c1.321-1.377,2.609-2.765,3.875-4.175  l-37.873-21.551c13.29-3.986,25.682-9.271,36.796-15.767l9.693,27.347c1.388-1.688,2.742-3.398,4.075-5.119l-8.927-25.193  c0.111-0.067,0.233-0.133,0.344-0.2C477.902,369.43,493.469,345.158,493.469,319.244z M374.254,192.801l12.069,34.031  c-6.762-1.255-13.679-2.198-20.719-2.82L374.254,192.801z M345.364,228.664c4.408,0,8.772,0.133,13.091,0.389l-35.785,129.119  L208.75,293.362C226.316,255.989,280.91,228.664,345.364,228.664z M259.892,391.692c-34.642-16.544-57.081-42.858-57.081-72.448  c0-6.995,1.255-13.801,3.62-20.341c33.276,23.827,53.528,55.194,53.528,89.536C259.958,389.527,259.936,390.604,259.892,391.692z   M309.167,406.859c-15.855-2.643-30.645-6.984-43.846-12.702c0.111-1.899,0.189-3.808,0.189-5.718  c0-27.38-11.98-53.506-34.32-75.923l89.947,51.174L309.167,406.859z M345.364,409.823c-10.526,0-20.785-0.733-30.667-2.121  l11.414-41.182l66.93,38.084C378.129,407.98,362.085,409.823,345.364,409.823z M400.88,402.673l-73.236-41.67l36.452-131.561  c8.383,0.711,16.521,1.876,24.383,3.464l54.083,152.535C430.436,392.624,416.357,398.498,400.88,402.673z M447.391,382.432  l-52.529-148.138c54.283,12.813,93.056,46.056,93.056,84.95C487.917,343.804,472.451,366.099,447.391,382.432z"/>
<rect x="115.351" y="54.439" style="fill:#A2ABBC;" width="16.655" height="112.753"/>
<path style="fill:#666666;" d="M132.005,98.38c-2.731-0.3-5.518-0.455-8.327-0.455c-2.809,0-5.585,0.155-8.327,0.455  c-38.284,4.153-68.185,36.685-68.185,76.057c0,25.382,12.413,47.91,31.5,61.822c7.45,5.452,15.922,9.582,25.06,12.047  c6.362,1.721,13.057,2.643,19.952,2.643c6.906,0,13.59-0.922,19.952-2.643c9.149-2.465,17.61-6.595,25.06-12.047  c19.086-13.912,31.5-36.452,31.5-61.822C200.19,135.064,170.289,102.532,132.005,98.38z M164.282,218.36  c-6.906,6.407-15.311,11.192-24.627,13.768c-5.085,1.41-10.448,2.165-15.977,2.165c-5.529,0-10.892-0.755-15.977-2.165  c-9.316-2.576-17.721-7.361-24.627-13.768c-11.836-10.926-19.253-26.57-19.253-43.924c0-32.999,26.847-59.857,59.857-59.857  c32.999,0,59.857,26.859,59.857,59.857C183.535,191.79,176.118,207.435,164.282,218.36z"/>
<rect x="71.638" y="310.045" style="fill:#A2ABBC;" width="104.225" height="16.655"/>
<polygon style="fill:#1E3160;" points="210.221,429.767 199.698,483.652 193.579,429.092 192.64,420.719 211.835,421.498 "/>
<path style="fill:#A2ABBC;" d="M123.678,167.197l-15.977,64.931l-3.975,16.177l-15.2,61.734l-4.097,16.655l-8.15,33.132  l-9.193,37.34l-6.085,24.705c-7.639-8.96-14.656-18.465-21.018-28.435l0.211-0.855l10.137-41.159v-0.022l28.335-115.14l4.408-17.898  l7.683-31.244C94.344,172.526,109.089,163.611,123.678,167.197z"/>
<circle style="fill:#1E3160;" cx="57.048" cy="374.898" r="24.427"/>
<path style="fill:#A2ABBC;" d="M197.022,351.416l-40.429-164.299c-3.591-14.591-18.327-23.51-32.919-19.924l0,0l47.402,192.635  l9.188,37.341l14.91,60.593l19.916-32.916l-7.939-32.264L197.022,351.416z"/>
<circle style="fill:#1E3160;" cx="190.297" cy="374.898" r="24.427"/>
<g>
	<circle style="fill:#BAC6CC;" cx="190.297" cy="374.898" r="8.37"/>
	<circle style="fill:#BAC6CC;" cx="57.048" cy="374.898" r="8.37"/>
</g>
<g>
	<path style="fill:#1E3160;" d="M123.75,347.516c-4.599,0-8.327-3.728-8.327-8.327v-41.635c0-4.599,3.728-8.327,8.327-8.327   s8.327,3.728,8.327,8.327v41.635C132.078,343.787,128.349,347.516,123.75,347.516z"/>
	<polygon style="fill:#1E3160;" points="143.995,12.316 103.356,12.316 96.473,83.376 150.879,83.376  "/>
</g>
<g>
	<polygon style="fill:#142547;" points="103.356,12.316 96.473,83.376 112.573,83.376 114.459,12.316  "/>
	<circle style="fill:#142547;" cx="123.678" cy="174.431" r="20.119"/>
</g>
<g>
</g>
<g>
</g>
<g>
</g>
<g>
</g>
<g>
</g>
<g>
</g>
<g>
</g>
<g>
</g>
<g>
</g>
<g>
</g>
<g>
</g>
<g>
</g>
<g>
</g>
<g>
</g>
<g>
</g>
</svg>
