<svg enable-background="new 0 0 512 512" viewBox="0 0 512 512" xmlns="http://www.w3.org/2000/svg"><path d="m512 256c0 141.388-114.618 255.994-255.994 255.994-78.111 0-148.05-34.975-195.005-90.124-7.639-8.96-14.656-18.465-21.018-28.435-.744-1.177-1.488-2.354-2.21-3.542-1.033-1.665-2.043-3.342-3.02-5.041-9.282-15.889-16.888-32.876-22.595-50.719-7.905-24.627-12.158-50.875-12.158-78.133 0-82.385 38.917-155.677 99.373-202.488 4.63-3.597 9.393-7.028 14.268-10.293 10.048-6.751 20.607-12.791 31.6-18.065 33.52-16.122 71.082-25.149 110.765-25.149 98.851 0 184.623 56.027 227.271 138.068 18.353 35.297 28.723 75.402 28.723 117.927z" fill="#f0a037"/><path d="m512 256c0 59.169-20.075 113.641-53.784 156.988-1.332 1.721-2.687 3.431-4.075 5.119-2.787 3.398-5.652 6.729-8.616 9.971-1.266 1.41-2.554 2.798-3.875 4.175-40.094 42.236-94.455 70.794-155.367 77.966-1.965.233-3.953.444-5.94.633-8.005.755-16.133 1.144-24.338 1.144-26.636 0-52.318-4.064-76.467-11.614-2.576-.799-5.141-1.643-7.683-2.532-43.48-15.122-81.619-41.648-110.854-75.979-7.639-8.96-14.656-18.465-21.018-28.435-.744-1.177-1.488-2.354-2.21-3.542-1.033-1.665-2.043-3.342-3.02-5.041-9.282-15.889-16.888-32.876-22.595-50.719l146.184-60.834 8.738-3.642 203.599-84.728 5.818-2.42 106.779-44.435c18.354 35.295 28.724 75.4 28.724 117.925z" fill="#e9e4d8"/><path d="m493.469 319.244c0-25.915-15.567-50.186-43.835-68.351-16.322-10.481-35.763-18.176-56.97-22.784l-16.166-45.601-5.818 2.42-10.715 38.639c-4.819-.3-9.693-.455-14.601-.455-39.35 0-76.379 9.871-104.27 27.78-17.443 11.203-30.045 24.738-37.14 39.549-.811-.533-1.61-1.077-2.443-1.599-7.861-5.052-16.222-9.671-25.015-13.823l-9.415-5.363-8.738 3.642c5.507 2.132 10.837 4.43 16 6.873l27.325 15.556c-2.909 7.595-4.408 15.478-4.408 23.516 0 25.915 15.567 50.186 43.835 68.351 5.751 3.686 11.903 7.017 18.365 10.004-4.364 41.237-37.939 77.445-87.604 100.25 2.543.888 5.107 1.732 7.683 2.532 7.683-3.753 15.023-7.883 21.973-12.347 37.04-23.794 59.124-54.716 63.266-88.07 13.224 5.574 27.68 9.704 42.903 12.269l-27.336 98.618c1.987-.189 3.975-.4 5.94-.633l26.925-97.13c10.437 1.488 21.207 2.287 32.155 2.287 19.053 0 37.551-2.332 54.739-6.762l41.548 23.639c1.321-1.377 2.609-2.765 3.875-4.175l-37.873-21.551c13.29-3.986 25.682-9.271 36.796-15.767l9.693 27.347c1.388-1.688 2.742-3.398 4.075-5.119l-8.927-25.193c.111-.067.233-.133.344-.2 28.267-18.163 43.834-42.435 43.834-68.349zm-119.215-126.443 12.069 34.031c-6.762-1.255-13.679-2.198-20.719-2.82zm-28.89 35.863c4.408 0 8.772.133 13.091.389l-35.785 129.119-113.92-64.81c17.566-37.373 72.16-64.698 136.614-64.698zm-85.472 163.028c-34.642-16.544-57.081-42.858-57.081-72.448 0-6.995 1.255-13.801 3.62-20.341 33.276 23.827 53.528 55.194 53.528 89.536-.001 1.088-.023 2.165-.067 3.253zm49.275 15.167c-15.855-2.643-30.645-6.984-43.846-12.702.111-1.899.189-3.808.189-5.718 0-27.38-11.98-53.506-34.32-75.923l89.947 51.174zm36.197 2.964c-10.526 0-20.785-.733-30.667-2.121l11.414-41.182 66.93 38.084c-14.912 3.376-30.956 5.219-47.677 5.219zm55.516-7.15-73.236-41.67 36.452-131.561c8.383.711 16.521 1.876 24.383 3.464l54.083 152.535c-12.126 7.183-26.205 13.057-41.682 17.232zm46.511-20.241-52.529-148.138c54.283 12.813 93.056 46.056 93.056 84.95-.001 24.56-15.467 46.855-40.527 63.188z" fill="#999"/><path d="m115.351 54.439h16.655v112.753h-16.655z" fill="#a2abbc"/><path d="m132.005 98.38c-2.731-.3-5.518-.455-8.327-.455s-5.585.155-8.327.455c-38.284 4.153-68.185 36.685-68.185 76.057 0 25.382 12.413 47.91 31.5 61.822 7.45 5.452 15.922 9.582 25.06 12.047 6.362 1.721 13.057 2.643 19.952 2.643 6.906 0 13.59-.922 19.952-2.643 9.149-2.465 17.61-6.595 25.06-12.047 19.086-13.912 31.5-36.452 31.5-61.822 0-39.373-29.901-71.905-68.185-76.057zm32.277 119.98c-6.906 6.407-15.311 11.192-24.627 13.768-5.085 1.41-10.448 2.165-15.977 2.165s-10.892-.755-15.977-2.165c-9.316-2.576-17.721-7.361-24.627-13.768-11.836-10.926-19.253-26.57-19.253-43.924 0-32.999 26.847-59.857 59.857-59.857 32.999 0 59.857 26.859 59.857 59.857 0 17.354-7.417 32.999-19.253 43.924z" fill="#666"/><path d="m71.638 310.045h104.225v16.655h-104.225z" fill="#a2abbc"/><path d="m210.221 429.767-10.523 53.885-6.119-54.56-.939-8.373 19.195.779z" fill="#1e3160"/><path d="m123.678 167.197-15.977 64.931-3.975 16.177-15.2 61.734-4.097 16.655-8.15 33.132-9.193 37.34-6.085 24.705c-7.639-8.96-14.656-18.465-21.018-28.435l.211-.855 10.137-41.159v-.022l28.335-115.14 4.408-17.898 7.683-31.244c3.587-14.592 18.332-23.507 32.921-19.921z" fill="#a2abbc"/><circle cx="57.048" cy="374.898" fill="#1e3160" r="24.427"/><path d="m197.022 351.416-40.429-164.299c-3.591-14.591-18.327-23.51-32.919-19.924l47.402 192.635 9.188 37.341 14.91 60.593 19.916-32.916-7.939-32.264z" fill="#a2abbc"/><circle cx="190.297" cy="374.898" fill="#1e3160" r="24.427"/><circle cx="190.297" cy="374.898" fill="#bac6cc" r="8.37"/><circle cx="57.048" cy="374.898" fill="#bac6cc" r="8.37"/><path d="m123.75 347.516c-4.599 0-8.327-3.728-8.327-8.327v-41.635c0-4.599 3.728-8.327 8.327-8.327s8.327 3.728 8.327 8.327v41.635c.001 4.598-3.728 8.327-8.327 8.327z" fill="#1e3160"/><path d="m143.995 12.316h-40.639l-6.883 71.06h54.406z" fill="#1e3160"/><g fill="#142547"><path d="m103.356 12.316-6.883 71.06h16.1l1.886-71.06z"/><circle cx="123.678" cy="174.431" r="20.119"/></g></svg>