<?xml version="1.0" encoding="iso-8859-1"?>
<!-- Generator: Adobe Illustrator 19.0.0, SVG Export Plug-In . SVG Version: 6.00 Build 0)  -->
<svg xmlns="http://www.w3.org/2000/svg" xmlns:xlink="http://www.w3.org/1999/xlink" version="1.1" id="Layer_1" x="0px" y="0px" viewBox="0 0 511.993 511.993" style="enable-background:new 0 0 511.993 511.993;" xml:space="preserve">
<circle style="fill:#E9E4D8;" cx="255.997" cy="255.997" r="255.997"/>
<path style="fill:#D1812A;" d="M158.532,406.331c-10.579,13.621-28.277,18.474-43.775,13.371c-4.21-1.379-8.251-3.492-11.95-6.365  c-17.322-13.454-20.458-38.404-7.005-55.725c13.454-17.322,38.404-20.458,55.725-7.005c3.7,2.874,6.747,6.267,9.126,10.004  C169.432,374.362,169.111,392.71,158.532,406.331z"/>
<path style="fill:#DB8D2E;" d="M158.532,406.331c-10.579,13.621-28.277,18.474-43.775,13.371  c-8.779-13.752-8.458-32.099,2.121-45.722c10.579-13.623,28.277-18.474,43.775-13.371  C169.432,374.362,169.111,392.71,158.532,406.331z"/>
<path style="fill:#AA5013;" d="M435.155,90.862c28.227-36.343,39.338-74.947,24.818-86.225c-14.52-11.278-49.173,9.042-77.4,45.386  c-12.489,16.08-21.622,32.599-26.67,46.999c-3.963,11.305-11.353,20.822-21.327,27.459c-12.703,8.454-26.448,21.392-38.936,37.471  c-28.227,36.343-39.338,74.947-24.818,86.225c14.52,11.278,49.173-9.042,77.4-45.386c12.489-16.08,21.622-32.598,26.67-46.999  c3.963-11.305,11.353-20.822,21.327-27.459C408.922,119.88,422.667,106.942,435.155,90.862z"/>
<path style="fill:#91420C;" d="M310.861,173.775c12.489-16.08,26.234-29.017,38.936-37.471c9.973-6.638,17.364-16.154,21.327-27.459  c5.048-14.4,14.181-30.919,26.67-46.999c23.08-29.718,50.452-48.71,67.605-48.486c-0.995-3.693-2.78-6.666-5.427-8.722  c-14.52-11.278-49.173,9.042-77.4,45.386c-12.489,16.08-21.622,32.599-26.67,46.999c-3.963,11.305-11.353,20.822-21.327,27.459  c-12.703,8.454-26.448,21.392-38.936,37.471c-28.227,36.343-39.338,74.947-24.818,86.225c2.647,2.056,5.969,3.05,9.794,3.1  C276.154,234.713,287.781,203.493,310.861,173.775z"/>
<path style="fill:#F0A037;" d="M30.311,301.654l248.223,192.788l16.876-21.728c5.361-6.902,7.381-15.759,5.833-24.359  c-4.853-26.954,1.642-55.355,19.133-77.874l27.874-35.888c38.673-49.791,29.658-121.506-20.135-160.179l0,0  c-49.791-38.672-121.506-29.658-160.178,20.135l-27.874,35.888c-17.49,22.52-43.399,35.841-70.717,37.81  c-8.716,0.628-16.798,4.778-22.159,11.68L30.311,301.654z"/>
<path style="fill:#DB8D2E;" d="M243.86,151.306c28.981-3.635,59.356,3.774,84.249,23.108c-15.682-12.18-37.721-13.115-60.659-4.787  c-22.952,8.331-46.809,25.932-66.15,50.833l-27.87,35.885c-17.491,22.521-39.81,38.639-61.17,45.227  c-6.823,2.097-13.784,7.128-19.143,14.029l-16.873,21.725l-45.932-35.674l16.873-21.725c5.36-6.901,13.445-11.059,22.164-11.683  c27.308-1.967,53.226-15.291,70.717-37.812l27.87-35.885C187.278,169.647,214.874,154.95,243.86,151.306z"/>
<rect x="284.766" y="158.785" transform="matrix(-0.7898 -0.6134 0.6134 -0.7898 485.3738 510.0988)" style="fill:#F0A037;" width="90.66" height="26.184"/>
<rect x="290.5" y="142.066" transform="matrix(-0.7898 -0.6134 0.6134 -0.7898 457.0863 466.9679)" style="fill:#DB8D2E;" width="36.124" height="26.184"/>
<ellipse transform="matrix(0.6134 -0.7898 0.7898 0.6134 -110.8611 365.4203)" style="fill:#F7B566;" cx="317.814" cy="295.945" rx="38.547" ry="17.788"/>
<g>
</g>
<g>
</g>
<g>
</g>
<g>
</g>
<g>
</g>
<g>
</g>
<g>
</g>
<g>
</g>
<g>
</g>
<g>
</g>
<g>
</g>
<g>
</g>
<g>
</g>
<g>
</g>
<g>
</g>
</svg>
