<svg enable-background="new 0 0 512 512" viewBox="0 0 512 512" xmlns="http://www.w3.org/2000/svg"><path d="m512 256c0 52.374-15.722 101.061-42.714 141.621-11.57 17.399-25.226 33.309-40.593 47.344-.688.633-1.377 1.266-2.076 1.876-45.29 40.515-105.08 65.153-170.611 65.153-65.542 0-125.332-24.638-170.622-65.153-10.914-9.749-20.985-20.43-30.078-31.91-4.43-5.585-8.627-11.347-12.58-17.299-26.993-40.56-42.726-89.258-42.726-141.632s15.733-101.072 42.725-141.632c3.953-5.951 8.15-11.714 12.58-17.299 11.958-15.078 25.57-28.779 40.582-40.826h.011c9.948-7.994 20.519-15.256 31.611-21.696 37.762-21.962 81.664-34.542 128.497-34.542 46.822 0 90.724 12.58 128.486 34.542 5.03 2.92 9.948 6.007 14.745 9.26 5.807 3.919 11.436 8.072 16.877 12.436 4.308 3.464 8.505 7.062 12.58 10.792 15.378 14.045 29.024 29.945 40.593 47.355 26.991 40.549 42.713 89.247 42.713 141.61z" fill="#8ca1bf"/><path d="m95.887 34.542h320.215v53.163h-320.215z" fill="#f0a037"/><path d="m399.236 34.542h16.875v53.163h-16.875z" fill="#db8d2e"/><path d="m81.014 375.098h349.972v8.883h-349.972z" fill="#e9e4d8"/><path d="m122.009 345.611h15.066c5.562 0 10.069 4.508 10.069 10.069v45.44c0 5.562-4.508 10.069-10.069 10.069h-15.066c-5.562 0-10.069-4.508-10.069-10.069v-45.44c0-5.56 4.508-10.069 10.069-10.069z" fill="#576d91"/><path d="m123.043 401.122v-45.44c0-5.562 4.508-10.069 10.069-10.069h-11.103c-5.562 0-10.069 4.509-10.069 10.069v45.44c0 5.562 4.508 10.069 10.069 10.069h11.103c-5.561 0-10.069-4.509-10.069-10.069z" fill="#42577f"/><path d="m157.215 345.611h15.066c5.562 0 10.069 4.508 10.069 10.069v45.44c0 5.562-4.508 10.069-10.069 10.069h-15.066c-5.562 0-10.069-4.508-10.069-10.069v-45.44c0-5.56 4.508-10.069 10.069-10.069z" fill="#576d91"/><path d="m158.249 401.122v-45.44c0-5.562 4.508-10.069 10.069-10.069h-11.103c-5.562 0-10.069 4.509-10.069 10.069v45.44c0 5.562 4.508 10.069 10.069 10.069h11.103c-5.561 0-10.069-4.509-10.069-10.069z" fill="#42577f"/><path d="m192.421 345.611h15.066c5.562 0 10.069 4.508 10.069 10.069v45.44c0 5.562-4.508 10.069-10.069 10.069h-15.066c-5.562 0-10.069-4.508-10.069-10.069v-45.44c0-5.56 4.508-10.069 10.069-10.069z" fill="#576d91"/><path d="m193.455 401.122v-45.44c0-5.562 4.508-10.069 10.069-10.069h-11.103c-5.562 0-10.069 4.509-10.069 10.069v45.44c0 5.562 4.508 10.069 10.069 10.069h11.103c-5.561 0-10.069-4.509-10.069-10.069z" fill="#42577f"/><path d="m227.627 345.611h15.066c5.562 0 10.069 4.508 10.069 10.069v45.44c0 5.562-4.508 10.069-10.069 10.069h-15.066c-5.562 0-10.069-4.508-10.069-10.069v-45.44c0-5.56 4.507-10.069 10.069-10.069z" fill="#576d91"/><path d="m228.661 401.122v-45.44c0-5.562 4.508-10.069 10.069-10.069h-11.103c-5.562 0-10.069 4.509-10.069 10.069v45.44c0 5.562 4.508 10.069 10.069 10.069h11.103c-5.561 0-10.069-4.509-10.069-10.069z" fill="#42577f"/><path d="m81.014 274.081h349.972v8.883h-349.972z" fill="#e9e4d8"/><path d="m122.009 244.589h15.066c5.562 0 10.069 4.508 10.069 10.069v45.44c0 5.562-4.508 10.069-10.069 10.069h-15.066c-5.562 0-10.069-4.508-10.069-10.069v-45.44c0-5.56 4.508-10.069 10.069-10.069z" fill="#55c6a1"/><path d="m123.043 300.1v-45.44c0-5.562 4.508-10.069 10.069-10.069h-11.103c-5.562 0-10.069 4.509-10.069 10.069v45.44c0 5.562 4.508 10.069 10.069 10.069h11.103c-5.561 0-10.069-4.509-10.069-10.069z" fill="#48af8a"/><path d="m303.826 244.589h15.066c5.562 0 10.069 4.508 10.069 10.069v45.44c0 5.562-4.508 10.069-10.069 10.069h-15.066c-5.562 0-10.069-4.508-10.069-10.069v-45.44c-.001-5.56 4.507-10.069 10.069-10.069z" fill="#55c6a1"/><path d="m304.859 300.1v-45.44c0-5.562 4.508-10.069 10.069-10.069h-11.103c-5.562 0-10.069 4.509-10.069 10.069v45.44c0 5.562 4.508 10.069 10.069 10.069h11.103c-5.561 0-10.069-4.509-10.069-10.069z" fill="#48af8a"/><path d="m339.032 244.589h15.066c5.562 0 10.069 4.508 10.069 10.069v45.44c0 5.562-4.508 10.069-10.069 10.069h-15.066c-5.562 0-10.069-4.508-10.069-10.069v-45.44c-.001-5.56 4.507-10.069 10.069-10.069z" fill="#55c6a1"/><path d="m340.065 300.1v-45.44c0-5.562 4.508-10.069 10.069-10.069h-11.103c-5.562 0-10.069 4.509-10.069 10.069v45.44c0 5.562 4.508 10.069 10.069 10.069h11.103c-5.561 0-10.069-4.509-10.069-10.069z" fill="#48af8a"/><path d="m374.238 244.589h15.066c5.562 0 10.069 4.508 10.069 10.069v45.44c0 5.562-4.508 10.069-10.069 10.069h-15.066c-5.562 0-10.069-4.508-10.069-10.069v-45.44c-.001-5.56 4.507-10.069 10.069-10.069z" fill="#55c6a1"/><path d="m375.271 300.1v-45.44c0-5.562 4.508-10.069 10.069-10.069h-11.103c-5.562 0-10.069 4.509-10.069 10.069v45.44c0 5.562 4.508 10.069 10.069 10.069h11.103c-5.561 0-10.069-4.509-10.069-10.069z" fill="#48af8a"/><path d="m81.014 173.065h349.972v8.883h-349.972z" fill="#e9e4d8"/><g fill="#ccc6ba"><path d="m403.678 375.098h27.313v8.883h-27.313z"/><path d="m403.678 274.081h27.313v8.883h-27.313z"/><path d="m403.678 173.065h27.313v8.883h-27.313z"/></g><path d="m122.009 143.567h15.066c5.562 0 10.069 4.508 10.069 10.069v45.44c0 5.562-4.508 10.069-10.069 10.069h-15.066c-5.562 0-10.069-4.508-10.069-10.069v-45.44c0-5.56 4.508-10.069 10.069-10.069z" fill="#eb305b"/><path d="m123.043 199.077v-45.44c0-5.562 4.508-10.069 10.069-10.069h-11.103c-5.562 0-10.069 4.509-10.069 10.069v45.44c0 5.562 4.508 10.069 10.069 10.069h11.103c-5.561.001-10.069-4.508-10.069-10.069z" fill="#d82b59"/><path d="m157.215 143.567h15.066c5.562 0 10.069 4.508 10.069 10.069v45.44c0 5.562-4.508 10.069-10.069 10.069h-15.066c-5.562 0-10.069-4.508-10.069-10.069v-45.44c0-5.56 4.508-10.069 10.069-10.069z" fill="#eb305b"/><path d="m158.249 199.077v-45.44c0-5.562 4.508-10.069 10.069-10.069h-11.103c-5.562 0-10.069 4.509-10.069 10.069v45.44c0 5.562 4.508 10.069 10.069 10.069h11.103c-5.561.001-10.069-4.508-10.069-10.069z" fill="#d82b59"/><path d="m339.032 143.567h15.066c5.562 0 10.069 4.508 10.069 10.069v45.44c0 5.562-4.508 10.069-10.069 10.069h-15.066c-5.562 0-10.069-4.508-10.069-10.069v-45.44c-.001-5.56 4.507-10.069 10.069-10.069z" fill="#eb305b"/><path d="m340.065 199.077v-45.44c0-5.562 4.508-10.069 10.069-10.069h-11.103c-5.562 0-10.069 4.509-10.069 10.069v45.44c0 5.562 4.508 10.069 10.069 10.069h11.103c-5.561.001-10.069-4.508-10.069-10.069z" fill="#d82b59"/><path d="m374.238 143.567h15.066c5.562 0 10.069 4.508 10.069 10.069v45.44c0 5.562-4.508 10.069-10.069 10.069h-15.066c-5.562 0-10.069-4.508-10.069-10.069v-45.44c-.001-5.56 4.507-10.069 10.069-10.069z" fill="#eb305b"/><path d="m375.271 199.077v-45.44c0-5.562 4.508-10.069 10.069-10.069h-11.103c-5.562 0-10.069 4.509-10.069 10.069v45.44c0 5.562 4.508 10.069 10.069 10.069h11.103c-5.561.001-10.069-4.508-10.069-10.069z" fill="#d82b59"/><path d="m426.617 446.841c-45.29 40.515-105.08 65.153-170.611 65.153-65.542 0-125.332-24.638-170.622-65.153z" fill="#f0a037"/><path d="m95.898 14.528v432.313h-10.515c-10.914-9.749-20.985-20.43-30.078-31.91-4.43-5.585-8.627-11.347-12.58-17.299v-383.104c0-5.263 4.264-9.527 9.527-9.527h34.108c5.263.001 9.538 4.265 9.538 9.527z" fill="#f0a037"/><path d="m64.831 5.002c-5.263 0-9.527 4.264-9.527 9.527v400.402c-4.43-5.585-8.627-11.347-12.58-17.299v-383.104c0-5.263 4.264-9.527 9.527-9.527h12.58z" fill="#db8d2e"/><path d="m469.286 14.528v383.092c-11.57 17.399-25.226 33.309-40.593 47.344-.688.633-1.377 1.266-2.076 1.876h-10.504v-432.312c0-5.263 4.264-9.527 9.526-9.527h34.109c5.263.001 9.538 4.265 9.538 9.527z" fill="#f0a037"/><path d="m438.219 5.002c-5.263 0-9.526 4.264-9.526 9.527v430.436c-.688.633-1.377 1.266-2.076 1.876h-10.504v-432.313c0-5.263 4.264-9.527 9.526-9.527h12.58z" fill="#db8d2e"/></svg>