<?xml version="1.0" encoding="iso-8859-1"?>
<!-- Generator: Adobe Illustrator 19.0.0, SVG Export Plug-In . SVG Version: 6.00 Build 0)  -->
<svg xmlns="http://www.w3.org/2000/svg" xmlns:xlink="http://www.w3.org/1999/xlink" version="1.1" id="Layer_1" x="0px" y="0px" viewBox="0 0 512 512" style="enable-background:new 0 0 512 512;" xml:space="preserve">
<path style="fill:#8CA1BF;" d="M512,256c0,52.374-15.722,101.061-42.714,141.621c-11.57,17.399-25.226,33.309-40.593,47.344  c-0.688,0.633-1.377,1.266-2.076,1.876c-45.29,40.515-105.08,65.153-170.611,65.153c-65.542,0-125.332-24.638-170.622-65.153  c-10.914-9.749-20.985-20.43-30.078-31.91c-4.43-5.585-8.627-11.347-12.58-17.299C15.733,357.072,0,308.374,0,256  s15.733-101.072,42.725-141.632c3.953-5.951,8.15-11.714,12.58-17.299C67.263,81.991,80.875,68.29,95.887,56.243h0.011  c9.948-7.994,20.519-15.256,31.611-21.696c37.762-21.962,81.664-34.542,128.497-34.542c46.822,0,90.724,12.58,128.486,34.542  c5.03,2.92,9.948,6.007,14.745,9.26c5.807,3.919,11.436,8.072,16.877,12.436c4.308,3.464,8.505,7.062,12.58,10.792  c15.378,14.045,29.024,29.945,40.593,47.355C496.278,154.939,512,203.637,512,256z"/>
<rect x="95.887" y="34.542" style="fill:#F0A037;" width="320.215" height="53.163"/>
<rect x="399.236" y="34.542" style="fill:#DB8D2E;" width="16.875" height="53.163"/>
<rect x="81.014" y="375.098" style="fill:#E9E4D8;" width="349.972" height="8.883"/>
<path style="fill:#576D91;" d="M122.009,345.611h15.066c5.562,0,10.069,4.508,10.069,10.069v45.44  c0,5.562-4.508,10.069-10.069,10.069h-15.066c-5.562,0-10.069-4.508-10.069-10.069v-45.44  C111.94,350.12,116.448,345.611,122.009,345.611z"/>
<path style="fill:#42577F;" d="M123.043,401.122v-45.44c0-5.562,4.508-10.069,10.069-10.069h-11.103  c-5.562,0-10.069,4.509-10.069,10.069v45.44c0,5.562,4.508,10.069,10.069,10.069h11.103  C127.551,411.191,123.043,406.682,123.043,401.122z"/>
<path style="fill:#576D91;" d="M157.215,345.611h15.066c5.562,0,10.069,4.508,10.069,10.069v45.44  c0,5.562-4.508,10.069-10.069,10.069h-15.066c-5.562,0-10.069-4.508-10.069-10.069v-45.44  C147.146,350.12,151.654,345.611,157.215,345.611z"/>
<path style="fill:#42577F;" d="M158.249,401.122v-45.44c0-5.562,4.508-10.069,10.069-10.069h-11.103  c-5.562,0-10.069,4.509-10.069,10.069v45.44c0,5.562,4.508,10.069,10.069,10.069h11.103  C162.757,411.191,158.249,406.682,158.249,401.122z"/>
<path style="fill:#576D91;" d="M192.421,345.611h15.066c5.562,0,10.069,4.508,10.069,10.069v45.44  c0,5.562-4.508,10.069-10.069,10.069h-15.066c-5.562,0-10.069-4.508-10.069-10.069v-45.44  C182.352,350.12,186.86,345.611,192.421,345.611z"/>
<path style="fill:#42577F;" d="M193.455,401.122v-45.44c0-5.562,4.508-10.069,10.069-10.069h-11.103  c-5.562,0-10.069,4.509-10.069,10.069v45.44c0,5.562,4.508,10.069,10.069,10.069h11.103  C197.963,411.191,193.455,406.682,193.455,401.122z"/>
<path style="fill:#576D91;" d="M227.627,345.611h15.066c5.562,0,10.069,4.508,10.069,10.069v45.44  c0,5.562-4.508,10.069-10.069,10.069h-15.066c-5.562,0-10.069-4.508-10.069-10.069v-45.44  C217.558,350.12,222.065,345.611,227.627,345.611z"/>
<path style="fill:#42577F;" d="M228.661,401.122v-45.44c0-5.562,4.508-10.069,10.069-10.069h-11.103  c-5.562,0-10.069,4.509-10.069,10.069v45.44c0,5.562,4.508,10.069,10.069,10.069h11.103  C233.169,411.191,228.661,406.682,228.661,401.122z"/>
<rect x="81.014" y="274.081" style="fill:#E9E4D8;" width="349.972" height="8.883"/>
<path style="fill:#55C6A1;" d="M122.009,244.589h15.066c5.562,0,10.069,4.508,10.069,10.069v45.44  c0,5.562-4.508,10.069-10.069,10.069h-15.066c-5.562,0-10.069-4.508-10.069-10.069v-45.44  C111.94,249.098,116.448,244.589,122.009,244.589z"/>
<path style="fill:#48AF8A;" d="M123.043,300.1v-45.44c0-5.562,4.508-10.069,10.069-10.069h-11.103  c-5.562,0-10.069,4.509-10.069,10.069v45.44c0,5.562,4.508,10.069,10.069,10.069h11.103  C127.551,310.169,123.043,305.66,123.043,300.1z"/>
<path style="fill:#55C6A1;" d="M303.826,244.589h15.066c5.562,0,10.069,4.508,10.069,10.069v45.44  c0,5.562-4.508,10.069-10.069,10.069h-15.066c-5.562,0-10.069-4.508-10.069-10.069v-45.44  C293.756,249.098,298.264,244.589,303.826,244.589z"/>
<path style="fill:#48AF8A;" d="M304.859,300.1v-45.44c0-5.562,4.508-10.069,10.069-10.069h-11.103  c-5.562,0-10.069,4.509-10.069,10.069v45.44c0,5.562,4.508,10.069,10.069,10.069h11.103  C309.367,310.169,304.859,305.66,304.859,300.1z"/>
<path style="fill:#55C6A1;" d="M339.032,244.589h15.066c5.562,0,10.069,4.508,10.069,10.069v45.44  c0,5.562-4.508,10.069-10.069,10.069h-15.066c-5.562,0-10.069-4.508-10.069-10.069v-45.44  C328.962,249.098,333.47,244.589,339.032,244.589z"/>
<path style="fill:#48AF8A;" d="M340.065,300.1v-45.44c0-5.562,4.508-10.069,10.069-10.069h-11.103  c-5.562,0-10.069,4.509-10.069,10.069v45.44c0,5.562,4.508,10.069,10.069,10.069h11.103  C344.573,310.169,340.065,305.66,340.065,300.1z"/>
<path style="fill:#55C6A1;" d="M374.238,244.589h15.066c5.562,0,10.069,4.508,10.069,10.069v45.44  c0,5.562-4.508,10.069-10.069,10.069h-15.066c-5.562,0-10.069-4.508-10.069-10.069v-45.44  C364.168,249.098,368.676,244.589,374.238,244.589z"/>
<path style="fill:#48AF8A;" d="M375.271,300.1v-45.44c0-5.562,4.508-10.069,10.069-10.069h-11.103  c-5.562,0-10.069,4.509-10.069,10.069v45.44c0,5.562,4.508,10.069,10.069,10.069h11.103  C379.779,310.169,375.271,305.66,375.271,300.1z"/>
<rect x="81.014" y="173.065" style="fill:#E9E4D8;" width="349.972" height="8.883"/>
<g>
	<rect x="403.678" y="375.098" style="fill:#CCC6BA;" width="27.313" height="8.883"/>
	<rect x="403.678" y="274.081" style="fill:#CCC6BA;" width="27.313" height="8.883"/>
	<rect x="403.678" y="173.065" style="fill:#CCC6BA;" width="27.313" height="8.883"/>
</g>
<path style="fill:#EB305B;" d="M122.009,143.567h15.066c5.562,0,10.069,4.508,10.069,10.069v45.44  c0,5.562-4.508,10.069-10.069,10.069h-15.066c-5.562,0-10.069-4.508-10.069-10.069v-45.44  C111.94,148.076,116.448,143.567,122.009,143.567z"/>
<path style="fill:#D82B59;" d="M123.043,199.077v-45.44c0-5.562,4.508-10.069,10.069-10.069h-11.103  c-5.562,0-10.069,4.509-10.069,10.069v45.44c0,5.562,4.508,10.069,10.069,10.069h11.103  C127.551,209.147,123.043,204.638,123.043,199.077z"/>
<path style="fill:#EB305B;" d="M157.215,143.567h15.066c5.562,0,10.069,4.508,10.069,10.069v45.44  c0,5.562-4.508,10.069-10.069,10.069h-15.066c-5.562,0-10.069-4.508-10.069-10.069v-45.44  C147.146,148.076,151.654,143.567,157.215,143.567z"/>
<path style="fill:#D82B59;" d="M158.249,199.077v-45.44c0-5.562,4.508-10.069,10.069-10.069h-11.103  c-5.562,0-10.069,4.509-10.069,10.069v45.44c0,5.562,4.508,10.069,10.069,10.069h11.103  C162.757,209.147,158.249,204.638,158.249,199.077z"/>
<path style="fill:#EB305B;" d="M339.032,143.567h15.066c5.562,0,10.069,4.508,10.069,10.069v45.44  c0,5.562-4.508,10.069-10.069,10.069h-15.066c-5.562,0-10.069-4.508-10.069-10.069v-45.44  C328.962,148.076,333.47,143.567,339.032,143.567z"/>
<path style="fill:#D82B59;" d="M340.065,199.077v-45.44c0-5.562,4.508-10.069,10.069-10.069h-11.103  c-5.562,0-10.069,4.509-10.069,10.069v45.44c0,5.562,4.508,10.069,10.069,10.069h11.103  C344.573,209.147,340.065,204.638,340.065,199.077z"/>
<path style="fill:#EB305B;" d="M374.238,143.567h15.066c5.562,0,10.069,4.508,10.069,10.069v45.44  c0,5.562-4.508,10.069-10.069,10.069h-15.066c-5.562,0-10.069-4.508-10.069-10.069v-45.44  C364.168,148.076,368.676,143.567,374.238,143.567z"/>
<path style="fill:#D82B59;" d="M375.271,199.077v-45.44c0-5.562,4.508-10.069,10.069-10.069h-11.103  c-5.562,0-10.069,4.509-10.069,10.069v45.44c0,5.562,4.508,10.069,10.069,10.069h11.103  C379.779,209.147,375.271,204.638,375.271,199.077z"/>
<g>
	<path style="fill:#F0A037;" d="M426.617,446.841c-45.29,40.515-105.08,65.153-170.611,65.153   c-65.542,0-125.332-24.638-170.622-65.153H426.617z"/>
	<path style="fill:#F0A037;" d="M95.898,14.528v432.313H85.383c-10.914-9.749-20.985-20.43-30.078-31.91   c-4.43-5.585-8.627-11.347-12.58-17.299V14.528c0-5.263,4.264-9.527,9.527-9.527H86.36C91.623,5.002,95.898,9.266,95.898,14.528z"/>
</g>
<path style="fill:#DB8D2E;" d="M64.831,5.002c-5.263,0-9.527,4.264-9.527,9.527v400.402c-4.43-5.585-8.627-11.347-12.58-17.299  V14.528c0-5.263,4.264-9.527,9.527-9.527H64.831z"/>
<path style="fill:#F0A037;" d="M469.286,14.528v383.092c-11.57,17.399-25.226,33.309-40.593,47.344  c-0.688,0.633-1.377,1.266-2.076,1.876h-10.504V14.528c0-5.263,4.264-9.527,9.526-9.527h34.109  C465.011,5.002,469.286,9.266,469.286,14.528z"/>
<path style="fill:#DB8D2E;" d="M438.219,5.002c-5.263,0-9.526,4.264-9.526,9.527v430.436c-0.688,0.633-1.377,1.266-2.076,1.876  h-10.504V14.528c0-5.263,4.264-9.527,9.526-9.527H438.219z"/>
<g>
</g>
<g>
</g>
<g>
</g>
<g>
</g>
<g>
</g>
<g>
</g>
<g>
</g>
<g>
</g>
<g>
</g>
<g>
</g>
<g>
</g>
<g>
</g>
<g>
</g>
<g>
</g>
<g>
</g>
</svg>
