<?xml version="1.0" encoding="iso-8859-1"?>
<!-- Generator: Adobe Illustrator 19.0.0, SVG Export Plug-In . SVG Version: 6.00 Build 0)  -->
<svg xmlns="http://www.w3.org/2000/svg" xmlns:xlink="http://www.w3.org/1999/xlink" version="1.1" id="Layer_1" x="0px" y="0px" viewBox="0 0 512 512" style="enable-background:new 0 0 512 512;" xml:space="preserve">
<path style="fill:#8CA1BF;" d="M512,256c0,19.764-2.243,38.994-6.473,57.47c-18.165,79.166-73.037,144.33-145.74,176.607  c-31.722,14.09-66.841,21.918-103.781,21.918c-36.951,0-72.071-7.828-103.792-21.918c-14.301-6.351-27.924-13.979-40.704-22.728  c-39.805-27.258-71.527-65.475-90.791-110.321c-1.133-2.62-2.221-5.274-3.264-7.939c-0.511-1.31-1.01-2.643-1.51-3.964  c-0.011-0.022-0.011-0.044-0.022-0.067C7.428,322.164,2.11,297.737,0.511,272.299C0.167,266.903,0,261.474,0,256  c0-36.629,7.694-71.46,21.551-102.96C61.178,62.927,151.247,0.006,256.006,0.006c87.77,0,165.226,44.168,211.349,111.498  c8.927,13.035,16.677,26.925,23.106,41.537c6.373,14.523,11.447,29.723,15.067,45.501C509.757,217.006,512,236.247,512,256z"/>
<path style="fill:#E9E4D8;" d="M512,256c0,19.764-2.243,38.994-6.473,57.47c-18.165,79.166-73.037,144.33-145.74,176.607  c-31.722,14.09-66.841,21.918-103.781,21.918c-36.951,0-72.071-7.828-103.792-21.918c-14.301-6.351-27.924-13.979-40.704-22.728  c-39.805-27.258-71.527-65.475-90.791-110.321c-1.133-2.62-2.221-5.274-3.264-7.939c-0.511-1.31-1.01-2.643-1.51-3.964  c-0.011-0.022-0.011-0.044-0.022-0.067C7.428,322.164,2.11,297.737,0.511,272.299C0.167,266.903,0,261.474,0,256  c0-36.629,7.694-71.46,21.551-102.96H490.46c6.373,14.523,11.447,29.723,15.067,45.501C509.757,217.006,512,236.247,512,256z"/>
<path style="fill:#D82B59;" d="M171.333,345.125v11.903H20.718c-1.133-2.62-2.221-5.274-3.264-7.939  c-0.511-1.31-1.01-2.643-1.51-3.964H171.333z"/>
<path style="fill:#42577F;" d="M349.416,272.299c0-13.168-1.61-25.97-4.652-38.206c-17.088-68.851-79.31-119.881-153.435-119.881  c-87.315,0-158.098,70.783-158.098,158.087H0.511c1.599,25.437,6.917,49.864,15.411,72.759c0.5,1.343,1.01,2.698,1.532,4.03h369.602  v-76.789H349.416z M102.493,272.299c0-49.065,39.772-88.836,88.836-88.836c49.054,0,88.825,39.772,88.825,88.836H102.493z"/>
<g>
	<path style="fill:#647899;" d="M25.959,324.751v24.338h-8.505c-0.522-1.332-1.033-2.687-1.532-4.03v-20.308H25.959z"/>
	<rect x="49.695" y="324.756" style="fill:#647899;" width="10.037" height="24.33"/>
	<rect x="83.474" y="324.756" style="fill:#647899;" width="10.037" height="24.33"/>
	<rect x="117.249" y="324.756" style="fill:#647899;" width="10.037" height="24.33"/>
	<rect x="151.025" y="324.756" style="fill:#647899;" width="10.037" height="24.33"/>
	<rect x="184.801" y="324.756" style="fill:#647899;" width="10.037" height="24.33"/>
	<rect x="218.577" y="324.756" style="fill:#647899;" width="10.037" height="24.33"/>
	<rect x="252.353" y="324.756" style="fill:#647899;" width="10.037" height="24.33"/>
	<rect x="286.128" y="324.756" style="fill:#647899;" width="10.037" height="24.33"/>
	<rect x="319.904" y="324.756" style="fill:#647899;" width="10.037" height="24.33"/>
	<rect x="353.68" y="324.756" style="fill:#647899;" width="10.037" height="24.33"/>
</g>
<path style="fill:#F0A037;" d="M467.354,111.503l-17.265,17.265l-7.85,7.85l-22.118,22.117l-37.817,37.817l-22.117,22.129  l-7.85,7.85l-7.572,7.561l-52.374,52.374l-22.117,22.118l-7.85,7.85l-8.316,8.316l-1.754,1.754l-12.047,12.058l-7.861,7.85  l-2.676,2.676l-19.442,19.442l-7.85,7.85l-22.117,22.117l-29.967,29.967l-7.85,7.861l-31.033,31.022  c12.78,8.749,26.403,16.377,40.704,22.728h207.574c72.703-32.277,127.575-97.441,145.74-176.607V73.331L467.354,111.503z   M434.489,419.039H260.28l94.288-94.288l32.488-32.488l47.433-47.433L434.489,419.039L434.489,419.039z"/>
<g>
	
		<rect x="142.518" y="436.348" transform="matrix(-0.7071 -0.7071 0.7071 -0.7071 -46.2048 864.6599)" style="fill:#E09132;" width="26.914" height="11.103"/>
	
		<rect x="172.484" y="406.378" transform="matrix(-0.7071 -0.7071 0.7071 -0.7071 26.1431 834.6881)" style="fill:#E09132;" width="26.914" height="11.103"/>
	
		<rect x="202.459" y="376.416" transform="matrix(-0.7071 -0.7071 0.7071 -0.7071 98.4989 804.7352)" style="fill:#E09132;" width="26.914" height="11.103"/>
	
		<rect x="232.433" y="346.439" transform="matrix(-0.7071 -0.7071 0.7071 -0.7071 170.8658 774.7556)" style="fill:#E09132;" width="26.914" height="11.103"/>
	
		<rect x="262.4" y="316.473" transform="matrix(-0.7071 -0.7071 0.7071 -0.7071 243.2113 744.7895)" style="fill:#E09132;" width="26.914" height="11.103"/>
	
		<rect x="292.366" y="286.494" transform="matrix(-0.7071 -0.7071 0.7071 -0.7071 315.5656 714.8025)" style="fill:#E09132;" width="26.914" height="11.103"/>
	
		<rect x="322.341" y="256.534" transform="matrix(-0.7071 -0.7071 0.7071 -0.7071 387.9197 684.8535)" style="fill:#E09132;" width="26.914" height="11.103"/>
	
		<rect x="352.326" y="226.559" transform="matrix(-0.7071 -0.7071 0.7071 -0.7071 460.304 654.8854)" style="fill:#E09132;" width="26.914" height="11.103"/>
	
		<rect x="382.293" y="196.581" transform="matrix(-0.7071 -0.7071 0.7071 -0.7071 532.6582 624.8984)" style="fill:#E09132;" width="26.914" height="11.103"/>
	
		<rect x="412.256" y="166.621" transform="matrix(-0.7071 -0.7071 0.7071 -0.7071 604.9935 594.9415)" style="fill:#E09132;" width="26.914" height="11.103"/>
	
		<rect x="442.223" y="136.654" transform="matrix(-0.7071 -0.7071 0.7071 -0.7071 677.3398 564.9736)" style="fill:#E09132;" width="26.914" height="11.103"/>
</g>
<polygon style="fill:#55C6A1;" points="340.976,94.221 211.504,326.12 171.628,351.879 173.841,304.459 303.313,72.56 "/>
<polygon style="fill:#75D8B4;" points="340.976,94.221 211.504,326.12 200.983,320.069 330.454,88.17 "/>
<g>
	<polygon style="fill:#B3B3B3;" points="330.454,88.17 313.834,78.611 303.313,72.56 310.377,60.279 348.04,81.94 340.976,94.221     "/>
	
		<rect x="325.672" y="43.231" transform="matrix(-0.4986 0.8668 -0.8668 -0.4986 554.9659 -191.109)" style="fill:#B3B3B3;" width="14.168" height="43.449"/>
</g>
<path style="fill:#EB305B;" d="M366.494,49.853l-11.391,19.806l-37.664-21.662l11.392-19.806c3.334-5.797,10.732-7.786,16.52-4.456  l16.687,9.598C367.827,36.662,369.828,44.056,366.494,49.853z"/>
<path style="fill:#D82B59;" d="M355.996,29.856l-10.643-6.122c-5.789-3.33-13.187-1.341-16.52,4.456l-11.393,19.807l10.643,6.122  l11.391-19.806C342.809,28.516,350.207,26.528,355.996,29.856z"/>
<polygon style="fill:#48AF8A;" points="313.834,78.611 184.362,310.51 173.841,304.459 303.313,72.56 "/>
<g>
	<path style="fill:#999999;" d="M338.857,97.907l-37.663-21.661c-2.035-1.17-2.736-3.768-1.566-5.804   c1.17-2.035,3.768-2.736,5.804-1.566l37.663,21.661c2.035,1.17,2.736,3.768,1.566,5.804   C343.49,98.376,340.891,99.077,338.857,97.907z"/>
	<path style="fill:#999999;" d="M345.92,85.624l-37.663-21.661c-2.035-1.17-2.736-3.768-1.566-5.804s3.768-2.736,5.804-1.566   l37.663,21.661c2.035,1.17,2.736,3.768,1.566,5.804S347.955,86.794,345.92,85.624z"/>
	<path style="fill:#999999;" d="M352.984,73.343l-37.663-21.661c-2.035-1.17-2.736-3.768-1.566-5.804s3.768-2.736,5.804-1.566   l37.663,21.661c2.035,1.17,2.736,3.768,1.566,5.804C357.617,73.813,355.019,74.513,352.984,73.343z"/>
</g>
<polygon style="fill:#E9E4D8;" points="211.51,326.123 193.673,337.64 171.624,351.876 172.854,325.667 173.839,304.458 "/>
<path style="fill:#EB305B;" d="M193.673,337.64l-22.05,14.235l1.229-26.209c4.05,0.189,8.108,1.311,11.852,3.464  C188.463,331.293,191.487,334.243,193.673,337.64z"/>
<polygon style="fill:#CCC6BA;" points="171.624,351.876 187.829,312.504 173.839,304.458 "/>
<path style="fill:#D82B59;" d="M172.858,325.669l-1.229,26.209l9.985-24.259C178.773,326.448,175.815,325.807,172.858,325.669z"/>
<g>
</g>
<g>
</g>
<g>
</g>
<g>
</g>
<g>
</g>
<g>
</g>
<g>
</g>
<g>
</g>
<g>
</g>
<g>
</g>
<g>
</g>
<g>
</g>
<g>
</g>
<g>
</g>
<g>
</g>
</svg>
