<svg enable-background="new 0 0 512 512" viewBox="0 0 512 512" xmlns="http://www.w3.org/2000/svg"><path d="m512 256c0 19.764-2.243 38.994-6.473 57.47-18.165 79.166-73.037 144.33-145.74 176.607-31.722 14.09-66.841 21.918-103.781 21.918-36.951 0-72.071-7.828-103.792-21.918-14.301-6.351-27.924-13.979-40.704-22.728-39.805-27.258-71.527-65.475-90.791-110.321-1.133-2.62-2.221-5.274-3.264-7.939-.511-1.31-1.01-2.643-1.51-3.964-.011-.022-.011-.044-.022-.067-8.495-22.894-13.813-47.321-15.412-72.759-.344-5.396-.511-10.825-.511-16.299 0-36.629 7.694-71.46 21.551-102.96 39.627-90.113 129.696-153.034 234.455-153.034 87.77 0 165.226 44.168 211.349 111.498 8.927 13.035 16.677 26.925 23.106 41.537 6.373 14.523 11.447 29.723 15.067 45.501 4.229 18.464 6.472 37.705 6.472 57.458z" fill="#8ca1bf"/><path d="m512 256c0 19.764-2.243 38.994-6.473 57.47-18.165 79.166-73.037 144.33-145.74 176.607-31.722 14.09-66.841 21.918-103.781 21.918-36.951 0-72.071-7.828-103.792-21.918-14.301-6.351-27.924-13.979-40.704-22.728-39.805-27.258-71.527-65.475-90.791-110.321-1.133-2.62-2.221-5.274-3.264-7.939-.511-1.31-1.01-2.643-1.51-3.964-.011-.022-.011-.044-.022-.067-8.495-22.894-13.813-47.321-15.412-72.759-.344-5.396-.511-10.825-.511-16.299 0-36.629 7.694-71.46 21.551-102.96h468.909c6.373 14.523 11.447 29.723 15.067 45.501 4.23 18.465 6.473 37.706 6.473 57.459z" fill="#e9e4d8"/><path d="m171.333 345.125v11.903h-150.615c-1.133-2.62-2.221-5.274-3.264-7.939-.511-1.31-1.01-2.643-1.51-3.964z" fill="#d82b59"/><path d="m349.416 272.299c0-13.168-1.61-25.97-4.652-38.206-17.088-68.851-79.31-119.881-153.435-119.881-87.315 0-158.098 70.783-158.098 158.087h-32.72c1.599 25.437 6.917 49.864 15.411 72.759.5 1.343 1.01 2.698 1.532 4.03h369.602v-76.789zm-246.923 0c0-49.065 39.772-88.836 88.836-88.836 49.054 0 88.825 39.772 88.825 88.836z" fill="#42577f"/><g fill="#647899"><path d="m25.959 324.751v24.338h-8.505c-.522-1.332-1.033-2.687-1.532-4.03v-20.308z"/><path d="m49.695 324.756h10.037v24.33h-10.037z"/><path d="m83.474 324.756h10.037v24.33h-10.037z"/><path d="m117.249 324.756h10.037v24.33h-10.037z"/><path d="m151.025 324.756h10.037v24.33h-10.037z"/><path d="m184.801 324.756h10.037v24.33h-10.037z"/><path d="m218.577 324.756h10.037v24.33h-10.037z"/><path d="m252.353 324.756h10.037v24.33h-10.037z"/><path d="m286.128 324.756h10.037v24.33h-10.037z"/><path d="m319.904 324.756h10.037v24.33h-10.037z"/><path d="m353.68 324.756h10.037v24.33h-10.037z"/></g><path d="m467.354 111.503-17.265 17.265-7.85 7.85-22.118 22.117-37.817 37.817-22.117 22.129-7.85 7.85-7.572 7.561-52.374 52.374-22.117 22.118-7.85 7.85-8.316 8.316-1.754 1.754-12.047 12.058-7.861 7.85-2.676 2.676-19.442 19.442-7.85 7.85-22.117 22.117-29.967 29.967-7.85 7.861-31.033 31.022c12.78 8.749 26.403 16.377 40.704 22.728h207.574c72.703-32.277 127.575-97.441 145.74-176.607v-240.137zm-32.865 307.536h-174.209l94.288-94.288 32.488-32.488 47.433-47.433z" fill="#f0a037"/><path d="m142.518 436.348h26.914v11.103h-26.914z" fill="#e09132" transform="matrix(-.7071 -.7071 .7071 -.7071 -46.2048 864.6599)"/><path d="m172.484 406.378h26.914v11.103h-26.914z" fill="#e09132" transform="matrix(-.7071 -.7071 .7071 -.7071 26.1431 834.6881)"/><path d="m202.459 376.416h26.914v11.103h-26.914z" fill="#e09132" transform="matrix(-.7071 -.7071 .7071 -.7071 98.4989 804.7352)"/><path d="m232.433 346.439h26.914v11.103h-26.914z" fill="#e09132" transform="matrix(-.7071 -.7071 .7071 -.7071 170.8658 774.7556)"/><path d="m262.4 316.473h26.914v11.103h-26.914z" fill="#e09132" transform="matrix(-.7071 -.7071 .7071 -.7071 243.2113 744.7895)"/><path d="m292.366 286.494h26.914v11.103h-26.914z" fill="#e09132" transform="matrix(-.7071 -.7071 .7071 -.7071 315.5656 714.8025)"/><path d="m322.341 256.534h26.914v11.103h-26.914z" fill="#e09132" transform="matrix(-.7071 -.7071 .7071 -.7071 387.9197 684.8535)"/><path d="m352.326 226.559h26.914v11.103h-26.914z" fill="#e09132" transform="matrix(-.7071 -.7071 .7071 -.7071 460.304 654.8854)"/><path d="m382.293 196.581h26.914v11.103h-26.914z" fill="#e09132" transform="matrix(-.7071 -.7071 .7071 -.7071 532.6582 624.8984)"/><path d="m412.256 166.621h26.914v11.103h-26.914z" fill="#e09132" transform="matrix(-.7071 -.7071 .7071 -.7071 604.9935 594.9415)"/><path d="m442.223 136.654h26.914v11.103h-26.914z" fill="#e09132" transform="matrix(-.7071 -.7071 .7071 -.7071 677.3398 564.9736)"/><path d="m340.976 94.221-129.472 231.899-39.876 25.759 2.213-47.42 129.472-231.899z" fill="#55c6a1"/><path d="m340.976 94.221-129.472 231.899-10.521-6.051 129.471-231.899z" fill="#75d8b4"/><path d="m330.454 88.17-16.62-9.559-10.521-6.051 7.064-12.281 37.663 21.661-7.064 12.281z" fill="#b3b3b3"/><path d="m325.672 43.231h14.168v43.449h-14.168z" fill="#b3b3b3" transform="matrix(-.4986 .8668 -.8668 -.4986 554.9659 -191.109)"/><path d="m366.494 49.853-11.391 19.806-37.664-21.662 11.392-19.806c3.334-5.797 10.732-7.786 16.52-4.456l16.687 9.598c5.789 3.329 7.79 10.723 4.456 16.52z" fill="#eb305b"/><path d="m355.996 29.856-10.643-6.122c-5.789-3.33-13.187-1.341-16.52 4.456l-11.393 19.807 10.643 6.122 11.391-19.806c3.335-5.797 10.733-7.785 16.522-4.457z" fill="#d82b59"/><path d="m313.834 78.611-129.472 231.899-10.521-6.051 129.472-231.899z" fill="#48af8a"/><path d="m338.857 97.907-37.663-21.661c-2.035-1.17-2.736-3.768-1.566-5.804 1.17-2.035 3.768-2.736 5.804-1.566l37.663 21.661c2.035 1.17 2.736 3.768 1.566 5.804-1.171 2.035-3.77 2.736-5.804 1.566z" fill="#999"/><path d="m345.92 85.624-37.663-21.661c-2.035-1.17-2.736-3.768-1.566-5.804s3.768-2.736 5.804-1.566l37.663 21.661c2.035 1.17 2.736 3.768 1.566 5.804s-3.769 2.736-5.804 1.566z" fill="#999"/><path d="m352.984 73.343-37.663-21.661c-2.035-1.17-2.736-3.768-1.566-5.804s3.768-2.736 5.804-1.566l37.663 21.661c2.035 1.17 2.736 3.768 1.566 5.804-1.171 2.036-3.769 2.736-5.804 1.566z" fill="#999"/><path d="m211.51 326.123-17.837 11.517-22.049 14.236 1.23-26.209.985-21.209z" fill="#e9e4d8"/><path d="m193.673 337.64-22.05 14.235 1.229-26.209c4.05.189 8.108 1.311 11.852 3.464 3.759 2.163 6.783 5.113 8.969 8.51z" fill="#eb305b"/><path d="m171.624 351.876 16.205-39.372-13.99-8.046z" fill="#ccc6ba"/><path d="m172.858 325.669-1.229 26.209 9.985-24.259c-2.841-1.171-5.799-1.812-8.756-1.95z" fill="#d82b59"/></svg>