<svg enable-background="new 0 0 512 512" viewBox="0 0 512 512" xmlns="http://www.w3.org/2000/svg"><path d="m512 256c0 47.544-12.957 92.056-35.541 130.207-6.917 11.692-14.745 22.784-23.372 33.176-9.16 11.048-19.242 21.307-30.112 30.667-44.823 38.606-103.171 61.945-166.969 61.945s-122.157-23.339-166.98-61.945c-10.87-9.36-20.941-19.619-30.101-30.656-8.638-10.404-16.466-21.496-23.383-33.187-22.585-38.151-35.542-82.663-35.542-130.207 0-62.122 22.129-119.07 58.924-163.394 5.252-6.34 10.814-12.413 16.655-18.209 9.171-9.116 19.02-17.532 29.479-25.171 2.532-1.865 5.107-3.664 7.717-5.429 1.443-.988 2.909-1.954 4.386-2.898 4.508-2.92 9.105-5.696 13.801-8.327 36.973-20.742 79.632-32.566 125.044-32.566s88.059 11.825 125.033 32.566c8.982 5.041 17.632 10.604 25.904 16.655 10.459 7.639 20.319 16.066 29.49 25.182 5.84 5.796 11.403 11.869 16.655 18.209 36.794 44.323 58.912 101.271 58.912 163.382z" fill="#42577f"/><g fill="#698084"><path d="m112.775 40.898h8.883v221.963h-8.883z"/><path d="m182.869 40.898h8.883v221.963h-8.883z"/><path d="m252.963 40.898h8.883v221.963h-8.883z"/><path d="m323.057 40.898h8.883v221.963h-8.883z"/></g><path d="m436.987 213.53-.555-2.21v26.181c1.832-1.121 3.797-2.065 5.874-2.831zm-19.975-180.959h-322.024c-19.886 0-36.063 16.177-36.063 36.074v350.749c9.16 11.037 19.231 21.296 30.101 30.656h333.95c10.87-9.36 20.952-19.619 30.112-30.667v-350.738c-.001-19.897-16.19-36.074-36.076-36.074zm19.42 400.824h-360.853v-364.75c0-10.715 8.705-19.419 19.408-19.419h322.025c10.703 0 19.419 8.705 19.419 19.419v364.75z" fill="#279cb7"/><circle cx="117.216" cy="274.548" fill="#e9e4d8" r="35.047"/><path d="m104.235 274.548c0-15.5 10.066-28.641 24.014-33.265-3.471-1.15-7.177-1.782-11.033-1.782-19.356 0-35.047 15.691-35.047 35.047s15.691 35.047 35.047 35.047c3.856 0 7.563-.632 11.033-1.782-13.948-4.625-24.014-17.765-24.014-33.265z" fill="#dbd7cc"/><circle cx="187.31" cy="274.548" fill="#e9e4d8" r="35.047"/><path d="m174.331 274.548c0-15.5 10.066-28.641 24.014-33.265-3.471-1.15-7.177-1.782-11.033-1.782-19.356 0-35.047 15.691-35.047 35.047s15.691 35.047 35.047 35.047c3.856 0 7.563-.632 11.033-1.782-13.949-4.625-24.014-17.765-24.014-33.265z" fill="#dbd7cc"/><circle cx="257.405" cy="274.548" fill="#e9e4d8" r="35.047"/><path d="m244.425 274.548c0-15.5 10.066-28.641 24.014-33.265-3.471-1.15-7.177-1.782-11.033-1.782-19.356 0-35.047 15.691-35.047 35.047s15.691 35.047 35.047 35.047c3.856 0 7.563-.632 11.033-1.782-13.948-4.625-24.014-17.765-24.014-33.265z" fill="#dbd7cc"/><circle cx="327.499" cy="274.548" fill="#e9e4d8" r="35.047"/><path d="m314.519 274.548c0-15.5 10.066-28.641 24.014-33.265-3.471-1.15-7.177-1.782-11.033-1.782-19.356 0-35.047 15.691-35.047 35.047s15.691 35.047 35.047 35.047c3.856 0 7.564-.632 11.033-1.782-13.948-4.625-24.014-17.765-24.014-33.265z" fill="#dbd7cc"/><path d="m453.087 236.714-.233-.933-.822-3.242-13.934-55.427v36.418l5.219 20.774 2.509 9.948 3.198 12.724.067.266 3.997-.999 1.665-.422v-12.491z" fill="#279cb7"/><path d="m456.595 255.078-2.953.744-5.663 1.422-10.992-43.714-41.315-164.304h9.149l32.166 127.886 16.655 66.219z" fill="#698084"/><circle cx="454.574" cy="267.497" fill="#e9e4d8" r="35.047"/><path d="m441.986 270.658c-3.779-15.031 2.777-30.231 15.177-38.117-3.646-.27-7.395.021-11.135.962-18.772 4.72-30.163 23.764-25.442 42.536 4.72 18.772 23.764 30.163 42.536 25.442 3.74-.94 7.18-2.457 10.266-4.419-14.655-1.082-27.622-11.371-31.402-26.404z" fill="#dbd7cc"/><path d="m476.459 386.207c-6.917 11.692-14.745 22.784-23.372 33.176-9.16 11.048-19.242 21.307-30.112 30.667-44.823 38.606-103.171 61.945-166.969 61.945s-122.157-23.339-166.98-61.945c-10.87-9.36-20.941-19.619-30.101-30.656-8.638-10.404-16.466-21.496-23.383-33.187z" fill="#f0a037"/></svg>