<?xml version="1.0" encoding="iso-8859-1"?>
<!-- Generator: Adobe Illustrator 19.0.0, SVG Export Plug-In . SVG Version: 6.00 Build 0)  -->
<svg xmlns="http://www.w3.org/2000/svg" xmlns:xlink="http://www.w3.org/1999/xlink" version="1.1" id="Layer_1" x="0px" y="0px" viewBox="0 0 512 512" style="enable-background:new 0 0 512 512;" xml:space="preserve">
<path style="fill:#A35895;" d="M512,256c0,48.721-13.612,94.266-37.24,133.038c-19.308,31.688-45.323,58.847-76.057,79.51  c-0.067,0.056-0.144,0.111-0.211,0.144c-11.769,7.905-24.227,14.856-37.273,20.741c-3.198,1.454-6.429,2.831-9.693,4.141  c-1.932,0.777-3.886,1.532-5.851,2.265c-5.185,1.943-10.459,3.731-15.8,5.329c-4.586,1.388-9.227,2.643-13.912,3.753  c-0.544,0.133-1.088,0.266-1.632,0.389c-2.032,0.489-4.075,0.933-6.14,1.355c-3.298,0.688-6.629,1.31-9.982,1.865  c-2.576,0.433-5.163,0.822-7.772,1.166c-3.298,0.444-6.629,0.833-9.971,1.144c-2.576,0.244-5.174,0.455-7.772,0.611  c-4.219,0.278-8.461,0.444-12.724,0.511c-1.321,0.022-2.643,0.033-3.964,0.033c-12.202,0-24.205-0.855-35.952-2.509  c-64.276-9.027-120.902-41.926-160.607-89.458C22.34,375.614,0,318.411,0,256S22.34,136.386,59.446,91.973  c15.245-18.254,32.987-34.342,52.696-47.744c41.004-27.913,90.524-44.224,143.864-44.224C397.382,0.006,512,114.612,512,256z"/>
<path style="fill:#DB8D2E;" d="M351.526,62.228v431.347c-1.932,0.777-3.886,1.532-5.851,2.265c-5.185,1.943-10.459,3.731-15.8,5.329  c-4.586,1.388-9.227,2.643-13.912,3.753c-0.544,0.133-1.088,0.266-1.632,0.389c-2.032,0.489-4.075,0.933-6.14,1.355  c-3.298,0.688-6.629,1.31-9.982,1.865c-2.576,0.433-5.163,0.822-7.772,1.166c-3.298,0.444-6.629,0.833-9.971,1.144  c-2.576,0.244-5.174,0.455-7.772,0.611c-4.219,0.278-8.461,0.444-12.724,0.511l-4.674-54.65L221.108,57.12l-1.099-12.891h113.519  C343.465,44.229,351.526,52.29,351.526,62.228z"/>
<path style="fill:#E9E4D8;" d="M329.875,82.524v418.645c-4.586,1.388-9.227,2.643-13.912,3.753  c-0.544,0.133-1.088,0.266-1.632,0.389c-2.032,0.489-4.075,0.933-6.14,1.355c-3.298,0.688-6.629,1.31-9.982,1.865  c-2.576,0.433-5.163,0.822-7.772,1.166c-3.298,0.444-6.629,0.833-9.971,1.144c-2.576,0.244-5.174,0.455-7.772,0.611  c-4.219,0.278-8.461,0.444-12.724,0.511V82.524H329.875z"/>
<path style="fill:#F0A037;" d="M259.969,61.326v450.668h-3.964c-12.202,0-24.205-0.855-35.952-2.509  c-64.276-9.027-120.902-41.926-160.607-89.458V44.229h183.426C252.315,44.229,259.969,51.884,259.969,61.326z"/>
<g>
	<path style="fill:#CCC6BA;" d="M298.209,82.524V508.53c-2.576,0.433-5.163,0.822-7.772,1.166V82.524H298.209z"/>
	<path style="fill:#CCC6BA;" d="M315.963,82.524v422.397c-0.544,0.133-1.088,0.266-1.632,0.389c-2.032,0.489-4.075,0.933-6.14,1.355   V82.524L315.963,82.524L315.963,82.524z"/>
	<path style="fill:#CCC6BA;" d="M280.466,82.524V510.84c-2.576,0.244-5.174,0.455-7.772,0.611V82.524H280.466z"/>
</g>
<g>
	<path style="fill:#1E3160;" d="M220.005,44.229c0,30.413,17.895,55.066,39.969,55.066V58.837c0-8.068-6.54-14.607-14.607-14.607   H220.005z"/>
	<path style="fill:#1E3160;" d="M259.969,456.934v55.061h-3.964c-12.202,0-24.205-0.855-35.952-2.509   C220.997,480.239,238.507,456.934,259.969,456.934z"/>
</g>
<rect x="112.853" y="161.928" style="fill:#DB8D2E;" width="90.969" height="143.075"/>
<g>
	<rect x="118.371" y="170.589" style="fill:#E9E4D8;" width="79.938" height="125.732"/>
	<path style="fill:#E9E4D8;" d="M474.76,271.667v117.371c-19.308,31.688-45.323,58.847-76.057,79.51v0.144h-0.211   c-11.769,7.905-24.227,14.856-37.273,20.741c-3.198,1.454-6.429,2.831-9.693,4.141c-1.932,0.777-3.886,1.532-5.851,2.265   c-5.185,1.943-10.459,3.731-15.8,5.329V222.213h95.421L474.76,271.667z"/>
</g>
<polygon style="fill:#DDD8CC;" points="474.76,271.671 425.295,271.671 425.295,222.218 "/>
<g>
	<rect x="420.921" y="325.478" style="fill:#1E3160;" width="11.103" height="83.266"/>
	<rect x="134.193" y="230.213" style="fill:#1E3160;" width="48.295" height="11.103"/>
	<rect x="134.193" y="260.747" style="fill:#1E3160;" width="48.295" height="11.103"/>
	<rect x="134.193" y="199.679" style="fill:#1E3160;" width="48.295" height="11.103"/>
	<rect x="387.6" y="265.532" style="fill:#1E3160;" width="11.103" height="203.166"/>
</g>
<path style="fill:#CCC6BA;" d="M345.675,222.213v273.626c-5.185,1.943-10.459,3.731-15.8,5.329  c-4.586,1.388-9.227,2.643-13.912,3.753c-0.544,0.133-1.088,0.266-1.632,0.389V222.213L345.675,222.213L345.675,222.213z"/>
<g>
	<rect x="361.219" y="265.521" style="fill:#1E3160;" width="11.103" height="203.177"/>
	<rect x="334.838" y="265.521" style="fill:#1E3160;" width="11.103" height="203.177"/>
</g>
<g>
</g>
<g>
</g>
<g>
</g>
<g>
</g>
<g>
</g>
<g>
</g>
<g>
</g>
<g>
</g>
<g>
</g>
<g>
</g>
<g>
</g>
<g>
</g>
<g>
</g>
<g>
</g>
<g>
</g>
</svg>
