<svg enable-background="new 0 0 512 512" viewBox="0 0 512 512" xmlns="http://www.w3.org/2000/svg"><path d="m512 256c0 48.721-13.612 94.266-37.24 133.038-19.308 31.688-45.323 58.847-76.057 79.51-.067.056-.144.111-.211.144-11.769 7.905-24.227 14.856-37.273 20.741-3.198 1.454-6.429 2.831-9.693 4.141-1.932.777-3.886 1.532-5.851 2.265-5.185 1.943-10.459 3.731-15.8 5.329-4.586 1.388-9.227 2.643-13.912 3.753-.544.133-1.088.266-1.632.389-2.032.489-4.075.933-6.14 1.355-3.298.688-6.629 1.31-9.982 1.865-2.576.433-5.163.822-7.772 1.166-3.298.444-6.629.833-9.971 1.144-2.576.244-5.174.455-7.772.611-4.219.278-8.461.444-12.724.511-1.321.022-2.643.033-3.964.033-12.202 0-24.205-.855-35.952-2.509-64.276-9.027-120.902-41.926-160.607-89.458-37.107-44.414-59.447-101.617-59.447-164.028s22.34-119.614 59.446-164.027c15.245-18.254 32.987-34.342 52.696-47.744 41.004-27.913 90.524-44.224 143.864-44.224 141.376.001 255.994 114.607 255.994 255.995z" fill="#a35895"/><path d="m351.526 62.228v431.347c-1.932.777-3.886 1.532-5.851 2.265-5.185 1.943-10.459 3.731-15.8 5.329-4.586 1.388-9.227 2.643-13.912 3.753-.544.133-1.088.266-1.632.389-2.032.489-4.075.933-6.14 1.355-3.298.688-6.629 1.31-9.982 1.865-2.576.433-5.163.822-7.772 1.166-3.298.444-6.629.833-9.971 1.144-2.576.244-5.174.455-7.772.611-4.219.278-8.461.444-12.724.511l-4.674-54.65-34.188-400.193-1.099-12.891h113.519c9.937 0 17.998 8.061 17.998 17.999z" fill="#db8d2e"/><path d="m329.875 82.524v418.645c-4.586 1.388-9.227 2.643-13.912 3.753-.544.133-1.088.266-1.632.389-2.032.489-4.075.933-6.14 1.355-3.298.688-6.629 1.31-9.982 1.865-2.576.433-5.163.822-7.772 1.166-3.298.444-6.629.833-9.971 1.144-2.576.244-5.174.455-7.772.611-4.219.278-8.461.444-12.724.511v-429.439z" fill="#e9e4d8"/><path d="m259.969 61.326v450.668h-3.964c-12.202 0-24.205-.855-35.952-2.509-64.276-9.027-120.902-41.926-160.607-89.458v-375.798h183.426c9.443 0 17.097 7.655 17.097 17.097z" fill="#f0a037"/><path d="m298.209 82.524v426.006c-2.576.433-5.163.822-7.772 1.166v-427.172z" fill="#ccc6ba"/><path d="m315.963 82.524v422.397c-.544.133-1.088.266-1.632.389-2.032.489-4.075.933-6.14 1.355v-424.141z" fill="#ccc6ba"/><path d="m280.466 82.524v428.316c-2.576.244-5.174.455-7.772.611v-428.927z" fill="#ccc6ba"/><path d="m220.005 44.229c0 30.413 17.895 55.066 39.969 55.066v-40.458c0-8.068-6.54-14.607-14.607-14.607h-25.362z" fill="#1e3160"/><path d="m259.969 456.934v55.061h-3.964c-12.202 0-24.205-.855-35.952-2.509.944-29.247 18.454-52.552 39.916-52.552z" fill="#1e3160"/><path d="m112.853 161.928h90.969v143.075h-90.969z" fill="#db8d2e"/><path d="m118.371 170.589h79.938v125.732h-79.938z" fill="#e9e4d8"/><path d="m474.76 271.667v117.371c-19.308 31.688-45.323 58.847-76.057 79.51v.144h-.211c-11.769 7.905-24.227 14.856-37.273 20.741-3.198 1.454-6.429 2.831-9.693 4.141-1.932.777-3.886 1.532-5.851 2.265-5.185 1.943-10.459 3.731-15.8 5.329v-278.955h95.421z" fill="#e9e4d8"/><path d="m474.76 271.671h-49.465v-49.453z" fill="#ddd8cc"/><g fill="#1e3160"><path d="m420.921 325.478h11.103v83.266h-11.103z"/><path d="m134.193 230.213h48.295v11.103h-48.295z"/><path d="m134.193 260.747h48.295v11.103h-48.295z"/><path d="m134.193 199.679h48.295v11.103h-48.295z"/><path d="m387.6 265.532h11.103v203.166h-11.103z"/></g><path d="m345.675 222.213v273.626c-5.185 1.943-10.459 3.731-15.8 5.329-4.586 1.388-9.227 2.643-13.912 3.753-.544.133-1.088.266-1.632.389v-283.097z" fill="#ccc6ba"/><path d="m361.219 265.521h11.103v203.177h-11.103z" fill="#1e3160"/><path d="m334.838 265.521h11.103v203.177h-11.103z" fill="#1e3160"/></svg>