<svg enable-background="new 0 0 512 512" viewBox="0 0 512 512" xmlns="http://www.w3.org/2000/svg"><path d="m512 256c0 98.951-56.138 184.779-138.301 227.393-35.241 18.276-75.257 28.602-117.693 28.602-58.403 0-112.231-19.553-155.3-52.474-61.212-46.767-100.706-120.536-100.706-203.521 0-83.107 39.605-156.965 100.972-203.721 13.934-10.637 29.001-19.852 44.979-27.469 33.332-15.9 70.661-24.804 110.055-24.804 141.376 0 255.994 114.606 255.994 255.994z" fill="#eb305b"/><path d="m168.069 66.258v26.636c0 9.293-7.539 16.843-16.843 16.843-4.641 0-8.849-1.888-11.903-4.941-3.042-3.042-4.93-7.261-4.93-11.903v-26.635z" fill="#c1bcb4"/><path d="m441.062 56.454v36.441c0 4.641-1.888 8.86-4.93 11.903-3.053 3.053-7.261 4.941-11.914 4.941h-272.993c9.304 0 16.843-7.55 16.843-16.843v-36.442c0-6.529-1.854-12.613-5.074-17.776-1.355-2.198-2.965-4.219-4.785-6.04-4.719-4.719-10.837-8.05-17.676-9.293-1.987-.378-4.042-.566-6.14-.566h272.993c12.069 0 22.662 6.351 28.602 15.9 3.22 5.162 5.074 11.257 5.074 17.775z" fill="#e9e4d8"/><path d="m373.699 109.738v373.655c-35.241 18.276-75.257 28.602-117.693 28.602-58.403 0-112.231-19.553-155.3-52.474v-403.067c0-1.41.089-2.809.266-4.175 2.043-16.633 16.222-29.501 33.421-29.501 4.064 0 7.961.722 11.558 2.032 4.652 1.699 8.827 4.397 12.258 7.828 6.096 6.096 9.86 14.512 9.86 23.816v9.804h-33.676v26.636c0 4.641 1.888 8.86 4.93 11.903 3.053 3.053 7.261 4.941 11.903 4.941z" fill="#e9e4d8"/><g fill="#1e3160"><path d="m138.079 150.17h198.247v12.213h-198.247z"/><path d="m138.079 182.669h198.247v12.213h-198.247z"/><path d="m138.079 215.157h198.247v12.213h-198.247z"/><path d="m138.079 247.645h198.247v12.213h-198.247z"/><path d="m138.079 280.144h198.247v12.213h-198.247z"/><path d="m138.079 312.632h198.247v12.213h-198.247z"/><path d="m138.079 345.119h138.223v12.213h-138.223z"/></g><circle cx="311.71" cy="413.848" fill="#f0a037" r="29.397"/><path d="m373.699 109.738v13.324h-272.993v-66.608c0-18.598 15.078-33.676 33.687-33.676 9.304 0 17.721 3.764 23.816 9.86s9.86 14.512 9.86 23.816v9.804h-33.676v26.636c0 4.641 1.888 8.86 4.93 11.903 3.053 3.053 7.261 4.941 11.903 4.941-.001 0 222.473 0 222.473 0z" fill="#ddd8cc"/><path d="m435.988 38.678h-272.994c-1.355-2.198-2.965-4.219-4.785-6.04-4.719-4.719-10.837-8.05-17.676-9.293v-.566h266.853c12.069-.001 22.662 6.35 28.602 15.899z" fill="#ddd8cc"/></svg>