<?xml version="1.0" encoding="iso-8859-1"?>
<!-- Generator: Adobe Illustrator 19.0.0, SVG Export Plug-In . SVG Version: 6.00 Build 0)  -->
<svg xmlns="http://www.w3.org/2000/svg" xmlns:xlink="http://www.w3.org/1999/xlink" version="1.1" id="Layer_1" x="0px" y="0px" viewBox="0 0 512 512" style="enable-background:new 0 0 512 512;" xml:space="preserve">
<path style="fill:#EB305B;" d="M512,256c0,98.951-56.138,184.779-138.301,227.393c-35.241,18.276-75.257,28.602-117.693,28.602  c-58.403,0-112.231-19.553-155.3-52.474C39.494,412.754,0,338.985,0,256C0,172.893,39.605,99.035,100.972,52.279  c13.934-10.637,29.001-19.852,44.979-27.469c33.332-15.9,70.661-24.804,110.055-24.804C397.382,0.006,512,114.612,512,256z"/>
<path style="fill:#C1BCB4;" d="M168.069,66.258v26.636c0,9.293-7.539,16.843-16.843,16.843c-4.641,0-8.849-1.888-11.903-4.941  c-3.042-3.042-4.93-7.261-4.93-11.903V66.258C134.393,66.258,168.069,66.258,168.069,66.258z"/>
<g>
	<path style="fill:#E9E4D8;" d="M441.062,56.454v36.441c0,4.641-1.888,8.86-4.93,11.903c-3.053,3.053-7.261,4.941-11.914,4.941   H151.225c9.304,0,16.843-7.55,16.843-16.843V56.454c0-6.529-1.854-12.613-5.074-17.776c-1.355-2.198-2.965-4.219-4.785-6.04   c-4.719-4.719-10.837-8.05-17.676-9.293c-1.987-0.378-4.042-0.566-6.14-0.566h272.993c12.069,0,22.662,6.351,28.602,15.9   C439.208,43.841,441.062,49.936,441.062,56.454z"/>
	<path style="fill:#E9E4D8;" d="M373.699,109.738v373.655c-35.241,18.276-75.257,28.602-117.693,28.602   c-58.403,0-112.231-19.553-155.3-52.474V56.454c0-1.41,0.089-2.809,0.266-4.175c2.043-16.633,16.222-29.501,33.421-29.501   c4.064,0,7.961,0.722,11.558,2.032c4.652,1.699,8.827,4.397,12.258,7.828c6.096,6.096,9.86,14.512,9.86,23.816v9.804h-33.676   v26.636c0,4.641,1.888,8.86,4.93,11.903c3.053,3.053,7.261,4.941,11.903,4.941H373.699z"/>
</g>
<g>
	<rect x="138.079" y="150.17" style="fill:#1E3160;" width="198.247" height="12.213"/>
	<rect x="138.079" y="182.669" style="fill:#1E3160;" width="198.247" height="12.213"/>
	<rect x="138.079" y="215.157" style="fill:#1E3160;" width="198.247" height="12.213"/>
	<rect x="138.079" y="247.645" style="fill:#1E3160;" width="198.247" height="12.213"/>
	<rect x="138.079" y="280.144" style="fill:#1E3160;" width="198.247" height="12.213"/>
	<rect x="138.079" y="312.632" style="fill:#1E3160;" width="198.247" height="12.213"/>
	<rect x="138.079" y="345.119" style="fill:#1E3160;" width="138.223" height="12.213"/>
</g>
<circle style="fill:#F0A037;" cx="311.71" cy="413.848" r="29.397"/>
<g>
	<path style="fill:#DDD8CC;" d="M373.699,109.738v13.324H100.706V56.454c0-18.598,15.078-33.676,33.687-33.676   c9.304,0,17.721,3.764,23.816,9.86s9.86,14.512,9.86,23.816v9.804h-33.676v26.636c0,4.641,1.888,8.86,4.93,11.903   c3.053,3.053,7.261,4.941,11.903,4.941C151.225,109.738,373.699,109.738,373.699,109.738z"/>
	<path style="fill:#DDD8CC;" d="M435.988,38.678H162.994c-1.355-2.198-2.965-4.219-4.785-6.04   c-4.719-4.719-10.837-8.05-17.676-9.293v-0.566h266.853C419.455,22.778,430.048,29.129,435.988,38.678z"/>
</g>
<g>
</g>
<g>
</g>
<g>
</g>
<g>
</g>
<g>
</g>
<g>
</g>
<g>
</g>
<g>
</g>
<g>
</g>
<g>
</g>
<g>
</g>
<g>
</g>
<g>
</g>
<g>
</g>
<g>
</g>
</svg>
