<svg enable-background="new 0 0 512 512" viewBox="0 0 512 512" xmlns="http://www.w3.org/2000/svg"><path d="m512 256c0 141.388-114.618 255.994-255.994 255.994-23.405 0-46.078-3.142-67.618-9.027-34.187-9.338-65.531-25.593-92.423-47.155-11.747-9.404-22.639-19.841-32.554-31.155-21.34-24.349-38.139-52.784-49.065-83.973-9.294-26.503-14.346-55.005-14.346-84.684 0-141.388 114.618-255.994 256.006-255.994 65.531 0 125.321 24.638 170.611 65.153 1.277 1.121 2.532 2.276 3.775 3.431 2.387 2.221 4.73 4.486 7.017 6.795 2.309 2.309 4.552 4.652 6.762 7.05 2.221 2.398 4.386 4.83 6.495 7.317 1.133 1.31 2.243 2.643 3.331 3.975 36.252 44.169 58.003 100.673 58.003 162.273z" fill="#f0a037"/><path d="m328.531 309.14c-2.298 6.751-6.062 12.968-11.303 18.22-5.03 5.03-12.713 8.561-21.773 10.703-26.67 6.273-44.879 31.189-43.325 58.558 1.821 32.332-8.294 63.643-29.557 84.906-9.815 9.815-21.462 16.943-34.187 21.44-11.836-3.231-23.317-7.284-34.398-12.114-20.941-9.105-40.438-20.941-58.025-35.042-11.747-9.404-22.639-19.841-32.554-31.155-21.34-24.349-38.139-52.784-49.065-83.973 4.042-16.266 12.047-31.133 24.149-43.236 19.963-19.975 48.821-30.123 79.054-29.779 27.802.344 51.474-19.308 56.648-46.633 1.999-10.57 5.763-19.586 11.447-25.26 4.874-4.874 10.581-8.461 16.755-10.792 19.641-7.428 44.035-2.143 61.378 15.2 2.254 2.254 6.262 7.917 9.404 12.591v.011l1.976 6.54 1.044 3.453 3.209 10.615 3.198 10.604 3.209 10.604 1.41 4.663 1.976 6.551.011.011c1.188 2.654 2.865 5.119 5.041 7.295 4.33 4.33 9.882 6.717 15.544 7.162 14.06 1.077 23.309 15.522 18.734 28.857z" fill="#eb305b"/><path d="m328.531 309.14c-2.298 6.751-6.062 12.968-11.303 18.22-5.03 5.03-12.713 8.561-21.773 10.703-26.67 6.273-44.879 31.189-43.325 58.558 1.821 32.332-8.294 63.643-29.557 84.906-9.815 9.815-21.462 16.943-34.187 21.44-11.836-3.231-23.317-7.284-34.398-12.114 44.246-99.651 48.599-247.001 48.41-305.87 19.641-7.428 44.035-2.143 61.378 15.2 2.254 2.254 6.262 7.917 9.404 12.591v.011l1.976 6.54 1.044 3.453 3.209 10.615 3.198 10.604 3.209 10.604 1.41 4.663 1.976 6.551.011.011c1.188 2.654 2.865 5.119 5.041 7.295 4.33 4.33 9.882 6.717 15.544 7.162 14.059 1.077 23.308 15.522 18.733 28.857z" fill="#fff" opacity=".11"/><path d="m149.392 293.952c-2.754-1.947-6.564-1.295-8.513 1.458-.069.097-7.989 9.85-33.676 14.061-31.375 5.145-40.518 20.16-41.457 21.855-1.634 2.95-.567 6.666 2.383 8.302.938.52 1.953.766 2.955.766 2.148 0 4.233-1.136 5.347-3.148.063-.114 7.027-11.503 32.75-15.721 30.989-5.082 40.668-17.644 41.669-19.06 1.947-2.754 1.295-6.566-1.458-8.513z" fill="#aa1f43"/><path d="m181.025 452.734c-1.947-2.754-1.295-6.564 1.458-8.513.097-.069 9.85-7.989 14.061-33.676 5.145-31.375 20.16-40.518 21.855-41.457 2.95-1.634 6.666-.567 8.302 2.383.52.938.766 1.953.766 2.955 0 2.148-1.136 4.233-3.148 5.347-.114.063-11.503 7.027-15.721 32.75-5.082 30.989-17.644 40.668-19.06 41.669-2.754 1.947-6.566 1.294-8.513-1.458z" fill="#aa1f43"/><path d="m82.887 400.433h56.748v16.655h-56.748z" fill="#dbdbdb" transform="matrix(-.7071 -.7071 .7071 -.7071 -99.1038 776.4706)"/><path d="m109.893 373.426h56.748v16.655h-56.748z" fill="#dbdbdb" transform="matrix(-.7071 -.7071 .7071 -.7071 -33.9036 749.4628)"/><path d="m129.951 353.362h56.748v16.655h-56.748z" fill="#dbdbdb" transform="matrix(-.7071 -.7071 .7071 -.7071 14.5235 729.3951)"/><path d="m506.704 44.984c-3.864-5.552-7.706-11.159-10.404-15.1-1.377-2.021-4.153-4.785-6.162-6.162-3.942-2.698-9.549-6.54-15.1-10.404-3.164-2.198-6.717-1.821-7.961.799-8.372 17.454-29.146 33.176-35.863 37.951-1.399.999-2.321 2.487-2.687 4.297l-1.432 7.095c-.122.588-.278 1.155-.477 1.699-.255.744-.588 1.443-.988 2.099-.477.811-1.066 1.543-1.754 2.198l-10.537 10.026-5.64 5.352-12.569 11.969-5.64 5.352-16.555 15.755-5.629 5.363-19.408 18.453-5.64 5.352-18.265 17.376-5.629 5.363-17.132 16.288-5.629 5.363-19.12 18.187-3.298 3.12v.011l-2.343 2.221-14.279 13.579-5.64 5.374-9.649 9.182-5.64 5.352-8.105 7.717 36.307 36.307 7.717-8.105 5.352-5.64 9.182-9.66 3.131-3.287 2.232-2.343 13.579-14.29 5.352-5.64 18.187-19.12 5.363-5.629 16.288-17.132 5.352-5.64 17.376-18.265 5.352-5.64 18.453-19.408 5.352-5.64 15.755-16.555 5.352-5.64 11.958-12.58 5.363-5.629 10.015-10.537c.644-.688 1.388-1.277 2.198-1.765.4-.244.822-.466 1.255-.644.799-.366 1.654-.633 2.565-.822l7.084-1.41c1.821-.366 3.309-1.299 4.308-2.698 4.774-6.717 20.496-27.491 37.951-35.852 2.606-1.256 2.994-4.798.796-7.963zm-57.226 18.776c-.866.866-1.999 1.299-3.142 1.299-1.133 0-2.265-.433-3.131-1.299-1.743-1.732-1.743-4.541 0-6.273l28.035-28.035c1.732-1.743 4.541-1.743 6.273 0 1.732 1.732 1.732 4.541 0 6.273zm41.082-14.989-28.035 28.035c-.866.866-1.999 1.299-3.142 1.299-1.133 0-2.265-.433-3.131-1.299-1.743-1.732-1.743-4.541 0-6.273l28.035-28.035c1.732-1.743 4.541-1.743 6.273 0 1.732 1.731 1.732 4.541 0 6.273z" fill="#4d4d4d"/><g fill="#dbdbdb"><path d="m276.902 278.773-5.352 5.64-35.919-35.919 5.641-5.351z"/><path d="m291.447 263.484-5.363 5.629-35.164-35.153 5.641-5.374z"/><path d="m310.378 243.553-5.352 5.641-34.187-34.187 5.641-5.352z"/><path d="m333.928 218.804-5.363 5.63-32.966-32.966 5.63-5.362z"/><path d="m355.568 196.032-5.352 5.64-31.855-31.855 5.629-5.363z"/><path d="m378.296 172.127-5.352 5.64-30.689-30.689 5.64-5.352z"/><path d="m402.101 147.078-5.352 5.64-29.445-29.445 5.629-5.363z"/><path d="m423.208 124.883-5.352 5.64-28.368-28.368 5.64-5.352z"/><path d="m440.529 106.674-5.363 5.629-27.469-27.469 5.64-5.352z"/></g><path d="m249.722-8.604h3.331v512.406h-3.331z" fill="#f2f2f2" transform="matrix(-.7071 -.7071 .7071 -.7071 254.066 600.4352)"/><path d="m256.627-1.69h3.331v512.406h-3.331z" fill="#f2f2f2" transform="matrix(-.7071 -.7071 .7071 -.7071 260.9653 617.1209)"/><path d="m263.533 5.213h3.331v512.406h-3.331z" fill="#f2f2f2" transform="matrix(-.7071 -.7071 .7071 -.7071 267.8725 633.7877)"/><path d="m270.438 12.116h3.331v512.406h-3.331z" fill="#f2f2f2" transform="matrix(-.7071 -.7071 .7071 -.7071 274.7796 650.4545)"/><path d="m98.907 451.971-2.942 3.842c-11.747-9.404-22.639-19.841-32.554-31.155l4.641-3.542 4.908 4.908z" fill="#dbdbdb"/><path d="m506.704 44.984c-3.864-5.552-7.706-11.159-10.404-15.1-1.377-2.021-4.153-4.785-6.162-6.162-3.942-2.698-9.549-6.54-15.1-10.404-3.164-2.198-6.717-1.821-7.961.799-8.372 17.454-29.146 33.176-35.863 37.951-1.399.999-2.321 2.487-2.687 4.297l-1.432 7.095c-.122.588-.278 1.155-.477 1.699-.255.744-.588 1.443-.988 2.099l27.114 27.114c.4-.244.822-.466 1.255-.644.799-.366 1.654-.633 2.565-.822l7.084-1.41c1.821-.366 3.309-1.299 4.308-2.698 4.774-6.717 20.496-27.491 37.951-35.852 2.607-1.255 2.995-4.797.797-7.962zm-57.226 18.776c-.866.866-1.999 1.299-3.142 1.299-1.133 0-2.265-.433-3.131-1.299-1.743-1.732-1.743-4.541 0-6.273l28.035-28.035c1.732-1.743 4.541-1.743 6.273 0 1.732 1.732 1.732 4.541 0 6.273zm41.082-14.989-28.035 28.035c-.866.866-1.999 1.299-3.142 1.299-1.133 0-2.265-.433-3.131-1.299-1.743-1.732-1.743-4.541 0-6.273l28.035-28.035c1.732-1.743 4.541-1.743 6.273 0 1.732 1.731 1.732 4.541 0 6.273z" fill="#eb305b"/><path d="m177.928 127.091c-4.491.315-8.977.695-13.459 1.103-1.088.103-2.176.215-3.264.323 1.573-2.072 3.153-4.138 4.721-6.214 6.421-8.585 12.782-17.22 19.001-25.973 6.257-8.722 12.331-17.593 18.325-26.532 5.964-8.965 11.818-18.018 17.313-27.37-8.17 7.136-15.98 14.57-23.681 22.094-7.671 7.549-15.261 15.166-22.669 22.932-7.446 7.736-14.749 15.589-21.993 23.492-7.207 7.933-14.38 15.895-21.421 23.966l-15.369 17.613 24.088-1.111c4.501-.208 8.995-.497 13.487-.812 4.491-.322 8.976-.702 13.458-1.117 1.136-.11 2.271-.228 3.405-.341-1.166 1.548-2.339 3.089-3.501 4.64-5.977 8.046-11.891 16.144-17.665 24.359-5.814 8.182-11.445 16.515-16.996 24.914-5.522 8.424-10.937 16.936-15.994 25.745 7.717-6.604 15.075-13.506 22.327-20.495 7.224-7.014 14.365-14.094 21.326-21.326 7.001-7.198 13.859-14.514 20.656-21.881 6.767-7.391 13.49-14.82 20.093-22.347l15.421-17.576-24.12 1.11c-4.503.207-8.998.488-13.489.804z" fill="#e9e4d8"/><path d="m406.171 329.679c-4.087-1.89-8.2-3.72-12.323-5.524-1.004-.434-2.011-.861-3.016-1.29 2.377-1.057 4.758-2.104 7.132-3.168 9.765-4.425 19.502-8.923 29.169-13.591 9.686-4.623 19.286-9.467 28.848-14.407 9.547-4.978 19.042-10.086 28.365-15.63-10.598 2.312-21.025 5.059-31.4 7.937-10.36 2.915-20.682 5.927-30.918 9.159-10.254 3.187-20.439 6.545-30.596 9.976-10.139 3.475-20.262 6.992-30.323 10.667l-21.958 8.02 21.639 10.641c4.044 1.989 8.12 3.902 12.207 5.791 4.089 1.883 8.202 3.713 12.329 5.51 1.048.452 2.099.895 3.148 1.343-1.768.794-3.539 1.578-5.305 2.377-9.117 4.167-18.203 8.41-27.223 12.822-9.038 4.365-17.989 8.949-26.903 13.631-8.899 4.718-17.748 9.563-26.426 14.842 9.945-2.065 19.719-4.563 29.443-7.189 9.71-2.661 19.382-5.421 28.966-8.4 9.604-2.931 19.141-6.032 28.647-9.209 9.493-3.212 18.964-6.479 28.379-9.888l21.984-7.962-21.667-10.658c-4.037-1.99-8.111-3.911-12.198-5.8z" fill="#e9e4d8"/></svg>