<?xml version="1.0" encoding="iso-8859-1"?>
<!-- Generator: Adobe Illustrator 19.0.0, SVG Export Plug-In . SVG Version: 6.00 Build 0)  -->
<svg xmlns="http://www.w3.org/2000/svg" xmlns:xlink="http://www.w3.org/1999/xlink" version="1.1" id="Layer_1" x="0px" y="0px" viewBox="0 0 512 512" style="enable-background:new 0 0 512 512;" xml:space="preserve">
<path style="fill:#F0A037;" d="M512,256c0,141.388-114.618,255.994-255.994,255.994c-23.405,0-46.078-3.142-67.618-9.027  c-34.187-9.338-65.531-25.593-92.423-47.155c-11.747-9.404-22.639-19.841-32.554-31.155c-21.34-24.349-38.139-52.784-49.065-83.973  C5.052,314.181,0,285.679,0,256C0,114.612,114.618,0.006,256.006,0.006c65.531,0,125.321,24.638,170.611,65.153  c1.277,1.121,2.532,2.276,3.775,3.431c2.387,2.221,4.73,4.486,7.017,6.795c2.309,2.309,4.552,4.652,6.762,7.05  c2.221,2.398,4.386,4.83,6.495,7.317c1.133,1.31,2.243,2.643,3.331,3.975C490.249,137.896,512,194.4,512,256z"/>
<path style="fill:#EB305B;" d="M328.531,309.14c-2.298,6.751-6.062,12.968-11.303,18.22c-5.03,5.03-12.713,8.561-21.773,10.703  c-26.67,6.273-44.879,31.189-43.325,58.558c1.821,32.332-8.294,63.643-29.557,84.906c-9.815,9.815-21.462,16.943-34.187,21.44  c-11.836-3.231-23.317-7.284-34.398-12.114c-20.941-9.105-40.438-20.941-58.025-35.042c-11.747-9.404-22.639-19.841-32.554-31.155  c-21.34-24.349-38.139-52.784-49.065-83.973c4.042-16.266,12.047-31.133,24.149-43.236c19.963-19.975,48.821-30.123,79.054-29.779  c27.802,0.344,51.474-19.308,56.648-46.633c1.999-10.57,5.763-19.586,11.447-25.26c4.874-4.874,10.581-8.461,16.755-10.792  c19.641-7.428,44.035-2.143,61.378,15.2c2.254,2.254,6.262,7.917,9.404,12.591v0.011l1.976,6.54l1.044,3.453l3.209,10.615  l3.198,10.604l3.209,10.604l1.41,4.663l1.976,6.551l0.011,0.011c1.188,2.654,2.865,5.119,5.041,7.295  c4.33,4.33,9.882,6.717,15.544,7.162C323.857,281.36,333.106,295.805,328.531,309.14z"/>
<path style="opacity:0.11;fill:#FFFFFF;enable-background:new    ;" d="M328.531,309.14c-2.298,6.751-6.062,12.968-11.303,18.22  c-5.03,5.03-12.713,8.561-21.773,10.703c-26.67,6.273-44.879,31.189-43.325,58.558c1.821,32.332-8.294,63.643-29.557,84.906  c-9.815,9.815-21.462,16.943-34.187,21.44c-11.836-3.231-23.317-7.284-34.398-12.114c44.246-99.651,48.599-247.001,48.41-305.87  c19.641-7.428,44.035-2.143,61.378,15.2c2.254,2.254,6.262,7.917,9.404,12.591v0.011l1.976,6.54l1.044,3.453l3.209,10.615  l3.198,10.604l3.209,10.604l1.41,4.663l1.976,6.551l0.011,0.011c1.188,2.654,2.865,5.119,5.041,7.295  c4.33,4.33,9.882,6.717,15.544,7.162C323.857,281.36,333.106,295.805,328.531,309.14z"/>
<g>
	<path style="fill:#AA1F43;" d="M149.392,293.952c-2.754-1.947-6.564-1.295-8.513,1.458c-0.069,0.097-7.989,9.85-33.676,14.061   c-31.375,5.145-40.518,20.16-41.457,21.855c-1.634,2.95-0.567,6.666,2.383,8.302c0.938,0.52,1.953,0.766,2.955,0.766   c2.148,0,4.233-1.136,5.347-3.148c0.063-0.114,7.027-11.503,32.75-15.721c30.989-5.082,40.668-17.644,41.669-19.06   C152.797,299.711,152.145,295.899,149.392,293.952z"/>
	<path style="fill:#AA1F43;" d="M181.025,452.734c-1.947-2.754-1.295-6.564,1.458-8.513c0.097-0.069,9.85-7.989,14.061-33.676   c5.145-31.375,20.16-40.518,21.855-41.457c2.95-1.634,6.666-0.567,8.302,2.383c0.52,0.938,0.766,1.953,0.766,2.955   c0,2.148-1.136,4.233-3.148,5.347c-0.114,0.063-11.503,7.027-15.721,32.75c-5.082,30.989-17.644,40.668-19.06,41.669   C186.784,456.139,182.972,455.486,181.025,452.734z"/>
</g>
<g>
	
		<rect x="82.887" y="400.433" transform="matrix(-0.7071 -0.7071 0.7071 -0.7071 -99.1038 776.4706)" style="fill:#DBDBDB;" width="56.748" height="16.655"/>
	
		<rect x="109.893" y="373.426" transform="matrix(-0.7071 -0.7071 0.7071 -0.7071 -33.9036 749.4628)" style="fill:#DBDBDB;" width="56.748" height="16.655"/>
	
		<rect x="129.951" y="353.362" transform="matrix(-0.7071 -0.7071 0.7071 -0.7071 14.5235 729.3951)" style="fill:#DBDBDB;" width="56.748" height="16.655"/>
</g>
<path style="fill:#4D4D4D;" d="M506.704,44.984c-3.864-5.552-7.706-11.159-10.404-15.1c-1.377-2.021-4.153-4.785-6.162-6.162  c-3.942-2.698-9.549-6.54-15.1-10.404c-3.164-2.198-6.717-1.821-7.961,0.799c-8.372,17.454-29.146,33.176-35.863,37.951  c-1.399,0.999-2.321,2.487-2.687,4.297l-1.432,7.095c-0.122,0.588-0.278,1.155-0.477,1.699c-0.255,0.744-0.588,1.443-0.988,2.099  c-0.477,0.811-1.066,1.543-1.754,2.198l-10.537,10.026l-5.64,5.352l-12.569,11.969l-5.64,5.352l-16.555,15.755l-5.629,5.363  l-19.408,18.453l-5.64,5.352l-18.265,17.376l-5.629,5.363l-17.132,16.288l-5.629,5.363l-19.12,18.187l-3.298,3.12v0.011  l-2.343,2.221l-14.279,13.579l-5.64,5.374l-9.649,9.182l-5.64,5.352l-8.105,7.717l36.307,36.307l7.717-8.105l5.352-5.64l9.182-9.66  l3.131-3.287l2.232-2.343l13.579-14.29l5.352-5.64l18.187-19.12l5.363-5.629l16.288-17.132l5.352-5.64l17.376-18.265l5.352-5.64  l18.453-19.408l5.352-5.64l15.755-16.555l5.352-5.64l11.958-12.58l5.363-5.629l10.015-10.537c0.644-0.688,1.388-1.277,2.198-1.765  c0.4-0.244,0.822-0.466,1.255-0.644c0.799-0.366,1.654-0.633,2.565-0.822l7.084-1.41c1.821-0.366,3.309-1.299,4.308-2.698  c4.774-6.717,20.496-27.491,37.951-35.852C508.514,51.691,508.902,48.149,506.704,44.984z M449.478,63.76  c-0.866,0.866-1.999,1.299-3.142,1.299c-1.133,0-2.265-0.433-3.131-1.299c-1.743-1.732-1.743-4.541,0-6.273l28.035-28.035  c1.732-1.743,4.541-1.743,6.273,0c1.732,1.732,1.732,4.541,0,6.273L449.478,63.76z M490.56,48.771l-28.035,28.035  c-0.866,0.866-1.999,1.299-3.142,1.299c-1.133,0-2.265-0.433-3.131-1.299c-1.743-1.732-1.743-4.541,0-6.273l28.035-28.035  c1.732-1.743,4.541-1.743,6.273,0C492.292,44.229,492.292,47.039,490.56,48.771z"/>
<g>
	<polygon style="fill:#DBDBDB;" points="276.902,278.773 271.55,284.413 235.631,248.494 241.272,243.143  "/>
	<polygon style="fill:#DBDBDB;" points="291.447,263.484 286.084,269.113 250.92,233.96 256.561,228.586  "/>
	<polygon style="fill:#DBDBDB;" points="310.378,243.553 305.026,249.194 270.839,215.007 276.48,209.655  "/>
	<polygon style="fill:#DBDBDB;" points="333.928,218.804 328.565,224.434 295.599,191.468 301.229,186.106  "/>
	<polygon style="fill:#DBDBDB;" points="355.568,196.032 350.216,201.672 318.361,169.817 323.99,164.454  "/>
	<polygon style="fill:#DBDBDB;" points="378.296,172.127 372.944,177.767 342.255,147.078 347.895,141.726  "/>
	<polygon style="fill:#DBDBDB;" points="402.101,147.078 396.749,152.718 367.304,123.273 372.933,117.91  "/>
	<polygon style="fill:#DBDBDB;" points="423.208,124.883 417.856,130.523 389.488,102.155 395.128,96.803  "/>
	<polygon style="fill:#DBDBDB;" points="440.529,106.674 435.166,112.303 407.697,84.834 413.337,79.482  "/>
</g>
<g>
	
		<rect x="249.722" y="-8.604" transform="matrix(-0.7071 -0.7071 0.7071 -0.7071 254.066 600.4352)" style="fill:#F2F2F2;" width="3.331" height="512.406"/>
	
		<rect x="256.627" y="-1.69" transform="matrix(-0.7071 -0.7071 0.7071 -0.7071 260.9653 617.1209)" style="fill:#F2F2F2;" width="3.331" height="512.406"/>
	
		<rect x="263.533" y="5.213" transform="matrix(-0.7071 -0.7071 0.7071 -0.7071 267.8725 633.7877)" style="fill:#F2F2F2;" width="3.331" height="512.406"/>
	
		<rect x="270.438" y="12.116" transform="matrix(-0.7071 -0.7071 0.7071 -0.7071 274.7796 650.4545)" style="fill:#F2F2F2;" width="3.331" height="512.406"/>
</g>
<path style="fill:#DBDBDB;" d="M98.907,451.971l-2.942,3.842c-11.747-9.404-22.639-19.841-32.554-31.155l4.641-3.542l4.908,4.908  L98.907,451.971z"/>
<path style="fill:#EB305B;" d="M506.704,44.984c-3.864-5.552-7.706-11.159-10.404-15.1c-1.377-2.021-4.153-4.785-6.162-6.162  c-3.942-2.698-9.549-6.54-15.1-10.404c-3.164-2.198-6.717-1.821-7.961,0.799c-8.372,17.454-29.146,33.176-35.863,37.951  c-1.399,0.999-2.321,2.487-2.687,4.297l-1.432,7.095c-0.122,0.588-0.278,1.155-0.477,1.699c-0.255,0.744-0.588,1.443-0.988,2.099  l27.114,27.114c0.4-0.244,0.822-0.466,1.255-0.644c0.799-0.366,1.654-0.633,2.565-0.822l7.084-1.41  c1.821-0.366,3.309-1.299,4.308-2.698c4.774-6.717,20.496-27.491,37.951-35.852C508.514,51.691,508.902,48.149,506.704,44.984z   M449.478,63.76c-0.866,0.866-1.999,1.299-3.142,1.299c-1.133,0-2.265-0.433-3.131-1.299c-1.743-1.732-1.743-4.541,0-6.273  l28.035-28.035c1.732-1.743,4.541-1.743,6.273,0c1.732,1.732,1.732,4.541,0,6.273L449.478,63.76z M490.56,48.771l-28.035,28.035  c-0.866,0.866-1.999,1.299-3.142,1.299c-1.133,0-2.265-0.433-3.131-1.299c-1.743-1.732-1.743-4.541,0-6.273l28.035-28.035  c1.732-1.743,4.541-1.743,6.273,0C492.292,44.229,492.292,47.039,490.56,48.771z"/>
<g>
	<path style="fill:#E9E4D8;" d="M177.928,127.091c-4.491,0.315-8.977,0.695-13.459,1.103c-1.088,0.103-2.176,0.215-3.264,0.323   c1.573-2.072,3.153-4.138,4.721-6.214c6.421-8.585,12.782-17.22,19.001-25.973c6.257-8.722,12.331-17.593,18.325-26.532   c5.964-8.965,11.818-18.018,17.313-27.37c-8.17,7.136-15.98,14.57-23.681,22.094c-7.671,7.549-15.261,15.166-22.669,22.932   c-7.446,7.736-14.749,15.589-21.993,23.492c-7.207,7.933-14.38,15.895-21.421,23.966l-15.369,17.613l24.088-1.111   c4.501-0.208,8.995-0.497,13.487-0.812c4.491-0.322,8.976-0.702,13.458-1.117c1.136-0.11,2.271-0.228,3.405-0.341   c-1.166,1.548-2.339,3.089-3.501,4.64c-5.977,8.046-11.891,16.144-17.665,24.359c-5.814,8.182-11.445,16.515-16.996,24.914   c-5.522,8.424-10.937,16.936-15.994,25.745c7.717-6.604,15.075-13.506,22.327-20.495c7.224-7.014,14.365-14.094,21.326-21.326   c7.001-7.198,13.859-14.514,20.656-21.881c6.767-7.391,13.49-14.82,20.093-22.347l15.421-17.576l-24.12,1.11   C186.914,126.494,182.419,126.775,177.928,127.091z"/>
	<path style="fill:#E9E4D8;" d="M406.171,329.679c-4.087-1.89-8.2-3.72-12.323-5.524c-1.004-0.434-2.011-0.861-3.016-1.29   c2.377-1.057,4.758-2.104,7.132-3.168c9.765-4.425,19.502-8.923,29.169-13.591c9.686-4.623,19.286-9.467,28.848-14.407   c9.547-4.978,19.042-10.086,28.365-15.63c-10.598,2.312-21.025,5.059-31.4,7.937c-10.36,2.915-20.682,5.927-30.918,9.159   c-10.254,3.187-20.439,6.545-30.596,9.976c-10.139,3.475-20.262,6.992-30.323,10.667l-21.958,8.02l21.639,10.641   c4.044,1.989,8.12,3.902,12.207,5.791c4.089,1.883,8.202,3.713,12.329,5.51c1.048,0.452,2.099,0.895,3.148,1.343   c-1.768,0.794-3.539,1.578-5.305,2.377c-9.117,4.167-18.203,8.41-27.223,12.822c-9.038,4.365-17.989,8.949-26.903,13.631   c-8.899,4.718-17.748,9.563-26.426,14.842c9.945-2.065,19.719-4.563,29.443-7.189c9.71-2.661,19.382-5.421,28.966-8.4   c9.604-2.931,19.141-6.032,28.647-9.209c9.493-3.212,18.964-6.479,28.379-9.888l21.984-7.962l-21.667-10.658   C414.332,333.489,410.258,331.568,406.171,329.679z"/>
</g>
<g>
</g>
<g>
</g>
<g>
</g>
<g>
</g>
<g>
</g>
<g>
</g>
<g>
</g>
<g>
</g>
<g>
</g>
<g>
</g>
<g>
</g>
<g>
</g>
<g>
</g>
<g>
</g>
<g>
</g>
</svg>
