<svg enable-background="new 0 0 512 512" viewBox="0 0 512 512" xmlns="http://www.w3.org/2000/svg"><path d="m512 256c0 113.541-73.914 209.805-176.24 243.326-11.481 3.764-23.328 6.729-35.463 8.849-14.39 2.509-29.19 3.819-44.291 3.819-15.111 0-29.912-1.31-44.29-3.819-12.136-2.121-23.983-5.085-35.464-8.849-102.338-33.521-176.252-129.785-176.252-243.326s73.914-209.805 176.252-243.326c11.481-3.764 23.328-6.729 35.463-8.849 14.379-2.509 29.179-3.819 44.291-3.819 15.1 0 29.901 1.31 44.291 3.819 12.136 2.121 23.983 5.085 35.463 8.849 102.326 33.521 176.24 129.785 176.24 243.326z" fill="#42577f"/><g fill="#e6e6e6"><path d="m196.704 263.6h118.604v7.416h-118.604z"/><path d="m199.279 286.217h113.441v7.416h-113.441z"/><path d="m204.82 308.834h102.371v7.416h-102.371z"/><path d="m213.969 331.44h84.073v7.416h-84.073z"/><path d="m227.259 354.058h57.499v7.416h-57.499z"/><path d="m213.969 491.248h84.073v7.416h-84.073z"/><path d="m227.259 469.186h57.499v7.416h-57.499z"/><path d="m196.704 240.983h118.604v7.416h-118.604z"/><path d="m199.279 218.377h113.441v7.416h-113.441z"/><path d="m204.82 195.76h102.371v7.416h-102.371z"/><path d="m213.969 173.143h84.073v7.416h-84.073z"/><path d="m227.259 150.526h57.499v7.416h-57.499z"/><path d="m213.969 13.346h84.073v7.416h-84.073z"/><path d="m227.259 35.405h57.499v7.416h-57.499z"/></g><path d="m348.328 256c0 38.917-8.338 72.759-25.482 103.459-11.98 21.44-26.914 39.205-42.114 55.871-3.808 4.186-7.639 8.294-11.436 12.38-4.508 4.852-8.96 9.638-13.29 14.434-7.95 8.783-15.522 17.632-22.395 27.036-1.777 2.432-3.497 4.897-5.174 7.417-2.654 3.986-5.174 8.083-7.55 12.325-.433.766-.855 1.543-1.266 2.321-1.321 2.454-2.576 4.919-3.764 7.417-1.488 3.131-2.865 6.296-4.141 9.515-12.136-2.121-23.983-5.085-35.463-8.849 3.542-9.682 7.839-19.042 12.913-28.124 11.969-21.44 26.903-39.205 42.103-55.871 3.808-4.186 7.639-8.294 11.436-12.38 4.508-4.841 8.96-9.626 13.302-14.423 7.95-8.794 15.522-17.643 22.395-27.058 1.777-2.432 3.497-4.897 5.174-7.406 2.654-3.975 5.174-8.072 7.55-12.313.533-.955 1.055-1.921 1.566-2.887 1.321-2.454 2.554-4.93 3.72-7.417 2.343-4.974 4.408-10.026 6.196-15.2.855-2.443 1.643-4.919 2.376-7.417 1.454-4.941 2.665-10.004 3.653-15.2.477-2.443.888-4.908 1.255-7.417.733-4.93 1.266-9.993 1.61-15.2.167-2.432.289-4.908.366-7.406.078-2.498.122-5.041.122-7.606s-.044-5.096-.122-7.595c-.078-2.509-.2-4.974-.366-7.417-.344-5.207-.877-10.27-1.61-15.2-.366-2.509-.777-4.974-1.255-7.417-.988-5.196-2.198-10.259-3.653-15.2-.733-2.498-1.521-4.974-2.376-7.417-1.788-5.174-3.853-10.226-6.196-15.2-1.166-2.487-2.398-4.963-3.72-7.406-.511-.966-1.033-1.932-1.566-2.887-2.365-4.241-4.885-8.338-7.539-12.313-1.677-2.52-3.409-4.985-5.185-7.417-6.873-9.415-14.445-18.265-22.395-27.058-4.341-4.797-8.794-9.582-13.302-14.423-3.797-4.086-7.628-8.194-11.436-12.38-15.2-16.666-30.134-34.431-42.103-55.871-5.074-9.082-9.371-18.442-12.913-28.124 11.481-3.764 23.328-6.729 35.463-8.849 1.277 3.209 2.654 6.384 4.141 9.515 1.177 2.487 2.432 4.963 3.753 7.417.422.777.844 1.554 1.277 2.332 2.376 4.241 4.896 8.338 7.55 12.313 1.677 2.52 3.398 4.985 5.174 7.417 6.873 9.404 14.445 18.254 22.395 27.047 4.33 4.797 8.783 9.582 13.29 14.423 3.797 4.086 7.628 8.194 11.436 12.38 15.2 16.666 30.134 34.431 42.114 55.871 17.144 30.699 25.482 64.541 25.482 103.458z" fill="#eb305b"/><path d="m322.847 471.201c5.074 9.082 9.371 18.442 12.913 28.124-11.481 3.764-23.328 6.729-35.464 8.849-1.277-3.22-2.654-6.384-4.141-9.515-1.188-2.498-2.443-4.963-3.764-7.417-.411-.777-.833-1.554-1.266-2.321-2.376-4.241-4.897-8.338-7.55-12.325-1.677-2.52-3.409-4.985-5.185-7.417-6.873-9.404-14.434-18.254-22.384-27.036-4.341-4.797-8.794-9.582-13.302-14.434-3.797-4.086-7.628-8.194-11.436-12.38-15.2-16.666-30.134-34.431-42.103-55.871-17.154-30.7-25.482-64.543-25.482-103.459s8.327-72.759 25.482-103.459c11.969-21.44 26.903-39.205 42.103-55.871 3.808-4.186 7.639-8.294 11.436-12.38 4.508-4.841 8.96-9.626 13.302-14.423 7.95-8.794 15.522-17.643 22.384-27.047 1.788-2.432 3.509-4.896 5.185-7.417 2.654-3.975 5.174-8.072 7.55-12.313.433-.777.855-1.554 1.277-2.332 1.321-2.454 2.576-4.93 3.753-7.417 1.488-3.131 2.865-6.307 4.141-9.515 12.136 2.121 23.983 5.085 35.464 8.849-3.542 9.682-7.839 19.042-12.913 28.124-11.98 21.44-26.914 39.205-42.114 55.871-3.808 4.186-7.639 8.294-11.436 12.38-4.508 4.841-8.96 9.626-13.29 14.423-7.961 8.794-15.522 17.643-22.406 27.058-1.765 2.432-3.497 4.896-5.174 7.417-2.654 3.975-5.174 8.072-7.539 12.313-.533.955-1.055 1.921-1.566 2.887-1.321 2.443-2.554 4.919-3.72 7.406-2.343 4.974-4.408 10.026-6.196 15.2-.855 2.443-1.654 4.919-2.376 7.417-1.455 4.941-2.676 10.004-3.664 15.2-.477 2.443-.888 4.908-1.255 7.417-.733 4.93-1.266 9.993-1.61 15.2-.167 2.443-.289 4.908-.366 7.417-.078 2.498-.122 5.03-.122 7.595s.044 5.107.122 7.606c.078 2.498.2 4.974.366 7.406.344 5.207.877 10.27 1.61 15.2.366 2.509.777 4.974 1.255 7.417.988 5.196 2.21 10.259 3.664 15.2.722 2.498 1.521 4.974 2.376 7.417 1.788 5.174 3.853 10.226 6.196 15.2 1.166 2.487 2.398 4.963 3.72 7.417.511.966 1.033 1.932 1.566 2.887 2.376 4.241 4.896 8.339 7.55 12.313 1.665 2.509 3.398 4.974 5.163 7.406 6.873 9.415 14.445 18.265 22.406 27.058 4.33 4.797 8.783 9.582 13.29 14.423 3.797 4.086 7.628 8.194 11.436 12.38 15.199 16.667 30.133 34.432 42.114 55.872z" fill="#32aace"/></svg>