<?xml version="1.0" encoding="iso-8859-1"?>
<!-- Generator: Adobe Illustrator 19.0.0, SVG Export Plug-In . SVG Version: 6.00 Build 0)  -->
<svg xmlns="http://www.w3.org/2000/svg" xmlns:xlink="http://www.w3.org/1999/xlink" version="1.1" id="Layer_1" x="0px" y="0px" viewBox="0 0 512 512" style="enable-background:new 0 0 512 512;" xml:space="preserve">
<path style="fill:#E9E4D8;" d="M512,256c0,71.693-29.479,136.513-76.967,182.969c-11.136,10.903-23.272,20.796-36.241,29.523  c-40.793,27.469-89.924,43.502-142.787,43.502c-52.873,0-102.005-16.033-142.798-43.502c-12.98-8.727-25.104-18.62-36.241-29.523  C29.479,392.513,0,327.693,0,256C0,114.612,114.618,0.006,256.006,0.006C397.382,0.006,512,114.612,512,256z"/>
<path style="fill:#F0A037;" d="M285.074,79.571h-55.172c-19.786,0-35.885,16.1-35.885,35.897v41.459h126.942v-41.459  C320.959,95.67,304.859,79.571,285.074,79.571z M302.084,138.051h-89.192v-22.584c0-9.382,7.628-17.021,17.01-17.021h55.172  c9.382,0,17.01,7.639,17.01,17.021V138.051z"/>
<g>
	<path style="fill:#EB305B;" d="M394.956,69.767h-40.301c-3.997,0-7.237,3.24-7.237,7.237v147.632c0,3.997,3.24,7.237,7.237,7.237   h40.301c3.997,0,7.237-3.24,7.237-7.237V77.004C402.193,73.007,398.953,69.767,394.956,69.767z"/>
	<path style="fill:#EB305B;" d="M157.348,69.767h-40.301c-3.997,0-7.237,3.24-7.237,7.237v147.632c0,3.997,3.24,7.237,7.237,7.237   h40.301c3.997,0,7.237-3.24,7.237-7.237V77.004C164.587,73.007,161.346,69.767,157.348,69.767z"/>
</g>
<path style="fill:#32AACE;" d="M435.033,302.855v136.114c-11.136,10.903-23.272,20.796-36.241,29.523  c-40.793,27.469-89.924,43.502-142.787,43.502c-52.873,0-102.005-16.033-142.798-43.502c-12.98-8.727-25.104-18.62-36.241-29.523  V302.855c0-38.506,12.158-74.169,32.843-103.37c14.49-20.452,33.165-37.729,54.772-50.575c9.293-5.54,19.142-10.259,29.434-14.057  c6.14-2.265,12.436-4.208,18.875-5.796c13.812-3.42,28.246-5.23,43.114-5.23c15.933,0,31.378,2.076,46.078,5.996  c6.44,1.699,12.746,3.764,18.875,6.162c9.216,3.575,18.065,7.917,26.459,12.913c21.607,12.857,40.282,30.134,54.772,50.586  C422.875,228.686,435.033,264.35,435.033,302.855z"/>
<path style="fill:#2AA1BC;" d="M266.653,124.15c-11.07,0.655-21.851,2.321-32.288,4.908c-6.44,1.588-12.735,3.531-18.875,5.796  c-10.293,3.797-20.141,8.516-29.434,14.057c-21.607,12.846-40.282,30.123-54.772,50.575c-20.685,29.201-32.843,64.865-32.843,103.37  v154.911c-7.506-5.862-14.678-12.136-21.474-18.798V302.855c0-38.506,12.158-74.169,32.843-103.37  c14.49-20.452,33.165-37.729,54.772-50.575c9.293-5.54,19.142-10.259,29.434-14.057c6.14-2.265,12.436-4.208,18.875-5.796  c13.812-3.42,28.246-5.23,43.114-5.23C259.581,123.828,263.134,123.928,266.653,124.15z"/>
<path style="fill:#F0A037;" d="M398.792,308.251v160.241c-40.793,27.469-89.924,43.502-142.787,43.502  c-52.873,0-102.005-16.033-142.798-43.502V308.251c0-28.091,8.105-54.294,22.117-76.379c7.983-12.569,17.865-23.816,29.257-33.321  c24.76-20.663,56.637-33.087,91.423-33.087c34.775,0,66.652,12.424,91.412,33.087c11.392,9.504,21.274,20.752,29.246,33.321  C390.676,253.957,398.792,280.16,398.792,308.251z"/>
<path style="fill:#E09132;" d="M263.778,165.676c-31.744,1.71-60.745,13.768-83.651,32.876  c-11.392,9.504-21.274,20.752-29.257,33.321c-14.012,22.084-22.117,48.288-22.117,76.379v169.923  c-5.307-3.042-10.492-6.273-15.544-9.682V308.251c0-28.091,8.105-54.294,22.117-76.379c7.983-12.569,17.865-23.816,29.257-33.321  c24.76-20.663,56.637-33.087,91.423-33.087C258.615,165.465,261.202,165.543,263.778,165.676z"/>
<path style="fill:#EB305B;" d="M358.421,351.987v60.734c0,28.08-22.761,50.841-50.841,50.841H204.431  c-28.091,0-50.852-22.761-50.852-50.841v-60.734H358.421z"/>
<path style="fill:#DB2A58;" d="M358.421,351.987l-1.566,11.103c-5.585,22.018-25.526,38.306-49.276,38.306H204.431  c-23.761,0-43.702-16.288-49.287-38.306v-11.103"/>
<path style="fill:#EB305B;" d="M356.856,351.987c-5.585,22.018-25.526,38.306-49.276,38.306H204.431  c-23.761,0-43.702-16.288-49.287-38.306H356.856z"/>
<circle style="fill:#4D4D4D;" cx="255.994" cy="373.255" r="11.103"/>
<path style="fill:#DB2A58;" d="M286.691,265.575l-22.385-22.385c-4.587-4.587-12.023-4.587-16.608,0l-22.385,22.385  c-4.587,4.587-4.587,12.023,0,16.608l22.385,22.385c4.587,4.587,12.023,4.587,16.608,0l22.385-22.385  C291.278,277.598,291.278,270.162,286.691,265.575z"/>
<g>
	<path style="fill:#F0A037;" d="M246.378,258.335L246.378,258.335c-2.657,0-4.811,2.154-4.811,4.811v21.466   c0,2.657,2.154,4.811,4.811,4.811l0,0c2.657,0,4.811-2.154,4.811-4.811v-21.466C251.189,260.489,249.035,258.335,246.378,258.335z"/>
	<path style="fill:#F0A037;" d="M265.626,258.335L265.626,258.335c-2.657,0-4.811,2.154-4.811,4.811v21.466   c0,2.657,2.154,4.811,4.811,4.811l0,0c2.657,0,4.811-2.154,4.811-4.811v-21.466C270.437,260.489,268.283,258.335,265.626,258.335z"/>
</g>
<g>
</g>
<g>
</g>
<g>
</g>
<g>
</g>
<g>
</g>
<g>
</g>
<g>
</g>
<g>
</g>
<g>
</g>
<g>
</g>
<g>
</g>
<g>
</g>
<g>
</g>
<g>
</g>
<g>
</g>
</svg>
