<?xml version="1.0" encoding="iso-8859-1"?>
<!-- Generator: Adobe Illustrator 19.0.0, SVG Export Plug-In . SVG Version: 6.00 Build 0)  -->
<svg xmlns="http://www.w3.org/2000/svg" xmlns:xlink="http://www.w3.org/1999/xlink" version="1.1" id="Layer_1" x="0px" y="0px" viewBox="0 0 512 512" style="enable-background:new 0 0 512 512;" xml:space="preserve">
<path style="fill:#42577F;" d="M512,256c0,137.424-108.278,249.543-244.17,255.717c-0.922,0.044-1.843,0.078-2.776,0.111  c-2.998,0.111-6.018,0.167-9.049,0.167c-3.475,0-6.939-0.067-10.381-0.211c-0.922-0.033-1.854-0.078-2.776-0.122  C107.579,504.822,0,392.98,0,256C0,114.612,114.618,0.006,256.006,0.006C397.382,0.006,512,114.612,512,256z"/>
<path style="fill:#E9E4D8;" d="M267.83,462.819v48.898c-0.922,0.044-1.843,0.078-2.776,0.111c-2.998,0.111-6.018,0.167-9.049,0.167  c-3.475,0-6.939-0.067-10.381-0.211v-48.965H267.83z"/>
<g>
	
		<rect x="378.634" y="101.481" transform="matrix(-0.7069 -0.7073 0.7073 -0.7069 575.2147 484.8882)" style="fill:#F0A037;" width="18.875" height="43.568"/>
	
		<rect x="114.163" y="363.297" transform="matrix(-0.7071 -0.7071 0.7071 -0.7071 -63.1821 749.3321)" style="fill:#F0A037;" width="18.875" height="48.909"/>
</g>
<path style="fill:#CEC8BA;" d="M267.83,471.301v22.229c-3.675,0.189-7.384,0.278-11.103,0.278c-3.72,0-7.417-0.089-11.103-0.278  v-22.24c3.686,0.211,7.384,0.311,11.103,0.311C260.458,471.601,264.155,471.501,267.83,471.301z"/>
<path style="fill:#32AACE;" d="M428.182,299.902c-1.055,4.064-2.276,8.083-3.631,12.069c-7.861,23.05-20.596,44.79-38.217,63.632  c-1.377,1.477-2.787,2.942-4.23,4.386c-1.188,1.188-2.376,2.343-3.586,3.497c-18.709,17.698-40.338,30.545-63.288,38.55  c-3.964,1.377-7.961,2.609-12.003,3.697c-46.855,12.691-97.908,5.84-140.244-20.574c-7.706-4.808-15.134-10.27-22.184-16.377  c-3.231-2.798-6.384-5.729-9.449-8.794c-3.064-3.064-5.996-6.218-8.794-9.449c-6.107-7.051-11.569-14.479-16.377-22.184  c-26.414-42.336-33.276-93.389-20.585-140.255c1.088-4.03,2.321-8.039,3.697-12.003c8.005-22.939,20.863-44.568,38.561-63.288  c1.155-1.21,2.309-2.398,3.497-3.586c1.443-1.443,2.909-2.854,4.386-4.23c18.842-17.621,40.582-30.345,63.621-38.206  c3.986-1.355,8.016-2.576,12.08-3.631c47.599-12.535,99.395-4.952,141.909,22.739c6.984,4.53,13.701,9.615,20.119,15.245  c2.942,2.576,5.829,5.274,8.638,8.083c2.82,2.82,5.518,5.707,8.105,8.66c5.618,6.418,10.703,13.135,15.234,20.097  C433.134,200.506,440.718,252.303,428.182,299.902z"/>
<path style="fill:#299CB7;" d="M395.148,363.539c-1.239,1.329-2.509,2.649-3.808,3.948c-1.069,1.069-2.14,2.11-3.229,3.149  c-16.844,15.934-36.316,27.499-56.978,34.706c-3.569,1.239-7.167,2.349-10.806,3.329c-42.183,11.425-88.146,5.258-126.261-18.522  c-6.937-4.328-13.625-9.247-19.972-14.744c-2.909-2.519-5.748-5.159-8.506-7.917c-2.758-2.758-5.397-5.598-7.917-8.506  c-5.498-6.348-10.416-13.035-14.744-19.972c-23.781-38.115-29.959-84.076-18.533-126.271c0.979-3.629,2.09-7.237,3.329-10.806  c7.207-20.652,18.783-40.125,34.716-56.978c1.039-1.089,2.079-2.16,3.149-3.229c1.299-1.299,2.619-2.569,3.948-3.808  c16.963-15.864,36.536-27.319,57.278-34.396c3.589-1.219,7.217-2.319,10.876-3.269c42.853-11.285,89.485-4.458,127.76,20.472  c6.288,4.078,12.336,8.657,18.113,13.725c2.649,2.319,5.248,4.748,7.777,7.277c2.539,2.539,4.968,5.139,7.297,7.797  c2.156,2.463,4.206,4.984,6.186,7.541c-4.377-6.632-9.243-13.046-14.613-19.178c-2.587-2.953-5.285-5.84-8.105-8.66  c-2.809-2.809-5.696-5.507-8.638-8.083c-6.418-5.629-13.135-10.715-20.119-15.245c-42.514-27.691-94.31-35.275-141.909-22.739  c-4.064,1.055-8.094,2.276-12.08,3.631c-23.039,7.861-44.779,20.585-63.621,38.206c-1.477,1.377-2.942,2.787-4.386,4.23  c-1.188,1.188-2.343,2.376-3.497,3.586c-17.698,18.72-30.556,40.349-38.561,63.288c-1.377,3.964-2.609,7.972-3.697,12.003  c-12.691,46.866-5.829,97.919,20.585,140.255c4.808,7.706,10.27,15.134,16.377,22.184c2.798,3.231,5.729,6.384,8.794,9.449  c3.064,3.064,6.218,5.996,9.449,8.794c7.051,6.107,14.479,11.57,22.184,16.377c42.336,26.414,93.389,33.265,140.244,20.574  c4.042-1.088,8.039-2.321,12.003-3.697c22.95-8.005,44.579-20.852,63.288-38.55c1.21-1.155,2.398-2.309,3.586-3.497  c1.443-1.443,2.854-2.909,4.23-4.386c6.912-7.391,13.062-15.234,18.471-23.421C401.788,356.077,398.577,359.872,395.148,363.539z"/>
<path style="fill:#1D869E;" d="M393.796,265.515c6.207-13.479,10.848-27.147,13.768-40.715c5.341-24.871,4.53-47.633-2.121-66.819  c-1.821-2.798-3.742-5.563-5.751-8.283c-0.588-0.811-1.188-1.61-1.799-2.409c-0.611-0.799-1.232-1.599-1.854-2.387  c-1.865-2.376-3.808-4.719-5.829-7.017c-2.587-2.953-5.285-5.84-8.105-8.66c-2.809-2.809-5.696-5.507-8.638-8.083  c-6.418-5.629-13.135-10.715-20.119-15.245c-10.359-3.597-21.773-5.485-33.998-5.618c-10.393-0.111-21.374,1.044-32.799,3.497  c-13.579,2.92-27.247,7.561-40.726,13.768l-15.245-15.245l-19.142-19.142c-4.064,1.055-8.094,2.276-12.08,3.631l19.63,19.63  l16.311,16.311c-20.696,10.837-40.738,25.315-59.036,42.792l-40.527-40.527c-1.477,1.377-2.942,2.787-4.386,4.23  c-1.188,1.188-2.343,2.376-3.497,3.586l24.238,24.238l16.288,16.288c-17.565,18.143-32.188,38.051-43.214,58.636l-35.874-35.874  c-1.377,3.964-2.609,7.972-3.697,12.003l33.754,33.754l0.566,0.566c-0.244,0.522-0.489,1.044-0.733,1.566  c-6.318,13.601-11.014,27.414-13.968,41.126c-2.343,10.914-3.509,21.429-3.509,31.411c0,11.359,1.499,22.029,4.475,31.833  c4.808,7.706,10.27,15.134,16.377,22.184c2.798,3.231,5.729,6.384,8.794,9.449c3.064,3.064,6.218,5.996,9.449,8.794  c7.051,6.107,14.479,11.569,22.184,16.377c9.804,2.976,20.474,4.475,31.833,4.475c9.982,0,20.496-1.155,31.422-3.509  c0.378-0.078,0.755-0.167,1.133-0.255c13.857-3.064,27.825-7.928,41.559-14.434l34.298,34.298c4.042-1.088,8.039-2.321,12.003-3.697  l-10.048-10.048l-25.804-25.804c20.585-11.025,40.482-25.648,58.625-43.225l38.017,38.028l2.498,2.498  c1.21-1.155,2.398-2.309,3.586-3.497c1.443-1.443,2.854-2.909,4.23-4.386l-40.527-40.527c17.487-18.298,31.966-38.339,42.814-59.036  l35.93,35.93c1.355-3.986,2.576-8.005,3.631-12.069L393.796,265.515z M237.075,226.332c18.109-17.809,36.385-34.109,53.806-48.032  l42.159,42.159c-13.923,17.432-30.212,35.708-48.032,53.817L237.075,226.332z M277.168,282.137  c-18.032,17.832-36.252,34.164-53.662,48.177l-42.481-42.481c14.023-17.41,30.356-35.63,48.188-53.662L277.168,282.137z   M299.685,171.405c9.904-7.572,19.464-14.312,28.48-20.041c23.516-14.934,37.318-19.153,44.313-19.153c2.654,0,4.33,0.6,5.196,1.466  c0.056,0.056,0.111,0.111,0.155,0.167c2.953,3.442,2.398,17.454-17.854,49.331c-5.729,9.027-12.469,18.576-20.041,28.48  L299.685,171.405z M317.717,111.337c16.844,0,32.277,3.609,45.223,11.07c-10.67,2.598-24.283,9.138-40.726,19.586  c-9.626,6.118-19.852,13.346-30.434,21.507l-37.573-37.573C276.136,116.333,297.898,111.337,317.717,111.337z M243.537,130.967  l39.45,39.438c-17.465,14.012-35.708,30.301-53.761,48.077l-45.112-45.101C202.844,155.527,223.129,141.282,243.537,130.967z   M176.24,181.198l45.123,45.123c-17.787,17.987-34.131,36.174-48.232,53.617l-39.749-39.749  C144.041,219.515,158.564,199.452,176.24,181.198z M123.834,361.502c-11.203-19.464-13.99-45.079-7.761-74.058  c1.044-4.841,2.309-9.693,3.808-14.556c2.287-7.384,5.096-14.767,8.394-22.106l37.917,37.917  c-8.66,11.17-16.322,21.951-22.761,32.077c-2.043,3.209-3.931,6.318-5.663,9.316C130.573,342.427,125.932,352.919,123.834,361.502z   M135.27,376.392c-0.056-0.044-0.111-0.1-0.167-0.155c-0.056-0.056-0.111-0.111-0.155-0.167c-2.465-2.876-2.487-13.102,9.338-34.942  c2.354-4.33,5.163-9.127,8.516-14.401c6.051-9.515,13.213-19.619,21.307-30.112l40.615,40.615  c-10.481,8.094-20.596,15.267-30.112,21.307c-6.662,4.23-12.535,7.606-17.698,10.259  C147.339,378.879,138.001,378.734,135.27,376.392z M223.895,395.278c-5.452,1.177-10.792,2.021-15.989,2.554  c-22.406,2.321-42.259-1.232-58.058-10.326c7.261-1.777,15.866-5.363,25.815-10.77c4.674-2.543,9.649-5.485,14.9-8.827  c10.137-6.44,20.918-14.101,32.077-22.761l37.928,37.928C248.4,388.55,236.098,392.658,223.895,395.278z M271.161,377.968  l-39.76-39.76c17.443-14.101,35.641-30.445,53.617-48.232l45.123,45.134C311.888,352.775,291.835,367.298,271.161,377.968z   M337.958,327.227l-45.101-45.112c17.776-18.054,34.064-36.296,48.077-53.762l39.45,39.45  C369.913,288.588,355.534,308.807,337.958,327.227z M385.402,257.121l-37.551-37.551c8.15-10.581,15.378-20.807,21.496-30.434  c10.448-16.455,16.988-30.056,19.597-40.726c11.203,19.464,13.99,45.079,7.761,74.058  C394.229,234.005,390.432,245.619,385.402,257.121z"/>
<path style="fill:#E9E4D8;" d="M256.726,476.045c-71.208,0-137.271-33.802-178.958-90.988c-3.726-5.112-2.347-12.318,2.95-15.776  h0.001c4.973-3.247,11.583-1.976,15.086,2.82c37.519,51.375,96.911,81.738,160.921,81.738c109.856,0,199.231-89.375,199.231-199.231  c0-34.936-9.169-69.301-26.515-99.38c-15.07-26.132-36.003-48.621-60.923-65.553c-4.91-3.337-6.406-9.892-3.338-14.972l0,0  c3.273-5.418,10.434-7.047,15.672-3.494c27.748,18.823,51.052,43.843,67.825,72.926c19.289,33.447,29.486,71.649,29.486,110.474  C478.163,376.709,378.828,476.045,256.726,476.045z"/>
<g>
</g>
<g>
</g>
<g>
</g>
<g>
</g>
<g>
</g>
<g>
</g>
<g>
</g>
<g>
</g>
<g>
</g>
<g>
</g>
<g>
</g>
<g>
</g>
<g>
</g>
<g>
</g>
<g>
</g>
</svg>
