<svg enable-background="new 0 0 512 512" viewBox="0 0 512 512" xmlns="http://www.w3.org/2000/svg"><path d="m512 256c0 137.424-108.278 249.543-244.17 255.717-.922.044-1.843.078-2.776.111-2.998.111-6.018.167-9.049.167-3.475 0-6.939-.067-10.381-.211-.922-.033-1.854-.078-2.776-.122-135.269-6.84-242.848-118.682-242.848-255.662 0-141.388 114.618-255.994 256.006-255.994 141.376 0 255.994 114.606 255.994 255.994z" fill="#42577f"/><path d="m267.83 462.819v48.898c-.922.044-1.843.078-2.776.111-2.998.111-6.018.167-9.049.167-3.475 0-6.939-.067-10.381-.211v-48.965z" fill="#e9e4d8"/><path d="m378.634 101.481h18.875v43.568h-18.875z" fill="#f0a037" transform="matrix(-.7069 -.7073 .7073 -.7069 575.2147 484.8882)"/><path d="m114.163 363.297h18.875v48.909h-18.875z" fill="#f0a037" transform="matrix(-.7071 -.7071 .7071 -.7071 -63.1821 749.3321)"/><path d="m267.83 471.301v22.229c-3.675.189-7.384.278-11.103.278-3.72 0-7.417-.089-11.103-.278v-22.24c3.686.211 7.384.311 11.103.311 3.731 0 7.428-.1 11.103-.3z" fill="#cec8ba"/><path d="m428.182 299.902c-1.055 4.064-2.276 8.083-3.631 12.069-7.861 23.05-20.596 44.79-38.217 63.632-1.377 1.477-2.787 2.942-4.23 4.386-1.188 1.188-2.376 2.343-3.586 3.497-18.709 17.698-40.338 30.545-63.288 38.55-3.964 1.377-7.961 2.609-12.003 3.697-46.855 12.691-97.908 5.84-140.244-20.574-7.706-4.808-15.134-10.27-22.184-16.377-3.231-2.798-6.384-5.729-9.449-8.794-3.064-3.064-5.996-6.218-8.794-9.449-6.107-7.051-11.569-14.479-16.377-22.184-26.414-42.336-33.276-93.389-20.585-140.255 1.088-4.03 2.321-8.039 3.697-12.003 8.005-22.939 20.863-44.568 38.561-63.288 1.155-1.21 2.309-2.398 3.497-3.586 1.443-1.443 2.909-2.854 4.386-4.23 18.842-17.621 40.582-30.345 63.621-38.206 3.986-1.355 8.016-2.576 12.08-3.631 47.599-12.535 99.395-4.952 141.909 22.739 6.984 4.53 13.701 9.615 20.119 15.245 2.942 2.576 5.829 5.274 8.638 8.083 2.82 2.82 5.518 5.707 8.105 8.66 5.618 6.418 10.703 13.135 15.234 20.097 27.693 42.526 35.277 94.323 22.741 141.922z" fill="#32aace"/><path d="m395.148 363.539c-1.239 1.329-2.509 2.649-3.808 3.948-1.069 1.069-2.14 2.11-3.229 3.149-16.844 15.934-36.316 27.499-56.978 34.706-3.569 1.239-7.167 2.349-10.806 3.329-42.183 11.425-88.146 5.258-126.261-18.522-6.937-4.328-13.625-9.247-19.972-14.744-2.909-2.519-5.748-5.159-8.506-7.917s-5.397-5.598-7.917-8.506c-5.498-6.348-10.416-13.035-14.744-19.972-23.781-38.115-29.959-84.076-18.533-126.271.979-3.629 2.09-7.237 3.329-10.806 7.207-20.652 18.783-40.125 34.716-56.978 1.039-1.089 2.079-2.16 3.149-3.229 1.299-1.299 2.619-2.569 3.948-3.808 16.963-15.864 36.536-27.319 57.278-34.396 3.589-1.219 7.217-2.319 10.876-3.269 42.853-11.285 89.485-4.458 127.76 20.472 6.288 4.078 12.336 8.657 18.113 13.725 2.649 2.319 5.248 4.748 7.777 7.277 2.539 2.539 4.968 5.139 7.297 7.797 2.156 2.463 4.206 4.984 6.186 7.541-4.377-6.632-9.243-13.046-14.613-19.178-2.587-2.953-5.285-5.84-8.105-8.66-2.809-2.809-5.696-5.507-8.638-8.083-6.418-5.629-13.135-10.715-20.119-15.245-42.514-27.691-94.31-35.275-141.909-22.739-4.064 1.055-8.094 2.276-12.08 3.631-23.039 7.861-44.779 20.585-63.621 38.206-1.477 1.377-2.942 2.787-4.386 4.23-1.188 1.188-2.343 2.376-3.497 3.586-17.698 18.72-30.556 40.349-38.561 63.288-1.377 3.964-2.609 7.972-3.697 12.003-12.691 46.866-5.829 97.919 20.585 140.255 4.808 7.706 10.27 15.134 16.377 22.184 2.798 3.231 5.729 6.384 8.794 9.449 3.064 3.064 6.218 5.996 9.449 8.794 7.051 6.107 14.479 11.57 22.184 16.377 42.336 26.414 93.389 33.265 140.244 20.574 4.042-1.088 8.039-2.321 12.003-3.697 22.95-8.005 44.579-20.852 63.288-38.55 1.21-1.155 2.398-2.309 3.586-3.497 1.443-1.443 2.854-2.909 4.23-4.386 6.912-7.391 13.062-15.234 18.471-23.421-3.02 3.891-6.231 7.686-9.66 11.353z" fill="#299cb7"/><path d="m393.796 265.515c6.207-13.479 10.848-27.147 13.768-40.715 5.341-24.871 4.53-47.633-2.121-66.819-1.821-2.798-3.742-5.563-5.751-8.283-.588-.811-1.188-1.61-1.799-2.409s-1.232-1.599-1.854-2.387c-1.865-2.376-3.808-4.719-5.829-7.017-2.587-2.953-5.285-5.84-8.105-8.66-2.809-2.809-5.696-5.507-8.638-8.083-6.418-5.629-13.135-10.715-20.119-15.245-10.359-3.597-21.773-5.485-33.998-5.618-10.393-.111-21.374 1.044-32.799 3.497-13.579 2.92-27.247 7.561-40.726 13.768l-15.245-15.245-19.142-19.142c-4.064 1.055-8.094 2.276-12.08 3.631l19.63 19.63 16.311 16.311c-20.696 10.837-40.738 25.315-59.036 42.792l-40.527-40.527c-1.477 1.377-2.942 2.787-4.386 4.23-1.188 1.188-2.343 2.376-3.497 3.586l24.238 24.238 16.288 16.288c-17.565 18.143-32.188 38.051-43.214 58.636l-35.874-35.874c-1.377 3.964-2.609 7.972-3.697 12.003l33.754 33.754.566.566c-.244.522-.489 1.044-.733 1.566-6.318 13.601-11.014 27.414-13.968 41.126-2.343 10.914-3.509 21.429-3.509 31.411 0 11.359 1.499 22.029 4.475 31.833 4.808 7.706 10.27 15.134 16.377 22.184 2.798 3.231 5.729 6.384 8.794 9.449 3.064 3.064 6.218 5.996 9.449 8.794 7.051 6.107 14.479 11.569 22.184 16.377 9.804 2.976 20.474 4.475 31.833 4.475 9.982 0 20.496-1.155 31.422-3.509.378-.078.755-.167 1.133-.255 13.857-3.064 27.825-7.928 41.559-14.434l34.298 34.298c4.042-1.088 8.039-2.321 12.003-3.697l-10.048-10.048-25.804-25.804c20.585-11.025 40.482-25.648 58.625-43.225l38.017 38.028 2.498 2.498c1.21-1.155 2.398-2.309 3.586-3.497 1.443-1.443 2.854-2.909 4.23-4.386l-40.527-40.527c17.487-18.298 31.966-38.339 42.814-59.036l35.93 35.93c1.355-3.986 2.576-8.005 3.631-12.069zm-156.721-39.183c18.109-17.809 36.385-34.109 53.806-48.032l42.159 42.159c-13.923 17.432-30.212 35.708-48.032 53.817zm40.093 55.805c-18.032 17.832-36.252 34.164-53.662 48.177l-42.481-42.481c14.023-17.41 30.356-35.63 48.188-53.662zm22.517-110.732c9.904-7.572 19.464-14.312 28.48-20.041 23.516-14.934 37.318-19.153 44.313-19.153 2.654 0 4.33.6 5.196 1.466.056.056.111.111.155.167 2.953 3.442 2.398 17.454-17.854 49.331-5.729 9.027-12.469 18.576-20.041 28.48zm18.032-60.068c16.844 0 32.277 3.609 45.223 11.07-10.67 2.598-24.283 9.138-40.726 19.586-9.626 6.118-19.852 13.346-30.434 21.507l-37.573-37.573c21.929-9.594 43.691-14.59 63.51-14.59zm-74.18 19.63 39.45 39.438c-17.465 14.012-35.708 30.301-53.761 48.077l-45.112-45.101c18.73-17.854 39.015-32.099 59.423-42.414zm-67.297 50.231 45.123 45.123c-17.787 17.987-34.131 36.174-48.232 53.617l-39.749-39.749c10.659-20.674 25.182-40.737 42.858-58.991zm-52.406 180.304c-11.203-19.464-13.99-45.079-7.761-74.058 1.044-4.841 2.309-9.693 3.808-14.556 2.287-7.384 5.096-14.767 8.394-22.106l37.917 37.917c-8.66 11.17-16.322 21.951-22.761 32.077-2.043 3.209-3.931 6.318-5.663 9.316-7.195 12.335-11.836 22.827-13.934 31.41zm11.436 14.89c-.056-.044-.111-.1-.167-.155-.056-.056-.111-.111-.155-.167-2.465-2.876-2.487-13.102 9.338-34.942 2.354-4.33 5.163-9.127 8.516-14.401 6.051-9.515 13.213-19.619 21.307-30.112l40.615 40.615c-10.481 8.094-20.596 15.267-30.112 21.307-6.662 4.23-12.535 7.606-17.698 10.259-19.575 10.083-28.913 9.938-31.644 7.596zm88.625 18.886c-5.452 1.177-10.792 2.021-15.989 2.554-22.406 2.321-42.259-1.232-58.058-10.326 7.261-1.777 15.866-5.363 25.815-10.77 4.674-2.543 9.649-5.485 14.9-8.827 10.137-6.44 20.918-14.101 32.077-22.761l37.928 37.928c-12.168 5.474-24.47 9.582-36.673 12.202zm47.266-17.31-39.76-39.76c17.443-14.101 35.641-30.445 53.617-48.232l45.123 45.134c-18.253 17.665-38.306 32.188-58.98 42.858zm66.797-50.741-45.101-45.112c17.776-18.054 34.064-36.296 48.077-53.762l39.45 39.45c-10.471 20.785-24.85 41.004-42.426 59.424zm47.444-70.106-37.551-37.551c8.15-10.581 15.378-20.807 21.496-30.434 10.448-16.455 16.988-30.056 19.597-40.726 11.203 19.464 13.99 45.079 7.761 74.058-2.476 11.537-6.273 23.151-11.303 34.653z" fill="#1d869e"/><path d="m256.726 476.045c-71.208 0-137.271-33.802-178.958-90.988-3.726-5.112-2.347-12.318 2.95-15.776h.001c4.973-3.247 11.583-1.976 15.086 2.82 37.519 51.375 96.911 81.738 160.921 81.738 109.856 0 199.231-89.375 199.231-199.231 0-34.936-9.169-69.301-26.515-99.38-15.07-26.132-36.003-48.621-60.923-65.553-4.91-3.337-6.406-9.892-3.338-14.972 3.273-5.418 10.434-7.047 15.672-3.494 27.748 18.823 51.052 43.843 67.825 72.926 19.289 33.447 29.486 71.649 29.486 110.474-.001 122.1-99.336 221.436-221.438 221.436z" fill="#e9e4d8"/></svg>