<?xml version="1.0" encoding="iso-8859-1"?>
<!-- Generator: Adobe Illustrator 19.0.0, SVG Export Plug-In . SVG Version: 6.00 Build 0)  -->
<svg xmlns="http://www.w3.org/2000/svg" xmlns:xlink="http://www.w3.org/1999/xlink" version="1.1" id="Layer_1" x="0px" y="0px" viewBox="0 0 512 512" style="enable-background:new 0 0 512 512;" xml:space="preserve">
<path style="fill:#E9E4D8;" d="M511.051,256.955c0,82.534-39.204,155.908-100.012,202.501c-1.394,1.073-2.799,2.135-4.215,3.175  c-37.124,27.279-81.881,44.735-130.476,48.573c-1.571,0.122-3.142,0.232-4.723,0.332c-0.83,0.044-1.648,0.089-2.478,0.133  c-0.951,0.055-1.903,0.1-2.865,0.133c-0.796,0.022-1.582,0.055-2.367,0.077c-2.633,0.077-5.266,0.122-7.909,0.122  c-4.137,0-8.263-0.1-12.356-0.288c-27.81-1.339-54.458-7.113-79.237-16.659c-0.83-0.321-1.659-0.642-2.478-0.973  c-20.564-8.153-39.823-18.916-57.345-31.881c-1.427-1.051-2.843-2.124-4.237-3.208C39.898,412.387,0.949,339.223,0.949,256.955  c0-87.987,44.547-165.554,112.324-211.395c4.801-3.252,9.735-6.35,14.768-9.27c11.261-6.549,23.064-12.257,35.332-17.035  C192.089,8.06,223.328,1.909,256.006,1.909c29.447,0,57.733,4.989,84.049,14.181c4.082,1.416,8.108,2.942,12.091,4.569  c6.327,2.577,12.522,5.398,18.584,8.462C453.971,71.102,511.051,157.364,511.051,256.955z"/>
<path style="fill:#CCCCCC;" d="M422.411,336.17l-0.155,1.67c0,0.011,0,0.011,0,0.022l-11.217,121.593  c-1.394,1.073-2.799,2.135-4.215,3.175c-37.124,27.279-81.881,44.735-130.476,48.573c-1.571,0.122-3.142,0.232-4.723,0.332  c-0.83,0.044-1.648,0.089-2.478,0.133c-0.951,0.055-1.903,0.1-2.865,0.133c-0.796,0.022-1.582,0.055-2.367,0.077  c-2.633,0.077-5.266,0.122-7.909,0.122c-4.137,0-8.263-0.1-12.356-0.288c-27.81-1.339-54.458-7.113-79.237-16.659  c-0.83-0.321-1.659-0.642-2.478-0.973c-20.564-8.153-39.823-18.916-57.345-31.881c-1.427-1.051-2.843-2.124-4.237-3.208  l-10.62-121.173c0-0.011,0-0.011,0-0.022v-0.033L89.6,336.17L422.411,336.17L422.411,336.17z"/>
<path style="fill:#B3B3B3;" d="M161.934,494.08c-20.564-8.153-39.823-18.916-57.345-31.881c-1.427-1.051-2.843-2.124-4.237-3.208  l-10.62-121.173v-0.055L89.6,336.17h65.299l1.394,31.372v0.011L161.934,494.08z"/>
<ellipse style="fill:#999999;" cx="256.008" cy="336.174" rx="166.406" ry="39.189"/>
<rect x="340.057" style="fill:#F4CB77;" width="30.669" height="54.27"/>
<rect x="340.057" style="fill:#E0B76E;" width="12.086" height="54.27"/>
<path style="fill:#F4CB77;" d="M399.69,237.406c-2.544,0-4.861-1.722-5.506-4.303c-6.944-27.778-8.987-56.302-6.07-84.78  l7.582-74.078c0.582-5.69-1.208-11.163-5.042-15.408c-3.833-4.246-9.094-6.584-14.814-6.584c-3.137,0-5.679-2.543-5.679-5.679  c0-3.136,2.542-5.679,5.679-5.679c8.845,0,17.319,3.766,23.246,10.331c5.928,6.565,8.811,15.377,7.909,24.177l-7.582,74.078  c-2.781,27.164-0.833,54.372,5.791,80.869c0.761,3.043-1.09,6.126-4.132,6.887C400.609,237.351,400.146,237.406,399.69,237.406z"/>
<path style="fill:#F0A037;" d="M381.519,37.488V361.89c-4.59,1.249-9.508,2.43-14.721,3.51c-6.815,1.442-14.131,2.749-21.877,3.896  c-5.043,0.761-10.269,1.454-15.653,2.079V37.488H381.519z"/>
<path style="fill:#DB8D2E;" d="M344.921,37.488v331.808c-5.043,0.761-10.269,1.454-15.653,2.079V37.488H344.921z"/>
<path style="fill:#F4CB77;" d="M381.519,354.04v7.85c-4.59,1.249-9.508,2.43-14.721,3.51h-37.53v-11.36H381.519z"/>
<path style="fill:#8CA1BF;" d="M204.161,121.512c3.137,0,5.679-2.543,5.679-5.679V72.925c0-3.136-2.542-5.679-5.679-5.679  s-5.679,2.543-5.679,5.679v42.906C198.481,118.968,201.024,121.512,204.161,121.512z"/>
<path style="fill:#A35895;" d="M230.285,139.353v235.542c-12.733-0.466-24.99-1.272-36.588-2.374  c-5.373-0.511-10.598-1.091-15.664-1.716V139.353c0-19.344,7.372-37.86,20.446-51.854c1.783-1.919,3.68-3.749,5.679-5.487  l1.716,1.544c0.306,0.273,0.602,0.556,0.897,0.852c0.431,0.397,0.852,0.806,1.261,1.227l0.25,0.261  c0.534,0.511,1.045,1.056,1.556,1.602C222.912,101.494,230.285,120.009,230.285,139.353z"/>
<g>
	<path style="fill:#915088;" d="M211.985,89.931c-0.738,0.863-1.454,1.727-2.147,2.624c-4.805,6.156-8.644,12.995-11.36,20.276   c-3.124,8.395-4.782,17.368-4.782,26.523v233.168c-5.373-0.511-10.598-1.091-15.664-1.716V139.353   c0-19.344,7.372-37.86,20.446-51.854c1.783-1.919,3.68-3.749,5.679-5.487l1.716,1.544c0.306,0.273,0.602,0.556,0.897,0.852   c0.431,0.397,0.852,0.806,1.261,1.227l0.25,0.261c0.534,0.534,1.056,1.08,1.556,1.636   C210.577,88.318,211.293,89.112,211.985,89.931z"/>
	<rect x="178.032" y="193.33" style="fill:#915088;" width="52.246" height="11.36"/>
	<rect x="178.032" y="211.793" style="fill:#915088;" width="52.246" height="11.36"/>
	<rect x="178.032" y="230.244" style="fill:#915088;" width="52.246" height="11.36"/>
	<rect x="178.032" y="248.707" style="fill:#915088;" width="52.246" height="11.36"/>
	<rect x="178.032" y="267.169" style="fill:#915088;" width="52.246" height="11.36"/>
</g>
<path style="fill:#F45881;" d="M306.55,103.809V373.52c-4.771,0.364-9.644,0.67-14.596,0.92V103.809H306.55z"/>
<g>
	<polygon style="fill:#B3B3B3;" points="291.954,103.809 268.895,103.809 254.298,103.809 254.298,86.77 306.55,86.77    306.55,103.809  "/>
	<rect x="254.293" y="69.735" style="fill:#B3B3B3;" width="52.246" height="17.039"/>
</g>
<path style="fill:#8CA1BF;" d="M306.55,42.255v27.478h-52.251V42.255c0-8.042,6.52-14.551,14.551-14.551h23.149  C300.03,27.704,306.55,34.213,306.55,42.255z"/>
<path style="fill:#7289A3;" d="M283.616,27.704H268.85c-8.031,0-14.551,6.509-14.551,14.551v27.478h14.767V42.255  C269.065,34.213,275.585,27.704,283.616,27.704z"/>
<path style="fill:#EB305B;" d="M291.954,103.809v270.632c-7.509,0.397-15.21,0.659-23.059,0.806V103.809H291.954z"/>
<path style="fill:#D82B59;" d="M268.894,103.809v271.438c-4.248,0.08-8.553,0.114-12.893,0.114h-1.704V103.809H268.894z"/>
<g>
	<path style="fill:#999999;" d="M306.55,108.921h-52.251c-2.823,0-5.112-2.289-5.112-5.112s2.289-5.112,5.112-5.112h52.251   c2.823,0,5.112,2.289,5.112,5.112S309.373,108.921,306.55,108.921z"/>
	<path style="fill:#999999;" d="M306.55,91.882h-52.251c-2.823,0-5.112-2.289-5.112-5.112c0-2.823,2.289-5.112,5.112-5.112h52.251   c2.823,0,5.112,2.289,5.112,5.112C311.662,89.593,309.373,91.882,306.55,91.882z"/>
	<path style="fill:#999999;" d="M306.55,74.843h-52.251c-2.823,0-5.112-2.289-5.112-5.112c0-2.823,2.289-5.112,5.112-5.112h52.251   c2.823,0,5.112,2.289,5.112,5.112C311.662,72.555,309.373,74.843,306.55,74.843z"/>
</g>
<path style="fill:#75D8B4;" d="M165.527,88.424v280.633c-5.066-0.761-9.939-1.602-14.596-2.499V88.424H165.527z"/>
<g>
	<polygon style="fill:#B3B3B3;" points="150.93,88.424 127.871,88.424 113.275,88.424 113.275,71.385 165.527,71.385    165.527,88.424  "/>
	<rect x="113.275" y="54.348" style="fill:#B3B3B3;" width="52.246" height="17.039"/>
</g>
<path style="fill:#EB305B;" d="M165.527,26.87v27.478h-52.252V26.87c0-8.042,6.52-14.551,14.551-14.551h23.149  C159.006,12.319,165.527,18.826,165.527,26.87z"/>
<path style="fill:#D82B59;" d="M142.592,12.319h-14.767c-8.031,0-14.551,6.509-14.551,14.551v27.478h14.767V26.87  C128.041,18.826,134.561,12.319,142.592,12.319z"/>
<path style="fill:#55C6A1;" d="M150.93,88.424v278.134c-8.406-1.613-16.13-3.419-23.059-5.384V88.424H150.93z"/>
<path style="fill:#48AF8A;" d="M127.871,88.424v272.75c-5.362-1.522-10.246-3.135-14.596-4.839V88.424H127.871z"/>
<g>
	<path style="fill:#999999;" d="M165.527,93.536h-52.252c-2.823,0-5.112-2.289-5.112-5.112c0-2.823,2.289-5.112,5.112-5.112h52.251   c2.823,0,5.112,2.289,5.112,5.112C170.638,91.247,168.35,93.536,165.527,93.536z"/>
	<path style="fill:#999999;" d="M165.527,76.497h-52.252c-2.823,0-5.112-2.289-5.112-5.112c0-2.823,2.289-5.112,5.112-5.112h52.251   c2.823,0,5.112,2.289,5.112,5.112C170.638,74.208,168.35,76.497,165.527,76.497z"/>
	<path style="fill:#999999;" d="M165.527,59.458h-52.252c-2.823,0-5.112-2.289-5.112-5.112c0-2.823,2.289-5.112,5.112-5.112h52.251   c2.823,0,5.112,2.289,5.112,5.112C170.638,57.169,168.35,59.458,165.527,59.458z"/>
</g>
<g>
</g>
<g>
</g>
<g>
</g>
<g>
</g>
<g>
</g>
<g>
</g>
<g>
</g>
<g>
</g>
<g>
</g>
<g>
</g>
<g>
</g>
<g>
</g>
<g>
</g>
<g>
</g>
<g>
</g>
</svg>
