<?xml version="1.0" encoding="iso-8859-1"?>
<!-- Generator: Adobe Illustrator 19.0.0, SVG Export Plug-In . SVG Version: 6.00 Build 0)  -->
<svg xmlns="http://www.w3.org/2000/svg" xmlns:xlink="http://www.w3.org/1999/xlink" version="1.1" id="Layer_1" x="0px" y="0px" viewBox="0 0 512 512" style="enable-background:new 0 0 512 512;" xml:space="preserve">
<path style="fill:#8CA1BF;" d="M512,256c0,2.987-0.056,5.962-0.155,8.916c-0.355,10.504-1.355,20.852-2.942,30.989  c-0.666,4.286-1.443,8.538-2.321,12.746c-2.154,10.315-4.93,20.397-8.294,30.212c-1.432,4.186-2.965,8.327-4.608,12.413  c-4.153,10.348-8.96,20.363-14.367,29.979c-2.409,4.286-4.941,8.494-7.583,12.624c-7.095,11.092-15.034,21.596-23.705,31.422  c-0.344,0.389-0.688,0.788-1.044,1.177c-3.042,3.409-6.184,6.74-9.415,9.982c-0.089,0.1-0.189,0.2-0.3,0.3  c-1.721,1.732-3.464,3.442-5.241,5.107c-2.731,2.598-5.518,5.13-8.372,7.595c-4.197,3.642-8.516,7.15-12.946,10.504  c-10.603,8.061-21.851,15.311-33.654,21.651c-14.734,7.928-30.323,14.445-46.611,19.375c-6.429,1.965-12.968,3.664-19.597,5.107  c-2.787,0.611-5.596,1.177-8.427,1.699c-15.056,2.754-30.567,4.197-46.411,4.197c-15.134,0-29.967-1.31-44.379-3.831  c-13.957-2.443-27.514-6.007-40.593-10.615c-3.997-1.399-7.939-2.898-11.836-4.497c-9.904-4.042-19.486-8.694-28.713-13.89  c-3.298-1.865-6.551-3.786-9.76-5.785c-2.876-1.799-5.707-3.642-8.505-5.552c-3.697-2.509-7.328-5.119-10.881-7.828  c-3.675-2.787-7.284-5.674-10.803-8.66C35.153,404.383,0,334.299,0,256C0,114.612,114.618,0.006,256.006,0.006  c8.283,0,16.466,0.389,24.538,1.166c73.325,6.973,137.635,44.868,179.727,100.517c13.835,18.265,25.26,38.45,33.831,60.079  c5.696,14.379,10.126,29.412,13.146,44.934c0.877,4.43,1.621,8.905,2.254,13.402c1.466,10.404,2.298,21.007,2.465,31.766  C511.989,253.246,512,254.623,512,256z"/>
<g>
	<path style="fill:#E09132;" d="M302.417,507.797c-15.056,2.754-30.567,4.197-46.411,4.197c-15.134,0-29.967-1.31-44.379-3.831   c-13.957-2.443-27.514-6.007-40.593-10.615c-3.997-1.399-7.939-2.898-11.836-4.497c-9.904-4.042-19.486-8.694-28.713-13.89   c-3.298-1.865-6.551-3.786-9.76-5.785c-2.876-1.799-5.707-3.642-8.505-5.552c-3.697-2.509-7.328-5.119-10.881-7.828   c-4.13-9.937-7.75-20.163-10.803-30.611V234.338h21.684l51.008,73.325l0.011,0.011l8.25,11.88l0.011,0.011l19.864,28.557   l8.261,11.88l19.864,28.546v0.011l8.272,11.88l17.277,24.86l2.587,3.697v0.011l5.185,7.45l3.087,4.43v0.011l17.587,25.282   l2.742,3.942l0.011,0.011l8.805,12.669v0.011L302.417,507.797z"/>
	<path style="fill:#E09132;" d="M423.652,449.461c-4.197,3.642-8.516,7.15-12.946,10.504c-10.603,8.061-21.851,15.311-33.654,21.651   c-14.734,7.928-30.323,14.445-46.611,19.375v-72.937c0-0.178,0-0.366,0.022-0.544c0.033-0.766,0.155-1.51,0.366-2.21   c1.199-4.275,5.119-7.395,9.76-7.395h72.903c4.641,0,8.583,3.12,9.771,7.395c0.211,0.7,0.333,1.443,0.366,2.21   c0.022,0.178,0.022,0.366,0.022,0.544L423.652,449.461L423.652,449.461z"/>
</g>
<g>
	<path style="fill:#F0A037;" d="M310.844,506.099c-2.787,0.611-5.596,1.177-8.427,1.699c-15.056,2.754-30.567,4.197-46.411,4.197   c-15.134,0-29.967-1.31-44.379-3.831c-13.957-2.443-27.514-6.007-40.593-10.615c-3.997-1.399-7.939-2.898-11.836-4.497   c-9.904-4.042-19.486-8.694-28.713-13.89c-3.298-1.865-6.551-3.786-9.76-5.785c-2.876-1.799-5.707-3.642-8.505-5.552   c-3.697-2.509-7.328-5.119-10.881-7.828c-3.675-2.787-7.284-5.674-10.803-8.66V220.525h21.684l59.746,85.883l0.011,0.011   l8.25,11.88l0.011,0.011l19.852,28.557l8.272,11.88l19.852,28.546l0.011,0.011l8.261,11.88v0.011l18.154,26.104l1.71,2.454   l6.062,8.705l2.232,3.209v0.011l15.356,22.084l5.64,8.105l9.116,13.113l0.011,0.011L310.844,506.099z"/>
	<path style="fill:#F0A037;" d="M423.652,449.461c-4.197,3.642-8.516,7.15-12.946,10.504c-10.603,8.061-21.851,15.311-33.654,21.651   c-14.734,7.928-30.323,14.445-46.611,19.375v-86.738c0-5.618,4.552-10.159,10.148-10.159h72.903   c5.596,0,10.159,4.541,10.159,10.159V449.461z"/>
</g>
<path style="fill:#E09132;" d="M437.265,436.759c-1.721,1.732-3.464,3.442-5.241,5.107c-2.731,2.598-5.518,5.13-8.372,7.595  c-4.197,3.642-8.516,7.15-12.946,10.504c-10.603,8.061-21.851,15.311-33.654,21.651c-14.734,7.928-30.323,14.445-46.611,19.375  c-6.429,1.965-12.968,3.664-19.597,5.107c-2.787,0.611-5.596,1.177-8.427,1.699c-15.056,2.754-30.567,4.197-46.411,4.197  c-15.134,0-29.967-1.31-44.379-3.831l30.711-20.841l24.183-16.41l6.962-4.73l6.518-4.419l31.899-21.651l5.374-3.653l9.937-6.751  l3.231-2.187l0.022-0.011l3.253-2.21l10.892-7.395l20.363-13.812l12.08-8.194l12.069,8.194l20.363,13.812l1.221,0.833l9.671,6.562  l3.253,2.21l0.022,0.011l3.231,2.187l9.937,6.751L437.265,436.759z"/>
<path style="fill:#C1BCB4;" d="M437.564,436.46c-0.089,0.1-0.189,0.2-0.3,0.3c-1.721,1.732-3.464,3.442-5.241,5.107  c-2.731,2.598-5.518,5.13-8.372,7.595c-4.197,3.642-8.516,7.15-12.946,10.504c-10.603,8.061-21.851,15.311-33.654,21.651  c-14.734,7.928-30.323,14.445-46.611,19.375c-6.429,1.965-12.968,3.664-19.597,5.107c-2.787,0.611-5.596,1.177-8.427,1.699  c-15.056,2.754-30.567,4.197-46.411,4.197c-15.134,0-29.967-1.31-44.379-3.831c-13.957-2.443-27.514-6.007-40.593-10.615  c-3.997-1.399-7.939-2.898-11.836-4.497c-9.904-4.042-19.486-8.694-28.713-13.89V436.46H437.564z"/>
<path style="fill:#D3CEC2;" d="M448.024,425.301c-0.344,0.389-0.688,0.788-1.044,1.177c-3.042,3.409-6.184,6.74-9.415,9.982  c-0.089,0.1-0.189,0.2-0.3,0.3c-1.721,1.732-3.464,3.442-5.241,5.107c-2.731,2.598-5.518,5.13-8.372,7.595  c-4.197,3.642-8.516,7.15-12.946,10.504c-10.603,8.061-21.851,15.311-33.654,21.651c-14.734,7.928-30.323,14.445-46.611,19.375  c-6.429,1.965-12.968,3.664-19.597,5.107c-2.787,0.611-5.596,1.177-8.427,1.699c-15.056,2.754-30.567,4.197-46.411,4.197  c-15.134,0-29.967-1.31-44.379-3.831c-13.957-2.443-27.514-6.007-40.593-10.615c-3.997-1.399-7.939-2.898-11.836-4.497  c-9.904-4.042-19.486-8.694-28.713-13.89c-3.298-1.865-6.551-3.786-9.76-5.785v-48.077H448.024z"/>
<path style="fill:#E9E4D8;" d="M512,256c0,2.987-0.056,5.962-0.155,8.916c-0.355,10.504-1.355,20.852-2.942,30.989  c-0.666,4.286-1.443,8.538-2.321,12.746c-2.154,10.315-4.93,20.397-8.294,30.212c-1.432,4.186-2.965,8.327-4.608,12.413  c-4.153,10.348-8.96,20.363-14.367,29.979c-2.409,4.286-4.941,8.494-7.583,12.624c-7.095,11.092-15.034,21.596-23.705,31.422  c-0.344,0.389-0.688,0.788-1.044,1.177c-3.042,3.409-6.184,6.74-9.415,9.982c-0.089,0.1-0.189,0.2-0.3,0.3  c-1.721,1.732-3.464,3.442-5.241,5.107c-2.731,2.598-5.518,5.13-8.372,7.595c-4.197,3.642-8.516,7.15-12.946,10.504  c-10.603,8.061-21.851,15.311-33.654,21.651c-14.734,7.928-30.323,14.445-46.611,19.375c-6.429,1.965-12.968,3.664-19.597,5.107  c-2.787,0.611-5.596,1.177-8.427,1.699c-15.056,2.754-30.567,4.197-46.411,4.197c-15.134,0-29.967-1.31-44.379-3.831  c-13.957-2.443-27.514-6.007-40.593-10.615c-3.997-1.399-7.939-2.898-11.836-4.497c-9.904-4.042-19.486-8.694-28.713-13.89  c-3.298-1.865-6.551-3.786-9.76-5.785c-2.876-1.799-5.707-3.642-8.505-5.552V183.008l15.933-2.298l132.55-19.042  c40.071-5.751,80.92,1.743,116.35,21.34c10.77-5.973,22.04-10.814,33.654-14.49c26.537-8.438,54.794-10.859,82.674-6.851l0.722,0.1  c5.696,14.379,10.126,29.412,13.146,44.934c0.877,4.43,1.621,8.905,2.254,13.402c1.466,10.404,2.298,21.007,2.465,31.766  C511.989,253.246,512,254.623,512,256z"/>
<path style="fill:#E2DED3;" d="M410.706,168.518v291.447c-10.603,8.061-21.851,15.311-33.654,21.651V183.008  C387.822,177.034,399.092,172.193,410.706,168.518z"/>
<path style="fill:#D6D2C8;" d="M202.388,289.554c0,0-62.267,22.14-90.169,71.815V244.097l48.299-30.734L202.388,289.554z"/>
<g>
	<path style="fill:#1E3160;" d="M331.674,208.314v13.346c-14.705-3.832-29.839-5.76-45.049-5.76c-8.531,0-17.113,0.622-25.488,1.825   l-101.941,14.641v-13.074l100.089-14.382c8.984-1.295,18.188-1.954,27.339-1.954C301.809,202.955,316.942,204.767,331.674,208.314z   "/>
	<path style="fill:#1E3160;" d="M331.674,252.806v13.346c-14.705-3.832-29.839-5.76-45.049-5.76c-8.531,0-17.113,0.608-25.488,1.812   l-101.941,14.641V263.77l100.089-14.369c8.984-1.308,18.188-1.954,27.339-1.954C301.809,247.446,316.942,249.246,331.674,252.806z"/>
	<path style="fill:#1E3160;" d="M331.674,297.284v13.346c-14.705-3.832-29.839-5.76-45.049-5.76c-8.531,0-17.113,0.608-25.488,1.825   l-101.941,14.627v-13.074l100.089-14.369c8.984-1.295,18.188-1.954,27.339-1.954C301.809,291.925,316.942,293.724,331.674,297.284z   "/>
	<path style="fill:#1E3160;" d="M331.674,341.763v13.346c-14.705-3.832-29.839-5.76-45.049-5.76c-8.531,0-17.113,0.622-25.488,1.825   l-101.941,14.627V352.74l100.089-14.382c8.984-1.295,18.188-1.954,27.339-1.954C301.809,336.404,316.942,338.216,331.674,341.763z"/>
	<path style="fill:#1E3160;" d="M331.674,386.254v13.334c-14.705-3.818-29.839-5.76-45.049-5.76c-8.531,0-17.113,0.622-25.488,1.825   l-101.941,14.641V397.22l100.089-14.382c8.984-1.295,18.188-1.954,27.339-1.954C301.809,380.883,316.942,382.695,331.674,386.254z"/>
	<path style="fill:#1E3160;" d="M331.674,430.733v13.346c-14.705-3.832-29.839-5.76-45.049-5.76c-8.531,0-17.113,0.608-25.488,1.825   l-101.941,14.627v-13.074l100.089-14.369c8.984-1.295,18.188-1.954,27.339-1.954C301.809,425.374,316.942,427.173,331.674,430.733z   "/>
	<path style="fill:#1E3160;" d="M331.674,475.21v13.346c-0.411-0.111-0.822-0.211-1.232-0.311   c-11.692-2.965-23.639-4.719-35.686-5.263c-2.709-0.133-5.418-0.189-8.128-0.189c-0.533,0-1.055,0-1.588,0.011   c-8.016,0.067-16.055,0.677-23.905,1.821l-18.798,2.698l-71.304,10.226c-3.997-1.399-7.939-2.898-11.836-4.497v-6.873   l100.084-14.367c2.398-0.344,4.808-0.644,7.239-0.899c3.22-0.344,6.462-0.6,9.715-0.777c3.131-0.167,6.262-0.255,9.404-0.266   c0.333-0.011,0.655-0.011,0.988-0.011c14.756,0,29.468,1.699,43.813,5.063C330.852,475.01,331.263,475.11,331.674,475.21z"/>
	<path style="fill:#1E3160;" d="M509.502,220.103l-16.555-2.376c-8.372-1.21-16.954-1.832-25.493-1.832   c-15.211,0-30.345,1.932-45.046,5.763v-13.346c14.734-3.542,29.867-5.363,45.046-5.363c9.16,0,18.354,0.666,27.347,1.965   l12.447,1.788C508.125,211.132,508.869,215.607,509.502,220.103z"/>
	<path style="fill:#1E3160;" d="M512,256c0,2.987-0.056,5.962-0.155,8.916l-18.898-2.709c-8.372-1.21-16.954-1.821-25.493-1.821   c-15.211,0-30.345,1.932-45.046,5.763v-13.346c14.734-3.553,29.867-5.352,45.046-5.352c9.16,0,18.354,0.644,27.347,1.954   l17.165,2.465C511.989,253.246,512,254.623,512,256z"/>
	<path style="fill:#1E3160;" d="M508.902,295.905c-0.666,4.286-1.443,8.538-2.321,12.746l-13.635-1.954   c-8.372-1.221-16.954-1.832-25.493-1.832c-15.211,0-30.345,1.932-45.046,5.763v-13.346c14.734-3.553,29.867-5.352,45.046-5.352   c9.16,0,18.354,0.655,27.347,1.954L508.902,295.905z"/>
	<path style="fill:#1E3160;" d="M494.801,338.363l3.486,0.5c-1.432,4.186-2.965,8.327-4.608,12.413l-0.733-0.1   c-8.372-1.21-16.954-1.832-25.493-1.832c-15.211,0-30.345,1.932-45.046,5.763v-13.346c14.734-3.542,29.867-5.363,45.046-5.363   C476.614,336.398,485.808,337.064,494.801,338.363z"/>
	<path style="fill:#1E3160;" d="M467.454,380.877c3.953,0,7.917,0.122,11.858,0.378c-2.409,4.286-4.941,8.494-7.583,12.624   c-1.432-0.033-2.854-0.056-4.275-0.056c-15.211,0-30.345,1.943-45.046,5.763v-13.335   C437.142,382.698,452.276,380.877,467.454,380.877z"/>
	<path style="fill:#1E3160;" d="M446.98,426.478c-3.042,3.409-6.184,6.74-9.415,9.982c-0.089,0.1-0.189,0.2-0.3,0.3   c-1.721,1.732-3.464,3.442-5.241,5.107c-2.809,0.555-5.596,1.188-8.372,1.899c-0.422,0.1-0.833,0.2-1.244,0.311V430.73   c0.411-0.1,0.833-0.2,1.244-0.289c1.077-0.255,2.154-0.5,3.231-0.733C433.523,428.277,440.24,427.189,446.98,426.478z"/>
</g>
<path style="fill:#EB305B;" d="M54.723,235.389l29.698,44.648c8.86,13.322,22.531,22.092,37.584,24.983  c8.045,1.546,16.276,0.848,23.908-1.792c3.806-1.315,7.452-3.108,10.869-5.343c4.608-3.016,9.658-5.196,14.926-6.486  c2.495-0.611,5.044-1.026,7.61-1.23c2.856-0.224,5.743-0.203,8.624,0.084c12.203,1.227,24.519-2.121,34.137-9.744  c4.12-3.271,7.779-7.072,10.87-11.309l0.007-0.001c3.422-4.679,6.161-9.882,8.075-15.451c1.401-4.076,2.364-8.354,2.834-12.763  l5.704-53.318c6.272-58.675-47.596-105.782-104.913-91.743l-39.297,9.625C48.048,119.585,22.045,186.254,54.723,235.389z"/>
<path style="fill:#D82B59;" d="M173.12,291.08c-0.47,0.097-0.946,0.204-1.411,0.319c-5.266,1.29-10.323,3.471-14.922,6.49  c-3.421,2.228-7.063,4.027-10.87,5.336c-7.636,2.641-15.864,3.339-23.915,1.792c-15.048-2.892-28.718-11.658-37.58-24.977  l-29.7-44.648c-32.675-49.141-6.674-115.805,50.64-129.843l39.29-9.623c2.523-0.618,5.031-1.116,7.531-1.494  c-52.127,17.703-74.522,80.7-43.28,127.69l29.7,44.648C146.857,279.179,159.293,287.637,173.12,291.08z"/>
<path style="fill:#55C6A1;" d="M123.972,96.503l-18.611,4.558c-33.949,8.315-68.212-12.466-76.526-46.416l-4.558-18.611  l18.611-4.558c33.95-8.315,68.212,12.466,76.527,46.416L123.972,96.503z"/>
<g>
	<path style="fill:#3C9676;" d="M121.486,100.601l-97.21-64.567l102.182,56.37c2.321,1.28,3.163,4.198,1.883,6.519   c-1.28,2.321-4.198,3.163-6.519,1.883C121.711,100.743,121.593,100.671,121.486,100.601z"/>
	<path style="fill:#3C9676;" d="M95.828,65.383c-0.88-2.055-1.841-4.09-2.946-6.09c-1.12-1.996-2.316-3.974-3.851-5.868   c-0.485,2.389-0.632,4.696-0.703,6.983c-0.056,2.284,0.033,4.532,0.202,6.762c0.223,2.887,0.635,5.727,1.169,8.538   c-2.742,0.823-5.455,1.771-8.121,2.907c-2.055,0.879-4.09,1.84-6.089,2.947c-1.995,1.124-3.973,2.322-5.866,3.862   c2.391,0.492,4.698,0.641,6.986,0.715c2.285,0.058,4.533-0.03,6.762-0.201c4.456-0.346,8.811-1.105,13.095-2.153l0.011-0.003   l0.013-0.003c2.563-0.635,4.126-3.228,3.491-5.79C98.922,73.707,97.581,69.495,95.828,65.383z"/>
	<path style="fill:#3C9676;" d="M68.559,66.847l0.013-0.003c2.563-0.635,4.126-3.228,3.491-5.79   c-1.06-4.281-2.402-8.494-4.155-12.604c-0.88-2.055-1.841-4.09-2.946-6.09c-1.12-1.996-2.316-3.974-3.851-5.868   c-0.485,2.389-0.632,4.696-0.703,6.983c-0.056,2.284,0.033,4.532,0.202,6.762c0.223,2.887,0.635,5.727,1.169,8.538   c-2.742,0.823-5.455,1.771-8.121,2.907c-2.055,0.879-4.09,1.84-6.089,2.947c-1.995,1.124-3.973,2.322-5.866,3.862   c2.391,0.492,4.698,0.641,6.986,0.714c2.285,0.058,4.533-0.03,6.762-0.201c4.456-0.346,8.811-1.105,13.095-2.153L68.559,66.847z"/>
</g>
<path style="fill:#AA5013;" d="M130.83,106.182l-8.466,2.073l-1.037-4.233c-5.646-23.055,8.516-46.405,31.57-52.05l4.233-1.037  l2.073,8.466l-4.233,1.037c-18.386,4.503-29.681,23.126-25.178,41.511L130.83,106.182z"/>
<g>
</g>
<g>
</g>
<g>
</g>
<g>
</g>
<g>
</g>
<g>
</g>
<g>
</g>
<g>
</g>
<g>
</g>
<g>
</g>
<g>
</g>
<g>
</g>
<g>
</g>
<g>
</g>
<g>
</g>
</svg>
