<svg enable-background="new 0 0 512 512" viewBox="0 0 512 512" xmlns="http://www.w3.org/2000/svg"><path d="m512 256c0 141.388-114.618 255.994-255.994 255.994-141.388 0-256.006-114.606-256.006-255.994 0-8.438.411-16.777 1.21-25.004 12.569-129.652 121.846-230.99 254.796-230.99 132.938 0 242.215 101.339 254.784 230.99.799 8.227 1.21 16.566 1.21 25.004z" fill="#a35895"/><path d="m512 256c0 141.388-114.618 255.994-255.994 255.994-7.539 0-15.011-.322-22.384-.966-71.893-6.229-135.281-42.17-177.828-95.476-34.92-43.757-55.794-99.217-55.794-159.552 0-8.438.411-16.777 1.21-25.004h509.58c.799 8.227 1.21 16.566 1.21 25.004z" fill="#f4cb77"/><path d="m233.622 511.028c-71.893-6.229-135.281-42.17-177.828-95.476l115.184-37.229z" fill="#e9e4d8"/><path d="m136.702 125.499h125.455v83.851h-125.455z" fill="#8ca1bf"/><path d="m136.702 125.488h36.64v83.862h-36.64z" fill="#7d94af"/><path d="m321.214 236.014.011.011c-14.046 12.336-27.103 24.116-38.595 34.697h-207.373v-17.765c0-33.942 27.514-61.445 61.445-61.445h125.455c28.057.001 51.707 18.81 59.057 44.502z" fill="#8ca1bf"/><path d="m136.702 349.944c-33.931 0-61.445-27.525-61.445-61.445v-17.776h207.374c-18.165 16.699-32.432 30.4-40.615 38.583-11.991 11.991-19.197 26.292-23.372 40.638z" fill="#42577f"/><path d="m173.343 191.513c-33.931 0-61.445 27.503-61.445 61.445v17.765h-36.64v-17.765c0-33.942 27.514-61.445 61.445-61.445z" fill="#7d94af"/><path d="m136.702 125.499h125.455v36.152h-125.455z" fill="#7d94af"/><path d="m173.343 349.944h-36.64c-33.931 0-61.445-27.525-61.445-61.445v-17.776h36.64v17.776c0 33.92 27.513 61.445 61.445 61.445z" fill="#344868"/><path d="m291.602 113.88v10.703c0 10.348-8.394 18.742-18.742 18.742h-10.703-125.455-10.715c-10.348 0-18.742-8.394-18.742-18.742v-10.703c0-10.348 8.394-18.742 18.742-18.742h146.873c10.348-.001 18.742 8.393 18.742 18.742z" fill="#8ca1bf"/><path d="m145.041 124.583v-10.703c0-10.348 8.394-18.742 18.742-18.742h-37.795c-10.348 0-18.742 8.394-18.742 18.742v10.703c0 10.348 8.394 18.742 18.742 18.742h10.715 27.081c-10.349 0-18.743-8.394-18.743-18.742z" fill="#7d94af"/><path d="m328.436 386.531c-30.306 51.736-103.668 52.984-103.668 52.984s-17.897-33.216-16.849-71.098c.412-14.935 3.767-30.593 12.337-45.227 5.848-9.986 16.187-26.85 29.539-47.599 8.443-13.143 18.097-27.842 28.566-43.329 58.698-86.907 143.154-198.906 186.022-201.917 26.775 56.73-105.652 304.453-135.947 356.186z" fill="#e6e6e6"/><path d="m328.436 386.531c-30.306 51.736-103.668 52.984-103.668 52.984l239.617-409.169c26.773 56.729-105.654 304.452-135.949 356.185z" fill="#ccc"/><path d="m423.275 100.548c-16.405 34.837-34.242 68.836-52.512 102.582-18.327 33.713-37.218 67.094-56.589 100.194-19.369 33.102-39.242 65.908-59.676 98.386-20.488 32.447-41.417 64.635-63.792 95.976 16.385-34.849 34.217-68.851 52.491-102.594 18.328-33.711 37.217-67.094 56.609-100.182 19.389-33.09 39.261-65.897 59.696-98.375 20.491-32.445 41.415-64.635 63.773-95.987z" fill="#42577f"/></svg>