<?xml version="1.0" encoding="iso-8859-1"?>
<!-- Generator: Adobe Illustrator 19.0.0, SVG Export Plug-In . SVG Version: 6.00 Build 0)  -->
<svg xmlns="http://www.w3.org/2000/svg" xmlns:xlink="http://www.w3.org/1999/xlink" version="1.1" id="Layer_1" x="0px" y="0px" viewBox="0 0 512 512" style="enable-background:new 0 0 512 512;" xml:space="preserve">
<path style="fill:#A35895;" d="M512,256c0,141.388-114.618,255.994-255.994,255.994C114.618,511.994,0,397.388,0,256  c0-8.438,0.411-16.777,1.21-25.004C13.779,101.344,123.056,0.006,256.006,0.006c132.938,0,242.215,101.339,254.784,230.99  C511.589,239.223,512,247.562,512,256z"/>
<path style="fill:#F4CB77;" d="M512,256c0,141.388-114.618,255.994-255.994,255.994c-7.539,0-15.011-0.322-22.384-0.966  c-71.893-6.229-135.281-42.17-177.828-95.476C20.874,371.795,0,316.335,0,256c0-8.438,0.411-16.777,1.21-25.004H510.79  C511.589,239.223,512,247.562,512,256z"/>
<path style="fill:#E9E4D8;" d="M233.622,511.028c-71.893-6.229-135.281-42.17-177.828-95.476l115.184-37.229L233.622,511.028z"/>
<rect x="136.702" y="125.499" style="fill:#8CA1BF;" width="125.455" height="83.851"/>
<rect x="136.702" y="125.488" style="fill:#7D94AF;" width="36.64" height="83.862"/>
<path style="fill:#8CA1BF;" d="M321.214,236.014l0.011,0.011c-14.046,12.336-27.103,24.116-38.595,34.697H75.257v-17.765  c0-33.942,27.514-61.445,61.445-61.445h125.455C290.214,191.513,313.864,210.322,321.214,236.014z"/>
<path style="fill:#42577F;" d="M136.702,349.944c-33.931,0-61.445-27.525-61.445-61.445v-17.776h207.374  c-18.165,16.699-32.432,30.4-40.615,38.583c-11.991,11.991-19.197,26.292-23.372,40.638L136.702,349.944L136.702,349.944z"/>
<g>
	<path style="fill:#7D94AF;" d="M173.343,191.513c-33.931,0-61.445,27.503-61.445,61.445v17.765h-36.64v-17.765   c0-33.942,27.514-61.445,61.445-61.445H173.343z"/>
	<rect x="136.702" y="125.499" style="fill:#7D94AF;" width="125.455" height="36.152"/>
</g>
<path style="fill:#344868;" d="M173.343,349.944h-36.64c-33.931,0-61.445-27.525-61.445-61.445v-17.776h36.64v17.776  C111.898,322.419,139.411,349.944,173.343,349.944z"/>
<path style="fill:#8CA1BF;" d="M291.602,113.88v10.703c0,10.348-8.394,18.742-18.742,18.742h-10.703H136.702h-10.715  c-10.348,0-18.742-8.394-18.742-18.742V113.88c0-10.348,8.394-18.742,18.742-18.742H272.86  C283.208,95.137,291.602,103.531,291.602,113.88z"/>
<path style="fill:#7D94AF;" d="M145.041,124.583V113.88c0-10.348,8.394-18.742,18.742-18.742h-37.795  c-10.348,0-18.742,8.394-18.742,18.742v10.703c0,10.348,8.394,18.742,18.742,18.742h10.715h27.081  C153.435,143.325,145.041,134.931,145.041,124.583z"/>
<path style="fill:#E6E6E6;" d="M328.436,386.531c-30.306,51.736-103.668,52.984-103.668,52.984s-17.897-33.216-16.849-71.098  c0.412-14.935,3.767-30.593,12.337-45.227c5.848-9.986,16.187-26.85,29.539-47.599c8.443-13.143,18.097-27.842,28.566-43.329  c58.698-86.907,143.154-198.906,186.022-201.917C491.158,87.075,358.731,334.798,328.436,386.531z"/>
<path style="fill:#CCCCCC;" d="M328.436,386.531c-30.306,51.736-103.668,52.984-103.668,52.984L464.385,30.346  C491.158,87.075,358.731,334.798,328.436,386.531z"/>
<path style="fill:#42577F;" d="M423.275,100.548c-16.405,34.837-34.242,68.836-52.512,102.582  c-18.327,33.713-37.218,67.094-56.589,100.194c-19.369,33.102-39.242,65.908-59.676,98.386  c-20.488,32.447-41.417,64.635-63.792,95.976c16.385-34.849,34.217-68.851,52.491-102.594  c18.328-33.711,37.217-67.094,56.609-100.182c19.389-33.09,39.261-65.897,59.696-98.375  C379.993,164.09,400.917,131.9,423.275,100.548z"/>
<g>
</g>
<g>
</g>
<g>
</g>
<g>
</g>
<g>
</g>
<g>
</g>
<g>
</g>
<g>
</g>
<g>
</g>
<g>
</g>
<g>
</g>
<g>
</g>
<g>
</g>
<g>
</g>
<g>
</g>
</svg>
