<svg enable-background="new 0 0 512 512" viewBox="0 0 512 512" xmlns="http://www.w3.org/2000/svg"><path d="m512 256c0 45.912-12.091 89.003-33.254 126.254-9.404 16.566-20.619 31.988-33.354 45.978-12.258 13.479-25.937 25.637-40.804 36.241-10.27 7.339-21.096 13.923-32.41 19.708-6.54 3.331-13.246 6.395-20.097 9.171-10.592 4.286-21.54 7.894-32.777 10.748-20.252 5.152-41.459 7.894-63.299 7.894-14.523 0-28.768-1.21-42.636-3.531-6.995-1.177-13.879-2.631-20.663-4.364-11.247-2.854-22.195-6.462-32.788-10.748-18.709-7.583-36.307-17.31-52.507-28.879-14.867-10.604-28.546-22.761-40.804-36.241-4.63-5.085-9.06-10.359-13.257-15.8-7.384-9.549-14.112-19.63-20.097-30.178-21.162-37.25-33.253-80.341-33.253-126.253 0-141.388 114.618-255.994 256.006-255.994 141.376 0 255.994 114.606 255.994 255.994z" fill="#e9e4d8"/><path d="m202.288 185.834h107.423v33.676h-107.423z" fill="#999"/><path d="m202.288 185.834h18.187v33.676h-18.187z" fill="#808080"/><path d="m309.712 185.839h-107.424c7.528 0 14.345-3.053 19.275-7.983s7.983-11.747 7.983-19.275v-20.841h9.615 33.676 9.615v20.841c.001 15.056 12.215 27.258 27.26 27.258z" fill="#808080"/><path d="m192.673 219.515v283.419c0 .389.011.777.033 1.166 6.784 1.732 13.668 3.187 20.663 4.364 13.868 2.321 28.113 3.531 42.636 3.531 21.84 0 43.047-2.742 63.299-7.894.022-.389.033-.766.033-1.155v-283.43z" fill="#4d4d4d"/><path d="m226.027 333.45h59.957v131.017h-59.957z" fill="#55c6a1"/><path d="m272.838 109.309v28.431h-33.676v-37.244c0-3.695 3.701-6.246 7.154-4.93l23.126 8.814c2.045.779 3.396 2.741 3.396 4.929z" fill="#55c6a1"/><path d="m122.124 219.504v53.029c0 7.894-6.395 14.29-14.29 14.29h-22.495c-7.894 0-14.29-6.395-14.29-14.29v-53.029h-37.795v162.75c5.985 10.548 12.713 20.63 20.097 30.178 4.197 5.441 8.627 10.715 13.257 15.8 12.258 13.479 25.937 25.637 40.804 36.241 16.2 11.569 33.798 21.296 52.507 28.879v-273.848z" fill="#4d4d4d"/><path d="m53.351 219.504v192.929c-7.384-9.549-14.112-19.63-20.097-30.178v-162.75z" fill="#333"/><path d="m213.369 508.464c-6.995-1.177-13.879-2.631-20.663-4.364-.022-.389-.033-.777-.033-1.166v-283.43h20.097v283.43c0 1.899.2 3.753.599 5.53z" fill="#333"/><path d="m440.951 219.504v53.029c0 7.894-6.395 14.29-14.29 14.29h-22.495c-7.894 0-14.29-6.395-14.29-14.29v-53.029h-37.795v273.848c6.851-2.776 13.557-5.84 20.097-9.171 11.314-5.785 22.14-12.369 32.41-19.708 14.867-10.604 28.546-22.761 40.804-36.241 12.735-13.99 23.95-29.412 33.354-45.978v-162.75z" fill="#4d4d4d"/><path d="m372.178 219.504v264.677c-6.54 3.331-13.246 6.395-20.097 9.171v-273.848z" fill="#333"/><path d="m126.565 333.456v131.017h-19.153c-14.867-10.604-28.546-22.761-40.804-36.241v-94.777h59.957z" fill="#eb305b"/><path d="m159.919 80.792v138.712h-37.795-51.075-37.795v-138.712c0-14.367 11.647-26.026 26.026-26.026h74.613c14.379 0 26.026 11.659 26.026 26.026z" fill="#eb305b"/><path d="m83.707 54.766h-24.427c-14.379 0-26.026 11.658-26.026 26.026v138.712h24.427v-138.712c0-14.367 11.647-26.026 26.026-26.026z" fill="#db2a58"/><path d="m122.124 219.504v53.029c0 7.894-6.395 14.29-14.29 14.29h-22.495c-7.894 0-14.29-6.395-14.29-14.29v-53.029-87.015h51.075c0-.001 0 87.015 0 87.015z" fill="#db2a58"/><path d="m445.392 333.456v94.777c-12.258 13.479-25.937 25.637-40.804 36.241h-19.153v-131.018z" fill="#32aace"/><path d="m478.75 80.792v138.712h-37.795-51.075-37.795v-138.712c0-14.367 11.647-26.026 26.026-26.026h74.613c14.379 0 26.026 11.659 26.026 26.026z" fill="#32aace"/><g fill="#279cb7"><path d="m402.538 54.766h-24.427c-14.379 0-26.026 11.658-26.026 26.026v138.712h24.427v-138.712c.001-14.367 11.648-26.026 26.026-26.026z"/><path d="m440.955 219.504v53.029c0 7.894-6.395 14.29-14.29 14.29h-22.495c-7.894 0-14.29-6.395-14.29-14.29v-53.029-87.015h51.075z"/></g></svg>