<?xml version="1.0" encoding="iso-8859-1"?>
<!-- Generator: Adobe Illustrator 19.0.0, SVG Export Plug-In . SVG Version: 6.00 Build 0)  -->
<svg xmlns="http://www.w3.org/2000/svg" xmlns:xlink="http://www.w3.org/1999/xlink" version="1.1" id="Layer_1" x="0px" y="0px" viewBox="0 0 512 512" style="enable-background:new 0 0 512 512;" xml:space="preserve">
<path style="fill:#E9E4D8;" d="M512,256c0,45.912-12.091,89.003-33.254,126.254c-9.404,16.566-20.619,31.988-33.354,45.978  c-12.258,13.479-25.937,25.637-40.804,36.241c-10.27,7.339-21.096,13.923-32.41,19.708c-6.54,3.331-13.246,6.395-20.097,9.171  c-10.592,4.286-21.54,7.894-32.777,10.748c-20.252,5.152-41.459,7.894-63.299,7.894c-14.523,0-28.768-1.21-42.636-3.531  c-6.995-1.177-13.879-2.631-20.663-4.364c-11.247-2.854-22.195-6.462-32.788-10.748c-18.709-7.583-36.307-17.31-52.507-28.879  c-14.867-10.604-28.546-22.761-40.804-36.241c-4.63-5.085-9.06-10.359-13.257-15.8c-7.384-9.549-14.112-19.63-20.097-30.178  C12.091,345.003,0,301.912,0,256C0,114.612,114.618,0.006,256.006,0.006C397.382,0.006,512,114.612,512,256z"/>
<rect x="202.288" y="185.834" style="fill:#999999;" width="107.423" height="33.676"/>
<g>
	<rect x="202.288" y="185.834" style="fill:#808080;" width="18.187" height="33.676"/>
	<path style="fill:#808080;" d="M309.712,185.839H202.288c7.528,0,14.345-3.053,19.275-7.983c4.93-4.93,7.983-11.747,7.983-19.275   V137.74h9.615h33.676h9.615v20.841C282.453,173.637,294.667,185.839,309.712,185.839z"/>
</g>
<path style="fill:#4D4D4D;" d="M192.673,219.515v283.419c0,0.389,0.011,0.777,0.033,1.166c6.784,1.732,13.668,3.187,20.663,4.364  c13.868,2.321,28.113,3.531,42.636,3.531c21.84,0,43.047-2.742,63.299-7.894c0.022-0.389,0.033-0.766,0.033-1.155v-283.43  L192.673,219.515L192.673,219.515z"/>
<g>
	<rect x="226.027" y="333.45" style="fill:#55C6A1;" width="59.957" height="131.017"/>
	<path style="fill:#55C6A1;" d="M272.838,109.309v28.431h-33.676v-37.244c0-3.695,3.701-6.246,7.154-4.93l23.126,8.814   C271.487,105.159,272.838,107.121,272.838,109.309z"/>
</g>
<path style="fill:#4D4D4D;" d="M122.124,219.504v53.029c0,7.894-6.395,14.29-14.29,14.29H85.339c-7.894,0-14.29-6.395-14.29-14.29  v-53.029H33.254v162.75c5.985,10.548,12.713,20.63,20.097,30.178c4.197,5.441,8.627,10.715,13.257,15.8  c12.258,13.479,25.937,25.637,40.804,36.241c16.2,11.569,33.798,21.296,52.507,28.879V219.504L122.124,219.504L122.124,219.504z"/>
<g>
	<path style="fill:#333333;" d="M53.351,219.504v192.929c-7.384-9.549-14.112-19.63-20.097-30.178v-162.75L53.351,219.504   L53.351,219.504z"/>
	<path style="fill:#333333;" d="M213.369,508.464c-6.995-1.177-13.879-2.631-20.663-4.364c-0.022-0.389-0.033-0.777-0.033-1.166   v-283.43h20.097v283.43C212.77,504.833,212.97,506.687,213.369,508.464z"/>
</g>
<path style="fill:#4D4D4D;" d="M440.951,219.504v53.029c0,7.894-6.395,14.29-14.29,14.29h-22.495c-7.894,0-14.29-6.395-14.29-14.29  v-53.029h-37.795v273.848c6.851-2.776,13.557-5.84,20.097-9.171c11.314-5.785,22.14-12.369,32.41-19.708  c14.867-10.604,28.546-22.761,40.804-36.241c12.735-13.99,23.95-29.412,33.354-45.978v-162.75L440.951,219.504L440.951,219.504z"/>
<path style="fill:#333333;" d="M372.178,219.504v264.677c-6.54,3.331-13.246,6.395-20.097,9.171V219.504L372.178,219.504  L372.178,219.504z"/>
<g>
	<path style="fill:#EB305B;" d="M126.565,333.456v131.017h-19.153c-14.867-10.604-28.546-22.761-40.804-36.241v-94.777H126.565z"/>
	<path style="fill:#EB305B;" d="M159.919,80.792v138.712h-37.795H71.049H33.254V80.792c0-14.367,11.647-26.026,26.026-26.026h74.613   C148.272,54.766,159.919,66.425,159.919,80.792z"/>
</g>
<g>
	<path style="fill:#DB2A58;" d="M83.707,54.766H59.28c-14.379,0-26.026,11.658-26.026,26.026v138.712h24.427V80.792   C57.681,66.425,69.328,54.766,83.707,54.766z"/>
	<path style="fill:#DB2A58;" d="M122.124,219.504v53.029c0,7.894-6.395,14.29-14.29,14.29H85.339c-7.894,0-14.29-6.395-14.29-14.29   v-53.029v-87.015h51.075C122.124,132.488,122.124,219.504,122.124,219.504z"/>
</g>
<g>
	<path style="fill:#32AACE;" d="M445.392,333.456v94.777c-12.258,13.479-25.937,25.637-40.804,36.241h-19.153V333.456H445.392z"/>
	<path style="fill:#32AACE;" d="M478.75,80.792v138.712h-37.795h-51.075h-37.795V80.792c0-14.367,11.647-26.026,26.026-26.026   h74.613C467.103,54.766,478.75,66.425,478.75,80.792z"/>
</g>
<g>
	<path style="fill:#279CB7;" d="M402.538,54.766h-24.427c-14.379,0-26.026,11.658-26.026,26.026v138.712h24.427V80.792   C376.513,66.425,388.16,54.766,402.538,54.766z"/>
	<path style="fill:#279CB7;" d="M440.955,219.504v53.029c0,7.894-6.395,14.29-14.29,14.29h-22.495c-7.894,0-14.29-6.395-14.29-14.29   v-53.029v-87.015h51.075V219.504z"/>
</g>
<g>
</g>
<g>
</g>
<g>
</g>
<g>
</g>
<g>
</g>
<g>
</g>
<g>
</g>
<g>
</g>
<g>
</g>
<g>
</g>
<g>
</g>
<g>
</g>
<g>
</g>
<g>
</g>
<g>
</g>
</svg>
