<?xml version="1.0" encoding="iso-8859-1"?>
<!-- Generator: Adobe Illustrator 19.0.0, SVG Export Plug-In . SVG Version: 6.00 Build 0)  -->
<svg xmlns="http://www.w3.org/2000/svg" xmlns:xlink="http://www.w3.org/1999/xlink" version="1.1" id="Layer_1" x="0px" y="0px" viewBox="0 0 511.993 511.993" style="enable-background:new 0 0 511.993 511.993;" xml:space="preserve">
<circle style="fill:#E9E4D8;" cx="255.997" cy="255.997" r="255.997"/>
<circle style="fill:#48AF8A;" cx="255.997" cy="255.997" r="224.797"/>
<circle style="fill:#55C6A1;" cx="255.997" cy="255.997" r="205.965"/>
<path style="fill:#BDECF4;" d="M435.267,255.999c0,99.008-80.265,179.261-179.263,179.261c-27.912,0-54.35-6.384-77.91-17.765  c-59.979-28.99-101.362-90.414-101.362-161.496c0-99.008,80.265-179.262,179.272-179.262c28.681,0,55.784,6.74,79.821,18.709  C394.773,124.803,435.267,185.671,435.267,255.999"/>
<g>
	
		<rect x="177.831" y="129.865" transform="matrix(-0.5 -0.866 0.866 -0.5 172.7206 366.8296)" style="fill:#66C3D3;" width="28.846" height="7.381"/>
	<polyline style="fill:#66C3D3;" points="337.647,392.774 323.222,367.792 329.615,364.101 344.039,389.083 337.647,392.774  "/>
	
		<rect x="126.074" y="181.611" transform="matrix(-0.866 -0.5 0.5 -0.866 169.5171 416.0274)" style="fill:#66C3D3;" width="28.847" height="7.382"/>
	<polyline style="fill:#66C3D3;" points="396.025,337.097 371.043,322.675 374.734,316.281 399.716,330.704 396.025,337.097  "/>
	
		<rect x="136.831" y="312.276" transform="matrix(-0.5 -0.866 0.866 -0.5 -72.1428 611.7457)" style="fill:#66C3D3;" width="7.382" height="28.846"/>
	<polyline style="fill:#66C3D3;" points="374.734,195.719 371.043,189.327 396.025,174.903 399.716,181.296 374.734,195.719  "/>
	<polyline style="fill:#66C3D3;" points="188.236,392.774 181.844,389.083 196.268,364.101 202.659,367.792 188.236,392.774  "/>
	<polyline style="fill:#66C3D3;" points="329.615,147.899 323.222,144.208 337.647,119.227 344.039,122.917 329.615,147.899  "/>
</g>
<g>
	<polyline style="fill:#48AF8A;" points="251.74,248.616 321.459,255.999 251.74,263.38 251.74,248.616  "/>
	<polyline style="fill:#48AF8A;" points="248.622,250.598 256.003,166.786 263.386,250.598 248.622,250.598  "/>
</g>
<path style="fill:#55C6A1;" d="M271.885,256c0-8.773-7.112-15.884-15.885-15.884c-8.774,0-15.885,7.112-15.885,15.884  c0,8.774,7.112,15.885,15.885,15.885C264.774,271.885,271.885,264.773,271.885,256"/>
<g>
	<polygon style="fill:#299CB7;" points="234.606,136.928 234.606,104.268 225.828,108.413 223.716,103.707 240.856,95.63    240.856,136.928 250.549,136.928 250.549,142.406 224.843,142.406 224.843,136.928  "/>
	<path style="fill:#299CB7;" d="M262.789,108.483l-5.336-2.037c1.757-5.408,6.32-10.816,14.818-10.816   c7.87,0,14.325,5.759,14.325,13.415c0,6.671-4.42,11.939-9.551,17.699l-9.058,10.184h20.296v5.478h-30.339v-2.669l14.114-15.732   c6.462-7.235,8.007-10.606,8.007-14.889c0-4.777-3.511-8.428-8.074-8.428C267.072,100.687,264.475,104.059,262.789,108.483z"/>
	<path style="fill:#299CB7;" d="M393.67,279.388c-6.812,0-12.781-3.511-15.097-9.902l5.547-2.247   c1.476,4.425,5.13,7.163,9.413,7.163c5.616,0,9.128-4.143,9.128-9.34c0-4.074-2.248-7.516-6.881-9.06   c-1.543-0.492-3.3-0.773-6.039-0.773h-2.323l-0.28-0.773l11.729-16.365h-19.033v-5.479h28.166v1.687l-12.433,17.068   c9.134,0.912,13.486,7.303,13.486,13.555C409.055,272.646,403.227,279.388,393.67,279.388"/>
	<path style="fill:#299CB7;" d="M125.734,262.11c-1.331,0.352-2.664,0.492-4.215,0.492c-7.582,0-14.605-6.04-14.605-14.889   c0-8.639,6.388-15.102,15.732-15.102c9.202,0,15.664,6.181,15.664,15.102c0,3.933-0.985,7.233-4.85,13.204l-11.867,18.472h-7.589   L125.734,262.11z M131.986,247.643c0-5.619-3.511-10.044-9.408-10.044c-6.045,0-9.345,4.634-9.345,9.972   c0,5.97,3.654,10.185,9.345,10.185C128.475,257.757,131.986,253.332,131.986,247.643z"/>
	<path style="fill:#299CB7;" d="M252.909,387.353c1.265-0.352,2.603-0.492,4.147-0.492c7.583,0,14.605,6.04,14.605,14.888   c0,8.639-6.388,15.102-15.732,15.102c-9.128,0-15.59-6.181-15.59-15.102c0-3.932,0.984-7.233,4.843-13.204l11.805-18.472h7.582   L252.909,387.353 M246.658,401.821c0,5.619,3.512,10.043,9.345,10.043c6.039,0,9.339-4.634,9.339-9.973   c0-5.97-3.654-10.184-9.339-10.184C250.17,391.708,246.658,396.132,246.658,401.821"/>
</g>
<path style="fill:#D0F2F7;" d="M255.929,416.852c-9.128,0-15.59-6.181-15.59-15.102c0-3.932,0.984-7.233,4.843-13.204l11.805-18.472  h7.582l-11.661,17.279c1.265-0.352,2.603-0.492,4.147-0.492c7.584,0,14.605,6.04,14.605,14.888  C271.661,410.39,265.273,416.852,255.929,416.852 M337.647,392.774l-14.423-24.982l6.392-3.692l14.423,24.982L337.647,392.774   M396.025,337.097l-24.982-14.423l3.692-6.393l24.981,14.423L396.025,337.097 M379.837,238.09v-5.479h28.166v1.687l-12.433,17.068  c9.134,0.912,13.486,7.303,13.486,13.555c0,7.725-5.828,14.468-15.385,14.468c-6.812,0-12.781-3.511-15.097-9.902l5.547-2.247  c1.476,4.425,5.13,7.163,9.413,7.163c5.616,0,9.128-4.143,9.128-9.34c0-4.074-2.248-7.516-6.881-9.06  c-1.543-0.492-3.3-0.773-6.039-0.773h-2.323l-0.28-0.773l11.729-16.365L379.837,238.09 M374.734,195.719l-3.692-6.393l24.982-14.424  l3.691,6.393L374.734,195.719 M329.615,147.899l-6.392-3.691l14.423-24.981l6.392,3.691L329.615,147.899 M335.825,95.446  l-71.894,146.787c3.239,1.87,5.756,4.849,7.032,8.419l50.495,5.346l-50.494,5.346c-2.195,6.143-8.065,10.54-14.964,10.54  c-2.129,0-4.159-0.419-6.015-1.178l-47.501,96.985l0.174,0.101l-1.471,2.548l-23.095,47.154  c23.561,11.381,49.998,17.765,77.91,17.765c98.997,0,179.263-80.254,179.263-179.261  C435.267,185.671,394.773,124.803,335.825,95.446L335.825,95.446"/>
<g>
	<polyline style="fill:#92D4E0;" points="329.615,364.101 323.222,367.792 337.647,392.774 344.039,389.083 329.615,364.101  "/>
	<polyline style="fill:#92D4E0;" points="374.734,316.281 371.043,322.675 396.025,337.097 399.716,330.704 374.734,316.281  "/>
	<polyline style="fill:#92D4E0;" points="396.025,174.903 371.043,189.327 374.734,195.719 399.716,181.296 396.025,174.903  "/>
	<polyline style="fill:#92D4E0;" points="202.485,367.692 201.188,370.341 202.659,367.792 202.485,367.692  "/>
	<polyline style="fill:#92D4E0;" points="337.647,119.227 323.222,144.208 329.615,147.899 344.039,122.917 337.647,119.227  "/>
</g>
<path style="fill:#7DC6AC;" d="M270.963,250.652c0.597,1.671,0.923,3.472,0.923,5.348c0,1.875-0.325,3.675-0.922,5.345l50.494-5.346  L270.963,250.652"/>
<path style="fill:#86D7BC;" d="M263.931,242.233l-13.946,28.473c1.855,0.759,3.886,1.178,6.015,1.178  c6.898,0,12.769-4.396,14.964-10.54c0.596-1.67,0.922-3.47,0.922-5.345c0-1.876-0.325-3.677-0.923-5.348  C269.687,247.082,267.171,244.103,263.931,242.233"/>
<path style="fill:#67B9CC;" d="M408.002,232.611h-28.166v5.479h19.033l-11.729,16.365l0.28,0.773h2.323  c2.739,0,4.495,0.281,6.039,0.773c4.632,1.544,6.881,4.986,6.881,9.06c0,5.197-3.511,9.34-9.128,9.34  c-4.284,0-7.938-2.738-9.413-7.163l-5.547,2.247c2.316,6.391,8.286,9.902,15.097,9.902c9.557,0,15.385-6.743,15.385-14.468  c0-6.252-4.352-12.643-13.486-13.555l12.433-17.068v-1.687"/>
<path style="fill:#D0F2F7;" d="M256.002,391.708c-5.833,0-9.345,4.424-9.345,10.113c0,5.619,3.512,10.043,9.345,10.043  c6.039,0,9.339-4.634,9.339-9.973C265.341,395.922,261.688,391.708,256.002,391.708"/>
<path style="fill:#67B9CC;" d="M256.002,411.864c-5.833,0-9.345-4.424-9.345-10.043c0-5.69,3.512-10.113,9.345-10.113  c5.685,0,9.339,4.214,9.339,10.184C265.341,407.23,262.042,411.864,256.002,411.864 M264.569,370.075h-7.582l-11.805,18.472  c-3.859,5.97-4.843,9.272-4.843,13.204c0,8.92,6.463,15.102,15.59,15.102c9.344,0,15.732-6.462,15.732-15.102  c0-8.848-7.022-14.888-14.605-14.888c-1.544,0-2.882,0.14-4.147,0.492L264.569,370.075"/>
<g>
</g>
<g>
</g>
<g>
</g>
<g>
</g>
<g>
</g>
<g>
</g>
<g>
</g>
<g>
</g>
<g>
</g>
<g>
</g>
<g>
</g>
<g>
</g>
<g>
</g>
<g>
</g>
<g>
</g>
</svg>
