<?xml version="1.0" encoding="iso-8859-1"?>
<!-- Generator: Adobe Illustrator 19.0.0, SVG Export Plug-In . SVG Version: 6.00 Build 0)  -->
<svg xmlns="http://www.w3.org/2000/svg" xmlns:xlink="http://www.w3.org/1999/xlink" version="1.1" id="Layer_1" x="0px" y="0px" viewBox="0 0 512 512" style="enable-background:new 0 0 512 512;" xml:space="preserve">
<path style="fill:#EB305B;" d="M512,256c0,141.388-114.618,255.994-255.994,255.994C114.618,511.994,0,397.388,0,256  C0,171.272,41.159,96.17,104.57,49.592c22.839-16.799,48.565-29.879,76.301-38.373c23.761-7.295,48.987-11.214,75.135-11.214  c26.137,0,51.363,3.919,75.124,11.214c27.736,8.494,53.462,21.573,76.301,38.373C470.841,96.17,512,171.272,512,256z"/>
<path style="fill:#F0A037;" d="M382.937,363.334c0,70.105-56.826,126.942-126.931,126.942c-21.751,0-42.225-5.474-60.113-15.111  c-39.794-21.429-66.83-63.477-66.83-111.831c0-70.094,56.837-126.931,126.942-126.931c4.686,0,9.304,0.255,13.857,0.755  C333.45,244.053,382.937,297.926,382.937,363.334z"/>
<path style="fill:#5E7396;" d="M305.914,215.251h-99.817l-12.746-20.807L104.57,49.592c22.839-16.799,48.565-29.879,76.301-38.373  l52.196,85.161l0.022,0.033l22.917,37.395l20.052,32.732l15.711,25.626L305.914,215.251z"/>
<polygon style="fill:#566C8C;" points="206.094,215.249 233.068,96.385 277.919,165.244 "/>
<path style="fill:#F0A037;" d="M318.661,194.444c-3.975-1.477-8.272-2.276-12.746-2.276h-99.817c-4.475,0-8.771,0.799-12.746,2.276  c-14.057,5.196-24.105,18.731-24.105,34.575c0,12.136,5.896,22.917,14.967,29.634c6.129,4.53,13.701,7.217,21.884,7.217h99.817  c8.183,0,15.755-2.687,21.884-7.217c9.071-6.717,14.967-17.499,14.967-29.634C342.766,213.175,332.717,199.64,318.661,194.444z   M206.097,242.787c-7.595,0-13.768-6.173-13.768-13.768c0-7.595,6.173-13.768,13.768-13.768h99.817  c7.595,0,13.768,6.173,13.768,13.768c0,7.595-6.173,13.768-13.768,13.768H206.097z"/>
<path style="fill:#F4CB77;" d="M269.862,237.158l-73.969,238.007c-39.794-21.429-66.83-63.477-66.83-111.831  c0-70.094,56.837-126.931,126.942-126.931C260.691,236.403,265.31,236.658,269.862,237.158z"/>
<path style="fill:#42577F;" d="M407.43,49.592l-88.77,144.852l-12.746,20.807h-99.817l14.145-23.083l35.763-58.358l0.699-1.144  L331.13,11.22C358.865,19.714,384.591,32.793,407.43,49.592z"/>
<path style="fill:#EFB33A;" d="M345.762,363.335c0,49.571-40.186,89.756-89.756,89.756c-4.641,0-9.193-0.346-13.644-1.038  c-43.096-6.565-76.113-43.788-76.113-88.716c0-49.571,40.185-89.756,89.756-89.756c14.002,0,27.247,3.205,39.056,8.911  C325.068,297.018,345.762,327.766,345.762,363.335L345.762,363.335z"/>
<polygon style="fill:#F0A037;" points="248.824,414.63 248.824,321.904 223.896,333.669 217.915,320.308 266.571,297.377   266.571,414.63 294.088,414.63 294.088,430.184 221.106,430.184 221.106,414.63 "/>
<path style="fill:#F4CB77;" d="M295.062,282.49l-28.492,91.672v40.468h27.517v15.554h-44.929l-6.796,21.868  c4.45,0.693,9.001,1.038,13.644,1.038c49.571,0,89.756-40.185,89.756-89.756C345.762,327.766,325.068,297.018,295.062,282.49  L295.062,282.49L295.062,282.49z"/>
<polygon style="fill:#F5BD75;" points="266.571,374.162 249.159,430.184 294.088,430.184 294.088,414.63 266.571,414.63 "/>
<g>
</g>
<g>
</g>
<g>
</g>
<g>
</g>
<g>
</g>
<g>
</g>
<g>
</g>
<g>
</g>
<g>
</g>
<g>
</g>
<g>
</g>
<g>
</g>
<g>
</g>
<g>
</g>
<g>
</g>
</svg>
