<svg enable-background="new 0 0 512 512" viewBox="0 0 512 512" xmlns="http://www.w3.org/2000/svg"><path d="m512 256c0 33.443-6.418 65.398-18.087 94.677-3.931 9.893-8.472 19.486-13.568 28.724-26.115 47.388-66.819 85.605-116.05 108.622-5.407 2.532-10.926 4.874-16.533 7.028-28.48 10.948-59.424 16.943-91.757 16.943-32.344 0-63.277-5.996-91.768-16.943-52.451-20.141-96.597-57.048-125.854-104.17-24.338-39.161-38.383-85.383-38.383-134.881s14.045-95.72 38.384-134.881c4.797-7.739 10.004-15.2 15.589-22.362 13.234-16.977 28.557-32.244 45.6-45.401 7.306-5.663 14.934-10.926 22.85-15.778 38.894-23.827 84.628-37.573 133.582-37.573 141.377.001 255.995 114.607 255.995 255.995z" fill="#a35895"/><path d="m364.295 37.579v450.444c-5.407 2.532-10.926 4.874-16.533 7.028h-183.524c-52.451-20.141-96.597-57.048-125.854-104.17v-292.124l61.19-61.178z" fill="#e9e4d8"/><g fill="#42577f"><path d="m219.322 149.714h-128.43v-11.103h146.979z"/><path d="m207.313 186.53h-116.421v-11.103h123.662z"/><path d="m216.404 223.346h-125.512v-11.104h117.338z"/><path d="m237.5 260.161h-146.608v-11.103h131.569z"/><path d="m306.71 296.976h-215.818v-11.103h168.095z"/><path d="m90.89 322.691h220.897v11.103h-220.897z"/><path d="m90.89 396.316h220.897v11.103h-220.897z"/><path d="m90.89 433.134h220.897v11.103h-220.897z"/><path d="m90.89 359.509h220.897v11.103h-220.897z"/></g><path d="m99.57 37.58v61.173h-61.186z" fill="#d3cec2"/><path d="m493.913 350.677c-3.931 9.893-8.472 19.486-13.568 28.724-2.099-.755-4.075-1.976-5.751-3.653l-15.1-15.111-7.861-7.85-66.996-67.008-1.11-1.11 22.195-22.184z" fill="#aa5013"/><circle cx="317.695" cy="196.648" fill="#f0a037" r="111.465"/><path d="m379.995 258.953c-34.409 34.408-90.202 34.408-124.611 0-.422-.422-.844-.855-1.255-1.288-4.652-4.841-8.638-10.071-11.969-15.601-6.74-11.181-10.77-23.539-12.091-36.13-.555-5.185-.633-10.404-.266-15.6.899-12.502 4.441-24.849 10.648-36.13 3.008-5.485 6.662-10.725 10.947-15.6 1.266-1.455 2.598-2.876 3.986-4.262 34.409-34.42 90.202-34.42 124.611 0 34.408 34.409 34.408 90.203 0 124.611z" fill="#e0dacd"/><path d="m333.728 138.606v15.6h-93.278c3.008-5.485 6.662-10.725 10.947-15.6z" fill="#42577f"/><path d="m333.728 242.066v15.601h-79.599c-4.652-4.841-8.638-10.071-11.969-15.601z" fill="#42577f"/><path d="m333.728 190.336v15.6h-103.659c-.555-5.185-.633-10.404-.266-15.6z" fill="#42577f"/><path d="m279.922 117.022c-.078.044-.167.078-.255.122-.511.244-1.01.5-1.521.744-2.265 1.144-4.486 2.376-6.662 3.72-.544.333-1.088.677-1.621 1.021-.489.322-.977.633-1.454.966-.089.056-.167.111-.255.167-.044.033-.089.067-.133.089-.056.044-.111.078-.167.122-.4.278-.788.555-1.188.833-.522.366-1.044.755-1.566 1.144-.266.189-.522.389-.788.588-.255.2-.5.389-.755.588-.522.4-1.021.811-1.532 1.221-.511.411-1.01.833-1.51 1.255s-.988.855-1.488 1.299c-.411.366-.822.744-1.221 1.121-.566.522-1.121 1.044-1.677 1.588l-.011.011c-.056.056-.111.111-.167.155l-.033.033c-.044.056-.1.1-.155.155-.011.011-.022.022-.033.033l-.155.155c0 .011-.011.011-.022.022-.056.056-.111.111-.167.167-1.388 1.388-2.72 2.809-3.986 4.264h11.669c2.82-4.863 6.151-9.515 9.982-13.879 1.266-1.455 2.598-2.876 3.986-4.264 1.466-1.466 2.987-2.854 4.53-4.197-.546.246-1.101.501-1.645.757zm-28.469 59.435c.544-7.539 2.043-15.023 4.519-22.251h-15.522c-3.098 5.64-5.54 11.547-7.317 17.61-1.777 6.051-2.887 12.269-3.331 18.52h21.751c-.4-4.619-.422-9.26-.1-13.879z" fill="#f0ede6"/><path d="m263.072 138.606h-11.674c-4.286 4.875-7.939 10.115-10.947 15.6h15.519c1.626-4.757 3.669-9.401 6.132-13.879.316-.576.639-1.15.97-1.721z" fill="#a2adc0"/><path d="m263.811 228.187c-4.241-7.028-7.406-14.523-9.504-22.251h-24.238c1.321 12.591 5.352 24.949 12.091 36.13h32.01c-3.964-4.353-7.417-8.994-10.359-13.879zm100.484 39.083c-8.139 2.398-16.566 3.597-24.982 3.597-16.122 0-32.255-4.397-46.422-13.202h-38.761c.411.433.833.866 1.255 1.288.178.178.355.355.544.533.178.178.355.355.544.533l1.088 1.033c.144.133.278.255.422.378.366.344.733.677 1.099.999.455.411.91.811 1.366 1.21.422.366.844.722 1.277 1.077.178.144.355.289.533.422.422.355.855.7 1.299 1.033.266.211.533.422.811.622.477.378.955.733 1.443 1.088.522.378 1.044.755 1.577 1.121.577.411 1.155.799 1.743 1.199.633.411 1.277.822 1.921 1.221.622.389 1.244.766 1.865 1.133 2.398 1.421 4.852 2.72 7.35 3.886.544.255 1.088.511 1.643.744.244.111.5.222.755.333.477.211.966.422 1.454.622.355.144.722.289 1.077.422.355.144.711.289 1.077.422.533.211 1.077.411 1.621.6.389.144.777.278 1.166.411.489.167.977.333 1.477.489.022.011.056.022.089.022.078.022.155.056.233.078.422.144.844.278 1.277.4.011 0 .033.011.044.011.355.111.699.211 1.066.311.91.266 1.832.522 2.754.744.4.111.811.211 1.221.3.266.067.533.133.811.189.5.122.999.233 1.51.333.566.122 1.144.233 1.71.344.067.022.133.033.2.044.089.011.178.022.266.044.033 0 .056.011.089.011.289.056.577.1.866.155.289.044.566.1.855.144.666.1 1.321.2 1.976.3.044 0 .089.011.133.011.644.089 1.277.167 1.91.244.677.078 1.343.144 2.021.211 1.343.122 2.698.211 4.042.278 1.355.056 2.698.089 4.053.089 3.22 0 6.451-.178 9.66-.522.633-.078 1.277-.155 1.921-.233.766-.1 1.532-.211 2.298-.333.711-.111 1.432-.233 2.143-.366s1.421-.278 2.132-.422c1.421-.3 2.831-.633 4.241-.999.7-.189 1.41-.378 2.11-.577 2.099-.611 4.175-1.288 6.24-2.054.688-.255 1.366-.522 2.054-.788 4.763-1.921 9.393-4.264 13.835-7.039 3.886-2.42 7.628-5.185 11.181-8.272-3.644 1.641-7.386 3.017-11.183 4.128z" fill="#f0ede6"/><path d="m274.169 242.066h-32.009c3.331 5.529 7.317 10.759 11.969 15.601h38.76c-5.635-3.501-10.961-7.698-15.854-12.591-.422-.422-.844-.855-1.255-1.288-.546-.57-1.083-1.144-1.611-1.722z" fill="#a2adc0"/><path d="m251.553 190.336h-21.751c-.149 2.111-.224 4.226-.224 6.34 0 3.09.161 6.181.491 9.26h24.243c-1.237-4.562-2.101-9.205-2.591-13.879-.062-.573-.118-1.147-.168-1.721z" fill="#a2adc0"/><path d="m382.397 256.444v-119.592c31.211 33.709 31.211 85.883 0 119.592z" fill="#bc75b2"/><path d="m461.108 329.913h11.103v31.388h-11.103z" fill="#f0a037" transform="matrix(-.7071 -.7071 .7071 -.7071 552.2564 919.9673)"/></svg>