<?xml version="1.0" encoding="iso-8859-1"?>
<!-- Generator: Adobe Illustrator 19.0.0, SVG Export Plug-In . SVG Version: 6.00 Build 0)  -->
<svg xmlns="http://www.w3.org/2000/svg" xmlns:xlink="http://www.w3.org/1999/xlink" version="1.1" id="Layer_1" x="0px" y="0px" viewBox="0 0 512 512" style="enable-background:new 0 0 512 512;" xml:space="preserve">
<path style="fill:#A35895;" d="M512,256c0,35.241-7.117,68.817-20.008,99.373c-3.575,8.494-7.606,16.755-12.047,24.749  c-3.22,5.796-6.662,11.458-10.304,16.966c-45.823,69.239-124.4,114.907-213.636,114.907C114.618,511.994,0,397.388,0,256  c0-32.11,5.918-62.844,16.71-91.168c5.918-15.511,13.29-30.301,21.973-44.202c6.007-9.615,12.624-18.809,19.808-27.514  c7.883-9.538,16.444-18.509,25.604-26.803C129.529,25.11,189.842,0.006,256.006,0.006c66.153,0,126.465,25.104,171.899,66.308  c7.45,6.751,14.501,13.934,21.107,21.518C488.239,132.81,512,191.624,512,256z"/>
<path style="fill:#E6E6E6;" d="M449.012,87.832l-0.344-3.042c-1.188-10.526-10.093-18.476-20.685-18.476H28.857  c-12.424,0-22.095,10.814-20.685,23.161l8.538,75.357l21.607,190.541h441.04L449.012,87.832z M62.267,328.548L38.683,120.63  l-3.12-27.514h387.067l26.692,235.431H62.267z"/>
<polygon style="fill:#42577F;" points="62.268,328.55 35.568,93.122 422.626,93.122 449.326,328.55 "/>
<polygon style="fill:#374B6B;" points="422.626,93.122 412.421,93.122 439.122,328.55 449.326,328.55 "/>
<g>
	<polygon style="fill:#E6E6E6;" points="371.867,164.987 101.826,164.987 100.458,152.982 370.498,152.982  "/>
	<polygon style="fill:#E6E6E6;" points="375.529,197.258 105.488,197.258 104.119,185.253 374.16,185.253  "/>
	<polygon style="fill:#E6E6E6;" points="379.178,229.517 109.137,229.517 107.781,217.511 377.822,217.511  "/>
	<polygon style="fill:#E6E6E6;" points="382.839,261.8 112.799,261.8 111.442,249.794 381.483,249.794  "/>
	<polygon style="fill:#E6E6E6;" points="386.501,294.07 116.461,294.07 115.104,282.065 385.145,282.065  "/>
	<polygon style="fill:#E6E6E6;" points="303.777,132.773 157.412,132.773 156.044,120.767 302.408,120.767  "/>
</g>
<path style="fill:#CCCCCC;" d="M180.264,355.371v24.756c0,9.364-7.599,16.963-16.963,16.963h-24.324H51.992  c-7.551,0-13.675-6.122-13.675-13.675V355.37h141.947V355.371z"/>
<path style="fill:#F2F2F2;" d="M491.992,355.373c-3.575,8.494-7.606,16.755-12.047,24.749c-3.22,5.796-6.662,11.458-10.304,16.966  H163.305c9.36,0,16.955-7.595,16.955-16.966v-24.749H491.992z"/>
<path style="fill:#CCCCCC;" d="M457.773,355.368L457.773,355.368c0,9.463-7.671,17.134-17.134,17.134h-79.714  c-9.463,0-17.134-7.671-17.134-17.134l0,0H457.773z"/>
<g>
	<path style="fill:#666666;" d="M69.457,382.227c-3.202,0-6.404,0-9.606,0c-1.23,0-2.553,0.121-3.775-0.079   c-2.809-0.459-4.943-2.921-5.024-5.759c-0.083-2.902,2.015-5.515,4.868-6.059c1.232-0.235,2.586-0.109,3.832-0.109   c3.23,0,6.472-0.083,9.701,0c3.207,0.082,5.92,2.565,6.005,5.838C75.54,379.392,72.797,382.227,69.457,382.227z"/>
	<path style="fill:#666666;" d="M100.478,382.227c-3.109,0-6.217,0-9.326,0c-1.249,0-2.614,0.125-3.835-0.177   c-2.709-0.668-4.632-3.204-4.557-5.991c0.076-2.782,2.132-5.207,4.868-5.729c1.23-0.234,2.579-0.109,3.824-0.109   c3.102,0,6.259-0.175,9.357,0.009c3.14,0.188,5.674,2.839,5.674,5.993C106.48,379.494,103.748,382.227,100.478,382.227z"/>
	<path style="fill:#666666;" d="M145.064,382.876c-2.599,0-4.774-3.031-4.773-6.652c0.001-3.629,2.175-6.639,4.773-6.649   c2.603-0.01,4.772,3.028,4.773,6.649C149.838,379.85,147.666,382.876,145.064,382.876z"/>
</g>
<path style="fill:#E6E6E6;" d="M479.945,380.122c-3.22,5.796-6.662,11.458-10.304,16.966H163.305c9.36,0,16.955-7.595,16.955-16.966  H479.945z"/>
<g>
</g>
<g>
</g>
<g>
</g>
<g>
</g>
<g>
</g>
<g>
</g>
<g>
</g>
<g>
</g>
<g>
</g>
<g>
</g>
<g>
</g>
<g>
</g>
<g>
</g>
<g>
</g>
<g>
</g>
</svg>
