<svg enable-background="new 0 0 511.996 511.996" viewBox="0 0 511.996 511.996" xmlns="http://www.w3.org/2000/svg"><circle cx="255.998" cy="255.997" fill="#f0a037" r="255.997"/><path d="m415.658 108.847v347.265c-6.418 5.13-13.091 9.96-19.986 14.445-5.063 3.309-10.248 6.44-15.556 9.382-3.287 1.832-6.618 3.586-9.993 5.263-10.826 5.407-22.107 10.071-33.743 13.912-3.253 1.077-6.529 2.087-9.837 3.031-4.13 1.188-8.316 2.265-12.536 3.253-12.547 2.898-25.449 4.885-38.628 5.874-6.395.477-12.858.722-19.375.722-6.518 0-12.98-.244-19.375-.722-13.18-.988-26.093-2.976-38.639-5.874-4.219-.988-8.405-2.065-12.536-3.253-3.309-.944-6.595-1.954-9.837-3.031-11.647-3.842-22.917-8.505-33.754-13.912-3.375-1.688-6.706-3.442-9.993-5.263-5.296-2.942-10.481-6.062-15.533-9.371-6.895-4.497-13.568-9.316-19.986-14.445v-347.276c0-15.578 12.613-28.191 28.191-28.191h262.925c15.567 0 28.191 12.614 28.191 28.191z" fill="#42577f"/><path d="m395.672 108.847v361.711c-5.063 3.309-10.248 6.44-15.556 9.382-3.287 1.832-6.618 3.586-9.993 5.263-10.826 5.407-22.107 10.071-33.743 13.912-3.253 1.077-6.529 2.087-9.837 3.031-4.13 1.188-8.316 2.265-12.536 3.253-12.547 2.898-25.449 4.885-38.628 5.874-6.395.477-12.858.722-19.375.722-6.518 0-12.98-.244-19.375-.722-13.18-.988-26.093-2.976-38.639-5.874-4.219-.988-8.405-2.065-12.536-3.253-3.309-.944-6.595-1.954-9.837-3.031-11.647-3.842-22.917-8.505-33.754-13.912-3.375-1.688-6.706-3.442-9.993-5.263-5.296-2.942-10.481-6.062-15.533-9.371v-361.722c0-4.53 3.675-8.205 8.205-8.205h262.925c4.519 0 8.205 3.675 8.205 8.205z" fill="#1e3160"/><g fill="#2190a3"><path d="m142.868 266.226c-6.061 0-10.993-4.931-10.993-10.993v-28.178c0-6.061 4.931-10.993 10.993-10.993h31.753c6.061 0 10.993 4.931 10.993 10.993v28.178c0 6.061-4.931 10.993-10.993 10.993z"/><path d="m142.868 327.483c-6.061 0-10.993-4.931-10.993-10.993v-28.168c0-6.061 4.931-10.993 10.993-10.993h31.753c6.061 0 10.993 4.931 10.993 10.993v28.168c0 6.061-4.931 10.993-10.993 10.993z"/><path d="m142.868 388.751c-6.061 0-10.993-4.931-10.993-10.993v-28.178c0-6.061 4.931-10.993 10.993-10.993h31.753c6.061 0 10.993 4.931 10.993 10.993v28.178c0 6.061-4.931 10.993-10.993 10.993z"/><path d="m142.868 450.007c-6.061 0-10.993-4.931-10.993-10.993v-28.167c0-6.061 4.931-10.993 10.993-10.993h31.753c6.061 0 10.993 4.931 10.993 10.993v28.167c0 6.061-4.931 10.993-10.993 10.993z"/><path d="m185.61 472.102v28.18c0 .633-.056 1.255-.155 1.865-3.309-.944-6.595-1.954-9.837-3.031-11.647-3.842-22.917-8.505-33.754-13.912-3.375-1.688-6.706-3.442-9.993-5.263v-7.839c0-6.062 4.941-10.992 10.992-10.992h31.755c6.062-.001 10.992 4.929 10.992 10.992z"/><path d="m207.711 266.226c-6.061 0-10.993-4.931-10.993-10.993v-28.178c0-6.061 4.931-10.993 10.993-10.993h31.742c6.061 0 10.993 4.931 10.993 10.993v28.178c0 6.061-4.931 10.993-10.993 10.993z"/><path d="m207.711 327.483c-6.061 0-10.993-4.931-10.993-10.993v-28.168c0-6.061 4.931-10.993 10.993-10.993h31.742c6.061 0 10.993 4.931 10.993 10.993v28.168c0 6.061-4.931 10.993-10.993 10.993z"/><path d="m207.711 388.751c-6.061 0-10.993-4.931-10.993-10.993v-28.178c0-6.061 4.931-10.993 10.993-10.993h31.742c6.061 0 10.993 4.931 10.993 10.993v28.178c0 6.061-4.931 10.993-10.993 10.993z"/><path d="m207.711 450.007c-6.061 0-10.993-4.931-10.993-10.993v-28.167c0-6.061 4.931-10.993 10.993-10.993h31.742c6.061 0 10.993 4.931 10.993 10.993v28.167c0 6.061-4.931 10.993-10.993 10.993z"/><path d="m250.442 472.102v28.18c0 6.062-4.93 10.992-10.992 10.992h-2.82c-13.18-.988-26.093-2.976-38.639-5.874-.822-1.532-1.277-3.264-1.277-5.119v-28.18c0-6.062 4.941-10.992 10.992-10.992h31.744c6.062 0 10.992 4.93 10.992 10.993z"/><path d="m337.386 266.226c-6.061 0-10.992-4.931-10.992-10.993v-28.178c0-6.061 4.931-10.993 10.992-10.993h31.743c6.061 0 10.992 4.931 10.992 10.993v28.178c0 6.061-4.931 10.993-10.992 10.993z"/><path d="m337.386 327.483c-6.061 0-10.992-4.931-10.992-10.993v-28.168c0-6.061 4.931-10.993 10.992-10.993h31.743c6.061 0 10.992 4.931 10.992 10.993v28.168c0 6.061-4.931 10.993-10.992 10.993z"/><path d="m337.386 388.751c-6.061 0-10.992-4.931-10.992-10.993v-28.178c0-6.061 4.931-10.993 10.992-10.993h31.743c6.061 0 10.992 4.931 10.992 10.993v28.178c0 6.061-4.931 10.993-10.992 10.993z"/><path d="m337.386 450.007c-6.061 0-10.992-4.931-10.992-10.993v-28.167c0-6.061 4.931-10.993 10.992-10.993h31.743c6.061 0 10.992 4.931 10.992 10.993v28.167c0 6.061-4.931 10.993-10.992 10.993z"/><path d="m380.117 472.102v7.839c-3.287 1.832-6.618 3.586-9.993 5.263-10.826 5.407-22.107 10.071-33.743 13.912-3.253 1.077-6.529 2.087-9.837 3.031-.1-.611-.155-1.232-.155-1.865v-28.18c0-6.062 4.941-10.992 10.992-10.992h31.744c6.062-.001 10.992 4.929 10.992 10.992z"/><path d="m272.543 266.226c-6.061 0-10.993-4.931-10.993-10.993v-28.178c0-6.061 4.931-10.993 10.993-10.993h31.753c6.062 0 10.993 4.931 10.993 10.993v28.178c0 6.061-4.931 10.993-10.993 10.993z"/><path d="m272.543 327.483c-6.061 0-10.993-4.931-10.993-10.993v-28.168c0-6.061 4.931-10.993 10.993-10.993h31.753c6.062 0 10.993 4.931 10.993 10.993v28.168c0 6.061-4.931 10.993-10.993 10.993z"/><path d="m272.543 388.751c-6.061 0-10.993-4.931-10.993-10.993v-28.178c0-6.061 4.931-10.993 10.993-10.993h31.753c6.062 0 10.993 4.931 10.993 10.993v28.178c0 6.061-4.931 10.993-10.993 10.993z"/><path d="m272.543 450.007c-6.061 0-10.993-4.931-10.993-10.993v-28.167c0-6.061 4.931-10.993 10.993-10.993h31.753c6.062 0 10.993 4.931 10.993 10.993v28.167c0 6.061-4.931 10.993-10.993 10.993z"/><path d="m315.285 472.102v28.18c0 1.854-.455 3.586-1.277 5.119-12.547 2.898-25.449 4.885-38.628 5.874h-2.842c-6.051 0-10.992-4.93-10.992-10.992v-28.18c0-6.062 4.941-10.992 10.992-10.992h31.755c6.062-.002 10.992 4.928 10.992 10.991z"/></g><path d="m136.316 120.626h239.364v78.034h-239.364z" fill="#ddeaed"/><path d="m375.686 116.187h-239.364c-2.454 0-4.441 1.987-4.441 4.441v78.034c0 2.454 1.987 4.441 4.441 4.441h239.364c2.443 0 4.441-1.987 4.441-4.441v-78.034c.001-2.454-1.998-4.441-4.441-4.441zm-4.441 78.033h-230.481v-69.151h230.481z" fill="#299cb7"/><path d="m142.868 256.233c-.552 0-1-.449-1-1v-28.178c0-.552.449-1 1-1h31.753c.552 0 1 .449 1 1v28.178c0 .552-.449 1-1 1z" fill="#32aace"/><path d="m142.868 317.49c-.552 0-1-.449-1-1v-28.168c0-.552.449-1 1-1h31.753c.552 0 1 .449 1 1v28.168c0 .552-.449 1-1 1z" fill="#32aace"/><path d="m142.868 378.758c-.552 0-1-.449-1-1v-28.178c0-.552.449-1 1-1h31.753c.552 0 1 .449 1 1v28.178c0 .552-.449 1-1 1z" fill="#32aace"/><path d="m142.868 440.014c-.552 0-1-.449-1-1v-28.167c0-.552.449-1 1-1h31.753c.552 0 1 .449 1 1v28.167c0 .552-.449 1-1 1z" fill="#32aace"/><path d="m175.617 472.102v27.014c-11.647-3.842-22.917-8.505-33.754-13.912v-13.102c0-.544.455-.999.999-.999h31.755c.556-.001 1 .454 1 .999z" fill="#32aace"/><path d="m207.711 256.233c-.552 0-1-.449-1-1v-28.178c0-.552.449-1 1-1h31.742c.552 0 1 .449 1 1v28.178c0 .552-.449 1-1 1z" fill="#32aace"/><path d="m207.711 317.49c-.552 0-1-.449-1-1v-28.168c0-.552.449-1 1-1h31.742c.552 0 1 .449 1 1v28.168c0 .552-.449 1-1 1z" fill="#32aace"/><path d="m207.711 378.758c-.552 0-1-.449-1-1v-28.178c0-.552.449-1 1-1h31.742c.552 0 1 .449 1 1v28.178c0 .552-.449 1-1 1z" fill="#32aace"/><path d="m207.711 440.014c-.552 0-1-.449-1-1v-28.167c0-.552.449-1 1-1h31.742c.552 0 1 .449 1 1v28.167c0 .552-.449 1-1 1z" fill="#32aace"/><path d="m207.711 501.282c-.552 0-1-.449-1-1v-28.179c0-.552.449-1 1-1h31.742c.552 0 1 .449 1 1v28.179c0 .552-.449 1-1 1z" fill="#32aace"/><path d="m337.386 256.233c-.551 0-.999-.449-.999-1v-28.178c0-.552.449-1 .999-1h31.743c.551 0 .999.449.999 1v28.178c0 .552-.449 1-.999 1z" fill="#32aace"/><path d="m337.386 317.49c-.551 0-.999-.449-.999-1v-28.168c0-.552.449-1 .999-1h31.743c.551 0 .999.449.999 1v28.168c0 .552-.449 1-.999 1z" fill="#32aace"/><path d="m337.386 378.758c-.551 0-.999-.449-.999-1v-28.178c0-.552.449-1 .999-1h31.743c.551 0 .999.449.999 1v28.178c0 .552-.449 1-.999 1z" fill="#32aace"/><path d="m337.386 440.014c-.551 0-.999-.449-.999-1v-28.167c0-.552.449-1 .999-1h31.743c.551 0 .999.449.999 1v28.167c0 .552-.449 1-.999 1z" fill="#32aace"/><path d="m370.124 472.102v13.102c-10.826 5.407-22.107 10.071-33.743 13.912v-27.014c0-.544.455-.999.999-.999h31.744c.556-.001 1 .454 1 .999z" fill="#32aace"/><path d="m272.543 256.233c-.552 0-1-.449-1-1v-28.178c0-.552.449-1 1-1h31.753c.552 0 1 .449 1 1v28.178c0 .552-.449 1-1 1z" fill="#32aace"/><path d="m272.543 317.49c-.552 0-1-.449-1-1v-28.168c0-.552.449-1 1-1h31.753c.552 0 1 .449 1 1v28.168c0 .552-.449 1-1 1z" fill="#32aace"/><path d="m272.543 378.758c-.552 0-1-.449-1-1v-28.178c0-.552.449-1 1-1h31.753c.552 0 1 .449 1 1v28.178c0 .552-.449 1-1 1z" fill="#32aace"/><path d="m272.543 440.014c-.552 0-1-.449-1-1v-28.167c0-.552.449-1 1-1h31.753c.552 0 1 .449 1 1v28.167c0 .552-.449 1-1 1z" fill="#32aace"/><path d="m272.543 501.282c-.552 0-1-.449-1-1v-28.179c0-.552.449-1 1-1h31.753c.552 0 1 .449 1 1v28.179c0 .552-.449 1-1 1z" fill="#32aace"/><path d="m221.951 166.496c-1.732 0-2.332.988-2.332 2.343v9.449h-4.541v-31.711h-11.548c-1.221 0-2.343.655-2.343 2.343 0 1.677 1.121 2.332 2.343 2.332h6.873v27.036h-6.873c-1.221 0-2.343.655-2.343 2.343 0 1.677 1.121 2.332 2.343 2.332h18.42c1.221 0 2.343-.655 2.343-2.332v-11.792c.001-1.355-.61-2.343-2.342-2.343z" fill="#838b8c"/><path d="m252.729 167.106c1.543 0 2.62-.233 3.786-1.31 1.31-1.21 1.455-2.476 1.455-4.164v-9.582c0-1.688-.144-2.953-1.455-4.164-1.166-1.077-2.243-1.31-3.786-1.31h-15.522c-1.221 0-2.343.655-2.343 2.343 0 1.677 1.121 2.332 2.343 2.332h16.089v11.181h-13.146c-3.509 0-5.285 1.777-5.285 5.285v15.245h20.763c1.221 0 2.343-.655 2.343-2.332 0-1.688-1.121-2.343-2.343-2.343h-16.089v-11.181z" fill="#838b8c"/><path d="m291.646 151.251c0-2.665-2.01-4.674-4.674-4.674h-16.089c-1.221 0-2.343.655-2.343 2.343 0 1.677 1.121 2.332 2.343 2.332h16.089v7.761c0 2.62-1.033 3.42-2.343 3.42h-9.16c-1.221 0-2.343.655-2.343 2.343 0 1.677 1.121 2.332 2.343 2.332h9.16c1.31 0 2.343.799 2.343 3.42v7.761h-16.089c-1.221 0-2.343.655-2.343 2.343 0 1.677 1.121 2.332 2.343 2.332h16.089c2.665 0 4.674-2.01 4.674-4.674v-8.983c0-1.865-.378-3.231-1.821-4.53 1.443-1.31 1.821-2.676 1.821-4.541z" fill="#838b8c"/><path d="m322.979 166.407v-13.513c0-1.177-.555-2.343-2.332-2.343s-2.343 1.166-2.343 2.343v13.513h-9.071v-17.488c0-1.177-.566-2.343-2.343-2.343s-2.332 1.166-2.332 2.343v22.162h13.746v9.549c0 1.488.655 2.332 2.343 2.332 1.677 0 2.332-.844 2.332-2.332v-9.549c1.221 0 2.343-.655 2.343-2.332 0-1.687-1.121-2.342-2.343-2.342z" fill="#838b8c"/><path d="m353.802 162.432h-8.605v-11.181h11.459c1.221 0 2.343-.655 2.343-2.332 0-1.688-1.121-2.343-2.343-2.343h-16.133v20.53h13.801v11.181h-10.804c-.755 0-1.821-.655-2.487-.933l-1.399-.611c-.511-.233-.933-.378-1.499-.378-1.21 0-2.243 1.121-2.243 2.343 0 1.632 1.399 2.054 2.665 2.62l1.777.788c1.177.522 1.876.844 3.087.844h10.382c1.688 0 2.909-.189 4.075-1.588.977-1.166 1.121-2.198 1.121-3.653v-10.004c0-1.643-.144-2.765-1.443-3.975-1.134-1.075-2.255-1.308-3.754-1.308z" fill="#838b8c"/><path d="m165.28 148.486-.389-12.791c-.033-1.432.044-2.509-.877-3.708-.733-.955-1.854-1.499-3.087-1.499-1.621 0-2.087.389-3.242 1.543l-.311.311c-.844-1.166-1.965-1.854-3.387-1.854-1.277 0-1.854.5-2.82 1.232l-.3.233c-.233-.844-.855-1.466-1.777-1.466-1.577 0-1.932 1.31-1.932 2.62v15.611c0 1.277.278 2.543 1.854 2.543s1.854-1.266 1.854-2.543v-12.025l1.61-1.499c.311-.278.588-.622 1.01-.622.966 0 .888 1.155.888 1.777v12.369c0 1.277.266 2.543 1.843 2.543 1.588 0 1.854-1.266 1.854-2.543v-12.025l.766-.844c.311-.355 1.01-1.277 1.543-1.277.999 0 .811 1.31.855 1.965l.378 12.225c.044 1.232.344 2.498 1.854 2.498 1.657.002 1.857-1.464 1.813-2.774z" fill="#838b8c"/></svg>