<?xml version="1.0" encoding="iso-8859-1"?>
<!-- Generator: Adobe Illustrator 19.0.0, SVG Export Plug-In . SVG Version: 6.00 Build 0)  -->
<svg xmlns="http://www.w3.org/2000/svg" xmlns:xlink="http://www.w3.org/1999/xlink" version="1.1" id="Layer_1" x="0px" y="0px" viewBox="0 0 511.996 511.996" style="enable-background:new 0 0 511.996 511.996;" xml:space="preserve">
<circle style="fill:#F0A037;" cx="255.998" cy="255.997" r="255.997"/>
<path style="fill:#42577F;" d="M415.658,108.847v347.265c-6.418,5.13-13.091,9.96-19.986,14.445  c-5.063,3.309-10.248,6.44-15.556,9.382c-3.287,1.832-6.618,3.586-9.993,5.263c-10.826,5.407-22.107,10.071-33.743,13.912  c-3.253,1.077-6.529,2.087-9.837,3.031c-4.13,1.188-8.316,2.265-12.536,3.253c-12.547,2.898-25.449,4.885-38.628,5.874  c-6.395,0.477-12.858,0.722-19.375,0.722c-6.518,0-12.98-0.244-19.375-0.722c-13.18-0.988-26.093-2.976-38.639-5.874  c-4.219-0.988-8.405-2.065-12.536-3.253c-3.309-0.944-6.595-1.954-9.837-3.031c-11.647-3.842-22.917-8.505-33.754-13.912  c-3.375-1.688-6.706-3.442-9.993-5.263c-5.296-2.942-10.481-6.062-15.533-9.371c-6.895-4.497-13.568-9.316-19.986-14.445V108.847  c0-15.578,12.613-28.191,28.191-28.191h262.925C403.034,80.656,415.658,93.27,415.658,108.847z"/>
<path style="fill:#1E3160;" d="M395.672,108.847v361.711c-5.063,3.309-10.248,6.44-15.556,9.382  c-3.287,1.832-6.618,3.586-9.993,5.263c-10.826,5.407-22.107,10.071-33.743,13.912c-3.253,1.077-6.529,2.087-9.837,3.031  c-4.13,1.188-8.316,2.265-12.536,3.253c-12.547,2.898-25.449,4.885-38.628,5.874c-6.395,0.477-12.858,0.722-19.375,0.722  c-6.518,0-12.98-0.244-19.375-0.722c-13.18-0.988-26.093-2.976-38.639-5.874c-4.219-0.988-8.405-2.065-12.536-3.253  c-3.309-0.944-6.595-1.954-9.837-3.031c-11.647-3.842-22.917-8.505-33.754-13.912c-3.375-1.688-6.706-3.442-9.993-5.263  c-5.296-2.942-10.481-6.062-15.533-9.371V108.847c0-4.53,3.675-8.205,8.205-8.205h262.925  C391.986,100.642,395.672,104.317,395.672,108.847z"/>
<g>
	<path style="fill:#2190A3;" d="M142.868,266.226c-6.061,0-10.993-4.931-10.993-10.993v-28.178c0-6.061,4.931-10.993,10.993-10.993   h31.753c6.061,0,10.993,4.931,10.993,10.993v28.178c0,6.061-4.931,10.993-10.993,10.993H142.868z"/>
	<path style="fill:#2190A3;" d="M142.868,327.483c-6.061,0-10.993-4.931-10.993-10.993v-28.168c0-6.061,4.931-10.993,10.993-10.993   h31.753c6.061,0,10.993,4.931,10.993,10.993v28.168c0,6.061-4.931,10.993-10.993,10.993H142.868z"/>
	<path style="fill:#2190A3;" d="M142.868,388.751c-6.061,0-10.993-4.931-10.993-10.993v-28.178c0-6.061,4.931-10.993,10.993-10.993   h31.753c6.061,0,10.993,4.931,10.993,10.993v28.178c0,6.061-4.931,10.993-10.993,10.993H142.868z"/>
	<path style="fill:#2190A3;" d="M142.868,450.007c-6.061,0-10.993-4.931-10.993-10.993v-28.167c0-6.061,4.931-10.993,10.993-10.993   h31.753c6.061,0,10.993,4.931,10.993,10.993v28.167c0,6.061-4.931,10.993-10.993,10.993H142.868z"/>
	<path style="fill:#2190A3;" d="M185.61,472.102v28.18c0,0.633-0.056,1.255-0.155,1.865c-3.309-0.944-6.595-1.954-9.837-3.031   c-11.647-3.842-22.917-8.505-33.754-13.912c-3.375-1.688-6.706-3.442-9.993-5.263v-7.839c0-6.062,4.941-10.992,10.992-10.992   h31.755C180.68,461.109,185.61,466.039,185.61,472.102z"/>
	<path style="fill:#2190A3;" d="M207.711,266.226c-6.061,0-10.993-4.931-10.993-10.993v-28.178c0-6.061,4.931-10.993,10.993-10.993   h31.742c6.061,0,10.993,4.931,10.993,10.993v28.178c0,6.061-4.931,10.993-10.993,10.993H207.711z"/>
	<path style="fill:#2190A3;" d="M207.711,327.483c-6.061,0-10.993-4.931-10.993-10.993v-28.168c0-6.061,4.931-10.993,10.993-10.993   h31.742c6.061,0,10.993,4.931,10.993,10.993v28.168c0,6.061-4.931,10.993-10.993,10.993H207.711z"/>
	<path style="fill:#2190A3;" d="M207.711,388.751c-6.061,0-10.993-4.931-10.993-10.993v-28.178c0-6.061,4.931-10.993,10.993-10.993   h31.742c6.061,0,10.993,4.931,10.993,10.993v28.178c0,6.061-4.931,10.993-10.993,10.993H207.711z"/>
	<path style="fill:#2190A3;" d="M207.711,450.007c-6.061,0-10.993-4.931-10.993-10.993v-28.167c0-6.061,4.931-10.993,10.993-10.993   h31.742c6.061,0,10.993,4.931,10.993,10.993v28.167c0,6.061-4.931,10.993-10.993,10.993H207.711z"/>
	<path style="fill:#2190A3;" d="M250.442,472.102v28.18c0,6.062-4.93,10.992-10.992,10.992h-2.82   c-13.18-0.988-26.093-2.976-38.639-5.874c-0.822-1.532-1.277-3.264-1.277-5.119v-28.18c0-6.062,4.941-10.992,10.992-10.992h31.744   C245.512,461.109,250.442,466.039,250.442,472.102z"/>
	<path style="fill:#2190A3;" d="M337.386,266.226c-6.061,0-10.992-4.931-10.992-10.993v-28.178c0-6.061,4.931-10.993,10.992-10.993   h31.743c6.061,0,10.992,4.931,10.992,10.993v28.178c0,6.061-4.931,10.993-10.992,10.993H337.386z"/>
	<path style="fill:#2190A3;" d="M337.386,327.483c-6.061,0-10.992-4.931-10.992-10.993v-28.168c0-6.061,4.931-10.993,10.992-10.993   h31.743c6.061,0,10.992,4.931,10.992,10.993v28.168c0,6.061-4.931,10.993-10.992,10.993H337.386z"/>
	<path style="fill:#2190A3;" d="M337.386,388.751c-6.061,0-10.992-4.931-10.992-10.993v-28.178c0-6.061,4.931-10.993,10.992-10.993   h31.743c6.061,0,10.992,4.931,10.992,10.993v28.178c0,6.061-4.931,10.993-10.992,10.993H337.386z"/>
	<path style="fill:#2190A3;" d="M337.386,450.007c-6.061,0-10.992-4.931-10.992-10.993v-28.167c0-6.061,4.931-10.993,10.992-10.993   h31.743c6.061,0,10.992,4.931,10.992,10.993v28.167c0,6.061-4.931,10.993-10.992,10.993H337.386z"/>
	<path style="fill:#2190A3;" d="M380.117,472.102v7.839c-3.287,1.832-6.618,3.586-9.993,5.263   c-10.826,5.407-22.107,10.071-33.743,13.912c-3.253,1.077-6.529,2.087-9.837,3.031c-0.1-0.611-0.155-1.232-0.155-1.865v-28.18   c0-6.062,4.941-10.992,10.992-10.992h31.744C375.187,461.109,380.117,466.039,380.117,472.102z"/>
	<path style="fill:#2190A3;" d="M272.543,266.226c-6.061,0-10.993-4.931-10.993-10.993v-28.178c0-6.061,4.931-10.993,10.993-10.993   h31.753c6.062,0,10.993,4.931,10.993,10.993v28.178c0,6.061-4.931,10.993-10.993,10.993H272.543z"/>
	<path style="fill:#2190A3;" d="M272.543,327.483c-6.061,0-10.993-4.931-10.993-10.993v-28.168c0-6.061,4.931-10.993,10.993-10.993   h31.753c6.062,0,10.993,4.931,10.993,10.993v28.168c0,6.061-4.931,10.993-10.993,10.993H272.543z"/>
	<path style="fill:#2190A3;" d="M272.543,388.751c-6.061,0-10.993-4.931-10.993-10.993v-28.178c0-6.061,4.931-10.993,10.993-10.993   h31.753c6.062,0,10.993,4.931,10.993,10.993v28.178c0,6.061-4.931,10.993-10.993,10.993H272.543z"/>
	<path style="fill:#2190A3;" d="M272.543,450.007c-6.061,0-10.993-4.931-10.993-10.993v-28.167c0-6.061,4.931-10.993,10.993-10.993   h31.753c6.062,0,10.993,4.931,10.993,10.993v28.167c0,6.061-4.931,10.993-10.993,10.993H272.543z"/>
	<path style="fill:#2190A3;" d="M315.285,472.102v28.18c0,1.854-0.455,3.586-1.277,5.119c-12.547,2.898-25.449,4.885-38.628,5.874   h-2.842c-6.051,0-10.992-4.93-10.992-10.992v-28.18c0-6.062,4.941-10.992,10.992-10.992h31.755   C310.355,461.109,315.285,466.039,315.285,472.102z"/>
</g>
<rect x="136.316" y="120.626" style="fill:#DDEAED;" width="239.364" height="78.034"/>
<path style="fill:#299CB7;" d="M375.686,116.187H136.322c-2.454,0-4.441,1.987-4.441,4.441v78.034c0,2.454,1.987,4.441,4.441,4.441  h239.364c2.443,0,4.441-1.987,4.441-4.441v-78.034C380.128,118.174,378.129,116.187,375.686,116.187z M371.245,194.22H140.764  v-69.151h230.481V194.22z"/>
<g>
	<path style="fill:#32AACE;" d="M142.868,256.233c-0.552,0-1-0.449-1-1v-28.178c0-0.552,0.449-1,1-1h31.753c0.552,0,1,0.449,1,1   v28.178c0,0.552-0.449,1-1,1H142.868z"/>
	<path style="fill:#32AACE;" d="M142.868,317.49c-0.552,0-1-0.449-1-1v-28.168c0-0.552,0.449-1,1-1h31.753c0.552,0,1,0.449,1,1   v28.168c0,0.552-0.449,1-1,1H142.868z"/>
	<path style="fill:#32AACE;" d="M142.868,378.758c-0.552,0-1-0.449-1-1v-28.178c0-0.552,0.449-1,1-1h31.753c0.552,0,1,0.449,1,1   v28.178c0,0.552-0.449,1-1,1H142.868z"/>
	<path style="fill:#32AACE;" d="M142.868,440.014c-0.552,0-1-0.449-1-1v-28.167c0-0.552,0.449-1,1-1h31.753c0.552,0,1,0.449,1,1   v28.167c0,0.552-0.449,1-1,1H142.868z"/>
	<path style="fill:#32AACE;" d="M175.617,472.102v27.014c-11.647-3.842-22.917-8.505-33.754-13.912v-13.102   c0-0.544,0.455-0.999,0.999-0.999h31.755C175.173,471.102,175.617,471.557,175.617,472.102z"/>
	<path style="fill:#32AACE;" d="M207.711,256.233c-0.552,0-1-0.449-1-1v-28.178c0-0.552,0.449-1,1-1h31.742c0.552,0,1,0.449,1,1   v28.178c0,0.552-0.449,1-1,1H207.711z"/>
	<path style="fill:#32AACE;" d="M207.711,317.49c-0.552,0-1-0.449-1-1v-28.168c0-0.552,0.449-1,1-1h31.742c0.552,0,1,0.449,1,1   v28.168c0,0.552-0.449,1-1,1H207.711z"/>
	<path style="fill:#32AACE;" d="M207.711,378.758c-0.552,0-1-0.449-1-1v-28.178c0-0.552,0.449-1,1-1h31.742c0.552,0,1,0.449,1,1   v28.178c0,0.552-0.449,1-1,1H207.711z"/>
	<path style="fill:#32AACE;" d="M207.711,440.014c-0.552,0-1-0.449-1-1v-28.167c0-0.552,0.449-1,1-1h31.742c0.552,0,1,0.449,1,1   v28.167c0,0.552-0.449,1-1,1H207.711z"/>
	<path style="fill:#32AACE;" d="M207.711,501.282c-0.552,0-1-0.449-1-1v-28.179c0-0.552,0.449-1,1-1h31.742c0.552,0,1,0.449,1,1   v28.179c0,0.552-0.449,1-1,1H207.711z"/>
	<path style="fill:#32AACE;" d="M337.386,256.233c-0.551,0-0.999-0.449-0.999-1v-28.178c0-0.552,0.449-1,0.999-1h31.743   c0.551,0,0.999,0.449,0.999,1v28.178c0,0.552-0.449,1-0.999,1H337.386z"/>
	<path style="fill:#32AACE;" d="M337.386,317.49c-0.551,0-0.999-0.449-0.999-1v-28.168c0-0.552,0.449-1,0.999-1h31.743   c0.551,0,0.999,0.449,0.999,1v28.168c0,0.552-0.449,1-0.999,1H337.386z"/>
	<path style="fill:#32AACE;" d="M337.386,378.758c-0.551,0-0.999-0.449-0.999-1v-28.178c0-0.552,0.449-1,0.999-1h31.743   c0.551,0,0.999,0.449,0.999,1v28.178c0,0.552-0.449,1-0.999,1H337.386z"/>
	<path style="fill:#32AACE;" d="M337.386,440.014c-0.551,0-0.999-0.449-0.999-1v-28.167c0-0.552,0.449-1,0.999-1h31.743   c0.551,0,0.999,0.449,0.999,1v28.167c0,0.552-0.449,1-0.999,1H337.386z"/>
	<path style="fill:#32AACE;" d="M370.124,472.102v13.102c-10.826,5.407-22.107,10.071-33.743,13.912v-27.014   c0-0.544,0.455-0.999,0.999-0.999h31.744C369.68,471.102,370.124,471.557,370.124,472.102z"/>
	<path style="fill:#32AACE;" d="M272.543,256.233c-0.552,0-1-0.449-1-1v-28.178c0-0.552,0.449-1,1-1h31.753c0.552,0,1,0.449,1,1   v28.178c0,0.552-0.449,1-1,1H272.543z"/>
	<path style="fill:#32AACE;" d="M272.543,317.49c-0.552,0-1-0.449-1-1v-28.168c0-0.552,0.449-1,1-1h31.753c0.552,0,1,0.449,1,1   v28.168c0,0.552-0.449,1-1,1H272.543z"/>
	<path style="fill:#32AACE;" d="M272.543,378.758c-0.552,0-1-0.449-1-1v-28.178c0-0.552,0.449-1,1-1h31.753c0.552,0,1,0.449,1,1   v28.178c0,0.552-0.449,1-1,1H272.543z"/>
	<path style="fill:#32AACE;" d="M272.543,440.014c-0.552,0-1-0.449-1-1v-28.167c0-0.552,0.449-1,1-1h31.753c0.552,0,1,0.449,1,1   v28.167c0,0.552-0.449,1-1,1H272.543z"/>
	<path style="fill:#32AACE;" d="M272.543,501.282c-0.552,0-1-0.449-1-1v-28.179c0-0.552,0.449-1,1-1h31.753c0.552,0,1,0.449,1,1   v28.179c0,0.552-0.449,1-1,1H272.543z"/>
</g>
<g>
	<path style="fill:#838B8C;" d="M221.951,166.496c-1.732,0-2.332,0.988-2.332,2.343v9.449h-4.541v-31.711H203.53   c-1.221,0-2.343,0.655-2.343,2.343c0,1.677,1.121,2.332,2.343,2.332h6.873v27.036h-6.873c-1.221,0-2.343,0.655-2.343,2.343   c0,1.677,1.121,2.332,2.343,2.332h18.42c1.221,0,2.343-0.655,2.343-2.332v-11.792C224.294,167.484,223.683,166.496,221.951,166.496   z"/>
	<path style="fill:#838B8C;" d="M252.729,167.106c1.543,0,2.62-0.233,3.786-1.31c1.31-1.21,1.455-2.476,1.455-4.164v-9.582   c0-1.688-0.144-2.953-1.455-4.164c-1.166-1.077-2.243-1.31-3.786-1.31h-15.522c-1.221,0-2.343,0.655-2.343,2.343   c0,1.677,1.121,2.332,2.343,2.332h16.089v11.181h-13.146c-3.509,0-5.285,1.777-5.285,5.285v15.245h20.763   c1.221,0,2.343-0.655,2.343-2.332c0-1.688-1.121-2.343-2.343-2.343h-16.089v-11.181L252.729,167.106L252.729,167.106z"/>
	<path style="fill:#838B8C;" d="M291.646,151.251c0-2.665-2.01-4.674-4.674-4.674h-16.089c-1.221,0-2.343,0.655-2.343,2.343   c0,1.677,1.121,2.332,2.343,2.332h16.089v7.761c0,2.62-1.033,3.42-2.343,3.42h-9.16c-1.221,0-2.343,0.655-2.343,2.343   c0,1.677,1.121,2.332,2.343,2.332h9.16c1.31,0,2.343,0.799,2.343,3.42v7.761h-16.089c-1.221,0-2.343,0.655-2.343,2.343   c0,1.677,1.121,2.332,2.343,2.332h16.089c2.665,0,4.674-2.01,4.674-4.674v-8.983c0-1.865-0.378-3.231-1.821-4.53   c1.443-1.31,1.821-2.676,1.821-4.541V151.251z"/>
	<path style="fill:#838B8C;" d="M322.979,166.407v-13.513c0-1.177-0.555-2.343-2.332-2.343s-2.343,1.166-2.343,2.343v13.513h-9.071   v-17.488c0-1.177-0.566-2.343-2.343-2.343c-1.777,0-2.332,1.166-2.332,2.343v22.162h13.746v9.549c0,1.488,0.655,2.332,2.343,2.332   c1.677,0,2.332-0.844,2.332-2.332v-9.549c1.221,0,2.343-0.655,2.343-2.332C325.322,167.062,324.201,166.407,322.979,166.407z"/>
	<path style="fill:#838B8C;" d="M353.802,162.432h-8.605v-11.181h11.459c1.221,0,2.343-0.655,2.343-2.332   c0-1.688-1.121-2.343-2.343-2.343h-16.133v20.53h13.801v11.181H343.52c-0.755,0-1.821-0.655-2.487-0.933l-1.399-0.611   c-0.511-0.233-0.933-0.378-1.499-0.378c-1.21,0-2.243,1.121-2.243,2.343c0,1.632,1.399,2.054,2.665,2.62l1.777,0.788   c1.177,0.522,1.876,0.844,3.087,0.844h10.382c1.688,0,2.909-0.189,4.075-1.588c0.977-1.166,1.121-2.198,1.121-3.653v-10.004   c0-1.643-0.144-2.765-1.443-3.975C356.422,162.665,355.301,162.432,353.802,162.432z"/>
	<path style="fill:#838B8C;" d="M165.28,148.486l-0.389-12.791c-0.033-1.432,0.044-2.509-0.877-3.708   c-0.733-0.955-1.854-1.499-3.087-1.499c-1.621,0-2.087,0.389-3.242,1.543l-0.311,0.311c-0.844-1.166-1.965-1.854-3.387-1.854   c-1.277,0-1.854,0.5-2.82,1.232l-0.3,0.233c-0.233-0.844-0.855-1.466-1.777-1.466c-1.577,0-1.932,1.31-1.932,2.62v15.611   c0,1.277,0.278,2.543,1.854,2.543s1.854-1.266,1.854-2.543v-12.025l1.61-1.499c0.311-0.278,0.588-0.622,1.01-0.622   c0.966,0,0.888,1.155,0.888,1.777v12.369c0,1.277,0.266,2.543,1.843,2.543c1.588,0,1.854-1.266,1.854-2.543v-12.025l0.766-0.844   c0.311-0.355,1.01-1.277,1.543-1.277c0.999,0,0.811,1.31,0.855,1.965l0.378,12.225c0.044,1.232,0.344,2.498,1.854,2.498   C165.124,151.262,165.324,149.796,165.28,148.486z"/>
</g>
<g>
</g>
<g>
</g>
<g>
</g>
<g>
</g>
<g>
</g>
<g>
</g>
<g>
</g>
<g>
</g>
<g>
</g>
<g>
</g>
<g>
</g>
<g>
</g>
<g>
</g>
<g>
</g>
<g>
</g>
</svg>
