<?xml version="1.0" encoding="iso-8859-1"?>
<!-- Generator: Adobe Illustrator 19.0.0, SVG Export Plug-In . SVG Version: 6.00 Build 0)  -->
<svg xmlns="http://www.w3.org/2000/svg" xmlns:xlink="http://www.w3.org/1999/xlink" version="1.1" id="Layer_1" x="0px" y="0px" viewBox="0 0 512 512" style="enable-background:new 0 0 512 512;" xml:space="preserve">
<path style="fill:#AA5013;" d="M512,256c0,27.658-4.386,54.283-12.491,79.232c-0.811,2.498-1.665,4.974-2.554,7.439  c-4.019,11.192-8.816,22.029-14.301,32.432c-7.739,14.712-16.877,28.58-27.236,41.426c-7.395,9.193-15.422,17.854-24.016,25.926  c-1.899,1.799-3.831,3.553-5.785,5.285c-45.168,39.982-104.558,64.254-169.612,64.254c-32.01,0-62.655-5.874-90.902-16.61  C68.595,458.721,0,365.377,0,256C0,158.192,54.861,73.186,135.481,30.106c35.919-19.208,76.945-30.101,120.525-30.101h0.744  c24.072,0.067,47.366,3.464,69.439,9.749c44.279,12.591,83.673,36.807,114.651,69.15c2.087,2.176,4.13,4.386,6.129,6.629  c23.405,26.192,41.504,57.226,52.585,91.423c0.933,2.865,1.81,5.751,2.643,8.66C508.58,207.979,512,231.595,512,256z"/>
<path style="fill:#CCCCCC;" d="M391.242,195.71c-7.162-7.162-12.036-15.744-14.634-24.838l-52.862,52.862h-0.011l-9.071,9.071  l-22.151,22.162l-8.239,8.239l-9.06,9.071h-0.011l-18.453,18.453L155.144,392.336c21.796,21.796,57.137,21.796,78.932,0  l22.673-22.673l57.914-57.925h0.011l9.071-9.06l8.239-8.239l22.151-22.162h0.011l9.06-9.071l26.448-26.448l11.536-11.525  l4.241-4.241l9.449-9.449l1.188-1.199v-0.011C406.975,207.746,398.404,202.86,391.242,195.71z M333.983,264.305  c-0.022,0.167-0.033,0.333-0.067,0.489c-0.022,0.133-0.044,0.255-0.067,0.378c-0.022,0.155-0.056,0.3-0.089,0.444  c-0.078,0.322-0.167,0.644-0.289,0.955c-0.056,0.2-0.144,0.4-0.222,0.588c-0.089,0.244-0.2,0.489-0.333,0.722  c-0.466,0.944-1.099,1.821-1.888,2.609c-0.211,0.211-0.422,0.411-0.644,0.588c-0.011,0.011-0.011,0.022-0.022,0.022  c-0.211,0.178-0.433,0.355-0.655,0.511c-0.322,0.233-0.655,0.433-0.999,0.622c-0.155,0.089-0.311,0.167-0.466,0.244  c-0.056,0.033-0.111,0.056-0.167,0.078c-0.233,0.111-0.466,0.211-0.7,0.289c-0.055,0.022-0.111,0.044-0.178,0.056  c-0.022,0.011-0.044,0.011-0.067,0.022c-0.067,0.033-0.144,0.056-0.222,0.078c-0.244,0.078-0.5,0.155-0.766,0.222  c-0.033,0.011-0.056,0.011-0.089,0.022c-0.1,0.022-0.189,0.044-0.289,0.067c-0.044,0.011-0.089,0.022-0.133,0.022  c-0.044,0.011-0.089,0.011-0.133,0.022c-0.178,0.033-0.355,0.056-0.544,0.067c-0.011,0.011-0.022,0.011-0.044,0.011  c0,0,0,0.011-0.011,0c-0.2,0.022-0.389,0.033-0.588,0.056c-0.522,0.022-1.044,0.022-1.566-0.033c-0.211-0.022-0.411-0.056-0.6-0.078  c-0.3-0.044-0.588-0.111-0.866-0.178c-0.1-0.022-0.189-0.044-0.289-0.067c-0.033-0.011-0.067-0.022-0.1-0.033  c-0.133-0.033-0.255-0.078-0.389-0.122c-0.2-0.056-0.4-0.122-0.588-0.2c-0.322-0.133-0.655-0.278-0.966-0.444  c-0.899-0.477-1.743-1.088-2.498-1.843c-0.133-0.133-0.266-0.278-0.389-0.422c-0.322-0.355-0.622-0.733-0.888-1.144  c-0.111-0.155-0.211-0.311-0.311-0.477c-0.022-0.044-0.044-0.078-0.067-0.122c-0.122-0.222-0.244-0.444-0.355-0.677  c-0.089-0.178-0.167-0.366-0.244-0.555c-0.011-0.011-0.011-0.011-0.011-0.011c-0.044-0.122-0.089-0.244-0.133-0.378  c-0.044-0.122-0.089-0.244-0.122-0.366c-0.056-0.144-0.1-0.3-0.133-0.455c-0.011-0.033-0.022-0.067-0.033-0.1  c-0.011-0.044-0.022-0.078-0.033-0.111v-0.011c-0.011-0.056-0.022-0.111-0.033-0.178c-0.044-0.178-0.089-0.366-0.111-0.555  c-0.022-0.056-0.022-0.1-0.033-0.155c0-0.044-0.011-0.089-0.022-0.144c-0.011-0.089-0.022-0.167-0.022-0.255  c-0.033-0.189-0.044-0.378-0.044-0.566c0-0.111-0.011-0.211-0.011-0.322c-0.022-0.289-0.011-0.577,0-0.855  c0.022-0.2,0.033-0.4,0.056-0.588c0.022-0.167,0.044-0.333,0.067-0.489c0-0.1,0.022-0.2,0.044-0.289  c0-0.022,0.011-0.033,0.011-0.044c0-0.011,0-0.011,0-0.011c0-0.022,0.011-0.044,0.022-0.078c0.044-0.233,0.1-0.466,0.167-0.699  c0-0.033,0.011-0.067,0.022-0.1c0.056-0.189,0.111-0.366,0.178-0.544c0.022-0.078,0.055-0.144,0.078-0.222  c0.022-0.044,0.044-0.1,0.067-0.144c0-0.033,0.011-0.067,0.033-0.1c0.078-0.178,0.155-0.355,0.233-0.533  c0.011-0.044,0.033-0.089,0.067-0.133c0.044-0.089,0.089-0.178,0.144-0.266c0.033-0.089,0.078-0.178,0.133-0.266  c0.022-0.044,0.055-0.1,0.089-0.155c0.067-0.111,0.133-0.211,0.211-0.322c0.155-0.244,0.311-0.477,0.489-0.699  c0.167-0.222,0.344-0.433,0.533-0.644c0.111-0.133,0.233-0.255,0.355-0.377c0.189-0.189,0.378-0.366,0.577-0.533  c0.067-0.056,0.133-0.111,0.2-0.167c0.044-0.044,0.089-0.078,0.133-0.111c0.233-0.178,0.466-0.344,0.711-0.511  c0.289-0.189,0.577-0.366,0.877-0.522c0.6-0.311,1.221-0.566,1.854-0.755c0.322-0.089,0.644-0.167,0.966-0.233  c1.299-0.255,2.643-0.255,3.942,0c0.1,0.022,0.211,0.044,0.311,0.078c0.1,0.022,0.211,0.044,0.311,0.078  c0.033,0,0.067,0.011,0.1,0.022c0.011,0,0.011,0,0.022,0c0.078,0.011,0.144,0.033,0.222,0.056c0.033,0.011,0.055,0.022,0.089,0.033  c0.044,0.022,0.1,0.033,0.155,0.056c0.344,0.1,0.677,0.233,0.999,0.378h0.011c0.044,0.022,0.1,0.044,0.144,0.067  c0.5,0.233,0.999,0.511,1.466,0.833c0.178,0.122,0.344,0.244,0.522,0.378c0.067,0.044,0.122,0.1,0.189,0.144  c0.1,0.089,0.2,0.178,0.3,0.266c0.155,0.133,0.311,0.278,0.455,0.433c0.011,0,0.011,0,0.022,0.011  c0.122,0.122,0.244,0.255,0.366,0.389c0.155,0.178,0.3,0.355,0.444,0.544c0.144,0.167,0.266,0.333,0.366,0.511  c0.144,0.167,0.255,0.344,0.344,0.522c0.1,0.178,0.2,0.366,0.3,0.544c0.111,0.178,0.2,0.366,0.278,0.566  c0.255,0.544,0.444,1.099,0.577,1.677c0.022,0.056,0.033,0.122,0.055,0.189c0.044,0.167,0.078,0.344,0.1,0.522  C334.039,262.34,334.083,263.317,333.983,264.305z"/>
<path style="fill:#55C6A1;" d="M256.749,0.006v495.379h-91.645C68.595,458.721,0,365.377,0,256  C0,158.192,54.861,73.186,135.481,30.106c35.919-19.208,76.945-30.101,120.525-30.101C256.006,0.006,256.749,0.006,256.749,0.006z"/>
<path style="fill:#B3B3B3;" d="M314.664,232.805l-22.151,22.162l-8.239,8.239l-9.06,9.071l39.45,39.461h0.011l9.071-9.06  l8.239-8.239l22.151-22.162L314.664,232.805z M307.391,279.561c-3.175-3.164-3.853-7.894-2.01-11.725  c0.477-1.021,1.155-1.987,2.01-2.842c1.721-1.721,3.875-2.709,6.107-2.953h0.022c2.987-0.344,6.107,0.622,8.405,2.92  c0.011,0.011,0.022,0.022,0.033,0.033c1.566,1.554,2.52,3.486,2.865,5.496c-0.011,0.011-0.011,0.011,0,0.011  c0.178,0.966,0.2,1.954,0.089,2.931v0.022c-0.255,2.232-1.244,4.397-2.953,6.107c-0.855,0.855-1.81,1.521-2.842,2.01  C315.285,283.414,310.555,282.736,307.391,279.561z"/>
<path style="fill:#41AA84;" d="M225.938,142.215c-15.955-15.955-39.161-20.23-59.002-12.824c-3.797,1.41-7.472,3.253-10.948,5.529  c-3.176,2.076-6.196,4.508-8.982,7.295l109.744,109.744v-78.932L225.938,142.215z"/>
<path style="fill:#CCCCCC;" d="M414.881,314.869l-9.46-9.449L234.077,134.076c-18.975-18.975-48.199-21.429-69.828-7.372  c-3.22,2.087-6.273,4.541-9.105,7.372l101.605,101.605l27.525,27.525l81.686,81.686l2.887,2.887l7.761,7.761  c2.598-9.094,7.472-17.665,14.634-24.827c6.173-6.173,13.39-10.648,21.085-13.413c1.244-0.455,2.487-0.866,3.742-1.221v-0.011  L414.881,314.869z"/>
<path style="fill:#808080;" d="M316.457,255.919c-3.057,3.051-3.882,7.83-2.016,11.727c1.838,3.838,5.975,6.197,10.212,5.823  c4.349-0.384,8.086-3.603,9.108-7.85c0.993-4.128-0.716-8.537-4.22-10.933C325.504,251.925,319.909,252.46,316.457,255.919z"/>
<path style="fill:#666666;" d="M322.768,267.646c-1.865-3.897-1.041-8.676,2.016-11.727c0.919-0.92,1.993-1.628,3.146-2.127  c-3.817-1.682-8.461-0.892-11.473,2.127c-3.057,3.051-3.882,7.83-2.016,11.727c1.838,3.839,5.975,6.197,10.212,5.823  c1.144-0.101,2.242-0.403,3.262-0.863C325.707,271.624,323.842,269.891,322.768,267.646z"/>
<path style="fill:#B3B3B3;" d="M375.402,172.073c2.505,20.623,18.852,36.962,39.476,39.467l-25.221,25.221  c-17.616-7.712-31.764-21.86-39.467-39.476L375.402,172.073z"/>
<path style="fill:#E09132;" d="M486.107,100.833c-12.691-12.702-28.724-20.008-45.268-21.929  c-22.462-2.62-45.867,4.697-63.099,21.929c-22.961,22.961-28.313,56.87-16.033,84.928c0,0,0,0,0,0.011  c3.731,8.505,9.071,16.466,16.033,23.428s14.945,12.313,23.45,16.033c28.058,12.269,61.956,6.928,84.917-16.033  c7.006-7.006,12.369-15.023,16.088-23.583C514.387,157.593,509.024,123.75,486.107,100.833z M463.968,122.973  c17.698,17.698,17.698,46.389,0,64.087c-17.698,17.698-46.389,17.698-64.087,0c-17.698-17.698-17.698-46.389,0-64.087  C417.579,105.275,446.269,105.275,463.968,122.973z"/>
<path style="fill:#F0A037;" d="M482.177,104.753c-9.793-9.804-21.862-16.377-35.208-19.22c-2.221-0.477-4.486-0.844-6.773-1.11  c-2.731-0.322-5.518-0.489-8.272-0.489c-18.986,0-36.829,7.395-50.264,20.83c-20.341,20.341-26.381,50.253-15.7,76.756  c0.255,0.677,0.544,1.343,0.833,2.01l0.211,0.5c3.542,7.917,8.472,15.056,14.656,21.24c6.329,6.329,13.646,11.336,21.751,14.878  c0.666,0.289,1.343,0.577,2.021,0.844c8.427,3.386,17.332,5.096,26.492,5.096c0,0,0,0,0.011,0c18.975,0,36.818-7.395,50.242-20.818  c6.362-6.351,11.381-13.712,14.934-21.862c0.922-2.132,1.732-4.275,2.443-6.451C507.825,151.619,501.341,123.917,482.177,104.753z   M467.887,190.991c-9.604,9.604-22.373,14.9-35.963,14.9c-13.59,0-26.359-5.296-35.974-14.9c-9.604-9.615-14.9-22.384-14.9-35.974  s5.296-26.359,14.9-35.974c9.615-9.604,22.384-14.9,35.974-14.9c13.59,0,26.359,5.296,35.963,14.9  c9.615,9.615,14.9,22.384,14.9,35.974S477.502,181.376,467.887,190.991z"/>
<path style="fill:#E6E6E6;" d="M380.405,342.86l-11.558,4.919l-7.128-7.128l-77.445-77.445l-27.525-27.525L155.144,134.076  c2.831-2.831,5.885-5.285,9.105-7.373L380.405,342.86z"/>
<path style="fill:#E09132;" d="M486.107,317.201c-22.961-22.972-56.87-28.302-84.928-16.022c-8.505,3.708-16.477,9.06-23.439,16.022  c-3.942,3.942-7.372,8.216-10.27,12.724c-2.232,3.442-4.141,7.039-5.751,10.726c-12.28,28.047-6.951,61.956,16.022,84.917  c13.357,13.346,30.423,20.741,47.877,22.173c1.954-1.732,3.886-3.486,5.785-5.285c8.594-8.072,16.621-16.732,24.016-25.926  c10.359-12.846,19.497-26.714,27.236-41.426c5.485-10.404,10.282-21.24,14.301-32.432c0.888-2.465,1.743-4.941,2.554-7.439  C496.045,328.748,491.57,322.663,486.107,317.201z M463.968,403.428c-17.698,17.698-46.389,17.698-64.087,0  c-17.698-17.698-17.698-46.389,0-64.087c17.698-17.698,46.389-17.698,64.087,0C481.666,357.039,481.666,385.729,463.968,403.428z"/>
<path style="fill:#F0A037;" d="M496.955,342.671c-0.711-1.621-1.499-3.231-2.343-4.819c-3.264-6.118-7.45-11.747-12.436-16.732  c-13.413-13.424-31.255-20.807-50.242-20.807c-9.171,0-18.076,1.71-26.514,5.107c-0.677,0.266-1.355,0.555-2.021,0.844  c-8.083,3.531-15.4,8.527-21.729,14.867c-3.919,3.908-7.317,8.194-10.182,12.813c-1.776,2.865-3.331,5.84-4.686,8.938  c-0.289,0.666-0.577,1.343-0.844,2.01c-10.681,26.514-4.641,56.415,15.7,76.745c11.903,11.891,27.669,19.197,44.413,20.574  c1.754,0.144,3.553,0.222,5.33,0.244c8.594-8.072,16.621-16.732,24.016-25.926c-7.162,3.742-15.178,5.729-23.494,5.729  c-13.59,0-26.359-5.296-35.974-14.9c-9.604-9.615-14.9-22.384-14.9-35.974c0-13.59,5.296-26.359,14.9-35.974  c9.615-9.604,22.384-14.9,35.974-14.9c13.59,0,26.359,5.296,35.963,14.9c9.615,9.615,14.9,22.384,14.9,35.974  c0,1.244-0.044,2.487-0.133,3.72C488.139,364.7,492.936,353.863,496.955,342.671z"/>
<g>
</g>
<g>
</g>
<g>
</g>
<g>
</g>
<g>
</g>
<g>
</g>
<g>
</g>
<g>
</g>
<g>
</g>
<g>
</g>
<g>
</g>
<g>
</g>
<g>
</g>
<g>
</g>
<g>
</g>
</svg>
