<svg enable-background="new 0 0 512 512" viewBox="0 0 512 512" xmlns="http://www.w3.org/2000/svg"><path d="m512 256c0 27.658-4.386 54.283-12.491 79.232-.811 2.498-1.665 4.974-2.554 7.439-4.019 11.192-8.816 22.029-14.301 32.432-7.739 14.712-16.877 28.58-27.236 41.426-7.395 9.193-15.422 17.854-24.016 25.926-1.899 1.799-3.831 3.553-5.785 5.285-45.168 39.982-104.558 64.254-169.612 64.254-32.01 0-62.655-5.874-90.902-16.61-96.508-36.663-165.103-130.007-165.103-239.384 0-97.808 54.861-182.814 135.481-225.894 35.919-19.208 76.945-30.101 120.525-30.101h.744c24.072.067 47.366 3.464 69.439 9.749 44.279 12.591 83.673 36.807 114.651 69.15 2.087 2.176 4.13 4.386 6.129 6.629 23.405 26.192 41.504 57.226 52.585 91.423.933 2.865 1.81 5.751 2.643 8.66 6.383 22.363 9.803 45.979 9.803 70.384z" fill="#aa5013"/><path d="m391.242 195.71c-7.162-7.162-12.036-15.744-14.634-24.838l-52.862 52.862h-.011l-9.071 9.071-22.151 22.162-8.239 8.239-9.06 9.071h-.011l-18.453 18.453-101.606 101.606c21.796 21.796 57.137 21.796 78.932 0l22.673-22.673 57.914-57.925h.011l9.071-9.06 8.239-8.239 22.151-22.162h.011l9.06-9.071 26.448-26.448 11.536-11.525 4.241-4.241 9.449-9.449 1.188-1.199v-.011c-9.093-2.587-17.664-7.473-24.826-14.623zm-57.259 68.595c-.022.167-.033.333-.067.489-.022.133-.044.255-.067.378-.022.155-.056.3-.089.444-.078.322-.167.644-.289.955-.056.2-.144.4-.222.588-.089.244-.2.489-.333.722-.466.944-1.099 1.821-1.888 2.609-.211.211-.422.411-.644.588-.011.011-.011.022-.022.022-.211.178-.433.355-.655.511-.322.233-.655.433-.999.622-.155.089-.311.167-.466.244-.056.033-.111.056-.167.078-.233.111-.466.211-.7.289-.055.022-.111.044-.178.056-.022.011-.044.011-.067.022-.067.033-.144.056-.222.078-.244.078-.5.155-.766.222-.033.011-.056.011-.089.022-.1.022-.189.044-.289.067-.044.011-.089.022-.133.022-.044.011-.089.011-.133.022-.178.033-.355.056-.544.067-.011.011-.022.011-.044.011 0 0 0 .011-.011 0-.2.022-.389.033-.588.056-.522.022-1.044.022-1.566-.033-.211-.022-.411-.056-.6-.078-.3-.044-.588-.111-.866-.178-.1-.022-.189-.044-.289-.067-.033-.011-.067-.022-.1-.033-.133-.033-.255-.078-.389-.122-.2-.056-.4-.122-.588-.2-.322-.133-.655-.278-.966-.444-.899-.477-1.743-1.088-2.498-1.843-.133-.133-.266-.278-.389-.422-.322-.355-.622-.733-.888-1.144-.111-.155-.211-.311-.311-.477-.022-.044-.044-.078-.067-.122-.122-.222-.244-.444-.355-.677-.089-.178-.167-.366-.244-.555-.011-.011-.011-.011-.011-.011-.044-.122-.089-.244-.133-.378-.044-.122-.089-.244-.122-.366-.056-.144-.1-.3-.133-.455-.011-.033-.022-.067-.033-.1-.011-.044-.022-.078-.033-.111v-.011c-.011-.056-.022-.111-.033-.178-.044-.178-.089-.366-.111-.555-.022-.056-.022-.1-.033-.155 0-.044-.011-.089-.022-.144-.011-.089-.022-.167-.022-.255-.033-.189-.044-.378-.044-.566 0-.111-.011-.211-.011-.322-.022-.289-.011-.577 0-.855.022-.2.033-.4.056-.588.022-.167.044-.333.067-.489 0-.1.022-.2.044-.289 0-.022.011-.033.011-.044s0-.011 0-.011c0-.022.011-.044.022-.078.044-.233.1-.466.167-.699 0-.033.011-.067.022-.1.056-.189.111-.366.178-.544.022-.078.055-.144.078-.222.022-.044.044-.1.067-.144 0-.033.011-.067.033-.1.078-.178.155-.355.233-.533.011-.044.033-.089.067-.133.044-.089.089-.178.144-.266.033-.089.078-.178.133-.266.022-.044.055-.1.089-.155.067-.111.133-.211.211-.322.155-.244.311-.477.489-.699.167-.222.344-.433.533-.644.111-.133.233-.255.355-.377.189-.189.378-.366.577-.533.067-.056.133-.111.2-.167.044-.044.089-.078.133-.111.233-.178.466-.344.711-.511.289-.189.577-.366.877-.522.6-.311 1.221-.566 1.854-.755.322-.089.644-.167.966-.233 1.299-.255 2.643-.255 3.942 0 .1.022.211.044.311.078.1.022.211.044.311.078.033 0 .067.011.1.022h.022c.078.011.144.033.222.056.033.011.055.022.089.033.044.022.1.033.155.056.344.1.677.233.999.378h.011c.044.022.1.044.144.067.5.233.999.511 1.466.833.178.122.344.244.522.378.067.044.122.1.189.144.1.089.2.178.3.266.155.133.311.278.455.433.011 0 .011 0 .022.011.122.122.244.255.366.389.155.178.3.355.444.544.144.167.266.333.366.511.144.167.255.344.344.522.1.178.2.366.3.544.111.178.2.366.278.566.255.544.444 1.099.577 1.677.022.056.033.122.055.189.044.167.078.344.1.522.178.946.222 1.923.122 2.911z" fill="#ccc"/><path d="m256.749.006v495.379h-91.645c-96.509-36.664-165.104-130.008-165.104-239.385 0-97.808 54.861-182.814 135.481-225.894 35.919-19.208 76.945-30.101 120.525-30.101 0 .001.743.001.743.001z" fill="#55c6a1"/><path d="m314.664 232.805-22.151 22.162-8.239 8.239-9.06 9.071 39.45 39.461h.011l9.071-9.06 8.239-8.239 22.151-22.162zm-7.273 46.756c-3.175-3.164-3.853-7.894-2.01-11.725.477-1.021 1.155-1.987 2.01-2.842 1.721-1.721 3.875-2.709 6.107-2.953h.022c2.987-.344 6.107.622 8.405 2.92l.033.033c1.566 1.554 2.52 3.486 2.865 5.496-.011.011-.011.011 0 .011.178.966.2 1.954.089 2.931v.022c-.255 2.232-1.244 4.397-2.953 6.107-.855.855-1.81 1.521-2.842 2.01-3.832 1.843-8.562 1.165-11.726-2.01z" fill="#b3b3b3"/><path d="m225.938 142.215c-15.955-15.955-39.161-20.23-59.002-12.824-3.797 1.41-7.472 3.253-10.948 5.529-3.176 2.076-6.196 4.508-8.982 7.295l109.744 109.744v-78.932z" fill="#41aa84"/><path d="m414.881 314.869-9.46-9.449-171.344-171.344c-18.975-18.975-48.199-21.429-69.828-7.372-3.22 2.087-6.273 4.541-9.105 7.372l101.605 101.605 27.525 27.525 81.686 81.686 2.887 2.887 7.761 7.761c2.598-9.094 7.472-17.665 14.634-24.827 6.173-6.173 13.39-10.648 21.085-13.413 1.244-.455 2.487-.866 3.742-1.221v-.011z" fill="#ccc"/><path d="m316.457 255.919c-3.057 3.051-3.882 7.83-2.016 11.727 1.838 3.838 5.975 6.197 10.212 5.823 4.349-.384 8.086-3.603 9.108-7.85.993-4.128-.716-8.537-4.22-10.933-4.037-2.761-9.632-2.226-13.084 1.233z" fill="#808080"/><path d="m322.768 267.646c-1.865-3.897-1.041-8.676 2.016-11.727.919-.92 1.993-1.628 3.146-2.127-3.817-1.682-8.461-.892-11.473 2.127-3.057 3.051-3.882 7.83-2.016 11.727 1.838 3.839 5.975 6.197 10.212 5.823 1.144-.101 2.242-.403 3.262-.863-2.208-.982-4.073-2.715-5.147-4.96z" fill="#666"/><path d="m375.402 172.073c2.505 20.623 18.852 36.962 39.476 39.467l-25.221 25.221c-17.616-7.712-31.764-21.86-39.467-39.476z" fill="#b3b3b3"/><path d="m486.107 100.833c-12.691-12.702-28.724-20.008-45.268-21.929-22.462-2.62-45.867 4.697-63.099 21.929-22.961 22.961-28.313 56.87-16.033 84.928v.011c3.731 8.505 9.071 16.466 16.033 23.428s14.945 12.313 23.45 16.033c28.058 12.269 61.956 6.928 84.917-16.033 7.006-7.006 12.369-15.023 16.088-23.583 12.192-28.024 6.829-61.867-16.088-84.784zm-22.139 22.14c17.698 17.698 17.698 46.389 0 64.087s-46.389 17.698-64.087 0-17.698-46.389 0-64.087 46.388-17.698 64.087 0z" fill="#e09132"/><path d="m482.177 104.753c-9.793-9.804-21.862-16.377-35.208-19.22-2.221-.477-4.486-.844-6.773-1.11-2.731-.322-5.518-.489-8.272-.489-18.986 0-36.829 7.395-50.264 20.83-20.341 20.341-26.381 50.253-15.7 76.756.255.677.544 1.343.833 2.01l.211.5c3.542 7.917 8.472 15.056 14.656 21.24 6.329 6.329 13.646 11.336 21.751 14.878.666.289 1.343.577 2.021.844 8.427 3.386 17.332 5.096 26.492 5.096h.011c18.975 0 36.818-7.395 50.242-20.818 6.362-6.351 11.381-13.712 14.934-21.862.922-2.132 1.732-4.275 2.443-6.451 8.271-25.338 1.787-53.04-17.377-72.204zm-14.29 86.238c-9.604 9.604-22.373 14.9-35.963 14.9s-26.359-5.296-35.974-14.9c-9.604-9.615-14.9-22.384-14.9-35.974s5.296-26.359 14.9-35.974c9.615-9.604 22.384-14.9 35.974-14.9s26.359 5.296 35.963 14.9c9.615 9.615 14.9 22.384 14.9 35.974s-5.285 26.359-14.9 35.974z" fill="#f0a037"/><path d="m380.405 342.86-11.558 4.919-7.128-7.128-77.445-77.445-27.525-27.525-101.605-101.605c2.831-2.831 5.885-5.285 9.105-7.373z" fill="#e6e6e6"/><path d="m486.107 317.201c-22.961-22.972-56.87-28.302-84.928-16.022-8.505 3.708-16.477 9.06-23.439 16.022-3.942 3.942-7.372 8.216-10.27 12.724-2.232 3.442-4.141 7.039-5.751 10.726-12.28 28.047-6.951 61.956 16.022 84.917 13.357 13.346 30.423 20.741 47.877 22.173 1.954-1.732 3.886-3.486 5.785-5.285 8.594-8.072 16.621-16.732 24.016-25.926 10.359-12.846 19.497-26.714 27.236-41.426 5.485-10.404 10.282-21.24 14.301-32.432.888-2.465 1.743-4.941 2.554-7.439-3.465-6.485-7.94-12.57-13.403-18.032zm-22.139 86.227c-17.698 17.698-46.389 17.698-64.087 0s-17.698-46.389 0-64.087 46.389-17.698 64.087 0 17.698 46.388 0 64.087z" fill="#e09132"/><path d="m496.955 342.671c-.711-1.621-1.499-3.231-2.343-4.819-3.264-6.118-7.45-11.747-12.436-16.732-13.413-13.424-31.255-20.807-50.242-20.807-9.171 0-18.076 1.71-26.514 5.107-.677.266-1.355.555-2.021.844-8.083 3.531-15.4 8.527-21.729 14.867-3.919 3.908-7.317 8.194-10.182 12.813-1.776 2.865-3.331 5.84-4.686 8.938-.289.666-.577 1.343-.844 2.01-10.681 26.514-4.641 56.415 15.7 76.745 11.903 11.891 27.669 19.197 44.413 20.574 1.754.144 3.553.222 5.33.244 8.594-8.072 16.621-16.732 24.016-25.926-7.162 3.742-15.178 5.729-23.494 5.729-13.59 0-26.359-5.296-35.974-14.9-9.604-9.615-14.9-22.384-14.9-35.974s5.296-26.359 14.9-35.974c9.615-9.604 22.384-14.9 35.974-14.9s26.359 5.296 35.963 14.9c9.615 9.615 14.9 22.384 14.9 35.974 0 1.244-.044 2.487-.133 3.72 5.486-10.404 10.283-21.241 14.302-32.433z" fill="#f0a037"/></svg>