<svg enable-background="new 0 0 512 512" viewBox="0 0 512 512" xmlns="http://www.w3.org/2000/svg"><path d="m512 256c0 24.971-3.575 49.109-10.248 71.926-4.708 16.133-10.97 31.611-18.609 46.256-2.309 4.43-4.741 8.783-7.295 13.046-2.654 4.441-5.441 8.794-8.361 13.057-6.673 9.76-14.001 19.042-21.918 27.758-4.164 4.586-8.494 9.027-12.98 13.29-3.253 3.098-6.584 6.118-9.993 9.038-9.071 7.783-18.709 14.945-28.824 21.418-5.851 3.742-11.869 7.262-18.032 10.526-35.73 18.942-76.479 29.679-119.736 29.679s-84.007-10.726-119.736-29.679c-6.173-3.264-12.191-6.784-18.043-10.515-10.115-6.484-19.753-13.646-28.824-21.429-3.409-2.92-6.74-5.94-9.993-9.038-4.486-4.264-8.816-8.705-12.98-13.29-7.917-8.716-15.234-17.987-21.907-27.736-2.92-4.264-5.707-8.627-8.372-13.08-2.554-4.264-4.985-8.616-7.295-13.046-7.628-14.634-13.89-30.101-18.598-46.222-6.681-22.828-10.256-46.977-10.256-71.959s3.575-49.131 10.259-71.96c2.321-7.961 5.03-15.766 8.094-23.383 1.599-4.008 3.298-7.95 5.107-11.847 1.71-3.72 3.509-7.384 5.396-10.992 4.153-7.972 8.716-15.7 13.668-23.15 45.835-69.106 124.334-114.662 213.482-114.662 89.136 0 167.635 45.556 213.469 114.662 4.952 7.45 9.515 15.178 13.668 23.15 1.888 3.609 3.686 7.273 5.396 10.992 1.81 3.897 3.509 7.839 5.107 11.847 3.076 7.628 5.785 15.445 8.105 23.417 6.674 22.817 10.249 46.955 10.249 71.926z" fill="#42577f"/><path d="m501.752 160.657v167.269c-4.708 16.133-10.97 31.611-18.609 46.256-2.309 4.43-4.741 8.783-7.295 13.046-2.654 4.441-5.441 8.794-8.361 13.057-6.673 9.76-14.001 19.042-21.918 27.758-4.164 4.586-8.494 9.027-12.98 13.29-3.253 3.098-6.584 6.118-9.993 9.038-9.071 7.783-18.709 14.945-28.824 21.418-5.851 3.742-11.869 7.262-18.032 10.526l-79.765-5.829v.566c0 4.808-3.908 8.716-8.716 8.716h-62.522c-4.808 0-8.705-3.908-8.705-8.716v-.566l-79.765 5.829c-6.173-3.264-12.191-6.784-18.043-10.515-10.115-6.484-19.753-13.646-28.824-21.429-3.409-2.92-6.74-5.94-9.993-9.038-4.486-4.264-8.816-8.705-12.98-13.29-7.917-8.716-15.234-17.987-21.907-27.736-2.92-4.264-5.707-8.627-8.372-13.08-2.554-4.264-4.985-8.616-7.295-13.046-7.628-14.634-13.89-30.101-18.598-46.222v-167.302h18.598l43.746 62.899 7.095 10.204 17.043 24.494 7.084 10.193 17.032 24.494 7.095 10.193 14.823 21.318 2.221 3.176 4.441 6.395 2.654 3.808 17.432 25.071 7.561 10.881 29.312 42.137 8.327 11.969.922 1.321.389.566v-102.96c0-.822.111-1.621.333-2.365 1.021-3.664 4.386-6.34 8.372-6.34h62.522c3.986 0 7.361 2.676 8.383 6.34.222.744.333 1.543.333 2.365v102.948l.378-.544.933-1.332 8.316-11.969 29.312-42.137 7.561-10.87 17.443-25.082 2.654-3.808 4.441-6.395 2.21-3.175 14.823-21.318 7.095-10.193 17.043-24.494 7.084-10.193 17.043-24.494 7.084-10.204 43.746-62.888.011-.011z" fill="#e09132"/><path d="m501.752 148.81v179.116c-4.708 16.133-10.97 31.611-18.609 46.256-2.309 4.43-4.741 8.783-7.295 13.046-2.654 4.441-5.441 8.794-8.361 13.057-6.651 9.726-13.946 18.975-21.829 27.658-.033.033-.056.067-.089.1-4.164 4.586-8.494 9.027-12.98 13.29-3.253 3.098-6.584 6.118-9.993 9.038-.622.533-1.244 1.066-1.876 1.577-8.516 7.184-17.532 13.812-26.947 19.841l-55.605-4.053-11.814-.866-11.825-.866-13.002-.944-5.552-.411v.555c0 4.819-3.908 8.716-8.716 8.716h-62.522c-4.808 0-8.705-3.897-8.705-8.716v-.555l-97.808 7.15c-9.415-6.04-18.431-12.669-26.947-19.852-.633-.511-1.255-1.044-1.876-1.577-3.409-2.92-6.74-5.94-9.993-9.038-4.486-4.264-8.816-8.705-12.98-13.29-.033-.033-.056-.067-.089-.1-7.883-8.683-15.167-17.921-21.818-27.636-2.92-4.264-5.707-8.627-8.372-13.08-2.554-4.264-4.985-8.616-7.295-13.046-7.628-14.634-13.89-30.101-18.598-46.222v-179.148h18.598l51.241 73.669 7.095 10.204 17.032 24.494 7.095 10.193 17.032 24.494 7.095 10.193 15.567 22.395 1.466 2.11 5.196 7.461 1.921 2.765 13.168 18.942 4.841 6.951 7.828 11.259 30.589 43.98h.011v-102.94c0-4.819 3.897-8.716 8.705-8.716h62.522c4.808 0 8.716 3.897 8.716 8.716v102.948l30.6-43.991 7.828-11.259 4.841-6.951 13.168-18.942 1.921-2.765 5.196-7.461 1.466-2.11 15.567-22.384 7.095-10.204 17.032-24.494 7.095-10.193 17.032-24.494 7.095-10.193 51.23-73.669.011-.011z" fill="#f0a037"/><path d="m204.698 427.882h11.335v42.336h-11.335z" fill="#e09132"/><path d="m295.977 427.882h11.335v42.336h-11.335z" fill="#e09132"/><path d="m445.659 427.943c-.033.033-.055.067-.089.1-4.164 4.586-8.494 9.027-12.98 13.29-3.253 3.098-6.584 6.118-9.993 9.038-.622.533-1.244 1.066-1.876 1.577h-329.442c-.633-.511-1.255-1.044-1.876-1.577-3.409-2.92-6.74-5.94-9.993-9.038-4.486-4.264-8.816-8.705-12.98-13.29-.033-.033-.056-.067-.089-.1l106.424-72.215 43.269-29.368 29.612-20.097 10.359-7.028 10.359 7.028 29.612 20.097 43.269 29.368z" fill="#e09132"/><path d="m467.487 334.022v66.264c-6.673 9.76-14.001 19.042-21.918 27.758-4.164 4.586-8.494 9.027-12.98 13.29-3.253 3.098-6.584 6.118-9.993 9.038l-66.797-10.948c-5.862-.844-11.747-1.521-17.632-1.976-10.359-.822-20.685-.977-30.856-.167-1.932.155-3.864.344-5.785.566-1.854.211-3.708.466-5.552.755-13.879 2.154-27.325 6.351-39.971 13.346-12.646-6.995-26.092-11.192-39.971-13.346-3.753-.588-7.528-1.022-11.336-1.321-4.597-.366-9.227-.533-13.879-.533-11.47 0-23.072 1.022-34.597 2.676l-66.819 10.948c-3.409-2.92-6.74-5.94-9.993-9.038-4.486-4.264-8.816-8.705-12.98-13.29-7.917-8.716-15.234-17.987-21.907-27.736v-66.286z" fill="#c1bcb4"/><path d="m338.169 421.415v54.05l-18.32-13.324-18.32 13.324v-48.465z" fill="#eb305b"/><path d="m338.169 421.415v22.517c-12.336-.777-24.627-.644-36.64.844v-17.776z" fill="#d62755"/><path d="m475.848 324.451v62.777c-2.654 4.441-5.441 8.794-8.361 13.057-6.673 9.76-14.001 19.042-21.918 27.758-4.164 4.586-8.494 9.027-12.98 13.29l-72.848-11.481c-7.173-.988-14.379-1.754-21.573-2.21-10.415-.655-20.785-.666-30.989.244-1.888.167-3.775.366-5.651.6-1.732.211-3.453.455-5.174.733-.122.011-.255.033-.378.055-13.868 2.221-27.314 6.362-39.971 13.102-12.658-6.74-26.104-10.881-39.971-13.102-.133-.022-.255-.044-.389-.067-3.586-.566-7.195-.999-10.826-1.321-5.485-.489-11.014-.711-16.588-.711-11.914 0-23.983 1.022-35.963 2.676l-72.858 11.483c-4.486-4.264-8.816-8.705-12.98-13.29-7.917-8.716-15.234-17.987-21.907-27.736-2.92-4.264-5.707-8.627-8.372-13.079v-62.777z" fill="#d3cec2"/><path d="m483.143 116.633v257.549c-2.309 4.43-4.741 8.783-7.295 13.046-2.654 4.441-5.441 8.794-8.361 13.057-6.673 9.76-14.001 19.042-21.918 27.758l-89.78-12.902c-16.777-2.409-33.709-2.11-50.186.777-3.231.566-6.44 1.232-9.626 2.01-3.731.888-7.439 1.921-11.103 3.087-9.96 3.153-19.63 7.306-28.868 12.424-12.646-6.995-26.104-12.191-39.971-15.522-.011 0-.011 0-.011 0-3.187-.766-6.395-1.432-9.626-1.999-9.071-1.588-18.276-2.398-27.525-2.398-7.55 0-15.122.533-22.662 1.621l-89.78 12.902c-7.917-8.716-15.234-17.987-21.907-27.736-2.92-4.264-5.707-8.627-8.372-13.079-2.554-4.264-4.985-8.616-7.295-13.046v-257.549l13.668-1.965 113.685-16.333c34.375-4.941 69.406 1.488 99.795 18.298 9.238-5.119 18.909-9.271 28.868-12.424 22.761-7.239 47-9.316 70.916-5.874l113.685 16.333z" fill="#e9e4d8"/><path d="m284.874 104.209v316.806c-9.96 3.153-19.63 7.306-28.868 12.424v-316.806c9.237-5.118 18.908-9.271 28.868-12.424z" fill="#e2ded3"/><g fill="#1e3160"><path d="m217.087 138.34v11.447c-12.613-3.287-25.593-4.941-38.639-4.941-7.317 0-14.678.533-21.862 1.566l-87.437 12.558v-11.214l85.85-12.336c7.706-1.11 15.6-1.677 23.45-1.677 13.023 0 26.002 1.555 38.638 4.597z"/><path d="m217.087 176.501v11.447c-12.613-3.287-25.593-4.941-38.639-4.941-7.317 0-14.678.522-21.862 1.554l-87.438 12.559v-11.214l85.85-12.325c7.706-1.121 15.6-1.677 23.45-1.677 13.024.001 26.003 1.544 38.639 4.597z"/><path d="m217.087 214.652v11.447c-12.613-3.287-25.593-4.941-38.639-4.941-7.317 0-14.678.522-21.862 1.566l-87.438 12.546v-11.214l85.85-12.325c7.706-1.11 15.6-1.677 23.45-1.677 13.024.001 26.003 1.544 38.639 4.598z"/><path d="m217.087 252.802v11.447c-12.613-3.287-25.593-4.941-38.639-4.941-7.317 0-14.678.533-21.862 1.566l-87.437 12.547v-11.203l85.85-12.336c7.706-1.11 15.6-1.677 23.45-1.677 13.023.001 26.002 1.555 38.638 4.597z"/><path d="m217.087 290.964v11.436c-12.613-3.275-25.593-4.941-38.639-4.941-7.317 0-14.678.533-21.862 1.566l-87.437 12.558v-11.214l85.85-12.336c7.706-1.11 15.6-1.677 23.45-1.677 13.023 0 26.002 1.554 38.638 4.608z"/><path d="m217.087 329.114v11.447c-12.613-3.287-25.593-4.941-38.639-4.941-7.317 0-14.678.522-21.862 1.566l-87.437 12.547v-11.214l85.85-12.325c7.706-1.11 15.6-1.677 23.45-1.677 13.023.001 26.002 1.544 38.638 4.597z"/><path d="m217.087 367.265v11.447c-12.613-3.287-25.593-4.941-38.639-4.941-7.317 0-14.678.522-21.862 1.566l-87.437 12.547v-11.214l85.85-12.325c7.706-1.11 15.6-1.677 23.45-1.677 13.023 0 26.002 1.543 38.638 4.597z"/><path d="m294.913 138.34v11.447c12.613-3.287 25.593-4.941 38.639-4.941 7.317 0 14.678.533 21.862 1.566l87.437 12.558v-11.214l-85.85-12.336c-7.706-1.11-15.6-1.677-23.45-1.677-13.023 0-26.002 1.555-38.638 4.597z"/><path d="m294.913 176.501v11.447c12.613-3.287 25.593-4.941 38.639-4.941 7.317 0 14.678.522 21.862 1.554l87.437 12.558v-11.214l-85.85-12.325c-7.706-1.121-15.6-1.677-23.45-1.677-13.023.002-26.002 1.545-38.638 4.598z"/><path d="m294.913 214.652v11.447c12.613-3.287 25.593-4.941 38.639-4.941 7.317 0 14.678.522 21.862 1.566l87.437 12.547v-11.214l-85.85-12.325c-7.706-1.11-15.6-1.677-23.45-1.677-13.023 0-26.002 1.543-38.638 4.597z"/><path d="m294.913 252.802v11.447c12.613-3.287 25.593-4.941 38.639-4.941 7.317 0 14.678.533 21.862 1.566l87.437 12.547v-11.203l-85.85-12.336c-7.706-1.11-15.6-1.677-23.45-1.677-13.023.001-26.002 1.555-38.638 4.597z"/><path d="m294.913 290.964v11.436c12.613-3.275 25.593-4.941 38.639-4.941 7.317 0 14.678.533 21.862 1.566l87.437 12.558v-11.214l-85.85-12.336c-7.706-1.11-15.6-1.677-23.45-1.677-13.023 0-26.002 1.554-38.638 4.608z"/><path d="m294.913 329.114v11.447c12.613-3.287 25.593-4.941 38.639-4.941 7.317 0 14.678.522 21.862 1.566l87.437 12.547v-11.214l-85.85-12.325c-7.706-1.11-15.6-1.677-23.45-1.677-13.023.001-26.002 1.544-38.638 4.597z"/><path d="m294.913 367.265v11.447c12.613-3.287 25.593-4.941 38.639-4.941 7.317 0 14.678.522 21.862 1.566l87.437 12.547v-11.214l-85.85-12.325c-7.706-1.11-15.6-1.677-23.45-1.677-13.023 0-26.002 1.543-38.638 4.597z"/></g></svg>