<?xml version="1.0" encoding="iso-8859-1"?>
<!-- Generator: Adobe Illustrator 19.0.0, SVG Export Plug-In . SVG Version: 6.00 Build 0)  -->
<svg xmlns="http://www.w3.org/2000/svg" xmlns:xlink="http://www.w3.org/1999/xlink" version="1.1" id="Layer_1" x="0px" y="0px" viewBox="0 0 512 512" style="enable-background:new 0 0 512 512;" xml:space="preserve">
<path style="fill:#EB305B;" d="M512,256c0,80.653-37.296,152.591-95.587,199.513c-6.962,5.596-14.212,10.848-21.74,15.7  c-39.96,25.804-87.571,40.782-138.667,40.782c-26.026,0-51.13-3.886-74.791-11.103c-7.572-2.309-14.989-4.952-22.24-7.928  C65.697,454.735,0,363.046,0,256C0,114.612,114.618,0.006,256.006,0.006C397.382,0.006,512,114.612,512,256z"/>
<g>
	<path style="fill:#E9E4D8;" d="M160.207,372.25v16.721h-34.164c-9.638,0-18.62-4.297-24.671-11.803   c-6.04-7.495-8.338-17.199-6.284-26.614l11.192-51.496l6.673-30.678l16.344,3.553l-5.896,27.125l-11.969,55.061   c-0.966,4.441,0.111,9.016,2.965,12.558c2.854,3.542,7.095,5.574,11.647,5.574L160.207,372.25L160.207,372.25z"/>
	<rect x="360.32" y="200.445" style="fill:#E9E4D8;" width="15.522" height="189.153"/>
	<rect x="194.139" y="200.445" style="fill:#E9E4D8;" width="15.522" height="189.153"/>
	<path style="fill:#E9E4D8;" d="M416.413,455.513c-6.962,5.596-14.212,10.848-21.74,15.7l-1.488-22.728   c-0.622-9.427-8.438-16.755-17.887-16.755H202.533c-9.449,0-17.265,7.328-17.887,16.755l-3.431,52.407   c-7.572-2.309-14.989-4.952-22.24-7.928l5.241-80.076l1.21-18.509h10.637v-5.585h230.946v5.585h5.407l1.21,18.509L416.413,455.513z   "/>
</g>
<g>
	<polygon style="fill:#D3CEC2;" points="129.296,271.933 123.401,299.058 106.279,299.058 112.952,268.38  "/>
	<polygon style="fill:#D3CEC2;" points="413.626,412.888 164.216,412.888 165.426,394.379 176.063,394.379 176.063,388.794    407.009,388.794 407.009,394.379 412.416,394.379  "/>
	<rect x="194.139" y="200.445" style="fill:#D3CEC2;" width="15.522" height="38.917"/>
	<rect x="360.32" y="200.445" style="fill:#D3CEC2;" width="15.522" height="38.917"/>
</g>
<path style="fill:#F0A037;" d="M415.502,394.379H162.332c-6.452,0-11.682-5.231-11.682-11.682v-4.17  c0-6.452,5.231-11.682,11.682-11.682h253.171c6.452,0,11.682,5.231,11.682,11.682v4.17  C427.185,389.148,421.954,394.379,415.502,394.379z"/>
<path style="fill:#E09132;" d="M180.258,382.696v-4.17c0-6.452,5.231-11.682,11.682-11.682H162.33  c-6.452,0-11.682,5.231-11.682,11.682v4.17c0,6.452,5.231,11.682,11.682,11.682h29.609  C185.487,394.379,180.258,389.148,180.258,382.696z"/>
<path style="fill:#F0A037;" d="M276.248,278.33H81.756c-7.358,0-13.324-5.966-13.324-13.324v-4.757  c0-7.358,5.966-13.324,13.324-13.324h194.492c7.358,0,13.324,5.966,13.324,13.324v4.757  C289.572,272.364,283.606,278.33,276.248,278.33z"/>
<path style="fill:#E09132;" d="M94.34,265.006v-4.757c0-7.358,5.966-13.324,13.324-13.324H81.756  c-7.358,0-13.324,5.966-13.324,13.324v4.757c0,7.358,5.966,13.324,13.324,13.324h25.907C100.305,278.33,94.34,272.364,94.34,265.006  z"/>
<path style="fill:#F0A037;" d="M389.597,220.127H188.237c-15.05,0-26.761-13.078-25.105-28.038l11.787-106.504  c1.417-12.796,12.231-22.481,25.105-22.481h177.785c12.875,0,23.69,9.684,25.105,22.481l11.787,106.504  C416.358,207.048,404.647,220.127,389.597,220.127z"/>
<path style="fill:#E09132;" d="M177.195,192.089l11.787-106.504c1.417-12.796,12.231-22.481,25.105-22.481h-14.064  c-12.875,0-23.69,9.684-25.105,22.481l-11.787,106.504c-1.655,14.959,10.055,28.038,25.105,28.038h14.064  C187.25,220.127,175.54,207.048,177.195,192.089z"/>
<rect x="104.259" y="202.144" style="fill:#E9E4D8;" width="138.989" height="44.79"/>
<rect x="121.246" y="155.722" style="fill:#778EB2;" width="138.989" height="44.79"/>
<rect x="156.277" y="167.091" style="fill:#52C3DD;" width="68.94" height="22.04"/>
<g>
	<rect x="141.41" y="155.722" style="fill:#32AACE;" width="5.932" height="44.79"/>
	<rect x="234.143" y="155.722" style="fill:#32AACE;" width="5.932" height="44.79"/>
</g>
<g>
	<rect x="104.259" y="216.267" style="fill:#D8D2C5;" width="138.989" height="2.373"/>
	<rect x="104.259" y="206.83" style="fill:#D8D2C5;" width="138.989" height="2.373"/>
	<rect x="104.259" y="211.548" style="fill:#D8D2C5;" width="138.989" height="2.373"/>
	<rect x="104.259" y="220.986" style="fill:#D8D2C5;" width="138.989" height="2.373"/>
	<rect x="104.259" y="230.424" style="fill:#D8D2C5;" width="138.989" height="2.373"/>
	<rect x="104.259" y="225.705" style="fill:#D8D2C5;" width="138.989" height="2.373"/>
	<rect x="104.259" y="235.143" style="fill:#D8D2C5;" width="138.989" height="2.373"/>
	<rect x="104.259" y="239.862" style="fill:#D8D2C5;" width="138.989" height="2.373"/>
</g>
<g>
	<rect x="99.429" y="243.514" style="fill:#666666;" width="149.515" height="3.408"/>
	<rect x="99.429" y="200.501" style="fill:#666666;" width="149.515" height="3.408"/>
</g>
<path style="fill:#E9E4D8;" d="M254.935,134.73c0,0.772-0.023,1.554-0.071,2.349c-0.036,0.783-0.095,1.578-0.19,2.373  c-0.071,0.783-0.178,1.567-0.309,2.337c-0.131,0.795-0.284,1.59-0.463,2.373c-0.178,0.783-0.392,1.578-0.628,2.349  c-0.238,0.807-0.522,1.59-0.818,2.373c-0.415,1.056-0.89,2.089-1.436,3.109l-133.68,1.352c0.854-1.448,1.613-2.942,2.278-4.461  c0.368-0.783,0.688-1.578,0.985-2.373c0.296-0.772,0.557-1.567,0.807-2.349c0.249-0.783,0.474-1.578,0.665-2.373  c0.202-0.772,0.38-1.554,0.534-2.337s0.284-1.578,0.392-2.373c0.107-0.783,0.202-1.567,0.261-2.349  c0.071-0.783,0.119-1.578,0.142-2.373c0.023-0.783,0.023-1.554,0.012-2.337c-0.012-0.795-0.048-1.59-0.119-2.373  c-0.048-0.783-0.131-1.567-0.238-2.349c-0.094-0.795-0.213-1.59-0.368-2.373c-0.142-0.795-0.309-1.578-0.499-2.349  c-0.19-0.795-0.403-1.59-0.641-2.373c-0.225-0.783-0.486-1.567-0.772-2.337c-0.284-0.795-0.593-1.59-0.937-2.373  c-0.724-1.685-1.554-3.334-2.492-4.936h128.032c0,0,3.797,0.261,5.803,4.936c0.119,0.284,0.238,0.593,0.344,0.914  c0.142,0.415,0.296,0.902,0.475,1.459c0.202,0.676,0.427,1.471,0.664,2.337c0.19,0.736,0.392,1.531,0.582,2.373  c0.178,0.736,0.344,1.531,0.499,2.349c0.154,0.759,0.296,1.554,0.427,2.373c0.119,0.759,0.238,1.542,0.332,2.349  c0.095,0.772,0.178,1.567,0.238,2.373c0.059,0.759,0.119,1.542,0.142,2.337C254.923,133.14,254.946,133.923,254.935,134.73z"/>
<g>
	<path style="fill:#D8D2C5;" d="M254.176,125.297H123.059c-0.094-0.795-0.213-1.59-0.368-2.373h131.058   C253.903,123.683,254.045,124.478,254.176,125.297z"/>
	<path style="fill:#D8D2C5;" d="M252.004,115.864H120.78c-0.284-0.795-0.593-1.59-0.937-2.373h131.343   c0.119,0.284,0.238,0.593,0.344,0.914C251.672,114.819,251.826,115.305,252.004,115.864z"/>
	<path style="fill:#D8D2C5;" d="M253.25,120.574H122.192c-0.19-0.795-0.403-1.59-0.641-2.373h131.117   C252.859,118.936,253.06,119.731,253.25,120.574z"/>
	<path style="fill:#D8D2C5;" d="M254.745,130.019H123.414c-0.012-0.795-0.048-1.59-0.119-2.373h131.212   C254.602,128.417,254.685,129.212,254.745,130.019z"/>
	<path style="fill:#D8D2C5;" d="M254.864,137.08H122.999c-0.107,0.795-0.238,1.59-0.392,2.373h132.067L254.864,137.08z"/>
	<path style="fill:#D8D2C5;" d="M254.887,132.356H123.403c-0.023,0.795-0.071,1.59-0.142,2.373h131.675L254.887,132.356z"/>
	<path style="fill:#D8D2C5;" d="M254.366,141.79c-0.131,0.795-0.284,1.59-0.463,2.373H121.409c0.249-0.783,0.474-1.578,0.665-2.373   H254.366z"/>
	<path style="fill:#D8D2C5;" d="M253.274,146.513c-0.238,0.807-0.522,1.59-0.818,2.373H119.618c0.368-0.783,0.688-1.578,0.985-2.373   H253.274z"/>
</g>
<path style="fill:#55C6A1;" d="M249.43,155.717c-0.046,0-0.091-0.001-0.137-0.004H110.438v-4.747h137.614  c6.802-12.469,6.804-27.574,0.006-40.04H110.438v-4.747H249.43c0.123,0,0.245,0.01,0.366,0.029c0.703,0.11,1.329,0.531,1.69,1.144  c8.554,14.555,8.551,32.639-0.01,47.194C251.042,155.284,250.256,155.717,249.43,155.717z"/>
<g>
</g>
<g>
</g>
<g>
</g>
<g>
</g>
<g>
</g>
<g>
</g>
<g>
</g>
<g>
</g>
<g>
</g>
<g>
</g>
<g>
</g>
<g>
</g>
<g>
</g>
<g>
</g>
<g>
</g>
</svg>
