<svg enable-background="new 0 0 512 512" viewBox="0 0 512 512" xmlns="http://www.w3.org/2000/svg"><path d="m512 256c0 141.388-114.618 255.994-255.994 255.994-5.74 0-11.436-.189-17.077-.566-60.834-3.997-115.861-29.257-157.731-68.407-37.007-34.586-63.732-80.043-75.102-131.273-3.998-17.942-6.096-36.606-6.096-55.748 0-141.388 114.618-255.994 256.006-255.994 61.4 0 117.76 21.629 161.873 57.681 2.476 2.01 4.896 4.075 7.284 6.184 53.25 46.9 86.837 115.584 86.837 192.129z" fill="#f0a037"/><path d="m349.728 254.029h64.127v116.571h-64.127z" fill="#32aace" transform="matrix(-.7071 .7071 -.7071 -.7071 872.5991 263.1872)"/><path d="m138.157 298.603c-24.105 24.116-24.105 63.344 0 87.46l-56.959 56.959c-37.007-34.586-63.732-80.043-75.102-131.273 6.051-35.008 22.595-68.551 49.631-95.587l92.289-92.278 82.43 82.43z" fill="#32aace"/><path d="m275.791 160.968-45.345 45.345-82.43-82.43 45.334-45.345z" fill="#eb305b"/><path d="m400.336 376.203-92.289 92.289c-20.119 20.13-43.857 34.442-69.117 42.936-60.834-3.997-115.861-29.257-157.731-68.407l56.959-56.959c24.116 24.105 63.344 24.105 87.46 0l92.289-92.289z" fill="#eb305b"/><path d="m387.437 130.713c-5.375-.124-10.749-.173-16.124-.188-1.306.001-2.611.014-3.917.021 2.101-2.288 4.209-4.568 6.303-6.862 8.589-9.492 17.113-19.049 25.481-28.762 8.41-9.672 16.619-19.543 24.74-29.503 8.088-9.993 16.056-20.106 23.63-30.613-10.507 7.573-20.62 15.542-30.612 23.63-9.961 8.121-19.831 16.331-29.503 24.74-9.713 8.367-19.271 16.891-28.762 25.481-9.451 8.629-18.865 17.297-28.135 26.107l-20.232 19.228 28.761 1.36c5.375.254 10.749.41 16.124.536 5.375.117 10.749.164 16.124.17 1.362-.003 2.725-.018 4.087-.027-1.558 1.711-3.126 3.412-4.679 5.126-8.002 8.9-15.935 17.869-23.714 26.993-7.822 9.08-15.445 18.36-22.979 27.728-7.502 9.4-14.888 18.916-21.881 28.826 9.91-6.993 19.426-14.379 28.826-21.881 9.368-7.535 18.648-15.157 27.728-22.979 9.123-7.779 18.093-15.712 26.993-23.714 8.868-8.033 17.687-16.117 26.377-24.33l20.29-19.178-28.799-1.366c-5.378-.253-10.752-.419-16.127-.543z" fill="#42577f"/></svg>