<?xml version="1.0" encoding="iso-8859-1"?>
<!-- Generator: Adobe Illustrator 19.0.0, SVG Export Plug-In . SVG Version: 6.00 Build 0)  -->
<svg xmlns="http://www.w3.org/2000/svg" xmlns:xlink="http://www.w3.org/1999/xlink" version="1.1" id="Layer_1" x="0px" y="0px" viewBox="0 0 512 512" style="enable-background:new 0 0 512 512;" xml:space="preserve">
<path style="fill:#F0A037;" d="M512,256c0,141.388-114.618,255.994-255.994,255.994c-5.74,0-11.436-0.189-17.077-0.566  c-60.834-3.997-115.861-29.257-157.731-68.407c-37.007-34.586-63.732-80.043-75.102-131.273C2.098,293.806,0,275.142,0,256  C0,114.612,114.618,0.006,256.006,0.006c61.4,0,117.76,21.629,161.873,57.681c2.476,2.01,4.896,4.075,7.284,6.184  C478.413,110.771,512,179.455,512,256z"/>
<g>
	
		<rect x="349.728" y="254.029" transform="matrix(-0.7071 0.7071 -0.7071 -0.7071 872.5991 263.1872)" style="fill:#32AACE;" width="64.127" height="116.571"/>
	<path style="fill:#32AACE;" d="M138.157,298.603c-24.105,24.116-24.105,63.344,0,87.46l-56.959,56.959   c-37.007-34.586-63.732-80.043-75.102-131.273c6.051-35.008,22.595-68.551,49.631-95.587l92.289-92.278l82.43,82.43   L138.157,298.603z"/>
</g>
<g>
	<polygon style="fill:#EB305B;" points="275.791,160.968 230.446,206.313 148.016,123.883 193.35,78.538  "/>
	<path style="fill:#EB305B;" d="M400.336,376.203l-92.289,92.289c-20.119,20.13-43.857,34.442-69.117,42.936   c-60.834-3.997-115.861-29.257-157.731-68.407l56.959-56.959c24.116,24.105,63.344,24.105,87.46,0l92.289-92.289L400.336,376.203z"/>
</g>
<path style="fill:#42577F;" d="M387.437,130.713c-5.375-0.124-10.749-0.173-16.124-0.188c-1.306,0.001-2.611,0.014-3.917,0.021  c2.101-2.288,4.209-4.568,6.303-6.862c8.589-9.492,17.113-19.049,25.481-28.762c8.41-9.672,16.619-19.543,24.74-29.503  c8.088-9.993,16.056-20.106,23.63-30.613c-10.507,7.573-20.62,15.542-30.612,23.63c-9.961,8.121-19.831,16.331-29.503,24.74  c-9.713,8.367-19.271,16.891-28.762,25.481c-9.451,8.629-18.865,17.297-28.135,26.107l-20.232,19.228l28.761,1.36  c5.375,0.254,10.749,0.41,16.124,0.536c5.375,0.117,10.749,0.164,16.124,0.17c1.362-0.003,2.725-0.018,4.087-0.027  c-1.558,1.711-3.126,3.412-4.679,5.126c-8.002,8.9-15.935,17.869-23.714,26.993c-7.822,9.08-15.445,18.36-22.979,27.728  c-7.502,9.4-14.888,18.916-21.881,28.826c9.91-6.993,19.426-14.379,28.826-21.881c9.368-7.535,18.648-15.157,27.728-22.979  c9.123-7.779,18.093-15.712,26.993-23.714c8.868-8.033,17.687-16.117,26.377-24.33l20.29-19.178l-28.799-1.366  C398.186,131.003,392.812,130.837,387.437,130.713z"/>
<g>
</g>
<g>
</g>
<g>
</g>
<g>
</g>
<g>
</g>
<g>
</g>
<g>
</g>
<g>
</g>
<g>
</g>
<g>
</g>
<g>
</g>
<g>
</g>
<g>
</g>
<g>
</g>
<g>
</g>
</svg>
