<svg enable-background="new 0 0 512 512" viewBox="0 0 512 512" xmlns="http://www.w3.org/2000/svg"><path d="m512 256c0 42.458-10.337 82.508-28.635 117.76-5.407 10.426-11.514 20.43-18.265 29.956-31.444 44.424-76.678 78.399-129.496 95.643-.6.2-1.199.4-1.799.588-3.364 1.066-6.762 2.076-10.182 3.009-5.763 1.577-11.614 2.953-17.532 4.13-.011 0-.011 0-.022 0-16.188 3.22-32.932 4.908-50.064 4.908-.966 0-1.932 0-2.887-.022-11.381-.122-22.584-.988-33.554-2.554-3.031-.433-6.051-.922-9.06-1.466-7.106-1.266-14.112-2.831-21.007-4.686-38.406-10.304-73.236-29.312-102.271-54.783-3.386-2.976-6.695-6.029-9.915-9.182-10.226-9.96-19.619-20.774-28.069-32.332-30.966-42.325-49.242-94.509-49.242-150.969 0-141.388 114.618-255.994 256.006-255.994 141.376 0 255.994 114.606 255.994 255.994z" fill="#42577f"/><path d="m348.273 44.618c-7.939 8.916-14.101 19.131-18.276 30.101-4.175 10.981-6.373 22.706-6.373 34.642v393.596c-5.763 1.577-11.614 2.953-17.532 4.13-.011 0-.011 0-.022 0-16.188 3.22-32.932 4.908-50.064 4.908-12.369 0-24.538-.877-36.441-2.576-10.226-1.454-20.263-3.52-30.067-6.151v-473.661h152.036c7.794 0 11.913 9.204 6.739 15.011z" fill="#5ea8d1"/><path d="m219.565 29.607v479.812c-10.226-1.454-20.263-3.52-30.067-6.151v-473.661z" fill="#4f99ba"/><g fill="#e9e4d8"><path d="m207.785 324.623h35.387v10.004h-35.387z"/><path d="m207.785 300.396h35.387v10.004h-35.387z"/><path d="m207.785 276.158h58.466v10.004h-58.466z"/><path d="m207.785 251.931h35.387v10.004h-35.387z"/><path d="m207.785 227.692h35.387v10.004h-35.387z"/><path d="m207.785 203.465h58.466v10.004h-58.466z"/><path d="m207.785 179.227h35.387v10.004h-35.387z"/><path d="m207.785 155h35.387v10.004h-35.387z"/><path d="m207.785 130.762h58.466v10.004h-58.466z"/><path d="m207.785 106.535h35.387v10.004h-35.387z"/><path d="m207.785 82.297h35.387v10.004h-35.387z"/><path d="m207.785 58.07h58.466v10.004h-58.466z"/></g><path d="m483.365 373.76c-35.241 67.896-99.995 118.004-177.273 133.327-23.683-20.83-38.75-51.297-38.75-84.984 0-39.716 20.408-74.647 51.308-94.91 14.157-9.282 22.706-25.038 22.706-41.959v-79.199h78.788v79.199c0 16.866 8.461 32.643 22.584 41.881 17.498 11.437 31.643 27.592 40.637 46.645z" fill="#e6e6e6"/><path d="m358.221 206.025v79.21c0 16.921-4.885 32.688-12.98 41.97-17.676 20.252-29.346 55.194-29.346 94.899 0 30.012 6.84 57.47 17.909 77.844-9.027 2.876-18.276 5.263-27.713 7.139-.011 0-.011 0-.022 0-23.672-20.841-38.728-51.297-38.728-84.984 0-39.705 20.408-74.647 51.308-94.899 14.157-9.282 22.706-25.049 22.706-41.97v-79.21z" fill="#ccc"/><path d="m434.009 193.103c0 7.139-5.795 12.925-12.933 12.925h-80.654c-3.573 0-6.805-1.449-9.137-3.788-2.341-2.332-3.788-5.563-3.788-9.137 0-7.139 5.786-12.925 12.925-12.925h80.654c3.573 0 6.805 1.449 9.145 3.788 2.339 2.332 3.788 5.563 3.788 9.137z" fill="#ccc"/><path d="m341.356 206.03h78.788v17.265h-78.788z" fill="#ccc"/><path d="m434.009 193.103c0 7.139-5.795 12.925-12.933 12.925h-49.503c-3.573 0-6.804-1.449-9.137-3.788-2.339-2.332-3.788-5.563-3.788-9.137 0-7.139 5.786-12.925 12.925-12.925h49.503c3.573 0 6.805 1.449 9.145 3.788 2.339 2.332 3.788 5.563 3.788 9.137z" fill="#e6e6e6"/><path d="m465.1 403.716c-31.444 44.424-76.678 78.399-129.496 95.643-27.014-15.889-44.934-45.534-44.368-78.788.044-2.82.222-5.607.522-8.35.711-6.362 6.062-11.203 12.458-11.148 6.706.044 13.402 2.287 18.953 6.706h.011c11.236 8.96 27.158 8.96 38.384 0 5.607-4.475 12.402-6.717 19.186-6.717s13.579 2.243 19.197 6.717c5.618 4.486 12.391 6.717 19.197 6.717 6.773 0 13.568-2.232 19.186-6.717 5.607-4.475 12.402-6.717 19.186-6.717h.111c2.81.012 5.419 1 7.473 2.654z" fill="#a35895"/><path d="m287.039 362.024c7.617 16.155 11.88 34.198 11.88 53.24 0 38.983-17.843 73.792-45.801 96.709-11.381-.122-22.584-.988-33.554-2.554-10.226-1.454-20.263-3.52-30.067-6.151-38.406-10.304-73.236-29.312-102.271-54.783-14.123-12.391-26.87-26.314-37.984-41.515 1.044-16.022 5.13-31.222 11.647-45.023l-.056.056-.011-.056-42.313-131.04 41.959-13.546 30.867 95.598 2.154 6.662-.022.033c6.584-5.552 13.746-10.437 21.396-14.545 10.015-5.385 16.222-15.9 16.222-27.28v-79.188h85.705v79.199c0 11.436 6.307 21.918 16.377 27.347 7.583 4.086 14.678 8.938 21.218 14.434l33.021-102.26 41.959 13.546z" fill="#77d7ed"/><path d="m334.458 240.483c-.807 0-1.63-.124-2.439-.386l-52.135-16.832c-4.17-1.347-6.46-5.819-5.114-9.99 1.346-4.17 5.818-6.463 9.99-5.113l52.135 16.832c4.17 1.347 6.46 5.819 5.114 9.99-1.085 3.361-4.2 5.499-7.551 5.499z" fill="#5ec2d3"/><path d="m153.534 212.92v78.499c0 15.056-7.073 29.179-18.975 38.395-20.197 15.644-49.276 47.155-49.276 98.951 0 6.928.688 13.501 1.943 19.719-14.123-12.391-26.87-26.314-37.984-41.515 1.044-16.022 5.13-31.222 11.647-45.023l-42.38-131.039h13.601l35.797 101.072c2.965 8.394 14.534 9.171 18.598 1.244l6.962-13.568.011-.011c6.584-5.54 13.735-10.426 21.385-14.534 10.015-5.385 16.222-15.9 16.222-27.28v-79.188z" fill="#5ec2d3"/><path d="m13.423 240.483c-3.351 0-6.465-2.138-7.55-5.499-1.346-4.17.943-8.643 5.114-9.99l52.136-16.832c4.17-1.347 8.644.943 9.99 5.113s-.943 8.643-5.114 9.99l-52.136 16.832c-.812.262-1.633.386-2.44.386z" fill="#5ec2d3"/><path d="m231.663 187.2c0 6.753-5.475 12.229-12.229 12.229h-90.989c-3.373 0-6.435-1.365-8.649-3.579s-3.579-5.277-3.579-8.649c0-6.753 5.475-12.229 12.229-12.229h90.989c3.373 0 6.435 1.365 8.649 3.579s3.579 5.277 3.579 8.649z" fill="#5ec2d3"/><path d="m231.663 187.2c0 6.753-5.475 12.229-12.229 12.229h-56.072c-3.373 0-6.435-1.365-8.649-3.579s-3.579-5.277-3.579-8.649c0-6.753 5.475-12.229 12.229-12.229h56.072c3.373 0 6.435 1.365 8.649 3.579s3.579 5.277 3.579 8.649z" fill="#77d7ed"/><path d="m131.084 198.636h85.705v14.284h-85.705z" fill="#5ec2d3"/><path d="m273.526 415.264c0 26.459-10.259 51.363-28.902 70.15-9.86 9.937-21.462 17.543-34.12 22.539-7.106-1.266-14.112-2.831-21.007-4.686-38.406-10.304-73.236-29.312-102.271-54.783-3.386-2.976-6.695-6.029-9.915-9.182-1.954-7.783-2.965-15.844-2.965-24.038 0-18.687 5.218-36.574 14.612-51.929 9.316-2.665 19.619-.822 27.569 5.507l.011.011c11.192 8.916 27.07 8.916 38.261 0h.011c11.192-8.927 27.07-8.927 38.261-.011v.011c11.203 8.916 27.081 8.916 38.273 0 5.607-4.463 12.369-6.706 19.131-6.706 2.842 0 5.696.4 8.45 1.199 9.383 15.355 14.601 33.242 14.601 51.918z" fill="#eb305b"/><circle cx="108.689" cy="415.669" fill="#77d7ed" r="11.506"/><circle cx="147.195" cy="131.539" fill="#fff" r="11.506"/><circle cx="411.45" cy="140.422" fill="#a35895" r="11.506"/><circle cx="387.711" cy="92.234" fill="#a35895" r="17.909"/><circle cx="190.53" cy="146.517" fill="#fff" r="5.754"/><circle cx="163.105" cy="77.498" fill="#fff" r="18.92"/><circle cx="225.894" cy="439.341" fill="#77d7ed" r="11.506"/><circle cx="156.899" cy="448.012" fill="#77d7ed" r="6.546"/><circle cx="190.031" cy="409.718" fill="#77d7ed" r="6.349"/><path d="m60.819 361.95.071-.008-.056.063z" fill="#77d7ed"/><path d="m254.382 319.621 11.833 10.746 38.09-110.305-16.902-2.707z" fill="#5ec2d3"/></svg>