<?xml version="1.0" encoding="iso-8859-1"?>
<!-- Generator: Adobe Illustrator 19.0.0, SVG Export Plug-In . SVG Version: 6.00 Build 0)  -->
<svg xmlns="http://www.w3.org/2000/svg" xmlns:xlink="http://www.w3.org/1999/xlink" version="1.1" id="Layer_1" x="0px" y="0px" viewBox="0 0 512 512" style="enable-background:new 0 0 512 512;" xml:space="preserve">
<path style="fill:#42577F;" d="M512,256c0,42.458-10.337,82.508-28.635,117.76c-5.407,10.426-11.514,20.43-18.265,29.956  c-31.444,44.424-76.678,78.399-129.496,95.643c-0.6,0.2-1.199,0.4-1.799,0.588c-3.364,1.066-6.762,2.076-10.182,3.009  c-5.763,1.577-11.614,2.953-17.532,4.13c-0.011,0-0.011,0-0.022,0c-16.188,3.22-32.932,4.908-50.064,4.908  c-0.966,0-1.932,0-2.887-0.022c-11.381-0.122-22.584-0.988-33.554-2.554c-3.031-0.433-6.051-0.922-9.06-1.466  c-7.106-1.266-14.112-2.831-21.007-4.686c-38.406-10.304-73.236-29.312-102.271-54.783c-3.386-2.976-6.695-6.029-9.915-9.182  c-10.226-9.96-19.619-20.774-28.069-32.332C18.276,364.644,0,312.46,0,256C0,114.612,114.618,0.006,256.006,0.006  C397.382,0.006,512,114.612,512,256z"/>
<path style="fill:#5EA8D1;" d="M348.273,44.618c-7.939,8.916-14.101,19.131-18.276,30.101c-4.175,10.981-6.373,22.706-6.373,34.642  v393.596c-5.763,1.577-11.614,2.953-17.532,4.13c-0.011,0-0.011,0-0.022,0c-16.188,3.22-32.932,4.908-50.064,4.908  c-12.369,0-24.538-0.877-36.441-2.576c-10.226-1.454-20.263-3.52-30.067-6.151V29.607h152.036  C349.328,29.607,353.447,38.811,348.273,44.618z"/>
<path style="fill:#4F99BA;" d="M219.565,29.607v479.812c-10.226-1.454-20.263-3.52-30.067-6.151V29.607  C189.498,29.607,219.565,29.607,219.565,29.607z"/>
<g>
	<rect x="207.785" y="324.623" style="fill:#E9E4D8;" width="35.387" height="10.004"/>
	<rect x="207.785" y="300.396" style="fill:#E9E4D8;" width="35.387" height="10.004"/>
	<rect x="207.785" y="276.158" style="fill:#E9E4D8;" width="58.466" height="10.004"/>
	<rect x="207.785" y="251.931" style="fill:#E9E4D8;" width="35.387" height="10.004"/>
	<rect x="207.785" y="227.692" style="fill:#E9E4D8;" width="35.387" height="10.004"/>
	<rect x="207.785" y="203.465" style="fill:#E9E4D8;" width="58.466" height="10.004"/>
	<rect x="207.785" y="179.227" style="fill:#E9E4D8;" width="35.387" height="10.004"/>
	<rect x="207.785" y="155" style="fill:#E9E4D8;" width="35.387" height="10.004"/>
	<rect x="207.785" y="130.762" style="fill:#E9E4D8;" width="58.466" height="10.004"/>
	<rect x="207.785" y="106.535" style="fill:#E9E4D8;" width="35.387" height="10.004"/>
	<rect x="207.785" y="82.297" style="fill:#E9E4D8;" width="35.387" height="10.004"/>
	<rect x="207.785" y="58.07" style="fill:#E9E4D8;" width="58.466" height="10.004"/>
</g>
<path style="fill:#E6E6E6;" d="M483.365,373.76c-35.241,67.896-99.995,118.004-177.273,133.327  c-23.683-20.83-38.75-51.297-38.75-84.984c0-39.716,20.408-74.647,51.308-94.91c14.157-9.282,22.706-25.038,22.706-41.959v-79.199  h78.788v79.199c0,16.866,8.461,32.643,22.584,41.881C460.226,338.552,474.371,354.707,483.365,373.76z"/>
<g>
	<path style="fill:#CCCCCC;" d="M358.221,206.025v79.21c0,16.921-4.885,32.688-12.98,41.97   c-17.676,20.252-29.346,55.194-29.346,94.899c0,30.012,6.84,57.47,17.909,77.844c-9.027,2.876-18.276,5.263-27.713,7.139   c-0.011,0-0.011,0-0.022,0c-23.672-20.841-38.728-51.297-38.728-84.984c0-39.705,20.408-74.647,51.308-94.899   c14.157-9.282,22.706-25.049,22.706-41.97v-79.21L358.221,206.025L358.221,206.025z"/>
	<path style="fill:#CCCCCC;" d="M434.009,193.103c0,7.139-5.795,12.925-12.933,12.925h-80.654c-3.573,0-6.805-1.449-9.137-3.788   c-2.341-2.332-3.788-5.563-3.788-9.137c0-7.139,5.786-12.925,12.925-12.925h80.654c3.573,0,6.805,1.449,9.145,3.788   C432.56,186.298,434.009,189.529,434.009,193.103z"/>
	<rect x="341.356" y="206.03" style="fill:#CCCCCC;" width="78.788" height="17.265"/>
</g>
<path style="fill:#E6E6E6;" d="M434.009,193.103c0,7.139-5.795,12.925-12.933,12.925h-49.503c-3.573,0-6.804-1.449-9.137-3.788  c-2.339-2.332-3.788-5.563-3.788-9.137c0-7.139,5.786-12.925,12.925-12.925h49.503c3.573,0,6.805,1.449,9.145,3.788  C432.56,186.298,434.009,189.529,434.009,193.103z"/>
<path style="fill:#A35895;" d="M465.1,403.716c-31.444,44.424-76.678,78.399-129.496,95.643  c-27.014-15.889-44.934-45.534-44.368-78.788c0.044-2.82,0.222-5.607,0.522-8.35c0.711-6.362,6.062-11.203,12.458-11.148  c6.706,0.044,13.402,2.287,18.953,6.706h0.011c11.236,8.96,27.158,8.96,38.384,0c5.607-4.475,12.402-6.717,19.186-6.717  c6.784,0,13.579,2.243,19.197,6.717c5.618,4.486,12.391,6.717,19.197,6.717c6.773,0,13.568-2.232,19.186-6.717  c5.607-4.475,12.402-6.717,19.186-6.717h0.111C460.437,401.074,463.046,402.062,465.1,403.716z"/>
<path style="fill:#77D7ED;" d="M287.039,362.024c7.617,16.155,11.88,34.198,11.88,53.24c0,38.983-17.843,73.792-45.801,96.709  c-11.381-0.122-22.584-0.988-33.554-2.554c-10.226-1.454-20.263-3.52-30.067-6.151c-38.406-10.304-73.236-29.312-102.271-54.783  c-14.123-12.391-26.87-26.314-37.984-41.515c1.044-16.022,5.13-31.222,11.647-45.023l-0.056,0.056l-0.011-0.056L18.509,230.907  l41.959-13.546l30.867,95.598l2.154,6.662l-0.022,0.033c6.584-5.552,13.746-10.437,21.396-14.545  c10.015-5.385,16.222-15.9,16.222-27.28v-79.188h85.705v79.199c0,11.436,6.307,21.918,16.377,27.347  c7.583,4.086,14.678,8.938,21.218,14.434l33.021-102.26l41.959,13.546L287.039,362.024z"/>
<g>
	<path style="fill:#5EC2D3;" d="M334.458,240.483c-0.807,0-1.63-0.124-2.439-0.386l-52.135-16.832   c-4.17-1.347-6.46-5.819-5.114-9.99c1.346-4.17,5.818-6.463,9.99-5.113l52.135,16.832c4.17,1.347,6.46,5.819,5.114,9.99   C340.924,238.345,337.809,240.483,334.458,240.483z"/>
	<path style="fill:#5EC2D3;" d="M153.534,212.92v78.499c0,15.056-7.073,29.179-18.975,38.395   c-20.197,15.644-49.276,47.155-49.276,98.951c0,6.928,0.688,13.501,1.943,19.719c-14.123-12.391-26.87-26.314-37.984-41.515   c1.044-16.022,5.13-31.222,11.647-45.023L18.509,230.907H32.11l35.797,101.072c2.965,8.394,14.534,9.171,18.598,1.244l6.962-13.568   l0.011-0.011c6.584-5.54,13.735-10.426,21.385-14.534c10.015-5.385,16.222-15.9,16.222-27.28v-79.188L153.534,212.92z"/>
	<path style="fill:#5EC2D3;" d="M13.423,240.483c-3.351,0-6.465-2.138-7.55-5.499c-1.346-4.17,0.943-8.643,5.114-9.99l52.136-16.832   c4.17-1.347,8.644,0.943,9.99,5.113c1.346,4.17-0.943,8.643-5.114,9.99l-52.136,16.832   C15.051,240.359,14.23,240.483,13.423,240.483z"/>
	<path style="fill:#5EC2D3;" d="M231.663,187.2c0,6.753-5.475,12.229-12.229,12.229h-90.989c-3.373,0-6.435-1.365-8.649-3.579   s-3.579-5.277-3.579-8.649c0-6.753,5.475-12.229,12.229-12.229h90.989c3.373,0,6.435,1.365,8.649,3.579   C230.298,180.765,231.663,183.828,231.663,187.2z"/>
</g>
<path style="fill:#77D7ED;" d="M231.663,187.2c0,6.753-5.475,12.229-12.229,12.229h-56.072c-3.373,0-6.435-1.365-8.649-3.579  c-2.214-2.214-3.579-5.277-3.579-8.649c0-6.753,5.475-12.229,12.229-12.229h56.072c3.373,0,6.435,1.365,8.649,3.579  C230.298,180.765,231.663,183.828,231.663,187.2z"/>
<rect x="131.084" y="198.636" style="fill:#5EC2D3;" width="85.705" height="14.284"/>
<path style="fill:#EB305B;" d="M273.526,415.264c0,26.459-10.259,51.363-28.902,70.15c-9.86,9.937-21.462,17.543-34.12,22.539  c-7.106-1.266-14.112-2.831-21.007-4.686c-38.406-10.304-73.236-29.312-102.271-54.783c-3.386-2.976-6.695-6.029-9.915-9.182  c-1.954-7.783-2.965-15.844-2.965-24.038c0-18.687,5.218-36.574,14.612-51.929c9.316-2.665,19.619-0.822,27.569,5.507l0.011,0.011  c11.192,8.916,27.07,8.916,38.261,0h0.011c11.192-8.927,27.07-8.927,38.261-0.011v0.011c11.203,8.916,27.081,8.916,38.273,0  c5.607-4.463,12.369-6.706,19.131-6.706c2.842,0,5.696,0.4,8.45,1.199C268.308,378.701,273.526,396.588,273.526,415.264z"/>
<circle style="fill:#77D7ED;" cx="108.689" cy="415.669" r="11.506"/>
<circle style="fill:#FFFFFF;" cx="147.195" cy="131.539" r="11.506"/>
<g>
	<circle style="fill:#A35895;" cx="411.45" cy="140.422" r="11.506"/>
	<circle style="fill:#A35895;" cx="387.711" cy="92.234" r="17.909"/>
</g>
<g>
	<circle style="fill:#FFFFFF;" cx="190.53" cy="146.517" r="5.754"/>
	<circle style="fill:#FFFFFF;" cx="163.105" cy="77.498" r="18.92"/>
</g>
<g>
	<circle style="fill:#77D7ED;" cx="225.894" cy="439.341" r="11.506"/>
	<circle style="fill:#77D7ED;" cx="156.899" cy="448.012" r="6.546"/>
	<circle style="fill:#77D7ED;" cx="190.031" cy="409.718" r="6.349"/>
	<polygon style="fill:#77D7ED;" points="60.819,361.95 60.89,361.942 60.834,362.005  "/>
</g>
<polygon style="fill:#5EC2D3;" points="254.382,319.621 266.215,330.367 304.305,220.062 287.403,217.355 "/>
<g>
</g>
<g>
</g>
<g>
</g>
<g>
</g>
<g>
</g>
<g>
</g>
<g>
</g>
<g>
</g>
<g>
</g>
<g>
</g>
<g>
</g>
<g>
</g>
<g>
</g>
<g>
</g>
<g>
</g>
</svg>
