<svg enable-background="new 0 0 512 512" viewBox="0 0 512 512" xmlns="http://www.w3.org/2000/svg"><path d="m512 256c0 26.248-3.953 51.585-11.303 75.424v.011c-5.84 18.986-13.835 37.029-23.694 53.839-44.435 75.812-126.776 126.72-220.997 126.72-13.302 0-26.37-1.01-39.128-2.976-122.812-18.83-216.878-124.932-216.878-253.018 0-141.388 114.618-255.994 256.006-255.994 141.376 0 255.994 114.606 255.994 255.994z" fill="#55c6a1"/><path d="m420.132 217.794c0 3.953-.122 7.872-.355 11.769h-78.477c1.022 17.11 4.23 33.887 9.504 49.953-8.294-.666-16.621-1.01-24.938-1.022-4.519-15.844-7.261-32.244-8.15-48.932h-76.712v60.268c-7.928 2.165-15.778 4.652-23.539 7.461v-67.729h-76.712c-2.465 46.611-19.475 91.013-48.776 127.253-5.674-5.596-10.992-11.514-15.944-17.765 24.471-31.511 38.783-69.572 41.137-109.488h-82.961c-.233-3.897-.344-7.817-.344-11.769 0-3.953.111-7.872.344-11.769h82.963c-2.354-39.916-16.666-77.977-41.137-109.488 4.952-6.251 10.27-12.169 15.944-17.754 29.301 36.252 46.311 80.642 48.776 127.242h76.712v-183.246c3.897-.233 7.817-.355 11.769-.355 3.953 0 7.872.122 11.769.355v183.247h76.712c2.465-46.6 19.475-90.99 48.787-127.242 5.674 5.585 10.992 11.503 15.933 17.754-24.46 31.511-38.772 69.572-41.137 109.488h78.477c.233 3.897.355 7.816.355 11.769z" fill="#c9621c"/><g fill="#fc842b"><path d="m382.437 96.536c.766-.966 1.521-1.932 2.298-2.887 24.915 31.167 40.66 69.983 43.136 112.375h-8.094-78.477c2.365-39.915 16.677-77.977 41.137-109.488z"/><path d="m419.777 229.563h8.094c-1.266 21.651-5.985 42.359-13.635 61.6-20.763-6.051-42.025-9.926-63.432-11.647-5.274-16.066-8.483-32.843-9.504-49.953z"/><path d="m325.867 278.495c-.2 0-.4 0-.6 0-28.369 0-56.737 3.775-84.262 11.336v-60.268h76.712c.888 16.688 3.631 33.088 8.15 48.932z"/><path d="m368.803 75.973c-.777.933-1.543 1.865-2.298 2.809-29.312 36.252-46.322 80.642-48.787 127.242h-76.712v-183.246-3.608c49.697 2.898 94.498 24.027 127.797 56.803z"/><path d="m76.034 96.536c24.471 31.511 38.783 69.572 41.137 109.488h-82.962-3.597c2.476-42.392 18.22-81.208 43.136-112.375.776.955 1.531 1.921 2.286 2.887z"/><path d="m76.034 339.052c-.755.966-1.51 1.932-2.287 2.887-24.915-31.167-40.66-69.983-43.136-112.375h3.597 82.963c-2.353 39.915-16.665 77.977-41.137 109.488z"/><path d="m217.466 229.563v67.729c-43.202 15.578-83.629 40.837-117.805 75.79l-.022.011-9.96-13.479c.777-.933 1.543-1.865 2.298-2.798 29.301-36.241 46.311-80.642 48.776-127.253z"/><path d="m217.466 22.778v183.247h-76.712c-2.465-46.6-19.475-90.99-48.776-127.242-.755-.944-1.521-1.876-2.298-2.809 33.298-32.777 78.1-53.906 127.786-56.804z"/></g><path d="m500.864 331.535-.167-.1s-1.521 4.075-3.919 10.126c-4.819 12.202-13.179 32.477-19.775 43.713-44.435 75.812-126.776 126.72-220.997 126.72-13.302 0-26.37-1.01-39.128-2.976-44.979-16.322-86.927-43.147-121.935-80.498-5.352-5.696-10.537-11.636-15.544-17.832-1.754-2.165-2.631-4.797-2.631-7.428s.877-5.263 2.631-7.428c6.462-7.983 13.213-15.567 20.241-22.739l.022-.011c34.176-34.953 74.602-60.212 117.805-75.79 7.761-2.809 15.611-5.296 23.539-7.461 27.525-7.561 55.893-11.336 84.262-11.336h.6c8.316.011 16.644.355 24.938 1.021 21.407 1.721 42.669 5.596 63.432 11.647 21.607 6.296 42.669 14.923 62.766 25.915 2.798 1.521 5.585 3.098 8.338 4.719.355.211.7.411 1.055.622 1.266.744 2.52 1.51 3.775 2.276 1.266.766 2.532 1.554 3.797 2.354.444.289.899.566 1.355.866.844.533 1.677 1.077 2.52 1.621.955.622 1.91 1.255 2.854 1.888.066.044.121.077.166.111z" fill="#99460e"/><path d="m496.778 341.561c-4.819 12.202-13.179 32.477-19.775 43.713-44.435 75.812-126.776 126.72-220.997 126.72-13.302 0-26.37-1.01-39.128-2.976-44.979-16.322-86.927-43.147-121.935-80.498.422-.955.977-1.865 1.654-2.698 6.606-8.172 13.524-15.933 20.718-23.283l.022-.011c34.986-35.785 76.368-61.645 120.603-77.589 7.939-2.876 15.977-5.418 24.094-7.639 28.18-7.739 57.226-11.603 86.26-11.603h.622c8.505.011 17.032.366 25.526 1.044 21.918 1.765 43.68 5.729 64.931 11.925 19.687 5.741 38.918 13.357 57.405 22.895z" fill="#aa5013"/><path d="m441.746 334.96c-87.722-15.97-148.927-15.969-236.648 0l2.538 13.941c60.184-10.955 171.389-10.955 231.573 0z" fill="#723307"/><path d="m207.629 364.881c-2.105 0-3.974-1.502-4.365-3.646l-6.671-36.645c-.44-2.413 1.161-4.726 3.574-5.165 2.412-.435 4.727 1.16 5.165 3.574l6.671 36.645c.44 2.414-1.161 4.726-3.575 5.165-.268.049-.535.072-.799.072z" fill="#ccc"/><path d="m323.422 354.427c-2.453 0-4.441-1.989-4.441-4.441v-37.247c0-2.453 1.989-4.441 4.441-4.441s4.441 1.989 4.441 4.441v37.247c0 2.453-1.989 4.441-4.441 4.441z" fill="#ccc"/><path d="m284.682 355.589c-2.332 0-4.287-1.818-4.429-4.175l-2.233-37.18c-.147-2.448 1.719-4.552 4.168-4.699 2.429-.144 4.552 1.718 4.699 4.167l2.233 37.18c.147 2.448-1.72 4.552-4.168 4.699-.09.005-.18.008-.27.008z" fill="#ccc"/><path d="m362.161 355.589c-.09 0-.18-.002-.27-.008-2.448-.147-4.315-2.251-4.168-4.699l2.232-37.18c.148-2.449 2.288-4.311 4.699-4.167 2.448.147 4.315 2.251 4.168 4.699l-2.232 37.18c-.141 2.358-2.098 4.175-4.429 4.175z" fill="#ccc"/><path d="m246.049 359.074c-2.216 0-4.133-1.655-4.405-3.911l-4.457-36.979c-.293-2.435 1.443-4.648 3.878-4.941 2.443-.292 4.648 1.443 4.941 3.878l4.457 36.979c.293 2.435-1.443 4.648-3.878 4.941-.178.022-.359.033-.536.033z" fill="#ccc"/><path d="m400.792 359.074c-.177 0-.356-.011-.536-.032-2.435-.293-4.171-2.505-3.878-4.941l4.458-36.98c.294-2.436 2.512-4.171 4.941-3.877 2.435.294 4.171 2.506 3.878 4.941l-4.458 36.979c-.273 2.253-2.189 3.91-4.405 3.91z" fill="#ccc"/><path d="m439.213 364.881c-.264 0-.532-.023-.802-.072-2.413-.44-4.013-2.752-3.574-5.165l6.671-36.645c.44-2.414 2.754-4.01 5.164-3.574 2.414.44 4.014 2.751 3.575 5.165l-6.671 36.645c-.389 2.144-2.259 3.646-4.363 3.646z" fill="#ccc"/><path d="m139.1 338.919c11.081-8.094 22.584-15.378 34.431-21.851v172.388c-11.836-6.462-23.35-13.746-34.431-21.851z" fill="#fff"/><path d="m173.531 317.068v39.649c-11.914 7.639-23.417 16.144-34.431 25.526v-43.325c11.081-8.093 22.584-15.376 34.431-21.85z" fill="#e6e6e6"/><path d="m500.697 331.424v.011c-5.84 18.986-13.835 37.029-23.694 53.839v-68.196c2.798 1.532 5.574 3.098 8.338 4.719.355.211.7.411 1.055.622 1.266.744 2.52 1.51 3.775 2.276 1.266.766 2.532 1.554 3.797 2.354.444.289.899.566 1.355.866.844.533 1.677 1.077 2.52 1.621.955.622 1.91 1.255 2.854 1.888z" fill="#fff"/><path d="m102.082 141.049c-8.583 20.174-13.968 42.048-15.489 64.976h-55.982c2.476-42.392 18.22-81.209 43.136-112.375.777.955 1.532 1.921 2.287 2.887 10.659 13.723 19.387 28.69 26.048 44.512z" fill="#ea7628"/><path d="m101.294 296.36c-6.551 15.156-15.011 29.501-25.26 42.692-.755.966-1.51 1.932-2.287 2.887-24.915-31.167-40.66-69.983-43.136-112.375h55.76c1.144 23.56 6.34 46.055 14.923 66.796z" fill="#ea7628"/><path d="m130.407 345.503c-10.703 8.394-20.985 17.599-30.745 27.58l-.022.011-9.96-13.479c.777-.933 1.543-1.865 2.298-2.798 8.627-10.67 16.188-22.051 22.617-33.987 4.753 7.928 10.038 15.511 15.812 22.673z" fill="#ea7628"/><path d="m217.466 19.17v11.914c-42.592 15.733-78.388 45.479-101.805 83.651-6.661-12.658-14.578-24.694-23.682-35.953-.755-.944-1.521-1.876-2.298-2.809 33.298-32.776 78.099-53.905 127.785-56.803z" fill="#ea7628"/></svg>