<svg enable-background="new 0 0 511.993 511.993" viewBox="0 0 511.993 511.993" xmlns="http://www.w3.org/2000/svg"><circle cx="255.997" cy="255.997" fill="#e9e4d8" r="255.997"/><path d="m57.906 305.7c-8.301 17.55-15.549 43.027-3.026 64.722 11.537 19.981 36.094 30.264 70.198 30.264 14.917 0 31.652-1.962 49.939-5.955-1.139-3.562-2.231-7.218-3.293-10.971-1.12-3.974-2.183-8.004-3.188-12.111-47.201 10.025-82.301 5.209-92.928-13.193-7.344-12.724-1.915-30.15 3.935-42.529z" fill="#f0a037"/><path d="m78.892 272.104 18.985 14.572c3.877-5.045 8.148-10.158 12.762-15.29-3.045-2.92-6.012-5.859-8.885-8.817-2.719-2.796-5.343-5.573-7.86-8.349-5.428 5.975-10.454 11.958-15.002 17.884z" fill="#f0a037"/><path d="m54.88 138.017c16.602-28.723 60.069-37.407 120.147-24.309-1.149 3.571-2.25 7.238-3.303 10.982-1.12 3.964-2.183 8.004-3.188 12.101-47.191-10.024-82.291-5.209-92.928 13.194-10.627 18.411 2.767 51.213 35.042 87.078 2.624 2.92 5.381 5.859 8.253 8.808 2.719 2.796 5.534 5.592 8.425 8.349 8.75 8.415 18.258 16.688 28.454 24.778.383 8.885.986 17.693 1.8 26.358.172 1.819.344 3.629.536 5.428-17.463-12.648-33.366-25.851-47.479-39.398-3.045-2.92-6.012-5.859-8.885-8.817-2.719-2.796-5.343-5.573-7.86-8.349-41.37-45.488-55.597-87.47-39.014-116.203z" fill="#32aace"/><path d="m110.649 237.063c2.624 2.92 5.381 5.859 8.253 8.808 2.719 2.796 5.534 5.592 8.425 8.349 8.75-8.406 18.258-16.688 28.454-24.778.383-8.885.986-17.693 1.8-26.358.172-1.82.354-3.639.536-5.447-17.461 12.656-33.374 25.868-47.468 39.426z" fill="#f0a037"/><path d="m157.583 203.084c-.814 8.664-1.417 17.473-1.8 26.358 6.596-5.246 13.48-10.407 20.632-15.472.124-.087.24-.172.354-.259 1.379-.976 2.767-1.953 4.165-2.91.153-1.839.306-3.667.479-5.486.824-8.742 1.858-17.291 3.102-25.631-7.526 4.797-14.859 9.728-21.944 14.754-.114.077-.23.163-.335.25-1.379.976-2.757 1.962-4.117 2.949-.182 1.809-.364 3.627-.536 5.447z" fill="#eb305b"/><path d="m168.536 136.791c1.005-4.098 2.069-8.138 3.188-12.101 1.053-3.744 2.154-7.41 3.303-10.982 5.065-15.845 10.972-30.024 17.616-42.261l21.035 11.423c-5.745 10.579-10.915 22.91-15.405 36.755-1.226 3.743-2.394 7.601-3.514 11.565-1.063 3.753-2.077 7.582-3.026 11.471-2.901 11.766-5.314 24.136-7.219 37.024-7.526 4.797-14.859 9.728-21.944 14.754-.114.077-.23.163-.335.25-1.379.976-2.757 1.962-4.117 2.949 2.251-21.477 5.726-41.87 10.418-60.847z" fill="#eb305b"/><path d="m155.783 229.442c6.596-5.246 13.48-10.407 20.632-15.472.124-.087.24-.172.354-.259 1.379-.976 2.767-1.953 4.165-2.91-1.168 14.208-1.762 28.79-1.762 43.419 0 14.64.594 29.21 1.762 43.419.153 1.839.306 3.667.479 5.486.814 8.742 1.848 17.291 3.092 25.621 1.915 12.888 4.328 25.257 7.228 37.034.957 3.887 1.963 7.717 3.026 11.47 1.12 3.974 2.288 7.822 3.514 11.566 14.916 45.89 36.631 73.876 57.877 73.876 21.245 0 42.96-27.986 57.886-73.876 4.069 1.187 8.1 2.278 12.093 3.293 3.763.947 7.487 1.829 11.154 2.623-18.718 58.575-47.967 91.894-81.133 91.894s-62.415-33.319-81.133-91.894c-1.139-3.562-2.231-7.218-3.293-10.971-1.12-3.974-2.183-8.004-3.188-12.111-4.691-18.995-8.176-39.389-10.417-60.864-.191-1.8-.364-3.61-.536-5.428-.814-8.665-1.417-17.473-1.8-26.358-.364-8.214-.545-16.487-.545-24.778-.001-8.294.181-16.566.545-24.78z" fill="#eb305b"/><path d="m194.76 131.191c-1.063 3.753-2.077 7.582-3.026 11.471 11.643 3.361 23.562 7.458 35.684 12.245 7.88-4.098 15.807-7.975 23.734-11.613 1.665-.766 3.332-1.522 4.989-2.26-19.704-8.798-39.101-15.97-57.867-21.407-1.226 3.741-2.394 7.6-3.514 11.564z" fill="#32aace"/><path d="m191.734 365.779c.957 3.887 1.963 7.717 3.026 11.47 1.12 3.974 2.288 7.822 3.514 11.566 18.747-5.428 38.153-12.61 57.877-21.418-1.665-.737-3.332-1.493-4.998-2.26-7.928-3.639-15.864-7.516-23.744-11.614-12.122 4.798-24.042 8.896-35.675 12.256z" fill="#f0a037"/><g fill="#eb305b"><path d="m217.173 38.617 16.181 17.635c7.592-6.97 15.261-10.503 22.796-10.503 21.245 0 42.96 27.995 57.886 73.884 4.059-1.187 8.09-2.278 12.083-3.293 3.782-.958 7.506-1.839 11.163-2.634-18.718-58.575-47.967-91.894-81.133-91.894-13.709.003-26.826 5.661-38.976 16.805z"/><path d="m320.565 142.661c2.901 11.766 5.323 24.146 7.228 37.034 7.526 4.788 14.859 9.718 21.934 14.744.114.077.23.163.344.25 1.379.976 2.748 1.962 4.107 2.949-2.241-21.485-5.725-41.868-10.407-60.845-3.85.814-7.765 1.733-11.767 2.748-3.778.956-7.589 1.99-11.439 3.12z"/><path d="m327.795 328.746c-1.915 12.888-4.328 25.267-7.228 37.043 3.848 1.12 7.659 2.154 11.441 3.111 3.983 1.006 7.909 1.924 11.767 2.738 4.682-18.985 8.166-39.379 10.407-60.845-1.359.986-2.729 1.973-4.107 2.949-.114.087-.23.172-.344.249-7.078 5.028-14.412 9.959-21.936 14.755z"/><path d="m331.366 210.791c1.178 14.218 1.771 28.8 1.771 43.429 0 14.64-.594 29.22-1.771 43.429 1.398-.977 2.796-1.953 4.175-2.93.105-.087.23-.173.344-.259 7.152-5.065 14.036-10.225 20.632-15.472.373-8.205.555-16.477.555-24.769s-.182-16.564-.555-24.778c-6.596-5.246-13.48-10.407-20.632-15.472-.114-.087-.24-.172-.344-.259-1.38-.975-2.778-1.952-4.175-2.919z"/></g><path d="m217.662 320.886c12.619 7.286 25.534 14.064 38.479 20.172 1.665.785 3.332 1.561 4.998 2.327 7.985 3.667 15.903 7.046 23.734 10.138 12.13 4.797 24.06 8.895 35.693 12.265 3.848 1.12 7.659 2.154 11.441 3.111 3.983 1.006 7.909 1.924 11.767 2.738 10.005 2.125 19.551 3.6 28.493 4.395l-2.116 23.84c-10.359-.918-21.369-2.643-32.869-5.142-3.667-.794-7.391-1.675-11.154-2.623-3.993-1.015-8.023-2.106-12.093-3.293-18.747-5.428-38.144-12.61-57.886-21.418-1.665-.737-3.332-1.493-4.998-2.26-7.928-3.639-15.864-7.516-23.744-11.614-7.305-3.801-14.562-7.775-21.724-11.91-7.19-4.165-14.265-8.454-21.178-12.868-1.245-8.33-2.278-16.879-3.092-25.621-.172-1.819-.325-3.647-.479-5.486 11.652 8.082 23.993 15.886 36.728 23.249z" fill="#32aace"/><path d="m261.139 165.045c7.985-3.667 15.903-7.046 23.734-10.139 7.315 3.801 14.572 7.784 21.743 11.92 7.19 4.155 14.265 8.454 21.178 12.868 7.526 4.788 14.859 9.718 21.934 14.744.114.077.23.163.344.25 1.379.976 2.748 1.962 4.107 2.949 17.463 12.657 33.376 25.869 47.47 39.417-2.624 2.92-5.371 5.859-8.253 8.818-2.719 2.796-5.534 5.592-8.425 8.349-8.75-8.406-18.258-16.688-28.454-24.778-6.596-5.246-13.48-10.407-20.632-15.472-.114-.087-.24-.172-.344-.259-1.379-.976-2.777-1.953-4.175-2.92-11.662-8.09-23.993-15.883-36.717-23.237-12.638-7.296-25.573-14.074-38.508-20.182 1.665-.786 3.331-1.561 4.998-2.328z" fill="#32aace"/><path d="m181.413 205.315c.824-8.742 1.858-17.291 3.102-25.631 6.913-4.414 13.978-8.713 21.168-12.859 7.162-4.136 14.429-8.129 21.734-11.92 7.88-4.098 15.807-7.975 23.734-11.613 1.665-.766 3.332-1.522 4.989-2.26 19.733-8.798 39.13-15.98 57.896-21.398 4.059-1.187 8.09-2.278 12.083-3.293 3.782-.958 7.506-1.839 11.163-2.634 60.079-13.089 103.556-4.414 120.138 24.309 16.583 28.732 2.355 70.716-39.015 116.203-2.518 2.777-5.142 5.553-7.86 8.349-2.872 2.958-5.84 5.898-8.885 8.817-14.103 13.548-30.015 26.76-47.479 39.408-1.359.986-2.729 1.973-4.107 2.949-.114.087-.23.172-.344.249-7.075 5.026-14.41 9.957-21.934 14.754-6.913 4.414-13.988 8.713-21.178 12.868-7.172 4.136-14.429 8.119-21.744 11.91-7.832-3.092-15.75-6.472-23.734-10.138-1.665-.766-3.332-1.542-4.998-2.327 12.935-6.099 25.869-12.878 38.498-20.172 12.734-7.363 25.066-15.156 36.727-23.237 1.398-.977 2.796-1.953 4.175-2.93.105-.087.23-.173.344-.259 7.152-5.065 14.036-10.225 20.632-15.472 10.196-8.081 19.704-16.353 28.454-24.769 2.891-2.758 5.706-5.553 8.425-8.349 2.882-2.959 5.629-5.898 8.253-8.818 32.275-35.856 45.67-68.667 35.042-87.068-10.637-18.401-45.727-23.218-92.919-13.194-3.85.814-7.765 1.733-11.767 2.748-3.782.958-7.592 1.992-11.441 3.121-11.643 3.361-23.572 7.468-35.693 12.245-7.832 3.092-15.75 6.472-23.734 10.14-1.665.766-3.332 1.542-4.998 2.327-12.944 6.108-25.861 12.886-38.479 20.182-12.734 7.353-25.076 15.166-36.727 23.247.153-1.838.307-3.667.479-5.485z" fill="#f0a037"/><path d="m406.284 375.268 3.954 23.61c22.27-3.724 38.584-13.567 47.182-28.455 16.593-28.732 2.355-70.716-39.015-116.202-2.518 2.777-5.142 5.553-7.86 8.349-2.872 2.958-5.84 5.898-8.885 8.817 32.275 35.856 45.66 68.667 35.032 87.068-4.969 8.616-15.204 14.276-30.408 16.813z" fill="#32aace"/><circle cx="213.016" cy="61.401" fill="#32aace" r="30.465"/><circle cx="78.278" cy="295.669" fill="#eb305b" r="30.465"/><path d="m358.949 388.958c0 16.831 13.644 30.465 30.465 30.465 12.322 0 22.93-7.305 27.727-17.827 1.762-3.848 2.738-8.129 2.738-12.638 0-16.821-13.634-30.465-30.465-30.465-4.509 0-8.789.976-12.638 2.738-10.512 4.798-17.827 15.415-17.827 27.727z" fill="#f0a037"/><path d="m374.038 373.87c0 16.831 13.644 30.466 30.465 30.466 4.509 0 8.789-.977 12.638-2.739 1.762-3.848 2.738-8.129 2.738-12.638 0-16.821-13.634-30.465-30.465-30.465-4.509 0-8.789.976-12.638 2.738-1.761 3.849-2.738 8.128-2.738 12.638z" fill="#f9b462"/><path d="m62.898 280.574c0 16.831 13.644 30.465 30.465 30.465 4.509 0 8.789-.976 12.638-2.738 1.762-3.849 2.738-8.129 2.738-12.638 0-16.821-13.634-30.465-30.465-30.465-4.509 0-8.789.976-12.638 2.738-1.762 3.849-2.738 8.129-2.738 12.638z" fill="#f96b91"/><path d="m197.642 46.316c0 16.831 13.644 30.465 30.465 30.465 4.509 0 8.789-.976 12.638-2.738 1.762-3.848 2.738-8.129 2.738-12.638 0-16.821-13.634-30.465-30.465-30.465-4.509 0-8.789.976-12.638 2.738-1.762 3.85-2.738 8.129-2.738 12.638z" fill="#6acee5"/></svg>