<?xml version="1.0" encoding="iso-8859-1"?>
<!-- Generator: Adobe Illustrator 19.0.0, SVG Export Plug-In . SVG Version: 6.00 Build 0)  -->
<svg xmlns="http://www.w3.org/2000/svg" xmlns:xlink="http://www.w3.org/1999/xlink" version="1.1" id="Layer_1" x="0px" y="0px" viewBox="0 0 512 512" style="enable-background:new 0 0 512 512;" xml:space="preserve">
<path style="fill:#42577F;" d="M512,256c0,115.273-76.19,212.748-180.959,244.814c-11.014,3.386-22.351,6.029-33.953,7.883  c-13.368,2.176-27.103,3.298-41.082,3.298c-49.898,0-96.464-14.279-135.836-38.972c-0.322-0.2-0.644-0.4-0.966-0.611  c-8.816-5.574-17.254-11.681-25.293-18.265C36.585,407.214,0,335.876,0,256C0,114.612,114.618,0.006,256.006,0.006  c106.224,0,197.336,64.698,236.075,156.832C504.916,187.338,512,220.836,512,256z"/>
<polygon style="fill:#F0A037;" points="241.227,451.704 241.227,474.688 187.432,474.688 187.432,462.008 "/>
<path style="fill:#55C6A1;" d="M297.087,473.022v35.674c-13.368,2.176-27.103,3.298-41.082,3.298  c-49.898,0-96.464-14.279-135.836-38.972H297.087z"/>
<path style="fill:#778EB2;" d="M200.767,143.991c-52.229,52.229-81.564,123.067-81.564,196.926v131.495  c-8.816-5.574-17.254-11.681-25.293-18.265v-123.7c0-73.858,29.346-144.696,81.575-196.926l7.406-7.406L200.767,143.991z"/>
<path style="fill:#55C6A1;" d="M298.664,90.052l-75.912,75.912l-21.984-21.973l-17.876-17.876l-0.189-0.189  c-10.481-10.481-15.722-24.216-15.722-37.951c0-13.746,5.241-27.48,15.722-37.962c20.974-20.974,54.961-20.974,75.923,0  L298.664,90.052z"/>
<path style="fill:#41AA84;" d="M220.196,124.563l-17.876-17.876l-0.189-0.189c-10.481-10.481-15.722-24.216-15.722-37.951  c0-9.342,2.427-18.677,7.269-26.991c-3.921,2.283-7.616,5.097-10.975,8.457C172.221,60.496,166.98,74.23,166.98,87.976  c0,13.735,5.241,27.469,15.722,37.951l0.189,0.189l17.876,17.876l21.984,21.973l19.428-19.428L220.196,124.563z"/>
<path style="fill:#55C6A1;" d="M399.703,106.163l-160.851,160.84c-21.185-29.756-26.548-67.318-16.1-101.039l75.912-75.912  C332.384,79.604,369.946,84.967,399.703,106.163z"/>
<path style="fill:#F0A037;" d="M354.484,162.727c16.311,16.311,16.311,42.758,0,59.069c-16.299,16.299-42.747,16.299-59.058,0  L354.484,162.727z"/>
<g>
	<path style="fill:#41AA84;" d="M266.813,239.041c-21.185-29.756-26.548-67.318-16.1-101.039l-27.962,27.962   c-10.448,33.72-5.085,71.282,16.1,101.039L266.813,239.041z"/>
	<path style="fill:#41AA84;" d="M414.459,118.643l-52.029,52.029l-59.058,59.069l-52.029,52.029   c-4.641-4.641-8.805-9.593-12.491-14.767l160.851-160.84C404.877,109.838,409.818,114.002,414.459,118.643z"/>
</g>
<path style="opacity:0.35;fill:#FFFFFF;enable-background:new    ;" d="M512,256c0,115.273-76.19,212.748-180.959,244.814  L251.342,281.77l163.117-163.128l77.622,38.195C504.916,187.338,512,220.836,512,256z"/>
<g>
</g>
<g>
</g>
<g>
</g>
<g>
</g>
<g>
</g>
<g>
</g>
<g>
</g>
<g>
</g>
<g>
</g>
<g>
</g>
<g>
</g>
<g>
</g>
<g>
</g>
<g>
</g>
<g>
</g>
</svg>
