<?xml version="1.0" encoding="iso-8859-1"?>
<!-- Generator: Adobe Illustrator 19.0.0, SVG Export Plug-In . SVG Version: 6.00 Build 0)  -->
<svg xmlns="http://www.w3.org/2000/svg" xmlns:xlink="http://www.w3.org/1999/xlink" version="1.1" id="Layer_1" x="0px" y="0px" viewBox="0 0 512 512" style="enable-background:new 0 0 512 512;" xml:space="preserve">
<path style="fill:#42577F;" d="M512,256c0,65.275-24.438,124.844-64.654,170.067c-46.889,52.718-115.24,85.927-191.341,85.927  c-53.972,0-104.048-16.71-145.34-45.234c-16.932-11.681-32.377-25.36-46.011-40.693C24.438,380.844,0,321.275,0,256  S24.438,131.156,64.654,85.933l0.044-0.044c16.555-18.609,35.797-34.797,57.115-47.932c39.017-24.061,84.984-37.951,134.193-37.951  c49.198,0,95.165,13.89,134.182,37.951c11.114,6.851,21.662,14.523,31.555,22.939c1.899,1.621,3.775,3.253,5.618,4.93  c7.028,6.329,13.701,13.046,19.986,20.108C487.562,131.156,512,190.725,512,256z"/>
<path style="fill:#399974;" d="M447.346,57.953v92.012c0-11.048-8.938-19.986-19.986-19.997V60.895H94.266v65.631l-0.144,0.366  c-17.243-6.64-29.468-23.361-29.468-42.936c0-12.702,5.152-24.205,13.479-32.532c8.316-8.316,19.819-13.468,32.532-13.468H427.35  C438.397,37.956,447.346,46.905,447.346,57.953z"/>
<path style="fill:#55C6A1;" d="M447.346,181.742v244.325c-46.889,52.718-115.24,85.927-191.341,85.927  c-53.972,0-104.048-16.71-145.34-45.234V129.968h284.907C395.583,158.57,418.756,181.742,447.346,181.742z"/>
<path style="fill:#F0A037;" d="M447.346,149.965v31.777c-28.591,0-51.763-23.172-51.774-51.774h31.788  C438.408,129.979,447.346,138.917,447.346,149.965z"/>
<path style="fill:#E9E4D8;" d="M395.572,129.968H110.665c-5.829,0-11.414-1.088-16.544-3.076l0.144-0.366V60.895h333.095v69.073  H395.572z"/>
<path style="fill:#41AA84;" d="M110.665,129.968V466.76c-16.932-11.681-32.377-25.36-46.011-40.693V83.957  c0,0.644,0.011,1.288,0.044,1.932c0.766,18.731,12.746,34.586,29.423,41.004C99.251,128.88,104.836,129.968,110.665,129.968z"/>
<g>
	<rect x="94.266" y="87.304" style="fill:#D8D2C5;" width="333.095" height="5.202"/>
	<rect x="94.266" y="77.422" style="fill:#D8D2C5;" width="333.095" height="5.202"/>
	<rect x="94.266" y="67.546" style="fill:#D8D2C5;" width="333.095" height="5.202"/>
	<rect x="94.266" y="107.057" style="fill:#D8D2C5;" width="333.095" height="5.202"/>
	<rect x="94.266" y="97.175" style="fill:#D8D2C5;" width="333.095" height="5.202"/>
	<rect x="94.266" y="116.927" style="fill:#D8D2C5;" width="333.095" height="5.202"/>
</g>
<rect x="183.791" y="202.222" style="fill:#F0A037;" width="190.43" height="74.391"/>
<path style="fill:#399974;" d="M374.221,191.113h-190.43c-6.129,0-11.103,4.974-11.103,11.103v74.391  c0,6.129,4.974,11.103,11.103,11.103h190.43c6.129,0,11.103-4.974,11.103-11.103v-74.391  C385.324,196.087,380.35,191.113,374.221,191.113z M374.221,276.607h-190.43v-74.391h190.43L374.221,276.607L374.221,276.607z"/>
<g>
	<rect x="203.687" y="245.524" style="fill:#1E3160;" width="150.637" height="11.103"/>
	<rect x="203.687" y="222.208" style="fill:#1E3160;" width="150.637" height="11.103"/>
</g>
<g>
</g>
<g>
</g>
<g>
</g>
<g>
</g>
<g>
</g>
<g>
</g>
<g>
</g>
<g>
</g>
<g>
</g>
<g>
</g>
<g>
</g>
<g>
</g>
<g>
</g>
<g>
</g>
<g>
</g>
</svg>
