<svg enable-background="new 0 0 512 512" viewBox="0 0 512 512" xmlns="http://www.w3.org/2000/svg"><path d="m512 256c0 65.275-24.438 124.844-64.654 170.067-46.889 52.718-115.24 85.927-191.341 85.927-53.972 0-104.048-16.71-145.34-45.234-16.932-11.681-32.377-25.36-46.011-40.693-40.216-45.223-64.654-104.792-64.654-170.067s24.438-124.844 64.654-170.067l.044-.044c16.555-18.609 35.797-34.797 57.115-47.932 39.017-24.061 84.984-37.951 134.193-37.951 49.198 0 95.165 13.89 134.182 37.951 11.114 6.851 21.662 14.523 31.555 22.939 1.899 1.621 3.775 3.253 5.618 4.93 7.028 6.329 13.701 13.046 19.986 20.108 40.215 45.222 64.653 104.791 64.653 170.066z" fill="#42577f"/><path d="m447.346 57.953v92.012c0-11.048-8.938-19.986-19.986-19.997v-69.073h-333.094v65.631l-.144.366c-17.243-6.64-29.468-23.361-29.468-42.936 0-12.702 5.152-24.205 13.479-32.532 8.316-8.316 19.819-13.468 32.532-13.468h316.685c11.047 0 19.996 8.949 19.996 19.997z" fill="#399974"/><path d="m447.346 181.742v244.325c-46.889 52.718-115.24 85.927-191.341 85.927-53.972 0-104.048-16.71-145.34-45.234v-336.792h284.907c.011 28.602 23.184 51.774 51.774 51.774z" fill="#55c6a1"/><path d="m447.346 149.965v31.777c-28.591 0-51.763-23.172-51.774-51.774h31.788c11.048.011 19.986 8.949 19.986 19.997z" fill="#f0a037"/><path d="m395.572 129.968h-284.907c-5.829 0-11.414-1.088-16.544-3.076l.144-.366v-65.631h333.095v69.073z" fill="#e9e4d8"/><path d="m110.665 129.968v336.792c-16.932-11.681-32.377-25.36-46.011-40.693v-342.11c0 .644.011 1.288.044 1.932.766 18.731 12.746 34.586 29.423 41.004 5.13 1.987 10.715 3.075 16.544 3.075z" fill="#41aa84"/><g fill="#d8d2c5"><path d="m94.266 87.304h333.095v5.202h-333.095z"/><path d="m94.266 77.422h333.095v5.202h-333.095z"/><path d="m94.266 67.546h333.095v5.202h-333.095z"/><path d="m94.266 107.057h333.095v5.202h-333.095z"/><path d="m94.266 97.175h333.095v5.202h-333.095z"/><path d="m94.266 116.927h333.095v5.202h-333.095z"/></g><path d="m183.791 202.222h190.43v74.391h-190.43z" fill="#f0a037"/><path d="m374.221 191.113h-190.43c-6.129 0-11.103 4.974-11.103 11.103v74.391c0 6.129 4.974 11.103 11.103 11.103h190.43c6.129 0 11.103-4.974 11.103-11.103v-74.391c0-6.129-4.974-11.103-11.103-11.103zm0 85.494h-190.43v-74.391h190.43z" fill="#399974"/><path d="m203.687 245.524h150.637v11.103h-150.637z" fill="#1e3160"/><path d="m203.687 222.208h150.637v11.103h-150.637z" fill="#1e3160"/></svg>