<?xml version="1.0" encoding="iso-8859-1"?>
<!-- Generator: Adobe Illustrator 19.0.0, SVG Export Plug-In . SVG Version: 6.00 Build 0)  -->
<svg xmlns="http://www.w3.org/2000/svg" xmlns:xlink="http://www.w3.org/1999/xlink" version="1.1" id="Layer_1" x="0px" y="0px" viewBox="0 0 512 512" style="enable-background:new 0 0 512 512;" xml:space="preserve">
<g>
	<path style="fill:#EB305B;" d="M0,256c0,141.388,114.618,255.994,255.994,255.994C397.382,511.994,512,397.388,512,256   S397.382,0.006,255.994,0.006C114.618,0.006,0,114.612,0,256z"/>
	<path style="fill:#EB305B;" d="M329.32,501.333l0.822,0.178c0.022-0.144,0.044-0.289,0.044-0.444   C329.897,501.167,329.608,501.244,329.32,501.333z"/>
</g>
<path style="fill:#F0A037;" d="M109.657,202.831c0,33.628,11.259,64.614,30.206,89.417c29.49,38.6,46.151,85.447,46.151,134.02  v4.055h142.182v-3.602c0-48.121,15.45-95.22,45.098-133.114c20.632-26.361,32.481-59.927,31.153-96.294  c-2.454-67.267-50.417-123.045-113.524-137.99c-10.542-2.507-21.507-3.865-32.754-3.939  C176.25,54.805,109.657,121.04,109.657,202.831z"/>
<g>
	<path style="fill:#F9B35F;" d="M361.909,293.608c20.632-26.361,32.481-59.927,31.153-96.294   c-2.454-67.267-50.416-123.045-113.524-137.99c-9.075-2.157-18.463-3.459-28.075-3.828c2.224-0.083,4.458-0.127,6.706-0.111   c11.249,0.073,22.212,1.432,32.754,3.939c63.108,14.945,111.07,70.723,113.524,137.99c1.327,36.367-10.521,69.932-31.153,96.294   c-29.648,37.894-45.098,84.994-45.098,133.114v3.602h-11.384v-3.602C316.811,378.6,332.261,331.501,361.909,293.608z"/>
	<path style="fill:#F9B35F;" d="M109.657,202.831c0,33.628,11.259,64.614,30.206,89.417c29.49,38.6,46.151,85.447,46.151,134.02   v4.055h35.388c0.38-2.391,0.695-4.844,0.948-7.372c10.174-100.486-65.299-116.905-60.033-231.704S290.923,59.323,290.923,59.323   c-10.542-2.507-21.507-3.865-32.754-3.939C176.25,54.805,109.657,121.04,109.657,202.831z"/>
</g>
<path style="fill:#32AACE;" d="M330.563,422.956v71.249c0,2.321-0.122,4.608-0.378,6.862c0,0.155-0.022,0.3-0.044,0.444  l-0.822-0.178c-11.769,3.52-23.883,6.207-36.296,7.994c-8.294,1.21-16.721,2.01-25.249,2.398c-1.366,0.067-2.731,0.111-4.108,0.144  c-2.543,0.089-5.107,0.122-7.672,0.122c-1.899,0-3.797-0.022-5.685-0.067c-9.415-0.2-18.709-0.91-27.858-2.11  c-0.866-0.111-1.743-0.233-2.62-0.366c-11.669-1.643-23.095-4.086-34.209-7.261c-0.511-0.133-1.01-0.278-1.521-0.433  c-0.022-0.067-0.033-0.144-0.033-0.222c-0.278-2.398-0.422-4.852-0.422-7.328v-71.249L330.563,422.956L330.563,422.956z"/>
<path style="fill:#279CB7;" d="M219.831,509.45c-11.669-1.643-23.095-4.086-34.209-7.261c-0.033-0.122-0.067-0.244-0.089-0.366  c-0.633-2.676-1.099-5.407-1.41-8.183c-0.311-2.62-0.466-5.274-0.477-7.972v-62.711h32.066v62.4c0,2.476,0.122,4.919,0.378,7.328  c0.266,2.765,0.7,5.474,1.288,8.139c0.611,2.865,1.41,5.674,2.365,8.405C219.765,509.305,219.798,509.372,219.831,509.45z"/>
<path style="fill:#4BC6E2;" d="M171.175,446.49c1.317,3.623,4.402,6.52,8.446,7.394l150.06,32.46  c0.832,0.179,1.653,0.263,2.465,0.263c4.834,0,9.237-3.043,10.89-7.647c0.179-0.474,0.316-0.979,0.432-1.496  c1.359-6.267-2.623-12.438-8.878-13.797l-150.06-32.46c-0.832-0.179-1.653-0.263-2.465-0.263c-5.34,0-10.153,3.717-11.322,9.141  C170.259,442.298,170.448,444.509,171.175,446.49z"/>
<path style="fill:#279CB7;" d="M171.175,446.49c1.317,3.623,4.402,6.52,8.446,7.394l150.06,32.46  c0.832,0.179,1.653,0.263,2.465,0.263c4.834,0,9.237-3.043,10.89-7.647c-1.317-3.623-4.402-6.52-8.446-7.394l-150.06-32.46  c-0.832-0.179-1.653-0.263-2.465-0.263C177.231,438.844,172.828,441.887,171.175,446.49z"/>
<path style="fill:#4BC6E2;" d="M340.367,497.758c-3.364,1.177-6.751,2.287-10.182,3.309c0,0.155-0.022,0.3-0.044,0.444l-0.822-0.178  c-11.769,3.52-23.883,6.207-36.296,7.994l-76.934-16.644l-32.443-7.017l-4.019-0.866c-4.053-0.877-7.139-3.775-8.45-7.395  c-0.733-1.987-0.922-4.197-0.433-6.406c1.166-5.429,5.985-9.138,11.325-9.138c0.522,0,1.044,0.033,1.577,0.111  c0.3,0.033,0.588,0.078,0.888,0.144l31.178,6.751l114.851,24.838l4.03,0.877C336.87,495.071,338.846,496.204,340.367,497.758z"/>
<path style="fill:#279CB7;" d="M329.32,501.333c-11.769,3.52-23.883,6.207-36.296,7.994l-76.934-16.644l-32.443-7.017l-4.019-0.866  c-4.053-0.877-7.139-3.775-8.45-7.395c1.654-4.608,6.051-7.65,10.892-7.65c0.522,0,1.044,0.033,1.577,0.111  c0.3,0.044,0.588,0.089,0.888,0.155l31.178,6.74L329.32,501.333z"/>
<path style="fill:#4BC6E2;" d="M267.775,511.726c-1.366,0.067-2.731,0.111-4.108,0.144c-2.543,0.089-5.107,0.122-7.672,0.122  c-1.899,0-3.797-0.022-5.685-0.067c-9.415-0.2-18.709-0.91-27.858-2.11c-0.866-0.111-1.743-0.233-2.62-0.366  c-11.669-1.643-23.095-4.086-34.209-7.261c-0.511-0.133-1.01-0.278-1.521-0.433c-0.433-0.122-0.866-0.255-1.299-0.378  c-3.375-1.01-6.729-2.087-10.048-3.231c2.154-2.909,5.607-4.697,9.316-4.697c0.522,0,1.044,0.033,1.577,0.111  c0.155,0.022,0.322,0.044,0.477,0.078c0.133,0.022,0.278,0.044,0.411,0.078l32.843,7.106L267.775,511.726z"/>
<path style="fill:#279CB7;" d="M219.743,509.228l2.709,0.588c-0.866-0.111-1.743-0.233-2.62-0.366  c-11.669-1.643-23.095-4.086-34.209-7.261c-0.511-0.133-1.01-0.278-1.521-0.433c-0.433-0.122-0.866-0.255-1.299-0.378  c0.422,0.022,0.844,0.067,1.266,0.155c0.155,0.011,0.311,0.044,0.466,0.078l0.999,0.211L219.743,509.228z"/>
<path style="fill:#4D5F82;" d="M244.086,343.154h26.036c12.023,0,21.768,9.746,21.768,21.768v58.028h-69.572v-58.028  C222.319,352.899,232.064,343.154,244.086,343.154z"/>
<g>
	<polygon style="fill:#FFFFFF;" points="268.805,422.95 275.131,422.95 275.131,255.726 322.495,197.142 317.577,193.166    268.805,253.488  "/>
	<polygon style="fill:#FFFFFF;" points="245.404,422.95 239.079,422.95 239.079,255.726 191.714,197.142 196.633,193.166    245.404,253.488  "/>
</g>
<ellipse transform="matrix(0.2688 0.9632 -0.9632 0.2688 421.7466 -220.9581)" style="fill:#F9B35F;" cx="356.405" cy="167.3" rx="40.479" ry="18.341"/>
<g>
</g>
<g>
</g>
<g>
</g>
<g>
</g>
<g>
</g>
<g>
</g>
<g>
</g>
<g>
</g>
<g>
</g>
<g>
</g>
<g>
</g>
<g>
</g>
<g>
</g>
<g>
</g>
<g>
</g>
</svg>
